<?xml version="1.0" encoding="UTF-8" standalone="no"?>
<!-- Created with Inkscape (http://www.inkscape.org/) -->

<svg
   width="179.99977"
   height="251.99976"
   viewBox="0 0 47.624938 66.674935"
   version="1.1"
   id="svg1"
   inkscape:version="1.4 (e7c3feb1, 2024-10-09)"
   sodipodi:docname="All Cards - Diamonds.svg"
   xml:space="preserve"
   inkscape:export-filename="All Cards - Diamonds.png"
   inkscape:export-xdpi="96"
   inkscape:export-ydpi="96"
   inkscape:export-batch-path="Diamonds"
   inkscape:export-batch-name=""
   xmlns:inkscape="http://www.inkscape.org/namespaces/inkscape"
   xmlns:sodipodi="http://sodipodi.sourceforge.net/DTD/sodipodi-0.dtd"
   xmlns="http://www.w3.org/2000/svg"
   xmlns:svg="http://www.w3.org/2000/svg"><sodipodi:namedview
     id="namedview1"
     pagecolor="#ffffff"
     bordercolor="#999999"
     borderopacity="1"
     inkscape:showpageshadow="2"
     inkscape:pageopacity="0"
     inkscape:pagecheckerboard="0"
     inkscape:deskcolor="#d1d1d1"
     inkscape:document-units="px"
     showgrid="true"
     inkscape:zoom="0.69002035"
     inkscape:cx="626.79311"
     inkscape:cy="261.58649"
     inkscape:window-width="1512"
     inkscape:window-height="836"
     inkscape:window-x="0"
     inkscape:window-y="38"
     inkscape:window-maximized="0"
     inkscape:current-layer="layer14"><inkscape:grid
       id="grid2"
       units="px"
       originx="-4.9849223e-06"
       originy="-66.675"
       spacingx="0.26458333"
       spacingy="0.26458333"
       empcolor="#0099e5"
       empopacity="0.30196078"
       color="#0099e5"
       opacity="0.14901961"
       empspacing="5"
       enabled="true"
       visible="true" /></sodipodi:namedview><defs
     id="defs1"><inkscape:path-effect
       effect="fillet_chamfer"
       id="path-effect3-08"
       is_visible="true"
       lpeversion="1"
       nodesatellites_param="F,0,0,1,0,3,0,1 @ F,0,0,1,0,3,0,1 @ F,0,0,1,0,3,0,1 @ F,0,0,1,0,3,0,1"
       radius="0"
       unit="px"
       method="auto"
       mode="F"
       chamfer_steps="1"
       flexible="false"
       use_knot_distance="true"
       apply_no_radius="true"
       apply_with_radius="true"
       only_selected="false"
       hide_knots="false" /></defs><g
     inkscape:groupmode="layer"
     id="layer8"
     inkscape:label="8"
     transform="matrix(0.99998908,0,0,1.0101899,-333.37291,-0.00209528)"
     inkscape:export-filename="Diamonds/8.svg"
     inkscape:export-xdpi="96"
     inkscape:export-ydpi="96"><path
       style="fill:#ffffff;fill-opacity:1;stroke:#000000;stroke-width:0.526494;stroke-linecap:round;stroke-linejoin:round;stroke-dasharray:none;stroke-opacity:1"
       id="rect1-0"
       width="47.098965"
       height="65.475883"
       x="0.26119247"
       y="0.26535115"
       inkscape:path-effect="#path-effect3-08"
       sodipodi:type="rect"
       d="M 3.2611925,0.26535115 H 44.360157 a 3,3 45 0 1 3,2.99999995 V 62.741235 a 3,3 135 0 1 -3,3 H 3.2611925 a 3,3 45 0 1 -3.00000003,-3 V 3.2653511 A 3,3 135 0 1 3.2611925,0.26535115 Z"
       transform="translate(333.37861,-2.9988694e-5)"
       inkscape:label="card" /><path
       style="font-weight:300;font-size:18.2518px;font-family:'SF Pro Rounded';-inkscape-font-specification:'SF Pro Rounded Light';letter-spacing:-7.10767px;word-spacing:0px;fill:#ff0000;stroke:#ff0000;stroke-width:0.526494;stroke-linecap:round;stroke-linejoin:round"
       d="m 355.38127,39.806161 c 2.70925,0 4.58077,-1.541778 4.58077,-3.698485 0,-1.613074 -1.15856,-2.940964 -2.86966,-3.306356 v -0.02674 c 1.46157,-0.418865 2.39733,-1.515042 2.39733,-2.87858 0,-1.942819 -1.71111,-3.359829 -4.10844,-3.359829 -2.38842,0 -4.11735,1.41701 -4.11735,3.359829 0,1.381362 0.93576,2.477539 2.40624,2.87858 v 0.02674 c -1.7111,0.365392 -2.86966,1.68437 -2.86966,3.306356 0,2.147795 1.88043,3.698485 4.58077,3.698485 z m 0,-7.495002 c -1.7022,0 -2.90532,-0.962497 -2.90532,-2.317123 0,-1.381362 1.17639,-2.397331 2.90532,-2.397331 1.73784,0 2.90532,1.015969 2.90532,2.397331 0,1.354626 -1.21204,2.317123 -2.90532,2.317123 z m 0,6.425561 c -1.98738,0 -3.34201,-1.14965 -3.34201,-2.70034 0,-1.541778 1.37245,-2.637955 3.34201,-2.637955 1.97847,0 3.342,1.096177 3.342,2.637955 0,1.55069 -1.35462,2.70034 -3.342,2.70034 z"
       id="text3-8-1-1-3-3-3-1"
       inkscape:label="cente"
       transform="scale(1.0050875,0.99493825)"
       aria-label="8" /><path
       d="m 338.36297,6.9185558 c 0.93329,0 1.55652,-0.5309907 1.55652,-1.2737641 0,-0.5678226 -0.42789,-1.0251499 -1.04182,-1.1387145 v -0.0092 c 0.52091,-0.1289111 0.87748,-0.5156443 0.87748,-0.9913876 0,-0.6660405 -0.57051,-1.1448531 -1.39218,-1.1448531 -0.81857,0 -1.39528,0.4788126 -1.39528,1.1448531 0,0.4910898 0.35347,0.8686152 0.88678,0.9913876 v 0.0092 c -0.61702,0.1135646 -1.04491,0.5708919 -1.04491,1.1387145 0,0.7397041 0.62323,1.2737641 1.55341,1.2737641 z m 0,-2.5168352 c -0.66973,0 -1.15033,-0.3683173 -1.15033,-0.8839616 0,-0.5309909 0.45579,-0.9392093 1.15033,-0.9392093 0.69764,0 1.15033,0.4051491 1.15033,0.9392093 0,0.5156443 -0.4775,0.8839616 -1.15033,0.8839616 z m 0,2.2989142 c -0.79065,0 -1.30536,-0.454258 -1.30536,-1.065051 0,-0.5862384 0.524,-1.0098035 1.30536,-1.0098035 0.78446,0 1.30846,0.4204957 1.30846,1.0098035 0,0.610793 -0.5178,1.065051 -1.30846,1.065051 z"
       id="text1-4-8-9-6-8-60-0"
       style="font-weight:200;font-size:6.31793px;font-family:'SF Pro Rounded';-inkscape-font-specification:'SF Pro Rounded, Ultra-Light';letter-spacing:-7.10767px;word-spacing:0px;fill:#ff0000;stroke:#ff0000;stroke-width:0.526494;stroke-linecap:round;stroke-linejoin:round"
       inkscape:label="top"
       aria-label="8" /><path
       d="m 376.01564,59.087901 c -0.93329,0 -1.55651,0.53099 -1.55651,1.273763 0,0.567824 0.42789,1.025151 1.0418,1.138715 v 0.0093 c -0.5209,0.128911 -0.87747,0.515644 -0.87747,0.991387 0,0.666041 0.57051,1.144854 1.39218,1.144854 0.81856,0 1.39528,-0.478813 1.39528,-1.144854 0,-0.491089 -0.35348,-0.868614 -0.88678,-0.991387 v -0.0093 c 0.61702,-0.113564 1.04491,-0.570891 1.04491,-1.138715 0,-0.739703 -0.62322,-1.273763 -1.55341,-1.273763 z m 0,2.516835 c 0.66973,0 1.15033,0.368317 1.15033,0.883961 0,0.530992 -0.4558,0.93921 -1.15033,0.93921 -0.69764,0 -1.15033,-0.405149 -1.15033,-0.93921 0,-0.515644 0.47749,-0.883961 1.15033,-0.883961 z m 0,-2.298914 c 0.79066,0 1.30536,0.454258 1.30536,1.065051 0,0.586238 -0.52401,1.009803 -1.30536,1.009803 -0.78446,0 -1.30847,-0.420496 -1.30847,-1.009803 0,-0.610793 0.51781,-1.065051 1.30847,-1.065051 z"
       id="text1-4-8-9-6-8-60-0-7"
       style="font-weight:200;font-size:6.31793px;font-family:'SF Pro Rounded';-inkscape-font-specification:'SF Pro Rounded, Ultra-Light';letter-spacing:-7.10767px;word-spacing:0px;fill:#ff0000;stroke:#ff0000;stroke-width:0.526494;stroke-linecap:round;stroke-linejoin:round"
       inkscape:label="bottom"
       aria-label="8" /><path
       d="m 338.3661,14.931195 c 0.12296,0 0.18602,-0.111756 0.31214,-0.331119 l 1.47875,-2.603415 c 0.0631,-0.111755 0.0977,-0.219366 0.0977,-0.339396 0,-0.12003 -0.0346,-0.227643 -0.0977,-0.339396 l -1.47875,-2.6034149 c -0.12612,-0.2193657 -0.18918,-0.331118 -0.31214,-0.331118 -0.12611,0 -0.18917,0.1117522 -0.31529,0.331118 l -1.47875,2.6034149 c -0.063,0.111753 -0.0977,0.219366 -0.0977,0.339396 0,0.12003 0.0346,0.227644 0.0977,0.339396 l 1.47875,2.603415 c 0.12612,0.219366 0.18918,0.331119 0.31529,0.331119 z"
       id="text4-1-5-4-7-7-8-1"
       style="font-weight:300;font-size:7.39837px;line-height:0;font-family:'SF Pro Rounded';-inkscape-font-specification:'SF Pro Rounded Light';letter-spacing:0px;word-spacing:0px;text-orientation:upright;fill:#ff0000;stroke-width:0.526494;stroke-linecap:round"
       inkscape:label="diamond-top"
       aria-label="♦" /><path
       d="m 376.01567,57.623251 c 0.12296,0 0.18602,-0.111755 0.31214,-0.331118 l 1.47874,-2.603415 c 0.063,-0.111756 0.0977,-0.219366 0.0977,-0.339396 0,-0.12003 -0.0346,-0.227643 -0.0977,-0.339395 l -1.47874,-2.603416 c -0.12612,-0.219365 -0.18918,-0.331118 -0.31214,-0.331118 -0.12612,0 -0.18918,0.111755 -0.3153,0.331118 l -1.47874,2.603416 c -0.063,0.111756 -0.0977,0.219365 -0.0977,0.339395 0,0.12003 0.0346,0.227644 0.0977,0.339396 l 1.47874,2.603415 c 0.12612,0.219366 0.18918,0.331118 0.3153,0.331118 z"
       id="text4-5-0-0-0-5-2-0-0"
       style="font-weight:300;font-size:7.39837px;line-height:0;font-family:'SF Pro Rounded';-inkscape-font-specification:'SF Pro Rounded Light';letter-spacing:0px;word-spacing:0px;text-orientation:upright;fill:#ff0000;stroke-width:0.526494;stroke-linecap:round"
       inkscape:label="diamond-bottom"
       aria-label="♦" /></g></svg>
