<?xml version="1.0" encoding="UTF-8" standalone="no"?>
<!-- Created with Inkscape (http://www.inkscape.org/) -->

<svg
   width="179.99977"
   height="251.99976"
   viewBox="0 0 47.624938 66.674935"
   version="1.1"
   id="svg1"
   inkscape:version="1.4 (e7c3feb1, 2024-10-09)"
   sodipodi:docname="All Cards - Spades.svg"
   xml:space="preserve"
   inkscape:export-filename="All Cards - Spades.png"
   inkscape:export-xdpi="96"
   inkscape:export-ydpi="96"
   inkscape:export-batch-path="Spades"
   inkscape:export-batch-name=""
   xmlns:inkscape="http://www.inkscape.org/namespaces/inkscape"
   xmlns:sodipodi="http://sodipodi.sourceforge.net/DTD/sodipodi-0.dtd"
   xmlns="http://www.w3.org/2000/svg"
   xmlns:svg="http://www.w3.org/2000/svg"><sodipodi:namedview
     id="namedview1"
     pagecolor="#ffffff"
     bordercolor="#999999"
     borderopacity="1"
     inkscape:showpageshadow="2"
     inkscape:pageopacity="0"
     inkscape:pagecheckerboard="0"
     inkscape:deskcolor="#d1d1d1"
     inkscape:document-units="px"
     showgrid="true"
     inkscape:zoom="0.69476599"
     inkscape:cx="619.6331"
     inkscape:cy="265.55704"
     inkscape:window-width="1512"
     inkscape:window-height="836"
     inkscape:window-x="0"
     inkscape:window-y="38"
     inkscape:window-maximized="0"
     inkscape:current-layer="layer1"><inkscape:grid
       id="grid2"
       units="px"
       originx="-47.624998"
       originy="-3.5768442e-09"
       spacingx="0.26458333"
       spacingy="0.26458333"
       empcolor="#0099e5"
       empopacity="0.30196078"
       color="#0099e5"
       opacity="0.14901961"
       empspacing="5"
       enabled="true"
       visible="true" /></sodipodi:namedview><defs
     id="defs1"><inkscape:path-effect
       effect="fillet_chamfer"
       id="path-effect3-4"
       is_visible="true"
       lpeversion="1"
       nodesatellites_param="F,0,0,1,0,3,0,1 @ F,0,0,1,0,3,0,1 @ F,0,0,1,0,3,0,1 @ F,0,0,1,0,3,0,1"
       radius="0"
       unit="px"
       method="auto"
       mode="F"
       chamfer_steps="1"
       flexible="false"
       use_knot_distance="true"
       apply_no_radius="true"
       apply_with_radius="true"
       only_selected="false"
       hide_knots="false" /></defs><g
     inkscape:groupmode="layer"
     id="layer2"
     inkscape:label="2"
     transform="matrix(0.99998908,0,0,1.0101899,-47.622914,-0.00209528)"
     inkscape:export-filename="Spades/2.svg"
     inkscape:export-xdpi="96"
     inkscape:export-ydpi="96"><path
       style="fill:#ffffff;fill-opacity:1;stroke:#000000;stroke-width:0.526494;stroke-linecap:round;stroke-linejoin:round;stroke-dasharray:none"
       id="rect1-1"
       width="47.098965"
       height="65.475883"
       x="0.26119247"
       y="0.26535115"
       inkscape:path-effect="#path-effect3-4"
       sodipodi:type="rect"
       d="M 3.2611925,0.26535115 H 44.360157 a 3,3 45 0 1 3,2.99999995 V 62.741235 a 3,3 135 0 1 -3,3 H 3.2611925 a 3,3 45 0 1 -3.00000003,-3 V 3.2653511 A 3,3 135 0 1 3.2611925,0.26535115 Z"
       transform="translate(47.625489,-2.9988694e-5)"
       inkscape:label="card" /><path
       style="font-weight:300;font-size:18.2518px;font-family:'SF Pro Rounded';-inkscape-font-specification:'SF Pro Rounded Light';letter-spacing:-7.10767px;word-spacing:0px;stroke:#000000;stroke-width:0.526494;stroke-linecap:round;stroke-linejoin:round"
       d="m 67.425106,39.703671 h 7.334585 c 0.338657,0 0.570369,-0.213889 0.570369,-0.543633 0,-0.329745 -0.231712,-0.543633 -0.570369,-0.543633 h -6.211672 v -0.03565 L 72.095,34.882272 c 2.165619,-2.245827 2.816196,-3.306356 2.816196,-4.687718 0,-2.058675 -1.657635,-3.555893 -3.93911,-3.555893 -2.424067,0 -3.876725,1.577426 -4.081701,3.065732 -0.01782,0.124768 -0.02674,0.213888 -0.02674,0.320832 0,0.320833 0.204976,0.552545 0.561457,0.552545 0.338656,0 0.481248,-0.17824 0.552544,-0.4456 0.338657,-1.434834 1.381362,-2.424068 3.01226,-2.424068 1.55069,0 2.709252,1.096178 2.709252,2.548836 0,1.131825 -0.481249,1.90717 -2.308211,3.832165 l -4.224294,4.42927 c -0.285184,0.303008 -0.347568,0.418864 -0.347568,0.668401 0,0.320832 0.240624,0.516897 0.606017,0.516897 z"
       id="text3-8"
       inkscape:label="center"
       transform="scale(1.0050875,0.99493825)"
       aria-label="2" /><path
       d="m 51.287514,6.8541088 h 2.663432 c 0.07131,0 0.117825,-0.04297 0.117825,-0.1104953 0,-0.067524 -0.04651,-0.1104952 -0.117825,-0.1104952 h -2.437088 v -0.012277 l 1.385978,-1.448715 C 53.640885,4.4017287 53.87033,4.03955 53.87033,3.5730147 c 0,-0.6967336 -0.573614,-1.212378 -1.34877,-1.212378 -0.753451,0 -1.271254,0.4818819 -1.351871,1.0711897 -0.0062,0.04604 -0.0093,0.076733 -0.0093,0.1104952 0,0.067525 0.0403,0.1166338 0.114723,0.1166338 0.07131,0 0.102319,-0.036832 0.114722,-0.098218 0.07442,-0.5217829 0.468194,-0.9821797 1.141029,-0.9821797 0.620124,0 1.094519,0.4358423 1.094519,1.0036649 0,0.4143569 -0.198439,0.7151495 -0.880576,1.4333683 l -1.519305,1.5899033 c -0.05581,0.058317 -0.07131,0.085941 -0.07131,0.1381189 0,0.070594 0.05581,0.1104953 0.133327,0.1104953 z"
       id="text1-4"
       style="font-weight:200;font-size:6.31793px;font-family:'SF Pro Rounded';-inkscape-font-specification:'SF Pro Rounded, Ultra-Light';letter-spacing:-7.10767px;word-spacing:0px;stroke:#000000;stroke-width:0.526494;stroke-linecap:round;stroke-linejoin:round"
       inkscape:label="top"
       aria-label="2" /><path
       d="m 91.584964,59.152594 h -2.663432 c -0.07131,0 -0.117825,0.04297 -0.117825,0.110495 0,0.06753 0.04651,0.110495 0.117825,0.110495 h 2.437088 v 0.01228 l -1.385978,1.448714 c -0.741049,0.770397 -0.970494,1.132576 -0.970494,1.599112 0,0.696733 0.573614,1.212377 1.34877,1.212377 0.753451,0 1.271255,-0.481881 1.351871,-1.071189 0.0062,-0.04604 0.0093,-0.07673 0.0093,-0.110495 0,-0.06753 -0.0403,-0.116634 -0.114723,-0.116634 -0.07131,0 -0.102319,0.03683 -0.114722,0.09822 -0.07442,0.521784 -0.468194,0.982181 -1.141029,0.982181 -0.620124,0 -1.094519,-0.435843 -1.094519,-1.003665 0,-0.414357 0.198439,-0.71515 0.880576,-1.433369 l 1.519305,-1.589903 c 0.05581,-0.05831 0.07131,-0.08594 0.07131,-0.138119 0,-0.07059 -0.05581,-0.110496 -0.133327,-0.110496 z"
       id="text1-4-2"
       style="font-weight:200;font-size:6.31793px;font-family:'SF Pro Rounded';-inkscape-font-specification:'SF Pro Rounded, Ultra-Light';letter-spacing:-7.10767px;word-spacing:0px;stroke:#000000;stroke-width:0.526494;stroke-linecap:round;stroke-linejoin:round"
       inkscape:label="bottom"
       aria-label="2" /><path
       d="m 50.046515,11.598059 c 0,0.64782 0.4961,1.142393 1.157565,1.142393 0.372955,0 0.74239,-0.128867 0.904238,-0.442329 h 0.02815 c -0.01055,0.365705 -0.397583,0.668718 -0.580541,0.853312 -0.193514,0.195043 -0.0774,0.470192 0.175921,0.470192 h 1.762736 c 0.249809,0 0.365917,-0.275149 0.175922,-0.470192 -0.186478,-0.184594 -0.573505,-0.487607 -0.58406,-0.853312 h 0.02815 c 0.161849,0.313462 0.534802,0.442329 0.907756,0.442329 0.657947,0 1.154047,-0.494573 1.154047,-1.142393 0,-1.215534 -1.653665,-1.7170726 -2.304575,-3.0301281 C 52.819044,8.4634437 52.74516,8.383337 52.61146,8.383337 c -0.130182,0 -0.207587,0.080106 -0.256846,0.1845939 -0.654428,1.3130555 -2.308093,1.8145941 -2.308093,3.0301281 z"
       id="text1-9"
       style="font-weight:300;font-size:7.16928px;line-height:0;font-family:'SF Pro Rounded';-inkscape-font-specification:'SF Pro Rounded Light';letter-spacing:0px;word-spacing:0px;text-orientation:upright;stroke-width:0.526494;stroke-linecap:round"
       inkscape:label="spade-top"
       aria-label="♠" /><path
       d="m 92.825944,54.408532 c 0,-0.647822 -0.496099,-1.142394 -1.157565,-1.142394 -0.372954,0 -0.74239,0.128868 -0.904238,0.442329 h -0.02814 c 0.01055,-0.365705 0.397584,-0.668718 0.580543,-0.853312 0.193513,-0.195042 0.0774,-0.470193 -0.175923,-0.470193 h -1.762735 c -0.249809,0 -0.365917,0.275151 -0.175922,0.470193 0.186477,0.184594 0.573505,0.487607 0.584061,0.853312 h -0.02814 c -0.161848,-0.313461 -0.534802,-0.442329 -0.907757,-0.442329 -0.657946,0 -1.154046,0.494572 -1.154046,1.142394 0,1.215533 1.653664,1.717072 2.304575,3.030127 0.05278,0.104487 0.126663,0.184594 0.260364,0.184594 0.130182,0 0.207588,-0.0801 0.256846,-0.184594 0.654429,-1.313055 2.308093,-1.814594 2.308093,-3.030127 z"
       id="text1-6-2"
       style="font-weight:300;font-size:7.16928px;line-height:0;font-family:'SF Pro Rounded';-inkscape-font-specification:'SF Pro Rounded Light';letter-spacing:0px;word-spacing:0px;text-orientation:upright;stroke-width:0.526494;stroke-linecap:round"
       inkscape:label="spade-bottom"
       aria-label="♠" /></g></svg>
