<?xml version="1.0" encoding="UTF-8" standalone="no"?>
<!-- Created with Inkscape (http://www.inkscape.org/) -->

<svg
   width="179.99976"
   height="251.99976"
   viewBox="0 0 47.624934 66.674935"
   version="1.1"
   id="svg1"
   inkscape:version="1.4 (e7c3feb1, 2024-10-09)"
   sodipodi:docname="All Cards - Spades.svg"
   xml:space="preserve"
   inkscape:export-filename="All Cards - Spades.png"
   inkscape:export-xdpi="96"
   inkscape:export-ydpi="96"
   xmlns:inkscape="http://www.inkscape.org/namespaces/inkscape"
   xmlns:sodipodi="http://sodipodi.sourceforge.net/DTD/sodipodi-0.dtd"
   xmlns="http://www.w3.org/2000/svg"
   xmlns:svg="http://www.w3.org/2000/svg"><sodipodi:namedview
     id="namedview1"
     pagecolor="#ffffff"
     bordercolor="#999999"
     borderopacity="1"
     inkscape:showpageshadow="2"
     inkscape:pageopacity="0"
     inkscape:pagecheckerboard="0"
     inkscape:deskcolor="#d1d1d1"
     inkscape:document-units="px"
     showgrid="true"
     inkscape:zoom="0.61073719"
     inkscape:cx="687.6935"
     inkscape:cy="297.18184"
     inkscape:window-width="1512"
     inkscape:window-height="836"
     inkscape:window-x="0"
     inkscape:window-y="38"
     inkscape:window-maximized="0"
     inkscape:current-layer="layer13"><inkscape:grid
       id="grid2"
       units="px"
       originx="-47.625"
       originy="-3.5768444e-09"
       spacingx="0.26458333"
       spacingy="0.26458333"
       empcolor="#0099e5"
       empopacity="0.30196078"
       color="#0099e5"
       opacity="0.14901961"
       empspacing="5"
       enabled="true"
       visible="true" /><inkscape:page
       x="0"
       y="0"
       width="47.624935"
       height="66.674934"
       id="page2"
       margin="0"
       bleed="0" /></sodipodi:namedview><defs
     id="defs1"><inkscape:path-effect
       effect="fillet_chamfer"
       id="path-effect3-4"
       is_visible="true"
       lpeversion="1"
       nodesatellites_param="F,0,0,1,0,3,0,1 @ F,0,0,1,0,3,0,1 @ F,0,0,1,0,3,0,1 @ F,0,0,1,0,3,0,1"
       radius="0"
       unit="px"
       method="auto"
       mode="F"
       chamfer_steps="1"
       flexible="false"
       use_knot_distance="true"
       apply_no_radius="true"
       apply_with_radius="true"
       only_selected="false"
       hide_knots="false" /></defs><g
     inkscape:groupmode="layer"
     id="layer2"
     inkscape:label="2"
     transform="matrix(0.99998908,0,0,1.0101899,-47.622916,-0.00209528)"
     inkscape:export-filename="No Suit/2.svg"
     inkscape:export-xdpi="96"
     inkscape:export-ydpi="96"><path
       style="fill:#ffffff;fill-opacity:1;stroke:#000000;stroke-width:0.526494;stroke-linecap:round;stroke-linejoin:round;stroke-dasharray:none"
       id="rect1-1"
       width="47.098965"
       height="65.475883"
       x="0.26119247"
       y="0.26535115"
       inkscape:path-effect="#path-effect3-4"
       sodipodi:type="rect"
       d="M 3.2611925,0.26535115 H 44.360157 a 3,3 45 0 1 3,2.99999995 V 62.741235 a 3,3 135 0 1 -3,3 H 3.2611925 a 3,3 45 0 1 -3.00000003,-3 V 3.2653511 A 3,3 135 0 1 3.2611925,0.26535115 Z"
       transform="translate(47.625489,-2.9988694e-5)"
       inkscape:label="card" /><path
       style="font-weight:300;font-size:18.2518px;font-family:'SF Pro Rounded';-inkscape-font-specification:'SF Pro Rounded Light';letter-spacing:-7.10767px;word-spacing:0px;stroke:#000000;stroke-width:0.526494;stroke-linecap:round;stroke-linejoin:round"
       d="m 67.425106,39.703671 h 7.334585 c 0.338657,0 0.570369,-0.213889 0.570369,-0.543633 0,-0.329745 -0.231712,-0.543633 -0.570369,-0.543633 h -6.211672 v -0.03565 L 72.095,34.882272 c 2.165619,-2.245827 2.816196,-3.306356 2.816196,-4.687718 0,-2.058675 -1.657635,-3.555893 -3.93911,-3.555893 -2.424067,0 -3.876725,1.577426 -4.081701,3.065732 -0.01782,0.124768 -0.02674,0.213888 -0.02674,0.320832 0,0.320833 0.204976,0.552545 0.561457,0.552545 0.338656,0 0.481248,-0.17824 0.552544,-0.4456 0.338657,-1.434834 1.381362,-2.424068 3.01226,-2.424068 1.55069,0 2.709252,1.096178 2.709252,2.548836 0,1.131825 -0.481249,1.90717 -2.308211,3.832165 l -4.224294,4.42927 c -0.285184,0.303008 -0.347568,0.418864 -0.347568,0.668401 0,0.320832 0.240624,0.516897 0.606017,0.516897 z"
       id="text3-8"
       inkscape:label="center"
       transform="scale(1.0050875,0.99493825)"
       aria-label="2" /><path
       d="m 49.90893,6.8938098 h 2.649951 c 0.07095,0 0.117228,-0.043189 0.117228,-0.1110574 0,-0.067868 -0.04627,-0.1110573 -0.117228,-0.1110573 h -2.424752 v -0.01234 l 1.378962,-1.4560853 c 0.737298,-0.7743165 0.965582,-1.1383378 0.965582,-1.6072466 0,-0.7002783 -0.570711,-1.218546 -1.341943,-1.218546 -0.749637,0 -1.264819,0.4843335 -1.345028,1.0766394 -0.0062,0.046274 -0.0093,0.077123 -0.0093,0.1110573 0,0.067868 0.0401,0.1172272 0.114142,0.1172272 0.07095,0 0.101802,-0.037019 0.114142,-0.098718 0.07404,-0.5244375 0.465824,-0.9871765 1.135253,-0.9871765 0.616985,0 1.088979,0.4380596 1.088979,1.008771 0,0.416465 -0.197435,0.7187878 -0.876119,1.4406606 l -1.511614,1.5979919 c -0.05553,0.058614 -0.07095,0.086378 -0.07095,0.1388216 0,0.070953 0.05553,0.1110574 0.132652,0.1110574 z"
       id="text1-4"
       style="font-weight:200;font-size:6.31793px;font-family:'SF Pro Rounded';-inkscape-font-specification:'SF Pro Rounded, Ultra-Light';letter-spacing:-7.10767px;word-spacing:0px;stroke:#000000;stroke-width:0.526494;stroke-linecap:round;stroke-linejoin:round"
       inkscape:label="top"
       transform="scale(1.0050875,0.99493825)"
       aria-label="2" /><path
       d="m -92.240381,-59.448509 h 2.649951 c 0.07095,0 0.117228,-0.04319 0.117228,-0.111058 0,-0.06787 -0.04627,-0.111057 -0.117228,-0.111057 h -2.424752 v -0.01234 l 1.378962,-1.456085 c 0.737298,-0.774316 0.965582,-1.138338 0.965582,-1.607247 0,-0.700278 -0.570711,-1.218545 -1.341943,-1.218545 -0.749637,0 -1.26482,0.484333 -1.345028,1.076639 -0.0062,0.04627 -0.0093,0.07712 -0.0093,0.111057 0,0.06787 0.0401,0.117227 0.114142,0.117227 0.07095,0 0.101802,-0.03702 0.114142,-0.09872 0.07404,-0.524438 0.465824,-0.987177 1.135253,-0.987177 0.616985,0 1.088979,0.43806 1.088979,1.008771 0,0.416465 -0.197435,0.718788 -0.876119,1.440661 l -1.511614,1.597992 c -0.05553,0.05861 -0.07095,0.08638 -0.07095,0.138821 0,0.07095 0.05553,0.111058 0.132652,0.111058 z"
       id="text1-4-2"
       style="font-weight:200;font-size:6.31793px;font-family:'SF Pro Rounded';-inkscape-font-specification:'SF Pro Rounded, Ultra-Light';letter-spacing:-7.10767px;word-spacing:0px;stroke:#000000;stroke-width:0.526494;stroke-linecap:round;stroke-linejoin:round"
       inkscape:label="bottom"
       transform="scale(-1.0050875,-0.99493825)"
       aria-label="2" /><path
       d="m 49.488352,11.657064 c 0,0.651116 0.493588,1.148205 1.151705,1.148205 0.371067,0 0.738632,-0.129523 0.899661,-0.444579 h 0.02801 c -0.0105,0.367565 -0.395571,0.67212 -0.577603,0.857653 -0.192534,0.196035 -0.07701,0.472584 0.175031,0.472584 h 1.753813 c 0.248545,0 0.364065,-0.276549 0.175032,-0.472584 -0.185534,-0.185533 -0.570602,-0.490088 -0.581104,-0.857653 h 0.02801 c 0.161029,0.315056 0.532095,0.444579 0.903161,0.444579 0.654617,0 1.148205,-0.497089 1.148205,-1.148205 0,-1.221718 -1.645294,-1.7258081 -2.292909,-3.0455437 -0.05251,-0.1050188 -0.126023,-0.1855331 -0.259047,-0.1855331 -0.129523,0 -0.206536,0.080514 -0.255545,0.1855331 -0.651116,1.3197356 -2.29641,1.8238257 -2.29641,3.0455437 z"
       id="text1-9"
       style="font-weight:300;font-size:7.16928px;line-height:0;font-family:'SF Pro Rounded';-inkscape-font-specification:'SF Pro Rounded Light';letter-spacing:0px;word-spacing:0px;text-orientation:upright;stroke-width:0.526494;stroke-linecap:round"
       inkscape:label="spade-top"
       transform="scale(1.0050875,0.99493825)"
       aria-label="♠" /><path
       d="m -92.660929,-54.685335 c 0,0.651117 0.493588,1.148205 1.151706,1.148205 0.371066,0 0.738632,-0.129523 0.899661,-0.444579 h 0.028 c -0.0105,0.367566 -0.395571,0.67212 -0.577604,0.857653 -0.192534,0.196035 -0.07701,0.472585 0.175032,0.472585 h 1.753813 c 0.248544,0 0.364065,-0.27655 0.175031,-0.472585 -0.185533,-0.185533 -0.570602,-0.490087 -0.581104,-0.857653 h 0.028 c 0.161029,0.315056 0.532095,0.444579 0.903162,0.444579 0.654616,0 1.148205,-0.497088 1.148205,-1.148205 0,-1.221718 -1.645294,-1.725808 -2.29291,-3.045543 -0.05251,-0.105019 -0.126022,-0.185533 -0.259046,-0.185533 -0.129523,0 -0.206537,0.08051 -0.255546,0.185533 -0.651116,1.319735 -2.29641,1.823825 -2.29641,3.045543 z"
       id="text1-6-2"
       style="font-weight:300;font-size:7.16928px;line-height:0;font-family:'SF Pro Rounded';-inkscape-font-specification:'SF Pro Rounded Light';letter-spacing:0px;word-spacing:0px;text-orientation:upright;stroke-width:0.526494;stroke-linecap:round"
       inkscape:label="spade-bottom"
       transform="scale(-1.0050875,-0.99493825)"
       aria-label="♠" /></g></svg>
