<?xml version="1.0" encoding="UTF-8" standalone="no"?>
<!-- Created with Inkscape (http://www.inkscape.org/) -->

<svg
   width="179.99977"
   height="251.99976"
   viewBox="0 0 47.624938 66.674935"
   version="1.1"
   id="svg1"
   inkscape:version="1.4 (e7c3feb1, 2024-10-09)"
   sodipodi:docname="All Cards - Hearts.svg"
   xml:space="preserve"
   inkscape:export-filename="All Cards - Hearts.png"
   inkscape:export-xdpi="96"
   inkscape:export-ydpi="96"
   inkscape:export-batch-path="Hearts"
   inkscape:export-batch-name=""
   xmlns:inkscape="http://www.inkscape.org/namespaces/inkscape"
   xmlns:sodipodi="http://sodipodi.sourceforge.net/DTD/sodipodi-0.dtd"
   xmlns="http://www.w3.org/2000/svg"
   xmlns:svg="http://www.w3.org/2000/svg"><sodipodi:namedview
     id="namedview1"
     pagecolor="#ffffff"
     bordercolor="#999999"
     borderopacity="1"
     inkscape:showpageshadow="2"
     inkscape:pageopacity="0"
     inkscape:pagecheckerboard="0"
     inkscape:deskcolor="#d1d1d1"
     inkscape:document-units="px"
     showgrid="true"
     inkscape:zoom="0.7246543"
     inkscape:cx="555.43726"
     inkscape:cy="257.3641"
     inkscape:window-width="1512"
     inkscape:window-height="836"
     inkscape:window-x="0"
     inkscape:window-y="38"
     inkscape:window-maximized="0"
     inkscape:current-layer="layer11"><inkscape:grid
       id="grid2"
       units="px"
       originx="-95.249997"
       originy="-3.5768442e-09"
       spacingx="0.26458333"
       spacingy="0.26458333"
       empcolor="#0099e5"
       empopacity="0.30196078"
       color="#0099e5"
       opacity="0.14901961"
       empspacing="5"
       enabled="true"
       visible="true" /></sodipodi:namedview><defs
     id="defs1"><inkscape:path-effect
       effect="fillet_chamfer"
       id="path-effect3-2"
       is_visible="true"
       lpeversion="1"
       nodesatellites_param="F,0,0,1,0,3,0,1 @ F,0,0,1,0,3,0,1 @ F,0,0,1,0,3,0,1 @ F,0,0,1,0,3,0,1"
       radius="0"
       unit="px"
       method="auto"
       mode="F"
       chamfer_steps="1"
       flexible="false"
       use_knot_distance="true"
       apply_no_radius="true"
       apply_with_radius="true"
       only_selected="false"
       hide_knots="false" /></defs><g
     inkscape:groupmode="layer"
     id="layer3"
     inkscape:label="3"
     transform="matrix(0.99998908,0,0,1.0101899,-95.247914,-0.00209528)"
     inkscape:export-filename="Hearts/3.svg"
     inkscape:export-xdpi="96"
     inkscape:export-ydpi="96"><path
       style="fill:#ffffff;fill-opacity:1;stroke:#000000;stroke-width:0.526494;stroke-linecap:round;stroke-linejoin:round;stroke-dasharray:none;stroke-opacity:1"
       id="rect1-6"
       width="47.098965"
       height="65.475883"
       x="0.26119247"
       y="0.26535115"
       inkscape:path-effect="#path-effect3-2"
       sodipodi:type="rect"
       d="M 3.2611925,0.26535115 H 44.360157 a 3,3 45 0 1 3,2.99999995 V 62.741235 a 3,3 135 0 1 -3,3 H 3.2611925 a 3,3 45 0 1 -3.00000003,-3 V 3.2653511 A 3,3 135 0 1 3.2611925,0.26535115 Z"
       transform="translate(95.251009,-2.9988694e-5)"
       inkscape:label="card" /><path
       style="font-weight:300;font-size:18.2518px;font-family:'SF Pro Rounded';-inkscape-font-specification:'SF Pro Rounded Light';letter-spacing:-7.10767px;word-spacing:0px;fill:#ff0000;stroke:#ff0000;stroke-width:0.526494;stroke-linecap:round;stroke-linejoin:round"
       d="m 119.02137,39.604672 c 2.52598,0 4.42494,-1.542841 4.42494,-3.715232 0,-1.817714 -1.29883,-2.997012 -3.22465,-3.147749 v -0.03547 c 1.6571,-0.328076 2.75886,-1.436438 2.75886,-3.023613 0,-1.835449 -1.54067,-3.280754 -4.00394,-3.280754 -1.80939,0 -3.22464,0.842355 -3.80687,2.190124 -0.15228,0.310342 -0.21497,0.594083 -0.21497,0.88669 0,0.363544 0.19705,0.567482 0.54639,0.567482 0.33143,0 0.43891,-0.159604 0.56432,-0.532014 0.36725,-1.276833 1.37047,-2.048254 2.91113,-2.048254 1.74668,0 2.76782,0.975359 2.76782,2.358596 0,1.418704 -1.19132,2.429531 -2.92009,2.429531 h -1.06592 c -0.33143,0 -0.55536,0.212805 -0.55536,0.523147 0,0.310341 0.22393,0.514281 0.55536,0.514281 h 1.11966 c 2.06019,0 3.33214,0.957625 3.32319,2.633469 -0.009,1.507373 -1.30778,2.615736 -3.17987,2.615736 -1.72877,0 -2.84844,-0.833488 -3.20673,-2.057121 -0.12541,-0.381277 -0.28663,-0.540881 -0.57327,-0.540881 -0.34934,0 -0.56431,0.230539 -0.56431,0.576349 0,0.292607 0.0627,0.567482 0.23289,0.88669 0.65388,1.383236 2.13185,2.198991 4.11142,2.198991 z"
       id="text3-8-1"
       inkscape:label="center"
       aria-label="3" /><path
       d="m 100.22921,6.9185637 c 0.86508,0 1.4976,-0.5401987 1.4976,-1.2737641 0,-0.6292088 -0.45269,-1.0497044 -1.13792,-1.0957441 v -0.012277 c 0.58911,-0.1135646 0.95809,-0.5002978 0.95809,-1.0466352 0,-0.6445554 -0.54881,-1.1295066 -1.34877,-1.1295066 -0.635631,0 -1.147233,0.3376242 -1.302264,0.8409914 -0.0341,0.085941 -0.04651,0.1718814 -0.04651,0.2394062 0,0.082871 0.04031,0.1227725 0.111622,0.1227725 0.08062,0 0.09612,-0.049109 0.117824,-0.138119 0.08062,-0.4941591 0.530207,-0.84713 1.119328,-0.84713 0.65113,0 1.10072,0.3928719 1.10072,0.9238628 0,0.552476 -0.46819,0.9422785 -1.15033,0.9422785 h -0.421688 c -0.06822,0 -0.114723,0.04297 -0.114723,0.1074259 0,0.064455 0.04651,0.1074259 0.114723,0.1074259 h 0.427888 c 0.82787,0 1.32707,0.3652481 1.32397,0.9913875 0,0.5954465 -0.52711,1.0497045 -1.24955,1.0497045 -0.675943,0 -1.159639,-0.3775253 -1.246457,-0.8594071 -0.0217,-0.1043566 -0.05581,-0.1411884 -0.124024,-0.1411884 -0.06822,0 -0.111623,0.04604 -0.111623,0.1227724 0,0.076733 0.0155,0.1503963 0.04961,0.2424756 0.176735,0.512575 0.722445,0.8532685 1.432494,0.8532685 z"
       id="text1-4-8"
       style="font-weight:200;font-size:6.31793px;font-family:'SF Pro Rounded';-inkscape-font-specification:'SF Pro Rounded, Ultra-Light';letter-spacing:-7.10767px;word-spacing:0px;fill:#ff0000;stroke:#ff0000;stroke-width:0.526494;stroke-linecap:round;stroke-linejoin:round"
       inkscape:label="top"
       aria-label="3" /><path
       d="m 137.89428,59.087901 c -0.86508,0 -1.4976,0.540198 -1.4976,1.273764 0,0.629208 0.45269,1.049704 1.13792,1.095744 v 0.01228 c -0.58912,0.113565 -0.95809,0.500298 -0.95809,1.046636 0,0.644554 0.5488,1.129506 1.34876,1.129506 0.63563,0 1.14724,-0.337624 1.30226,-0.840991 0.0341,-0.08594 0.0465,-0.171882 0.0465,-0.239406 0,-0.08287 -0.0403,-0.122773 -0.11162,-0.122773 -0.0806,0 -0.0961,0.04911 -0.11783,0.138119 -0.0806,0.494159 -0.5302,0.84713 -1.11933,0.84713 -0.65112,0 -1.10071,-0.392872 -1.10071,-0.923863 0,-0.552476 0.46819,-0.942278 1.15032,-0.942278 h 0.42169 c 0.0682,0 0.11473,-0.04297 0.11473,-0.107427 0,-0.06445 -0.0465,-0.107425 -0.11473,-0.107425 h -0.42789 c -0.82786,0 -1.32705,-0.365248 -1.32396,-0.991387 0,-0.595447 0.52711,-1.049705 1.24956,-1.049705 0.67593,0 1.15963,0.377525 1.24645,0.859407 0.0217,0.104357 0.0558,0.141189 0.12401,0.141189 0.0683,0 0.11163,-0.04604 0.11163,-0.122773 0,-0.07673 -0.0155,-0.150397 -0.0496,-0.242475 -0.17674,-0.512576 -0.72245,-0.853269 -1.43248,-0.853269 z"
       id="text1-4-8-0"
       style="font-weight:200;font-size:6.31793px;font-family:'SF Pro Rounded';-inkscape-font-specification:'SF Pro Rounded, Ultra-Light';letter-spacing:-7.10767px;word-spacing:0px;fill:#ff0000;stroke:#ff0000;stroke-width:0.526494;stroke-linecap:round;stroke-linejoin:round"
       inkscape:label="bottom"
       aria-label="3" /><path
       d="m 99.731445,13.690928 c 0.05562,0 0.133478,-0.03337 0.192801,-0.07045 1.616564,-1.038157 2.662134,-2.243161 2.662134,-3.466704 0,-1.0084958 -0.69334,-1.7277906 -1.59802,-1.7277906 -0.55616,0 -1.001083,0.3114472 -1.256915,0.7897412 -0.255831,-0.4745863 -0.704464,-0.7897412 -1.260619,-0.7897412 -0.90468,0 -1.598021,0.7192948 -1.598021,1.7277906 0,1.223543 1.045573,2.428547 2.662132,3.466704 0.05932,0.03708 0.137185,0.07045 0.196508,0.07045 z"
       id="text5-74-6"
       style="font-weight:300;font-size:7.59338px;line-height:0;font-family:'SF Pro Rounded';-inkscape-font-specification:'SF Pro Rounded Light';letter-spacing:0px;word-spacing:0px;text-orientation:upright;fill:#ff0000;stroke-width:0.526494;stroke-linecap:round"
       inkscape:label="heart-top"
       transform="scale(1.0050875,0.99493825)"
       aria-label="♥" /><path
       d="m -137.18673,-52.651472 c 0.0556,0 0.13348,-0.03337 0.1928,-0.07045 1.61656,-1.038158 2.66213,-2.243162 2.66213,-3.466705 0,-1.008495 -0.69334,-1.72779 -1.59802,-1.72779 -0.55615,0 -1.00108,0.311447 -1.25691,0.789741 -0.25583,-0.474586 -0.70446,-0.789741 -1.26062,-0.789741 -0.90468,0 -1.59802,0.719295 -1.59802,1.72779 0,1.223543 1.04557,2.428547 2.66213,3.466705 0.0593,0.03708 0.13719,0.07045 0.19651,0.07045 z"
       id="text5-7-4-3"
       style="font-weight:300;font-size:7.59338px;line-height:0;font-family:'SF Pro Rounded';-inkscape-font-specification:'SF Pro Rounded Light';letter-spacing:0px;word-spacing:0px;text-orientation:upright;fill:#ff0000;stroke-width:0.526494;stroke-linecap:round"
       inkscape:label="heart-bottom"
       transform="scale(-1.0050875,-0.99493825)"
       aria-label="♥" /></g></svg>
