<?xml version="1.0" encoding="UTF-8" standalone="no"?>
<!-- Created with Inkscape (http://www.inkscape.org/) -->

<svg
   width="179.99976"
   height="251.99976"
   viewBox="0 0 47.624934 66.674935"
   version="1.1"
   id="svg1"
   inkscape:version="1.4 (e7c3feb1, 2024-10-09)"
   sodipodi:docname="All Cards - Spades.svg"
   xml:space="preserve"
   inkscape:export-filename="All Cards - Spades.png"
   inkscape:export-xdpi="96"
   inkscape:export-ydpi="96"
   xmlns:inkscape="http://www.inkscape.org/namespaces/inkscape"
   xmlns:sodipodi="http://sodipodi.sourceforge.net/DTD/sodipodi-0.dtd"
   xmlns="http://www.w3.org/2000/svg"
   xmlns:svg="http://www.w3.org/2000/svg"><sodipodi:namedview
     id="namedview1"
     pagecolor="#ffffff"
     bordercolor="#999999"
     borderopacity="1"
     inkscape:showpageshadow="2"
     inkscape:pageopacity="0"
     inkscape:pagecheckerboard="0"
     inkscape:deskcolor="#d1d1d1"
     inkscape:document-units="px"
     showgrid="true"
     inkscape:zoom="0.61073719"
     inkscape:cx="687.6935"
     inkscape:cy="297.18184"
     inkscape:window-width="1512"
     inkscape:window-height="836"
     inkscape:window-x="0"
     inkscape:window-y="38"
     inkscape:window-maximized="0"
     inkscape:current-layer="layer13"><inkscape:grid
       id="grid2"
       units="px"
       originx="-95.25"
       originy="-66.675003"
       spacingx="0.26458333"
       spacingy="0.26458333"
       empcolor="#0099e5"
       empopacity="0.30196078"
       color="#0099e5"
       opacity="0.14901961"
       empspacing="5"
       enabled="true"
       visible="true" /><inkscape:page
       x="0"
       y="0"
       width="47.624935"
       height="66.674934"
       id="page2"
       margin="0"
       bleed="0" /></sodipodi:namedview><defs
     id="defs1"><inkscape:path-effect
       effect="fillet_chamfer"
       id="path-effect3-1"
       is_visible="true"
       lpeversion="1"
       nodesatellites_param="F,0,0,1,0,3,0,1 @ F,0,0,1,0,3,0,1 @ F,0,0,1,0,3,0,1 @ F,0,0,1,0,3,0,1"
       radius="0"
       unit="px"
       method="auto"
       mode="F"
       chamfer_steps="1"
       flexible="false"
       use_knot_distance="true"
       apply_no_radius="true"
       apply_with_radius="true"
       only_selected="false"
       hide_knots="false" /></defs><g
     inkscape:groupmode="layer"
     id="layer11"
     inkscape:label="Jack"
     inkscape:export-filename="Spades/Jack.svg"
     inkscape:export-xdpi="96"
     inkscape:export-ydpi="96"
     transform="translate(-95.250001,-66.675002)"><path
       style="fill:#ffffff;fill-opacity:1;stroke:#000000;stroke-width:0.526494;stroke-linecap:round;stroke-linejoin:round;stroke-dasharray:none"
       id="rect1-58"
       width="47.098965"
       height="65.475883"
       x="0.26119247"
       y="0.26535115"
       inkscape:path-effect="#path-effect3-1"
       sodipodi:type="rect"
       d="M 3.2611925,0.26535115 H 44.360157 a 3,3 45 0 1 3,2.99999995 V 62.741235 a 3,3 135 0 1 -3,3 H 3.2611925 a 3,3 45 0 1 -3.00000003,-3 V 3.2653511 A 3,3 135 0 1 3.2611925,0.26535115 Z"
       transform="matrix(0.99998907,0,0,1.0101899,95.252053,66.672874)"
       inkscape:label="card" /><path
       style="font-weight:300;font-size:18.3445px;font-family:'SF Pro Rounded';-inkscape-font-specification:'SF Pro Rounded Light';letter-spacing:-7.14375px;word-spacing:0px;stroke:#000000;stroke-width:0.529167;stroke-linecap:round;stroke-linejoin:round"
       d="m 118.99081,106.64085 c 2.31993,0 3.69935,-1.43317 3.69935,-3.80684 v -8.813964 c 0,-0.39412 -0.23289,-0.635966 -0.60909,-0.635966 -0.37621,0 -0.6091,0.241846 -0.6091,0.635966 v 8.796044 c 0,1.72875 -0.90468,2.68718 -2.48116,2.68718 -1.21819,0 -2.11392,-0.71658 -2.36472,-1.95268 -0.0985,-0.39412 -0.28664,-0.56431 -0.6091,-0.56431 -0.35829,0 -0.58222,0.23289 -0.58222,0.63597 0,0.25976 0.0537,0.45682 0.1254,0.69866 0.40308,1.39734 1.75563,2.31994 3.43064,2.31994 z"
       id="text3-8-1-1-3-3-3-1-3-1"
       inkscape:label="center"
       aria-label="J" /><path
       d="m 98.821872,73.638911 c 0.768946,0 1.234038,-0.489892 1.234038,-1.26814 v -3.187403 c 0,-0.08061 -0.0496,-0.130225 -0.124027,-0.130225 -0.07441,0 -0.124024,0.04961 -0.124024,0.130225 v 3.178102 c 0,0.663525 -0.36897,1.047998 -0.989087,1.047998 -0.505396,0 -0.880567,-0.303858 -0.94878,-0.799951 -0.0186,-0.08372 -0.05581,-0.124024 -0.124023,-0.124024 -0.07131,0 -0.114722,0.04961 -0.114722,0.133325 0,0.05581 0.0062,0.108521 0.0217,0.176734 0.108521,0.499194 0.58291,0.843359 1.168921,0.843359 z"
       id="text1-7-9"
       style="font-weight:200;font-size:6.35px;font-family:'SF Pro Rounded';-inkscape-font-specification:'SF Pro Rounded, Ultra-Light';letter-spacing:-7.14375px;word-spacing:0px;stroke:#000000;stroke-width:0.529167;stroke-linecap:round;stroke-linejoin:round"
       inkscape:label="top"
       aria-label="J" /><path
       d="m -139.30317,-126.38602 c 0.76894,0 1.23403,-0.48989 1.23403,-1.26814 v -3.1874 c 0,-0.0806 -0.0496,-0.13023 -0.12402,-0.13023 -0.0744,0 -0.12403,0.0496 -0.12403,0.13023 v 3.1781 c 0,0.66352 -0.36897,1.048 -0.98908,1.048 -0.5054,0 -0.88057,-0.30386 -0.94878,-0.79996 -0.0186,-0.0837 -0.0558,-0.12402 -0.12403,-0.12402 -0.0713,0 -0.11472,0.0496 -0.11472,0.13333 0,0.0558 0.006,0.10852 0.0217,0.17673 0.10852,0.49919 0.58291,0.84336 1.16892,0.84336 z"
       id="text1-7-9-1"
       style="font-weight:200;font-size:6.35px;font-family:'SF Pro Rounded';-inkscape-font-specification:'SF Pro Rounded, Ultra-Light';letter-spacing:-7.14375px;word-spacing:0px;stroke:#000000;stroke-width:0.529167;stroke-linecap:round;stroke-linejoin:round"
       inkscape:label="bottom"
       transform="scale(-1)"
       aria-label="J" /><path
       d="m 97.366668,78.389146 c 0,0.654422 0.496094,1.154035 1.157553,1.154035 0.37295,0 0.742382,-0.130181 0.904228,-0.446837 h 0.02815 c -0.01056,0.369432 -0.39758,0.675533 -0.580536,0.862008 -0.193512,0.19703 -0.07741,0.474984 0.17592,0.474984 h 1.762717 c 0.2498,0 0.36591,-0.277954 0.17592,-0.474984 -0.18648,-0.186475 -0.5735,-0.492576 -0.58406,-0.862008 h 0.0281 c 0.16185,0.316656 0.5348,0.446837 0.90775,0.446837 0.65794,0 1.15403,-0.499613 1.15403,-1.154035 0,-1.227921 -1.65364,-1.73457 -2.30455,-3.061006 -0.0528,-0.105552 -0.12666,-0.186476 -0.260358,-0.186476 -0.13018,0 -0.207585,0.08092 -0.256843,0.186476 -0.654422,1.326436 -2.308069,1.833085 -2.308069,3.061006 z"
       id="text1-1-1-3"
       style="font-weight:300;font-size:7.20568px;line-height:0;font-family:'SF Pro Rounded';-inkscape-font-specification:'SF Pro Rounded Light';letter-spacing:0px;word-spacing:0px;text-orientation:upright;stroke-width:0.529167;stroke-linecap:round"
       inkscape:label="spade-top"
       aria-label="♠" /><path
       d="m -140.75842,-121.63585 c 0,0.65442 0.4961,1.15404 1.15756,1.15404 0.37295,0 0.74238,-0.13018 0.90423,-0.44684 h 0.0281 c -0.0105,0.36943 -0.39758,0.67553 -0.58053,0.86201 -0.19352,0.19703 -0.0774,0.47498 0.17592,0.47498 h 1.76271 c 0.24981,0 0.36592,-0.27795 0.17592,-0.47498 -0.18647,-0.18648 -0.57349,-0.49258 -0.58405,-0.86201 h 0.0282 c 0.16184,0.31666 0.53479,0.44684 0.90774,0.44684 0.65794,0 1.15404,-0.49962 1.15404,-1.15404 0,-1.22792 -1.65365,-1.73457 -2.30455,-3.061 -0.0528,-0.10556 -0.12666,-0.18648 -0.26036,-0.18648 -0.13018,0 -0.20759,0.0809 -0.25685,0.18648 -0.65442,1.32643 -2.30807,1.83308 -2.30807,3.061 z"
       id="text1-6-6-9-4"
       style="font-weight:300;font-size:7.20568px;line-height:0;font-family:'SF Pro Rounded';-inkscape-font-specification:'SF Pro Rounded Light';letter-spacing:0px;word-spacing:0px;text-orientation:upright;stroke-width:0.529167;stroke-linecap:round"
       inkscape:label="spade-bottom"
       transform="scale(-1)"
       aria-label="♠" /></g></svg>
