<?xml version="1.0" encoding="UTF-8" standalone="no"?>
<!DOCTYPE svg PUBLIC "-//W3C//DTD SVG 1.1//EN" "http://www.w3.org/Graphics/SVG/1.1/DTD/svg11.dtd">
<!-- Created with Vectornator (http://vectornator.io/) -->
<svg height="100%" stroke-miterlimit="10" style="fill-rule:nonzero;clip-rule:evenodd;stroke-linecap:round;stroke-linejoin:round;" version="1.1" viewBox="0 0 180 252" width="100%" xml:space="preserve" xmlns="http://www.w3.org/2000/svg" xmlns:vectornator="http://vectornator.io" xmlns:xlink="http://www.w3.org/1999/xlink">
<defs>
<clipPath id="TextBounds">
<rect height="39" width="20.2969" x="8.20312" y="3"/>
</clipPath>
<clipPath id="TextBounds_2">
<rect height="39" width="20.2969" x="151.5" y="210"/>
</clipPath>
<clipPath id="TextBounds_3">
<rect height="77" width="37.5938" x="71.2031" y="87.5"/>
</clipPath>
</defs>
<g id="Layer-1" vectornator:layerName="Layer 1">
<path d="M16 0L164 0C172.837 0 180 7.16344 180 16L180 236C180 244.837 172.837 252 164 252L16 252C7.16344 252 0 244.837 0 236L0 16C0 7.16344 7.16344 0 16 0Z" fill="#ffffff" fill-rule="nonzero" opacity="1" stroke="none"/>
<path clip-path="url(#TextBounds)" d="M11.9062 31.5469C11.9062 32.4531 12.625 33 13.7656 33L24.0781 33C24.9375 33 25.4375 32.5469 25.4375 31.8125C25.4375 31.0625 24.9062 30.6094 24.0781 30.6094L15.4062 30.6094L15.4062 30.4219L21.1875 23.8125C24 20.6094 24.7969 19.125 24.7969 17.0938C24.7969 13.6562 22.0938 11.2188 18.25 11.2188C14.125 11.2188 11.5469 14 11.5469 16.6562C11.5469 17.5 12.0469 18.0781 12.8125 18.0781C13.4531 18.0781 13.8906 17.6562 14.1094 16.8281C14.5781 14.7969 16.0625 13.5938 18.0781 13.5938C20.4531 13.5938 22.0312 15.0625 22.0312 17.2656C22.0312 18.7344 21.3594 20.0469 19.5938 22.0625L13.0938 29.5C12.1719 30.5469 11.9062 30.9844 11.9062 31.5469Z" fill="#000000" opacity="1" stroke="none"/>
<path clip-path="url(#TextBounds_2)" d="M168.094 220.453C168.094 219.547 167.375 219 166.234 219L155.922 219C155.062 219 154.562 219.453 154.562 220.188C154.562 220.938 155.094 221.391 155.922 221.391L164.594 221.391L164.594 221.578L158.812 228.188C156 231.391 155.203 232.875 155.203 234.906C155.203 238.344 157.906 240.781 161.75 240.781C165.875 240.781 168.453 238 168.453 235.344C168.453 234.5 167.953 233.922 167.188 233.922C166.547 233.922 166.109 234.344 165.891 235.172C165.422 237.203 163.938 238.406 161.922 238.406C159.547 238.406 157.969 236.938 157.969 234.734C157.969 233.266 158.641 231.953 160.406 229.938L166.906 222.5C167.828 221.453 168.094 221.016 168.094 220.453Z" fill="#000000" opacity="1" stroke="none"/>
<path clip-path="url(#TextBounds_3)" d="M77.1094 145.594C77.1094 147.406 78.5469 148.5 80.8281 148.5L101.453 148.5C103.172 148.5 104.172 147.594 104.172 146.125C104.172 144.625 103.109 143.719 101.453 143.719L84.1094 143.719L84.1094 143.344L95.6719 130.125C101.297 123.719 102.891 120.75 102.891 116.688C102.891 109.812 97.4844 104.938 89.7969 104.938C81.5469 104.938 76.3906 110.5 76.3906 115.812C76.3906 117.5 77.3906 118.656 78.9219 118.656C80.2031 118.656 81.0781 117.812 81.5156 116.156C82.4531 112.094 85.4219 109.688 89.4531 109.688C94.2031 109.688 97.3594 112.625 97.3594 117.031C97.3594 119.969 96.0156 122.594 92.4844 126.625L79.4844 141.5C77.6406 143.594 77.1094 144.469 77.1094 145.594Z" fill="#000000" opacity="1" stroke="none"/>
<path d="M15 1L165 1C172.732 1 179 7.28814 179 15.0449L179 236.955C179 244.712 172.732 251 165 251L15 251C7.26801 251 1 244.712 1 236.955L1 15.0449C1 7.28814 7.26801 1 15 1Z" fill="none" opacity="1" stroke="#000000" stroke-linecap="round" stroke-linejoin="round" stroke-width="2"/>
</g>
</svg>
