<?xml version="1.0" encoding="UTF-8" standalone="no"?>
<!-- Created with Inkscape (http://www.inkscape.org/) -->

<svg
   width="179.99977"
   height="251.99976"
   viewBox="0 0 47.624938 66.674935"
   version="1.1"
   id="svg1"
   inkscape:version="1.4 (e7c3feb1, 2024-10-09)"
   sodipodi:docname="All Cards - Hearts.svg"
   xml:space="preserve"
   inkscape:export-filename="All Cards - Hearts.png"
   inkscape:export-xdpi="96"
   inkscape:export-ydpi="96"
   inkscape:export-batch-path="Hearts"
   inkscape:export-batch-name=""
   xmlns:inkscape="http://www.inkscape.org/namespaces/inkscape"
   xmlns:sodipodi="http://sodipodi.sourceforge.net/DTD/sodipodi-0.dtd"
   xmlns="http://www.w3.org/2000/svg"
   xmlns:svg="http://www.w3.org/2000/svg"><sodipodi:namedview
     id="namedview1"
     pagecolor="#ffffff"
     bordercolor="#999999"
     borderopacity="1"
     inkscape:showpageshadow="2"
     inkscape:pageopacity="0"
     inkscape:pagecheckerboard="0"
     inkscape:deskcolor="#d1d1d1"
     inkscape:document-units="px"
     showgrid="true"
     inkscape:zoom="0.7246543"
     inkscape:cx="555.43726"
     inkscape:cy="257.3641"
     inkscape:window-width="1512"
     inkscape:window-height="836"
     inkscape:window-x="0"
     inkscape:window-y="38"
     inkscape:window-maximized="0"
     inkscape:current-layer="layer11"><inkscape:grid
       id="grid2"
       units="px"
       originx="-95.249997"
       originy="-66.675"
       spacingx="0.26458333"
       spacingy="0.26458333"
       empcolor="#0099e5"
       empopacity="0.30196078"
       color="#0099e5"
       opacity="0.14901961"
       empspacing="5"
       enabled="true"
       visible="true" /></sodipodi:namedview><defs
     id="defs1"><inkscape:path-effect
       effect="fillet_chamfer"
       id="path-effect3-21"
       is_visible="true"
       lpeversion="1"
       nodesatellites_param="F,0,0,1,0,3,0,1 @ F,0,0,1,0,3,0,1 @ F,0,0,1,0,3,0,1 @ F,0,0,1,0,3,0,1"
       radius="0"
       unit="px"
       method="auto"
       mode="F"
       chamfer_steps="1"
       flexible="false"
       use_knot_distance="true"
       apply_no_radius="true"
       apply_with_radius="true"
       only_selected="false"
       hide_knots="false" /></defs><g
     inkscape:groupmode="layer"
     id="layer10"
     inkscape:label="10"
     inkscape:export-filename="Hearts/10.svg"
     inkscape:export-xdpi="96"
     inkscape:export-ydpi="96"
     transform="translate(-47.624999,-66.675)"><path
       style="fill:#ffffff;fill-opacity:1;stroke:#000000;stroke-width:0.526494;stroke-linecap:round;stroke-linejoin:round;stroke-dasharray:none;stroke-opacity:1"
       id="rect1-24"
       width="47.098965"
       height="65.475883"
       x="0.26119247"
       y="0.26535115"
       inkscape:path-effect="#path-effect3-21"
       sodipodi:type="rect"
       d="M 3.2611925,0.26535115 H 44.360157 a 3,3 45 0 1 3,2.99999995 V 62.741235 a 3,3 135 0 1 -3,3 H 3.2611925 a 3,3 45 0 1 -3.00000003,-3 V 3.2653511 A 3,3 135 0 1 3.2611925,0.26535115 Z"
       transform="matrix(0.99998907,0,0,1.0101899,47.627054,66.672874)"
       inkscape:label="card" /><path
       style="font-weight:300;font-size:18.3445px;font-family:'SF Pro Rounded';-inkscape-font-specification:'SF Pro Rounded Light';word-spacing:0px;fill:#ff0000;stroke:#ff0000;stroke-width:0.529167;stroke-linecap:round;stroke-linejoin:round"
       d="m 67.106626,106.62746 c 0.349333,0 0.59118,-0.25976 0.59118,-0.63597 V 94.069355 c 0,-0.420992 -0.250804,-0.671795 -0.653881,-0.671795 -0.277676,0 -0.438907,0.0627 -0.797198,0.322462 l -3.063388,2.087045 c -0.259761,0.188102 -0.340376,0.331419 -0.340376,0.555351 0,0.304547 0.19706,0.510564 0.49265,0.510564 0.152273,0 0.277675,-0.04479 0.412034,-0.143316 l 2.740927,-1.836241 h 0.02687 v 11.098065 c 0,0.37621 0.241847,0.63597 0.591182,0.63597 z m 8.24965,0.0537 c 2.937986,0 4.675698,-2.59761 4.675698,-6.682129 0,-4.057645 -1.746669,-6.655255 -4.675698,-6.655255 -2.920072,0 -4.684655,2.606567 -4.684655,6.664214 0,4.08452 1.746669,6.67317 4.684655,6.67317 z m 0,-1.07487 c -2.185575,0 -3.448551,-2.17662 -3.448551,-5.607259 0,-3.367935 1.289848,-5.571425 3.448551,-5.571425 2.167661,0 3.448551,2.185575 3.448551,5.580384 0,3.42168 -1.262976,5.5983 -3.448551,5.5983 z"
       id="text3-8-1-1-3-3-3-1-3-9"
       inkscape:label="center"
       aria-label="10" /><path
       d="m 51.175833,73.645121 c 0.07131,0 0.120923,-0.05271 0.120923,-0.130225 v -4.319118 c 0,-0.07751 -0.04651,-0.124023 -0.120923,-0.124023 -0.05581,0 -0.08372,0.0124 -0.142627,0.05581 l -1.196827,0.775146 c -0.05581,0.03411 -0.07131,0.06511 -0.07131,0.111621 0,0.06511 0.04341,0.108521 0.102319,0.108521 0.03411,0 0.05891,-0.0093 0.08682,-0.02791 l 1.091406,-0.703834 h 0.0093 v 4.123781 c 0,0.07752 0.04961,0.130225 0.120923,0.130225 z m 2.703712,0.0155 c 0.979785,0 1.581299,-0.889869 1.581299,-2.303736 0,-1.410768 -0.601514,-2.300636 -1.581299,-2.300636 -0.982886,0 -1.587501,0.892969 -1.587501,2.300636 0,1.413867 0.604615,2.303736 1.587501,2.303736 z m 0,-0.220142 c -0.830958,0 -1.339454,-0.806153 -1.339454,-2.083594 0,-1.268141 0.511597,-2.080494 1.339454,-2.080494 0.824756,0 1.336353,0.809253 1.336353,2.080494 0,1.277441 -0.508497,2.083594 -1.336353,2.083594 z"
       id="text1-7-4"
       style="font-weight:200;font-size:6.35px;font-family:'SF Pro Rounded';-inkscape-font-specification:'SF Pro Rounded, Ultra-Light';word-spacing:0px;fill:#ff0000;stroke:#ff0000;stroke-width:0.529167;stroke-linecap:round;stroke-linejoin:round"
       inkscape:label="top"
       aria-label="10" /><path
       d="m 91.69923,126.37997 c -0.07131,0 -0.120924,0.0527 -0.120924,0.13022 v 4.31912 c 0,0.0775 0.04651,0.12402 0.120924,0.12402 0.05581,0 0.08371,-0.0124 0.142627,-0.0558 l 1.196826,-0.77514 c 0.05581,-0.0341 0.07131,-0.0651 0.07131,-0.11162 0,-0.0651 -0.04341,-0.10853 -0.10232,-0.10853 -0.03411,0 -0.05891,0.009 -0.08682,0.0279 l -1.091407,0.70383 h -0.0093 v -4.12378 c 0,-0.0775 -0.04961,-0.13022 -0.120921,-0.13022 z m -2.703712,-0.0155 c -0.979786,0 -1.5813,0.88986 -1.5813,2.30373 0,1.41077 0.601514,2.30064 1.5813,2.30064 0.982886,0 1.5875,-0.89297 1.5875,-2.30064 0,-1.41387 -0.604614,-2.30373 -1.5875,-2.30373 z m 0,0.22014 c 0.830957,0 1.339453,0.80615 1.339453,2.08359 0,1.26814 -0.511597,2.0805 -1.339453,2.0805 -0.824756,0 -1.336353,-0.80926 -1.336353,-2.0805 0,-1.27744 0.508496,-2.08359 1.336353,-2.08359 z"
       id="text1-7-4-3"
       style="font-weight:200;font-size:6.35px;font-family:'SF Pro Rounded';-inkscape-font-specification:'SF Pro Rounded, Ultra-Light';word-spacing:0px;fill:#ff0000;stroke:#ff0000;stroke-width:0.529167;stroke-linecap:round;stroke-linejoin:round"
       inkscape:label="bottom"
       aria-label="10" /><path
       d="m 52.61482,80.433338 c 0.0559,0 0.134155,-0.03354 0.193779,-0.0708 1.624767,-1.043428 2.675647,-2.25455 2.675647,-3.484304 0,-1.013616 -0.69686,-1.736562 -1.606133,-1.736562 -0.558979,0 -1.006163,0.313028 -1.263293,0.79375 -0.257131,-0.476996 -0.708041,-0.79375 -1.26702,-0.79375 -0.909273,0 -1.606134,0.722946 -1.606134,1.736562 0,1.229754 1.050881,2.440876 2.675648,3.484304 0.05962,0.03727 0.137881,0.0708 0.197506,0.0708 z"
       id="text5-4-4"
       style="font-weight:300;font-size:7.63193px;line-height:0;font-family:'SF Pro Rounded';-inkscape-font-specification:'SF Pro Rounded Light';letter-spacing:0px;word-spacing:0px;text-orientation:upright;fill:#ff0000;stroke-width:0.529167;stroke-linecap:round"
       inkscape:label="heart-top"
       aria-label="♥" /><path
       d="m -90.260241,-119.59166 c 0.0559,0 0.134155,-0.0335 0.193779,-0.0708 1.624766,-1.04343 2.675647,-2.25455 2.675647,-3.4843 0,-1.01362 -0.69686,-1.73656 -1.606133,-1.73656 -0.558979,0 -1.006163,0.31302 -1.263293,0.79375 -0.257131,-0.477 -0.708041,-0.79375 -1.26702,-0.79375 -0.909273,0 -1.606134,0.72294 -1.606134,1.73656 0,1.22975 1.050881,2.44087 2.675648,3.4843 0.05962,0.0373 0.137881,0.0708 0.197506,0.0708 z"
       id="text5-7-5-6"
       style="font-weight:300;font-size:7.63193px;line-height:0;font-family:'SF Pro Rounded';-inkscape-font-specification:'SF Pro Rounded Light';letter-spacing:0px;word-spacing:0px;text-orientation:upright;fill:#ff0000;stroke-width:0.529167;stroke-linecap:round"
       inkscape:label="heart-bottom"
       transform="scale(-1)"
       aria-label="♥" /></g></svg>
