<?xml version="1.0" encoding="UTF-8" standalone="no"?>
<!-- Created with Inkscape (http://www.inkscape.org/) -->

<svg
   width="179.99977"
   height="251.99976"
   viewBox="0 0 47.624938 66.674935"
   version="1.1"
   id="svg1"
   inkscape:version="1.4 (e7c3feb1, 2024-10-09)"
   sodipodi:docname="All Cards - Spades.svg"
   xml:space="preserve"
   inkscape:export-filename="All Cards - Spades.png"
   inkscape:export-xdpi="96"
   inkscape:export-ydpi="96"
   inkscape:export-batch-path="Spades"
   inkscape:export-batch-name=""
   xmlns:inkscape="http://www.inkscape.org/namespaces/inkscape"
   xmlns:sodipodi="http://sodipodi.sourceforge.net/DTD/sodipodi-0.dtd"
   xmlns="http://www.w3.org/2000/svg"
   xmlns:svg="http://www.w3.org/2000/svg"><sodipodi:namedview
     id="namedview1"
     pagecolor="#ffffff"
     bordercolor="#999999"
     borderopacity="1"
     inkscape:showpageshadow="2"
     inkscape:pageopacity="0"
     inkscape:pagecheckerboard="0"
     inkscape:deskcolor="#d1d1d1"
     inkscape:document-units="px"
     showgrid="true"
     inkscape:zoom="0.69476599"
     inkscape:cx="619.6331"
     inkscape:cy="265.55704"
     inkscape:window-width="1512"
     inkscape:window-height="836"
     inkscape:window-x="0"
     inkscape:window-y="38"
     inkscape:window-maximized="0"
     inkscape:current-layer="layer1"><inkscape:grid
       id="grid2"
       units="px"
       originx="-285.74999"
       originy="-66.675"
       spacingx="0.26458333"
       spacingy="0.26458333"
       empcolor="#0099e5"
       empopacity="0.30196078"
       color="#0099e5"
       opacity="0.14901961"
       empspacing="5"
       enabled="true"
       visible="true" /></sodipodi:namedview><defs
     id="defs1"><inkscape:path-effect
       effect="fillet_chamfer"
       id="path-effect3-8"
       is_visible="true"
       lpeversion="1"
       nodesatellites_param="F,0,0,1,0,3,0,1 @ F,0,0,1,0,3,0,1 @ F,0,0,1,0,3,0,1 @ F,0,0,1,0,3,0,1"
       radius="0"
       unit="px"
       method="auto"
       mode="F"
       chamfer_steps="1"
       flexible="false"
       use_knot_distance="true"
       apply_no_radius="true"
       apply_with_radius="true"
       only_selected="false"
       hide_knots="false" /></defs><g
     inkscape:groupmode="layer"
     id="layer14"
     inkscape:label="Joker"
     inkscape:export-filename="Spades/Joker.svg"
     inkscape:export-xdpi="96"
     inkscape:export-ydpi="96"
     transform="translate(-238.125,-66.675)"><path
       style="fill:#ffffff;fill-opacity:1;stroke:#000000;stroke-width:0.526494;stroke-linecap:round;stroke-linejoin:round;stroke-dasharray:none"
       id="rect1-3"
       width="47.098965"
       height="65.475883"
       x="0.26119247"
       y="0.26535115"
       inkscape:path-effect="#path-effect3-8"
       sodipodi:type="rect"
       d="M 3.2611925,0.26535115 H 44.360157 a 3,3 45 0 1 3,2.99999995 V 62.741235 a 3,3 135 0 1 -3,3 H 3.2611925 a 3,3 45 0 1 -3.00000003,-3 V 3.2653511 A 3,3 135 0 1 3.2611925,0.26535115 Z"
       transform="matrix(0.99998907,0,0,1.0101899,238.12705,66.672874)"
       inkscape:label="card" /><path
       d="m 242.3852,73.642017 c 0.76895,0 1.23404,-0.489892 1.23404,-1.26814 v -3.187403 c 0,-0.08062 -0.0496,-0.130225 -0.12403,-0.130225 -0.0744,0 -0.12402,0.04961 -0.12402,0.130225 v 3.178102 c 0,0.663525 -0.36897,1.047998 -0.98909,1.047998 -0.50539,0 -0.88057,-0.303858 -0.94878,-0.799951 -0.0186,-0.08372 -0.0558,-0.124024 -0.12402,-0.124024 -0.0713,0 -0.11472,0.04961 -0.11472,0.133325 0,0.05581 0.006,0.108521 0.0217,0.176734 0.10852,0.499194 0.58291,0.843359 1.16892,0.843359 z m 0.15348,6.236312 c 1.22163,0 1.99368,-0.889869 1.99368,-2.303736 0,-1.407667 -0.77515,-2.300636 -1.99368,-2.300636 -1.21853,0 -1.99368,0.892969 -1.99368,2.300636 0,1.413867 0.77205,2.303736 1.99368,2.303736 z m 0,-0.229444 c -1.0635,0 -1.74253,-0.806152 -1.74253,-2.074292 0,-1.26504 0.67593,-2.071192 1.74253,-2.071192 1.0635,0 1.74253,0.806152 1.74253,2.071192 0,1.26814 -0.67903,2.074292 -1.74253,2.074292 z m -1.25264,6.484359 c 0.0744,0 0.12403,-0.04961 0.12403,-0.130225 v -1.553394 l 0.64492,-0.691431 1.90376,2.303736 c 0.0434,0.05271 0.0744,0.07131 0.12092,0.07131 0.0682,0 0.12093,-0.04961 0.12093,-0.117822 0,-0.03721 -0.0186,-0.06821 -0.0434,-0.09922 l -1.92857,-2.331642 1.72393,-1.826245 c 0.0217,-0.02481 0.0341,-0.05271 0.0341,-0.08372 0,-0.05891 -0.0434,-0.108521 -0.11163,-0.108521 -0.0403,0 -0.0682,0.0155 -0.10542,0.05581 l -2.34094,2.489771 h -0.0186 v -2.415357 c 0,-0.08061 -0.0496,-0.130225 -0.12403,-0.130225 -0.0744,0 -0.12092,0.04961 -0.12092,0.130225 v 4.306715 c 0,0.08062 0.0465,0.130225 0.12092,0.130225 z m 0.11473,6.254913 h 2.39985 c 0.0775,0 0.12402,-0.04651 0.12402,-0.111621 0,-0.06821 -0.0465,-0.114722 -0.12402,-0.114722 h -2.27583 v -1.95647 h 2.16421 c 0.0744,0 0.12092,-0.04651 0.12092,-0.111621 0,-0.06821 -0.0465,-0.111621 -0.12092,-0.111621 h -2.16421 v -1.841749 h 2.27583 c 0.0775,0 0.12402,-0.04651 0.12402,-0.114722 0,-0.06511 -0.0465,-0.111621 -0.12402,-0.111621 h -2.39985 c -0.0744,0 -0.12093,0.04961 -0.12093,0.130225 v 4.213698 c 0,0.08062 0.0465,0.130224 0.12093,0.130224 z m -0.12248,6.304525 c 0.0744,0 0.12403,-0.04961 0.12403,-0.130225 v -1.829346 h 1.19372 c 0.0465,0 0.11472,-0.0031 0.15813,-0.0093 l 1.10381,1.891358 c 0.031,0.05581 0.0651,0.07752 0.12092,0.07752 0.0713,0 0.12093,-0.04961 0.12093,-0.114722 0,-0.03101 -0.009,-0.05891 -0.031,-0.08992 l -1.0604,-1.801441 c 0.65112,-0.130225 1.0356,-0.595313 1.0356,-1.240235 0,-0.787549 -0.54881,-1.277442 -1.43558,-1.277442 h -1.33015 c -0.0744,0 -0.12092,0.05271 -0.12092,0.130225 v 4.263307 c 0,0.08062 0.0496,0.130225 0.12092,0.130225 z m 0.12403,-2.182813 v -2.117701 h 1.18442 c 0.75034,0 1.20613,0.393774 1.20613,1.0604 0,0.657325 -0.44959,1.057301 -1.19683,1.057301 z"
       id="text1-7-9-5-9-5"
       style="font-weight:200;font-size:6.35px;font-family:'SF Pro Rounded';-inkscape-font-specification:'SF Pro Rounded, Ultra-Light';letter-spacing:-1.32292px;word-spacing:0px;writing-mode:tb-rl;text-orientation:upright;stroke:#000000;stroke-width:0.529167;stroke-linecap:round;stroke-linejoin:round"
       inkscape:label="top"
       aria-label="JOKER" /><path
       d="m 281.48987,126.38295 c -0.76894,0 -1.23403,0.48989 -1.23403,1.26814 v 3.1874 c 0,0.0806 0.0496,0.13022 0.12402,0.13022 0.0744,0 0.12403,-0.0496 0.12403,-0.13022 v -3.1781 c 0,-0.66353 0.36897,-1.048 0.98908,-1.048 0.5054,0 0.88057,0.30386 0.94878,0.79995 0.0186,0.0837 0.0558,0.12402 0.12403,0.12402 0.0713,0 0.11472,-0.0496 0.11472,-0.13332 0,-0.0558 -0.006,-0.10852 -0.0217,-0.17673 -0.10852,-0.4992 -0.58291,-0.84336 -1.16893,-0.84336 z m -0.15347,-6.23632 c -1.22164,0 -1.99368,0.88987 -1.99368,2.30374 0,1.40767 0.77514,2.30064 1.99368,2.30064 1.21853,0 1.99367,-0.89297 1.99367,-2.30064 0,-1.41387 -0.77204,-2.30374 -1.99367,-2.30374 z m 0,0.22945 c 1.0635,0 1.74253,0.80615 1.74253,2.07429 0,1.26504 -0.67593,2.07119 -1.74253,2.07119 -1.06351,0 -1.74253,-0.80615 -1.74253,-2.07119 0,-1.26814 0.67902,-2.07429 1.74253,-2.07429 z m 1.25263,-6.48436 c -0.0744,0 -0.12402,0.0496 -0.12402,0.13022 v 1.5534 l -0.64492,0.69143 -1.90376,-2.30374 c -0.0434,-0.0527 -0.0744,-0.0713 -0.12093,-0.0713 -0.0682,0 -0.12092,0.0496 -0.12092,0.11782 0,0.0372 0.0186,0.0682 0.0434,0.0992 l 1.92856,2.33164 -1.72392,1.82625 c -0.0217,0.0248 -0.0341,0.0527 -0.0341,0.0837 0,0.0589 0.0434,0.10852 0.11162,0.10852 0.0403,0 0.0682,-0.0155 0.10542,-0.0558 l 2.34095,-2.48977 h 0.0186 v 2.41536 c 0,0.0806 0.0496,0.13022 0.12402,0.13022 0.0744,0 0.12093,-0.0496 0.12093,-0.13022 v -4.30672 c 0,-0.0806 -0.0465,-0.13022 -0.12093,-0.13022 z m -0.11472,-6.25491 h -2.39985 c -0.0775,0 -0.12403,0.0465 -0.12403,0.11162 0,0.0682 0.0465,0.11472 0.12403,0.11472 h 2.27583 v 1.95647 h -2.16421 c -0.0744,0 -0.12093,0.0465 -0.12093,0.11162 0,0.0682 0.0465,0.11162 0.12093,0.11162 h 2.16421 v 1.84175 h -2.27583 c -0.0775,0 -0.12403,0.0465 -0.12403,0.11472 0,0.0651 0.0465,0.11162 0.12403,0.11162 h 2.39985 c 0.0744,0 0.12092,-0.0496 0.12092,-0.13022 v -4.2137 c 0,-0.0806 -0.0465,-0.13022 -0.12092,-0.13022 z m 0.12247,-6.30453 c -0.0744,0 -0.12402,0.0496 -0.12402,0.13023 v 1.82934 h -1.19373 c -0.0465,0 -0.11472,0.003 -0.15813,0.009 l -1.1038,-1.89135 c -0.031,-0.0558 -0.0651,-0.0775 -0.12093,-0.0775 -0.0713,0 -0.12092,0.0496 -0.12092,0.11472 0,0.031 0.009,0.0589 0.031,0.0899 l 1.0604,1.80144 c -0.65113,0.13023 -1.0356,0.59531 -1.0356,1.24024 0,0.78755 0.5488,1.27744 1.43557,1.27744 h 1.33015 c 0.0744,0 0.12093,-0.0527 0.12093,-0.13023 v -4.2633 c 0,-0.0806 -0.0496,-0.13023 -0.12093,-0.13023 z m -0.12402,2.18281 v 2.11771 h -1.18442 c -0.75035,0 -1.20613,-0.39378 -1.20613,-1.0604 0,-0.65733 0.44958,-1.05731 1.19682,-1.05731 z"
       id="text1-7-9-5-9-5-6"
       style="font-weight:200;font-size:6.35px;font-family:'SF Pro Rounded';-inkscape-font-specification:'SF Pro Rounded, Ultra-Light';letter-spacing:-1.32292px;word-spacing:0px;writing-mode:tb-rl;text-orientation:upright;stroke:#000000;stroke-width:0.529167;stroke-linecap:round;stroke-linejoin:round"
       inkscape:label="bottom"
       aria-label="JOKER" /></g></svg>
