<?xml version="1.0" encoding="UTF-8" standalone="no"?>
<!-- Created with Inkscape (http://www.inkscape.org/) -->

<svg
   width="179.99976"
   height="251.99976"
   viewBox="0 0 47.624934 66.674935"
   version="1.1"
   id="svg1"
   inkscape:version="1.4 (e7c3feb1, 2024-10-09)"
   sodipodi:docname="All Cards - Clubs.svg"
   xml:space="preserve"
   inkscape:export-filename="All Cards - Clubs.png"
   inkscape:export-xdpi="96"
   inkscape:export-ydpi="96"
   xmlns:inkscape="http://www.inkscape.org/namespaces/inkscape"
   xmlns:sodipodi="http://sodipodi.sourceforge.net/DTD/sodipodi-0.dtd"
   xmlns="http://www.w3.org/2000/svg"
   xmlns:svg="http://www.w3.org/2000/svg"><sodipodi:namedview
     id="namedview1"
     pagecolor="#ffffff"
     bordercolor="#999999"
     borderopacity="1"
     inkscape:showpageshadow="2"
     inkscape:pageopacity="0"
     inkscape:pagecheckerboard="0"
     inkscape:deskcolor="#d1d1d1"
     inkscape:document-units="px"
     showgrid="true"
     inkscape:zoom="0.6064148"
     inkscape:cx="370.20864"
     inkscape:cy="230.04056"
     inkscape:window-width="1512"
     inkscape:window-height="836"
     inkscape:window-x="0"
     inkscape:window-y="38"
     inkscape:window-maximized="0"
     inkscape:current-layer="layer14"><inkscape:grid
       id="grid2"
       units="px"
       originx="-238.12499"
       originy="-3.4711749e-13"
       spacingx="0.26458333"
       spacingy="0.26458333"
       empcolor="#0099e5"
       empopacity="0.30196078"
       color="#0099e5"
       opacity="0.14901961"
       empspacing="5"
       enabled="true"
       visible="true" /><inkscape:page
       x="0"
       y="0"
       width="47.624935"
       height="66.674934"
       id="page2"
       margin="0"
       bleed="0" /></sodipodi:namedview><defs
     id="defs1"><inkscape:path-effect
       effect="fillet_chamfer"
       id="path-effect3-71"
       is_visible="true"
       lpeversion="1"
       nodesatellites_param="F,0,0,1,0,3,0,1 @ F,0,0,1,0,3,0,1 @ F,0,0,1,0,3,0,1 @ F,0,0,1,0,3,0,1"
       radius="0"
       unit="px"
       method="auto"
       mode="F"
       chamfer_steps="1"
       flexible="false"
       use_knot_distance="true"
       apply_no_radius="true"
       apply_with_radius="true"
       only_selected="false"
       hide_knots="false" /></defs><g
     inkscape:groupmode="layer"
     id="layer6"
     inkscape:label="6"
     transform="matrix(0.99998908,0,0,1.0101899,-238.1229,-0.00209528)"
     inkscape:export-filename="Clubs/6.svg"
     inkscape:export-xdpi="96"
     inkscape:export-ydpi="96"><path
       style="fill:#ffffff;fill-opacity:1;stroke:#000000;stroke-width:0.526494;stroke-linecap:round;stroke-linejoin:round;stroke-dasharray:none"
       id="rect1-2"
       width="47.098965"
       height="65.475883"
       x="0.26119247"
       y="0.26535115"
       inkscape:path-effect="#path-effect3-71"
       sodipodi:type="rect"
       d="M 3.2611925,0.26535115 H 44.360157 a 3,3 45 0 1 3,2.99999995 V 62.741235 a 3,3 135 0 1 -3,3 H 3.2611925 a 3,3 45 0 1 -3.00000003,-3 V 3.2653511 A 3,3 135 0 1 3.2611925,0.26535115 Z"
       transform="translate(238.12757,-2.9988694e-5)"
       inkscape:label="card" /><path
       style="font-weight:300;font-size:18.2518px;font-family:'SF Pro Rounded';-inkscape-font-specification:'SF Pro Rounded Light';letter-spacing:-7.10767px;word-spacing:0px;stroke:#000000;stroke-width:0.526494;stroke-linecap:round;stroke-linejoin:round"
       d="m 260.77726,39.806161 c 2.57557,0 4.46491,-1.853698 4.46491,-4.38471 0,-2.424067 -1.82696,-4.242117 -4.26885,-4.242117 -1.84479,0 -3.29744,1.060529 -3.7876,2.441891 h -0.0267 c 0,-0.05347 0,-0.151504 0,-0.2228 0.0535,-3.671749 1.39027,-5.783896 3.69848,-5.783896 1.2566,0 2.22801,0.614929 2.78055,1.746754 0.2228,0.409953 0.38322,0.552545 0.65058,0.552545 0.32083,0 0.56146,-0.213888 0.56146,-0.525809 0,-0.213888 -0.0624,-0.427776 -0.19607,-0.668401 -0.65058,-1.37245 -2.09432,-2.183443 -3.7876,-2.183443 -3.04791,0 -4.88379,2.593396 -4.88379,6.90681 0,1.613074 0.28519,2.923139 0.86447,3.930197 0.79317,1.559602 2.20127,2.432979 3.9302,2.432979 z m -0.009,-1.087265 c -1.84478,0 -3.26179,-1.479394 -3.26179,-3.342005 0,-1.755666 1.43483,-3.119204 3.27071,-3.119204 1.86261,0 3.22614,1.363538 3.22614,3.208324 0,1.818051 -1.42592,3.252885 -3.23506,3.252885 z"
       id="text3-8-1-1-3-3"
       inkscape:label="center"
       transform="scale(1.0050875,0.99493825)"
       aria-label="6" /><path
       d="m 240.909,6.9585932 c 0.86069,0 1.49927,-0.6447495 1.49927,-1.5116138 0,-0.836015 -0.63549,-1.4653399 -1.47768,-1.4653399 -0.6756,0 -1.24322,0.4257198 -1.3913,1.0087709 h -0.0123 c 0,-0.027764 -0.003,-0.086378 -0.003,-0.126482 0.009,-1.422151 0.52753,-2.2674208 1.40365,-2.2674208 0.52443,0 0.9409,0.2868982 1.10131,0.752722 0.0494,0.1203121 0.0771,0.1573313 0.145,0.1573313 0.0648,0 0.11105,-0.043189 0.11105,-0.1048875 0,-0.055529 -0.0185,-0.1233971 -0.0494,-0.1974353 -0.19436,-0.5213525 -0.69411,-0.8267602 -1.30493,-0.8267602 -1.01185,0 -1.64426,0.9254778 -1.64426,2.4062424 0,0.666344 0.13882,1.1876966 0.40721,1.545548 0.27455,0.4041253 0.70644,0.6293249 1.21546,0.6293249 z m -0.003,-0.2221146 c -0.72187,0 -1.28024,-0.5923059 -1.28024,-1.3357731 0,-0.6570892 0.58305,-1.2000362 1.28024,-1.2000362 0.71262,0 1.25557,0.539862 1.25557,1.249395 0,0.7218728 -0.54912,1.2864143 -1.25557,1.2864143 z"
       id="text1-4-8-9-6-8"
       style="font-weight:200;font-size:6.31793px;font-family:'SF Pro Rounded';-inkscape-font-specification:'SF Pro Rounded, Ultra-Light';letter-spacing:-7.10767px;word-spacing:0px;stroke:#000000;stroke-width:0.526494;stroke-linecap:round;stroke-linejoin:round"
       inkscape:label="top"
       transform="scale(1.0050875,0.99493825)"
       aria-label="6" /><path
       d="m -280.31578,-59.383867 c 0.86069,0 1.49927,-0.644749 1.49927,-1.511614 0,-0.836015 -0.63549,-1.46534 -1.47768,-1.46534 -0.67559,0 -1.24322,0.42572 -1.3913,1.008771 h -0.0123 c 0,-0.02776 -0.003,-0.08638 -0.003,-0.126482 0.009,-1.422151 0.52752,-2.267421 1.40364,-2.267421 0.52444,0 0.9409,0.286899 1.10132,0.752722 0.0494,0.120313 0.0771,0.157332 0.14499,0.157332 0.0648,0 0.11106,-0.04319 0.11106,-0.104888 0,-0.05553 -0.0185,-0.123397 -0.0494,-0.197435 -0.19435,-0.521353 -0.69411,-0.82676 -1.30493,-0.82676 -1.01185,0 -1.64426,0.925478 -1.64426,2.406242 0,0.666344 0.13882,1.187697 0.40721,1.545548 0.27456,0.404125 0.70645,0.629325 1.21546,0.629325 z m -0.003,-0.222115 c -0.72187,0 -1.28024,-0.592305 -1.28024,-1.335773 0,-0.657089 0.58305,-1.200036 1.28024,-1.200036 0.71262,0 1.25557,0.539862 1.25557,1.249395 0,0.721873 -0.54912,1.286414 -1.25557,1.286414 z"
       id="text1-4-8-9-6-8-6"
       style="font-weight:200;font-size:6.31793px;font-family:'SF Pro Rounded';-inkscape-font-specification:'SF Pro Rounded, Ultra-Light';letter-spacing:-7.10767px;word-spacing:0px;stroke:#000000;stroke-width:0.526494;stroke-linecap:round;stroke-linejoin:round"
       inkscape:label="bottom"
       transform="scale(-1.0050875,-0.99493825)"
       aria-label="6" /><path
       d="m 239.02615,11.584951 c 0,0.676662 0.52107,1.190491 1.19773,1.190491 0.38357,0 0.76713,-0.133885 0.93358,-0.459551 h 0.029 c -0.0145,0.379944 -0.41251,0.694755 -0.60068,0.886536 -0.1954,0.202637 -0.076,0.4885 0.18093,0.4885 h 1.81288 c 0.26053,0 0.37994,-0.285863 0.18092,-0.4885 -0.18816,-0.191781 -0.5862,-0.506592 -0.59705,-0.886536 h 0.029 c 0.16645,0.325666 0.54639,0.459551 0.92995,0.459551 0.68028,0 1.19773,-0.513829 1.19773,-1.190491 0,-0.673044 -0.51383,-1.237533 -1.18325,-1.237533 -0.2533,0 -0.51745,0.08323 -0.72732,0.249678 0.35823,-0.2931 0.47402,-0.6513328 0.47402,-0.9625251 0,-0.6694254 -0.54278,-1.2085842 -1.20858,-1.2085842 -0.66581,0 -1.20859,0.5391588 -1.20859,1.2085842 0,0.3111923 0.1158,0.6694251 0.47041,0.9625251 -0.20626,-0.166452 -0.47403,-0.249678 -0.72732,-0.249678 -0.66943,0 -1.18326,0.564489 -1.18326,1.237533 z"
       id="text3-7-0-5-9-3"
       style="font-weight:300;font-size:7.41072px;line-height:0;font-family:'SF Pro Rounded';-inkscape-font-specification:'SF Pro Rounded Light';letter-spacing:0px;word-spacing:0px;text-orientation:upright;stroke-width:0.526494;stroke-linecap:round"
       inkscape:label="club-top"
       transform="scale(1.0050875,0.99493825)"
       aria-label="♣" /><path
       d="m -282.19864,-54.757448 c 0,0.676663 0.52107,1.190492 1.19773,1.190492 0.38356,0 0.76713,-0.133885 0.93358,-0.459552 h 0.029 c -0.0145,0.379944 -0.41252,0.694755 -0.60068,0.886537 -0.1954,0.202636 -0.076,0.488499 0.18093,0.488499 h 1.81287 c 0.26054,0 0.37995,-0.285863 0.18093,-0.488499 -0.18816,-0.191782 -0.5862,-0.506593 -0.59706,-0.886537 h 0.029 c 0.16645,0.325667 0.5464,0.459552 0.92996,0.459552 0.68028,0 1.19773,-0.513829 1.19773,-1.190492 0,-0.673044 -0.51383,-1.237532 -1.18325,-1.237532 -0.2533,0 -0.51745,0.08323 -0.72733,0.249677 0.35824,-0.293099 0.47403,-0.651332 0.47403,-0.962525 0,-0.669425 -0.54278,-1.208584 -1.20859,-1.208584 -0.6658,0 -1.20858,0.539159 -1.20858,1.208584 0,0.311193 0.11579,0.669426 0.47041,0.962525 -0.20626,-0.166451 -0.47403,-0.249677 -0.72732,-0.249677 -0.66943,0 -1.18326,0.564488 -1.18326,1.237532 z"
       id="text3-6-6-0-9-0-7"
       style="font-weight:300;font-size:7.41072px;line-height:0;font-family:'SF Pro Rounded';-inkscape-font-specification:'SF Pro Rounded Light';letter-spacing:0px;word-spacing:0px;text-orientation:upright;stroke-width:0.526494;stroke-linecap:round"
       inkscape:label="club-bottom"
       transform="scale(-1.0050875,-0.99493825)"
       aria-label="♣" /></g></svg>
