<?xml version="1.0" encoding="UTF-8" standalone="no"?>
<!-- Created with Inkscape (http://www.inkscape.org/) -->

<svg
   width="179.99977"
   height="251.99976"
   viewBox="0 0 47.624938 66.674935"
   version="1.1"
   id="svg1"
   inkscape:version="1.4 (e7c3feb1, 2024-10-09)"
   sodipodi:docname="All Cards - Clubs.svg"
   xml:space="preserve"
   inkscape:export-filename="All Cards - Clubs.png"
   inkscape:export-xdpi="96"
   inkscape:export-ydpi="96"
   inkscape:export-batch-path="Clubs"
   inkscape:export-batch-name=""
   xmlns:inkscape="http://www.inkscape.org/namespaces/inkscape"
   xmlns:sodipodi="http://sodipodi.sourceforge.net/DTD/sodipodi-0.dtd"
   xmlns="http://www.w3.org/2000/svg"
   xmlns:svg="http://www.w3.org/2000/svg"><sodipodi:namedview
     id="namedview1"
     pagecolor="#ffffff"
     bordercolor="#999999"
     borderopacity="1"
     inkscape:showpageshadow="2"
     inkscape:pageopacity="0"
     inkscape:pagecheckerboard="0"
     inkscape:deskcolor="#d1d1d1"
     inkscape:document-units="px"
     showgrid="true"
     inkscape:zoom="0.62203345"
     inkscape:cx="632.60264"
     inkscape:cy="315.89941"
     inkscape:window-width="1512"
     inkscape:window-height="836"
     inkscape:window-x="0"
     inkscape:window-y="38"
     inkscape:window-maximized="0"
     inkscape:current-layer="layer14"><inkscape:grid
       id="grid2"
       units="px"
       originx="-238.125"
       originy="-3.5768442e-09"
       spacingx="0.26458333"
       spacingy="0.26458333"
       empcolor="#0099e5"
       empopacity="0.30196078"
       color="#0099e5"
       opacity="0.14901961"
       empspacing="5"
       enabled="true"
       visible="true" /></sodipodi:namedview><defs
     id="defs1"><inkscape:path-effect
       effect="fillet_chamfer"
       id="path-effect3-71"
       is_visible="true"
       lpeversion="1"
       nodesatellites_param="F,0,0,1,0,3,0,1 @ F,0,0,1,0,3,0,1 @ F,0,0,1,0,3,0,1 @ F,0,0,1,0,3,0,1"
       radius="0"
       unit="px"
       method="auto"
       mode="F"
       chamfer_steps="1"
       flexible="false"
       use_knot_distance="true"
       apply_no_radius="true"
       apply_with_radius="true"
       only_selected="false"
       hide_knots="false" /></defs><g
     inkscape:groupmode="layer"
     id="layer6"
     inkscape:label="6"
     transform="matrix(0.99998908,0,0,1.0101899,-238.12292,-0.00209528)"
     inkscape:export-filename="Clubs/6.svg"
     inkscape:export-xdpi="96"
     inkscape:export-ydpi="96"><path
       style="fill:#ffffff;fill-opacity:1;stroke:#000000;stroke-width:0.526494;stroke-linecap:round;stroke-linejoin:round;stroke-dasharray:none"
       id="rect1-2"
       width="47.098965"
       height="65.475883"
       x="0.26119247"
       y="0.26535115"
       inkscape:path-effect="#path-effect3-71"
       sodipodi:type="rect"
       d="M 3.2611925,0.26535115 H 44.360157 a 3,3 45 0 1 3,2.99999995 V 62.741235 a 3,3 135 0 1 -3,3 H 3.2611925 a 3,3 45 0 1 -3.00000003,-3 V 3.2653511 A 3,3 135 0 1 3.2611925,0.26535115 Z"
       transform="translate(238.12757,-2.9988694e-5)"
       inkscape:label="card" /><path
       style="font-weight:300;font-size:18.2518px;font-family:'SF Pro Rounded';-inkscape-font-specification:'SF Pro Rounded Light';letter-spacing:-7.10767px;word-spacing:0px;stroke:#000000;stroke-width:0.526494;stroke-linecap:round;stroke-linejoin:round"
       d="m 260.77726,39.806161 c 2.57557,0 4.46491,-1.853698 4.46491,-4.38471 0,-2.424067 -1.82696,-4.242117 -4.26885,-4.242117 -1.84479,0 -3.29744,1.060529 -3.7876,2.441891 h -0.0267 c 0,-0.05347 0,-0.151504 0,-0.2228 0.0535,-3.671749 1.39027,-5.783896 3.69848,-5.783896 1.2566,0 2.22801,0.614929 2.78055,1.746754 0.2228,0.409953 0.38322,0.552545 0.65058,0.552545 0.32083,0 0.56146,-0.213888 0.56146,-0.525809 0,-0.213888 -0.0624,-0.427776 -0.19607,-0.668401 -0.65058,-1.37245 -2.09432,-2.183443 -3.7876,-2.183443 -3.04791,0 -4.88379,2.593396 -4.88379,6.90681 0,1.613074 0.28519,2.923139 0.86447,3.930197 0.79317,1.559602 2.20127,2.432979 3.9302,2.432979 z m -0.009,-1.087265 c -1.84478,0 -3.26179,-1.479394 -3.26179,-3.342005 0,-1.755666 1.43483,-3.119204 3.27071,-3.119204 1.86261,0 3.22614,1.363538 3.22614,3.208324 0,1.818051 -1.42592,3.252885 -3.23506,3.252885 z"
       id="text3-8-1-1-3-3"
       inkscape:label="center"
       transform="scale(1.0050875,0.99493825)"
       aria-label="6" /><path
       d="m 243.17556,6.9185635 c 0.86507,0 1.5069,-0.6414859 1.5069,-1.5039623 0,-0.8317833 -0.63872,-1.4579228 -1.4852,-1.4579228 -0.67903,0 -1.24954,0.4235649 -1.39837,1.0036648 h -0.0124 c 0,-0.027623 -0.003,-0.085941 -0.003,-0.1258418 0.009,-1.4149524 0.53021,-2.2559437 1.41079,-2.2559437 0.5271,0 0.94569,0.285446 1.10691,0.7489119 0.0497,0.1197031 0.0775,0.156535 0.14574,0.156535 0.0651,0 0.11161,-0.04297 0.11161,-0.1043566 0,-0.055248 -0.0186,-0.1227725 -0.0497,-0.196436 -0.19535,-0.5187135 -0.69764,-0.8225753 -1.31157,-0.8225753 -1.01699,0 -1.65262,0.9207933 -1.65262,2.3940626 0,0.6629711 0.13953,1.1816848 0.40928,1.5377248 0.27595,0.4020797 0.71003,0.6261394 1.22164,0.6261394 z m -0.003,-0.2209903 c -0.72554,0 -1.28675,-0.5893078 -1.28675,-1.3290117 0,-0.6537632 0.58601,-1.1939619 1.28675,-1.1939619 0.71624,0 1.26196,0.5371293 1.26196,1.2430708 0,0.7182189 -0.55192,1.2799028 -1.26196,1.2799028 z"
       id="text1-4-8-9-6-8"
       style="font-weight:200;font-size:6.31793px;font-family:'SF Pro Rounded';-inkscape-font-specification:'SF Pro Rounded, Ultra-Light';letter-spacing:-7.10767px;word-spacing:0px;stroke:#000000;stroke-width:0.526494;stroke-linecap:round;stroke-linejoin:round"
       inkscape:label="top"
       aria-label="6" /><path
       d="m 280.70108,59.087901 c -0.86507,0 -1.5069,0.641485 -1.5069,1.503962 0,0.831784 0.63872,1.457923 1.4852,1.457923 0.67902,0 1.24954,-0.423565 1.39837,-1.003665 h 0.0124 c 0,0.02762 0.003,0.08594 0.003,0.125842 -0.009,1.414952 -0.5302,2.255944 -1.41078,2.255944 -0.52711,0 -0.94569,-0.285447 -1.10692,-0.748912 -0.0496,-0.119704 -0.0775,-0.156536 -0.14573,-0.156536 -0.0651,0 -0.11162,0.04297 -0.11162,0.104357 0,0.05525 0.0186,0.122773 0.0496,0.196436 0.19534,0.518714 0.69764,0.822575 1.31157,0.822575 1.01699,0 1.65262,-0.920793 1.65262,-2.394062 0,-0.662971 -0.13953,-1.181685 -0.40928,-1.537725 -0.27596,-0.402079 -0.71004,-0.626139 -1.22164,-0.626139 z m 0.003,0.22099 c 0.72554,0 1.28675,0.589307 1.28675,1.329012 0,0.653763 -0.58601,1.193962 -1.28675,1.193962 -0.71624,0 -1.26196,-0.53713 -1.26196,-1.243071 0,-0.718219 0.55192,-1.279903 1.26196,-1.279903 z"
       id="text1-4-8-9-6-8-6"
       style="font-weight:200;font-size:6.31793px;font-family:'SF Pro Rounded';-inkscape-font-specification:'SF Pro Rounded, Ultra-Light';letter-spacing:-7.10767px;word-spacing:0px;stroke:#000000;stroke-width:0.526494;stroke-linecap:round;stroke-linejoin:round"
       inkscape:label="bottom"
       aria-label="6" /><path
       d="m 240.45308,11.526311 c 0,0.673237 0.52372,1.184465 1.20382,1.184465 0.38552,0 0.77103,-0.133207 0.93833,-0.457225 h 0.0292 c -0.0146,0.378021 -0.41461,0.691238 -0.60374,0.882049 -0.19639,0.201611 -0.0764,0.486027 0.18185,0.486027 h 1.82211 c 0.26185,0 0.38187,-0.284416 0.18184,-0.486027 -0.18912,-0.190811 -0.58919,-0.504028 -0.60009,-0.882049 h 0.0292 c 0.16729,0.324018 0.54917,0.457225 0.93468,0.457225 0.68374,0 1.20382,-0.511228 1.20382,-1.184465 0,-0.669637 -0.51644,-1.231269 -1.18927,-1.231269 -0.25459,0 -0.52008,0.08281 -0.73102,0.248414 0.36005,-0.291616 0.47643,-0.6480358 0.47643,-0.9576529 0,-0.6660369 -0.54554,-1.2024666 -1.21473,-1.2024666 -0.66919,0 -1.21474,0.5364297 -1.21474,1.2024666 0,0.3096171 0.11639,0.6660369 0.47281,0.9576529 -0.20731,-0.165609 -0.47644,-0.248414 -0.73102,-0.248414 -0.67284,0 -1.18928,0.561632 -1.18928,1.231269 z"
       id="text3-7-0-5-9-3"
       style="font-weight:300;font-size:7.41072px;line-height:0;font-family:'SF Pro Rounded';-inkscape-font-specification:'SF Pro Rounded Light';letter-spacing:0px;word-spacing:0px;text-orientation:upright;stroke-width:0.526494;stroke-linecap:round"
       inkscape:label="club-top"
       aria-label="♣" /><path
       d="m 283.42356,54.480279 c 0,-0.673237 -0.52372,-1.184466 -1.20382,-1.184466 -0.38551,0 -0.77104,0.133208 -0.93833,0.457226 h -0.0292 c 0.0146,-0.37802 0.41462,-0.691238 0.60374,-0.882049 0.19639,-0.201611 0.0764,-0.486027 -0.18185,-0.486027 h -1.8221 c -0.26186,0 -0.38188,0.284416 -0.18185,0.486027 0.18912,0.190811 0.58918,0.504029 0.6001,0.882049 h -0.0292 c -0.16729,-0.324018 -0.54918,-0.457226 -0.93469,-0.457226 -0.68374,0 -1.20382,0.511229 -1.20382,1.184466 0,0.669638 0.51644,1.231268 1.18927,1.231268 0.25459,0 0.52008,-0.08281 0.73103,-0.248413 -0.36006,0.291616 -0.47644,0.648035 -0.47644,0.957653 0,0.666037 0.54554,1.202467 1.21473,1.202467 0.66919,0 1.21473,-0.53643 1.21473,-1.202467 0,-0.309618 -0.11638,-0.666037 -0.4728,-0.957653 0.20731,0.165609 0.47644,0.248413 0.73102,0.248413 0.67284,0 1.18928,-0.56163 1.18928,-1.231268 z"
       id="text3-6-6-0-9-0-7"
       style="font-weight:300;font-size:7.41072px;line-height:0;font-family:'SF Pro Rounded';-inkscape-font-specification:'SF Pro Rounded Light';letter-spacing:0px;word-spacing:0px;text-orientation:upright;stroke-width:0.526494;stroke-linecap:round"
       inkscape:label="club-bottom"
       aria-label="♣" /></g></svg>
