<?xml version="1.0" encoding="UTF-8" standalone="no"?>
<!-- Created with Inkscape (http://www.inkscape.org/) -->

<svg
   width="179.99977"
   height="251.99976"
   viewBox="0 0 47.624938 66.674935"
   version="1.1"
   id="svg1"
   inkscape:version="1.4 (e7c3feb1, 2024-10-09)"
   sodipodi:docname="All Cards - Hearts.svg"
   xml:space="preserve"
   inkscape:export-filename="All Cards - Hearts.png"
   inkscape:export-xdpi="96"
   inkscape:export-ydpi="96"
   inkscape:export-batch-path="Hearts"
   inkscape:export-batch-name=""
   xmlns:inkscape="http://www.inkscape.org/namespaces/inkscape"
   xmlns:sodipodi="http://sodipodi.sourceforge.net/DTD/sodipodi-0.dtd"
   xmlns="http://www.w3.org/2000/svg"
   xmlns:svg="http://www.w3.org/2000/svg"><sodipodi:namedview
     id="namedview1"
     pagecolor="#ffffff"
     bordercolor="#999999"
     borderopacity="1"
     inkscape:showpageshadow="2"
     inkscape:pageopacity="0"
     inkscape:pagecheckerboard="0"
     inkscape:deskcolor="#d1d1d1"
     inkscape:document-units="px"
     showgrid="true"
     inkscape:zoom="0.7246543"
     inkscape:cx="555.43726"
     inkscape:cy="257.3641"
     inkscape:window-width="1512"
     inkscape:window-height="836"
     inkscape:window-x="0"
     inkscape:window-y="38"
     inkscape:window-maximized="0"
     inkscape:current-layer="layer11"><inkscape:grid
       id="grid2"
       units="px"
       originx="-4.9849223e-06"
       originy="-66.675"
       spacingx="0.26458333"
       spacingy="0.26458333"
       empcolor="#0099e5"
       empopacity="0.30196078"
       color="#0099e5"
       opacity="0.14901961"
       empspacing="5"
       enabled="true"
       visible="true" /></sodipodi:namedview><defs
     id="defs1"><inkscape:path-effect
       effect="fillet_chamfer"
       id="path-effect3-08"
       is_visible="true"
       lpeversion="1"
       nodesatellites_param="F,0,0,1,0,3,0,1 @ F,0,0,1,0,3,0,1 @ F,0,0,1,0,3,0,1 @ F,0,0,1,0,3,0,1"
       radius="0"
       unit="px"
       method="auto"
       mode="F"
       chamfer_steps="1"
       flexible="false"
       use_knot_distance="true"
       apply_no_radius="true"
       apply_with_radius="true"
       only_selected="false"
       hide_knots="false" /></defs><g
     inkscape:groupmode="layer"
     id="layer8"
     inkscape:label="8"
     transform="matrix(0.99998908,0,0,1.0101899,-333.37291,-0.00209528)"
     inkscape:export-filename="Hearts/8.svg"
     inkscape:export-xdpi="96"
     inkscape:export-ydpi="96"><path
       style="fill:#ffffff;fill-opacity:1;stroke:#000000;stroke-width:0.526494;stroke-linecap:round;stroke-linejoin:round;stroke-dasharray:none;stroke-opacity:1"
       id="rect1-0"
       width="47.098965"
       height="65.475883"
       x="0.26119247"
       y="0.26535115"
       inkscape:path-effect="#path-effect3-08"
       sodipodi:type="rect"
       d="M 3.2611925,0.26535115 H 44.360157 a 3,3 45 0 1 3,2.99999995 V 62.741235 a 3,3 135 0 1 -3,3 H 3.2611925 a 3,3 45 0 1 -3.00000003,-3 V 3.2653511 A 3,3 135 0 1 3.2611925,0.26535115 Z"
       transform="translate(333.37861,-2.9988694e-5)"
       inkscape:label="card" /><path
       style="font-weight:300;font-size:18.2518px;font-family:'SF Pro Rounded';-inkscape-font-specification:'SF Pro Rounded Light';letter-spacing:-7.10767px;word-spacing:0px;fill:#ff0000;stroke:#ff0000;stroke-width:0.526494;stroke-linecap:round;stroke-linejoin:round"
       d="m 357.18928,39.604675 c 2.72304,0 4.60408,-1.533974 4.60408,-3.679764 0,-1.604909 -1.16445,-2.926078 -2.88426,-3.28962 v -0.02661 c 1.46901,-0.416745 2.40953,-1.507373 2.40953,-2.864009 0,-1.932985 -1.71982,-3.342822 -4.12935,-3.342822 -2.40057,0 -4.13829,1.409837 -4.13829,3.342822 0,1.37437 0.94052,2.464998 2.41848,2.864009 v 0.02661 c -1.71981,0.363542 -2.88426,1.675844 -2.88426,3.28962 0,2.136923 1.89,3.679764 4.60407,3.679764 z m 0,-7.457064 c -1.71086,0 -2.9201,-0.957625 -2.9201,-2.305394 0,-1.37437 1.18238,-2.385197 2.9201,-2.385197 1.74669,0 2.92011,1.010827 2.92011,2.385197 0,1.347769 -1.21821,2.305394 -2.92011,2.305394 z m 0,6.393036 c -1.99749,0 -3.35901,-1.14383 -3.35901,-2.686671 0,-1.533974 1.37943,-2.624602 3.35901,-2.624602 1.98854,0 3.35901,1.090628 3.35901,2.624602 0,1.542841 -1.36151,2.686671 -3.35901,2.686671 z"
       id="text3-8-1-1-3-3-3-1"
       inkscape:label="cente"
       aria-label="8" /><path
       d="m 338.36301,6.9185558 c 0.9333,0 1.55652,-0.5309907 1.55652,-1.2737641 0,-0.5678226 -0.42788,-1.0251499 -1.04181,-1.1387145 v -0.0092 c 0.52091,-0.1289111 0.87748,-0.5156443 0.87748,-0.9913876 0,-0.6660405 -0.57052,-1.1448531 -1.39219,-1.1448531 -0.81856,0 -1.39527,0.4788126 -1.39527,1.1448531 0,0.4910898 0.35347,0.8686152 0.88678,0.9913876 v 0.0092 c -0.61702,0.1135646 -1.04491,0.5708919 -1.04491,1.1387145 0,0.7397041 0.62323,1.2737641 1.5534,1.2737641 z m 0,-2.5168352 c -0.66973,0 -1.15032,-0.3683173 -1.15032,-0.8839616 0,-0.5309909 0.45579,-0.9392093 1.15032,-0.9392093 0.69764,0 1.15034,0.4051491 1.15034,0.9392093 0,0.5156443 -0.4775,0.8839616 -1.15034,0.8839616 z m 0,2.2989142 c -0.79065,0 -1.30535,-0.454258 -1.30535,-1.065051 0,-0.5862384 0.524,-1.0098035 1.30535,-1.0098035 0.78446,0 1.30847,0.4204957 1.30847,1.0098035 0,0.610793 -0.5178,1.065051 -1.30847,1.065051 z"
       id="text1-4-8-9-6-8-60-0"
       style="font-weight:200;font-size:6.31793px;font-family:'SF Pro Rounded';-inkscape-font-specification:'SF Pro Rounded, Ultra-Light';letter-spacing:-7.10767px;word-spacing:0px;fill:#ff0000;stroke:#ff0000;stroke-width:0.526494;stroke-linecap:round;stroke-linejoin:round"
       inkscape:label="top"
       aria-label="8" /><path
       d="m 376.01568,59.087901 c -0.93329,0 -1.55651,0.53099 -1.55651,1.273763 0,0.567824 0.42788,1.025151 1.0418,1.138715 v 0.0093 c -0.52091,0.128911 -0.87747,0.515644 -0.87747,0.991387 0,0.666041 0.57051,1.144854 1.39218,1.144854 0.81856,0 1.39528,-0.478813 1.39528,-1.144854 0,-0.491089 -0.35348,-0.868614 -0.88678,-0.991387 v -0.0093 c 0.61702,-0.113564 1.04491,-0.570891 1.04491,-1.138715 0,-0.739703 -0.62322,-1.273763 -1.55341,-1.273763 z m 0,2.516835 c 0.66973,0 1.15033,0.368317 1.15033,0.883961 0,0.530992 -0.4558,0.93921 -1.15033,0.93921 -0.69764,0 -1.15034,-0.405149 -1.15034,-0.93921 0,-0.515644 0.4775,-0.883961 1.15034,-0.883961 z m 0,-2.298914 c 0.79066,0 1.30535,0.454258 1.30535,1.065051 0,0.586238 -0.524,1.009803 -1.30535,1.009803 -0.78446,0 -1.30847,-0.420496 -1.30847,-1.009803 0,-0.610793 0.5178,-1.065051 1.30847,-1.065051 z"
       id="text1-4-8-9-6-8-60-0-7"
       style="font-weight:200;font-size:6.31793px;font-family:'SF Pro Rounded';-inkscape-font-specification:'SF Pro Rounded, Ultra-Light';letter-spacing:-7.10767px;word-spacing:0px;fill:#ff0000;stroke:#ff0000;stroke-width:0.526494;stroke-linecap:round;stroke-linejoin:round"
       inkscape:label="bottom"
       aria-label="8" /><path
       d="m 336.65371,13.690928 c 0.0556,0 0.13348,-0.03337 0.1928,-0.07045 1.61656,-1.038157 2.66213,-2.243161 2.66213,-3.466704 0,-1.0084958 -0.69334,-1.7277906 -1.59802,-1.7277906 -0.55615,0 -1.00108,0.3114472 -1.25691,0.7897412 -0.25583,-0.4745863 -0.70446,-0.7897412 -1.26062,-0.7897412 -0.90468,0 -1.59802,0.7192948 -1.59802,1.7277906 0,1.223543 1.04557,2.428547 2.66213,3.466704 0.0593,0.03708 0.13719,0.07045 0.19651,0.07045 z"
       id="text5-74-6-9-0-8-7-8"
       style="font-weight:300;font-size:7.59338px;line-height:0;font-family:'SF Pro Rounded';-inkscape-font-specification:'SF Pro Rounded Light';letter-spacing:0px;word-spacing:0px;text-orientation:upright;fill:#ff0000;stroke-width:0.526494;stroke-linecap:round"
       inkscape:label="heart-top"
       transform="scale(1.0050875,0.99493825)"
       aria-label="♥" /><path
       d="m -374.10899,-52.651472 c 0.0556,0 0.13348,-0.03337 0.1928,-0.07045 1.61656,-1.038158 2.66214,-2.243162 2.66214,-3.466705 0,-1.008495 -0.69334,-1.72779 -1.59802,-1.72779 -0.55616,0 -1.00108,0.311447 -1.25692,0.789741 -0.25583,-0.474586 -0.70446,-0.789741 -1.26062,-0.789741 -0.90468,0 -1.59802,0.719295 -1.59802,1.72779 0,1.223543 1.04558,2.428547 2.66214,3.466705 0.0593,0.03708 0.13718,0.07045 0.1965,0.07045 z"
       id="text5-7-4-3-4-7-1-3-9"
       style="font-weight:300;font-size:7.59338px;line-height:0;font-family:'SF Pro Rounded';-inkscape-font-specification:'SF Pro Rounded Light';letter-spacing:0px;word-spacing:0px;text-orientation:upright;fill:#ff0000;stroke-width:0.526494;stroke-linecap:round"
       inkscape:label="heart-bottom"
       transform="scale(-1.0050875,-0.99493825)"
       aria-label="♥" /></g></svg>
