<?xml version="1.0" encoding="UTF-8" standalone="no"?>
<!-- Created with Inkscape (http://www.inkscape.org/) -->

<svg
   width="179.99977"
   height="251.99976"
   viewBox="0 0 47.624938 66.674935"
   version="1.1"
   id="svg1"
   inkscape:version="1.4 (e7c3feb1, 2024-10-09)"
   sodipodi:docname="All Cards - Hearts.svg"
   xml:space="preserve"
   inkscape:export-filename="All Cards - Hearts.png"
   inkscape:export-xdpi="96"
   inkscape:export-ydpi="96"
   inkscape:export-batch-path="Hearts"
   inkscape:export-batch-name=""
   xmlns:inkscape="http://www.inkscape.org/namespaces/inkscape"
   xmlns:sodipodi="http://sodipodi.sourceforge.net/DTD/sodipodi-0.dtd"
   xmlns="http://www.w3.org/2000/svg"
   xmlns:svg="http://www.w3.org/2000/svg"><sodipodi:namedview
     id="namedview1"
     pagecolor="#ffffff"
     bordercolor="#999999"
     borderopacity="1"
     inkscape:showpageshadow="2"
     inkscape:pageopacity="0"
     inkscape:pagecheckerboard="0"
     inkscape:deskcolor="#d1d1d1"
     inkscape:document-units="px"
     showgrid="true"
     inkscape:zoom="0.64076144"
     inkscape:cx="641.42437"
     inkscape:cy="267.65031"
     inkscape:window-width="1512"
     inkscape:window-height="836"
     inkscape:window-x="0"
     inkscape:window-y="38"
     inkscape:window-maximized="0"
     inkscape:current-layer="layer14"><inkscape:grid
       id="grid2"
       units="px"
       originx="-333.37499"
       originy="-3.5768442e-09"
       spacingx="0.26458333"
       spacingy="0.26458333"
       empcolor="#0099e5"
       empopacity="0.30196078"
       color="#0099e5"
       opacity="0.14901961"
       empspacing="5"
       enabled="true"
       visible="true" /></sodipodi:namedview><defs
     id="defs1"><inkscape:path-effect
       effect="fillet_chamfer"
       id="path-effect3-08"
       is_visible="true"
       lpeversion="1"
       nodesatellites_param="F,0,0,1,0,3,0,1 @ F,0,0,1,0,3,0,1 @ F,0,0,1,0,3,0,1 @ F,0,0,1,0,3,0,1"
       radius="0"
       unit="px"
       method="auto"
       mode="F"
       chamfer_steps="1"
       flexible="false"
       use_knot_distance="true"
       apply_no_radius="true"
       apply_with_radius="true"
       only_selected="false"
       hide_knots="false" /></defs><g
     inkscape:groupmode="layer"
     id="layer8"
     inkscape:label="8"
     transform="matrix(0.99998908,0,0,1.0101899,-333.37291,-0.00209528)"
     inkscape:export-filename="Hearts/8.svg"
     inkscape:export-xdpi="96"
     inkscape:export-ydpi="96"><path
       style="fill:#ffffff;fill-opacity:1;stroke:#000000;stroke-width:0.526494;stroke-linecap:round;stroke-linejoin:round;stroke-dasharray:none;stroke-opacity:1"
       id="rect1-0"
       width="47.098965"
       height="65.475883"
       x="0.26119247"
       y="0.26535115"
       inkscape:path-effect="#path-effect3-08"
       sodipodi:type="rect"
       d="M 3.2611925,0.26535115 H 44.360157 a 3,3 45 0 1 3,2.99999995 V 62.741235 a 3,3 135 0 1 -3,3 H 3.2611925 a 3,3 45 0 1 -3.00000003,-3 V 3.2653511 A 3,3 135 0 1 3.2611925,0.26535115 Z"
       transform="translate(333.37861,-2.9988694e-5)"
       inkscape:label="card" /><path
       style="font-weight:300;font-size:18.2518px;font-family:'SF Pro Rounded';-inkscape-font-specification:'SF Pro Rounded Light';letter-spacing:-7.10767px;word-spacing:0px;fill:#ff0000;stroke:#ff0000;stroke-width:0.526494;stroke-linecap:round;stroke-linejoin:round"
       d="m 355.38127,39.806161 c 2.70925,0 4.58077,-1.541778 4.58077,-3.698485 0,-1.613074 -1.15856,-2.940964 -2.86966,-3.306356 v -0.02674 c 1.46157,-0.418865 2.39733,-1.515042 2.39733,-2.87858 0,-1.942819 -1.71111,-3.359829 -4.10844,-3.359829 -2.38842,0 -4.11735,1.41701 -4.11735,3.359829 0,1.381362 0.93576,2.477539 2.40624,2.87858 v 0.02674 c -1.7111,0.365392 -2.86966,1.68437 -2.86966,3.306356 0,2.147795 1.88043,3.698485 4.58077,3.698485 z m 0,-7.495002 c -1.7022,0 -2.90532,-0.962497 -2.90532,-2.317123 0,-1.381362 1.17639,-2.397331 2.90532,-2.397331 1.73784,0 2.90532,1.015969 2.90532,2.397331 0,1.354626 -1.21204,2.317123 -2.90532,2.317123 z m 0,6.425561 c -1.98738,0 -3.34201,-1.14965 -3.34201,-2.70034 0,-1.541778 1.37245,-2.637955 3.34201,-2.637955 1.97847,0 3.342,1.096177 3.342,2.637955 0,1.55069 -1.35462,2.70034 -3.342,2.70034 z"
       id="text3-8-1-1-3-3-3-1"
       inkscape:label="cente"
       transform="scale(1.0050875,0.99493825)"
       aria-label="8" /><path
       d="m 335.61003,6.9585932 c 0.92857,0 1.54864,-0.5336922 1.54864,-1.2802444 0,-0.5707114 -0.42572,-1.0303654 -1.03654,-1.1445077 v -0.00925 c 0.51827,-0.1295669 0.87304,-0.5182676 0.87304,-0.9964312 0,-0.669429 -0.56763,-1.1506776 -1.38514,-1.1506776 -0.81442,0 -1.38821,0.4812486 -1.38821,1.1506776 0,0.4935882 0.35168,0.8730342 0.88229,0.9964312 v 0.00925 c -0.6139,0.1141423 -1.03962,0.5737963 -1.03962,1.1445077 0,0.7434673 0.62007,1.2802444 1.54554,1.2802444 z m 0,-2.5296396 c -0.66634,0 -1.1445,-0.3701912 -1.1445,-0.8884588 0,-0.5336923 0.45348,-0.9439875 1.1445,-0.9439875 0.69411,0 1.14451,0.4072103 1.14451,0.9439875 0,0.5182676 -0.47508,0.8884588 -1.14451,0.8884588 z m 0,2.3106099 c -0.78665,0 -1.29875,-0.4565691 -1.29875,-1.0704695 0,-0.5892209 0.52135,-1.0149408 1.29875,-1.0149408 0.78049,0 1.30184,0.4226349 1.30184,1.0149408 0,0.6139004 -0.51518,1.0704695 -1.30184,1.0704695 z"
       id="text1-4-8-9-6-8-60-0"
       style="font-weight:200;font-size:6.31793px;font-family:'SF Pro Rounded';-inkscape-font-specification:'SF Pro Rounded, Ultra-Light';letter-spacing:-7.10767px;word-spacing:0px;fill:#ff0000;stroke:#ff0000;stroke-width:0.526494;stroke-linecap:round;stroke-linejoin:round"
       inkscape:label="top"
       transform="scale(1.0050875,0.99493825)"
       aria-label="8" /><path
       d="m -375.15257,-59.383867 c 0.92856,0 1.54863,-0.533692 1.54863,-1.280244 0,-0.570712 -0.42572,-1.030366 -1.03653,-1.144508 v -0.0093 c 0.51827,-0.129567 0.87303,-0.518267 0.87303,-0.996431 0,-0.669429 -0.56762,-1.150678 -1.38513,-1.150678 -0.81442,0 -1.38822,0.481249 -1.38822,1.150678 0,0.493588 0.35169,0.873034 0.88229,0.996431 v 0.0093 c -0.6139,0.114142 -1.03962,0.573796 -1.03962,1.144508 0,0.743467 0.62007,1.280244 1.54555,1.280244 z m 0,-2.52964 c -0.66634,0 -1.14451,-0.370191 -1.14451,-0.888458 0,-0.533693 0.45349,-0.943988 1.14451,-0.943988 0.69411,0 1.14451,0.40721 1.14451,0.943988 0,0.518267 -0.47508,0.888458 -1.14451,0.888458 z m 0,2.31061 c -0.78666,0 -1.29875,-0.456569 -1.29875,-1.070469 0,-0.589221 0.52135,-1.014941 1.29875,-1.014941 0.78049,0 1.30184,0.422635 1.30184,1.014941 0,0.6139 -0.51518,1.070469 -1.30184,1.070469 z"
       id="text1-4-8-9-6-8-60-0-7"
       style="font-weight:200;font-size:6.31793px;font-family:'SF Pro Rounded';-inkscape-font-specification:'SF Pro Rounded, Ultra-Light';letter-spacing:-7.10767px;word-spacing:0px;fill:#ff0000;stroke:#ff0000;stroke-width:0.526494;stroke-linecap:round;stroke-linejoin:round"
       inkscape:label="bottom"
       transform="scale(-1.0050875,-0.99493825)"
       aria-label="8" /><path
       d="m 336.65371,13.690928 c 0.0556,0 0.13348,-0.03337 0.1928,-0.07045 1.61656,-1.038157 2.66213,-2.243161 2.66213,-3.466704 0,-1.0084958 -0.69334,-1.7277906 -1.59802,-1.7277906 -0.55615,0 -1.00108,0.3114472 -1.25691,0.7897412 -0.25583,-0.4745863 -0.70446,-0.7897412 -1.26062,-0.7897412 -0.90468,0 -1.59802,0.7192948 -1.59802,1.7277906 0,1.223543 1.04557,2.428547 2.66213,3.466704 0.0593,0.03708 0.13719,0.07045 0.19651,0.07045 z"
       id="text5-74-6-9-0-8-7-8"
       style="font-weight:300;font-size:7.59338px;line-height:0;font-family:'SF Pro Rounded';-inkscape-font-specification:'SF Pro Rounded Light';letter-spacing:0px;word-spacing:0px;text-orientation:upright;fill:#ff0000;stroke-width:0.526494;stroke-linecap:round"
       inkscape:label="heart-top"
       transform="scale(1.0050875,0.99493825)"
       aria-label="♥" /><path
       d="m -374.10899,-52.651472 c 0.0556,0 0.13348,-0.03337 0.1928,-0.07045 1.61656,-1.038158 2.66214,-2.243162 2.66214,-3.466705 0,-1.008495 -0.69334,-1.72779 -1.59802,-1.72779 -0.55616,0 -1.00108,0.311447 -1.25692,0.789741 -0.25583,-0.474586 -0.70446,-0.789741 -1.26062,-0.789741 -0.90468,0 -1.59802,0.719295 -1.59802,1.72779 0,1.223543 1.04558,2.428547 2.66214,3.466705 0.0593,0.03708 0.13718,0.07045 0.1965,0.07045 z"
       id="text5-7-4-3-4-7-1-3-9"
       style="font-weight:300;font-size:7.59338px;line-height:0;font-family:'SF Pro Rounded';-inkscape-font-specification:'SF Pro Rounded Light';letter-spacing:0px;word-spacing:0px;text-orientation:upright;fill:#ff0000;stroke-width:0.526494;stroke-linecap:round"
       inkscape:label="heart-bottom"
       transform="scale(-1.0050875,-0.99493825)"
       aria-label="♥" /></g></svg>
