<?xml version="1.0" encoding="UTF-8" standalone="no"?>
<!-- Created with Inkscape (http://www.inkscape.org/) -->

<svg
   width="179.99977"
   height="251.99976"
   viewBox="0 0 47.624938 66.674935"
   version="1.1"
   id="svg1"
   inkscape:version="1.4 (e7c3feb1, 2024-10-09)"
   sodipodi:docname="All Cards - Hearts.svg"
   xml:space="preserve"
   inkscape:export-filename="All Cards - Hearts.png"
   inkscape:export-xdpi="96"
   inkscape:export-ydpi="96"
   inkscape:export-batch-path="Hearts"
   inkscape:export-batch-name=""
   xmlns:inkscape="http://www.inkscape.org/namespaces/inkscape"
   xmlns:sodipodi="http://sodipodi.sourceforge.net/DTD/sodipodi-0.dtd"
   xmlns="http://www.w3.org/2000/svg"
   xmlns:svg="http://www.w3.org/2000/svg"><sodipodi:namedview
     id="namedview1"
     pagecolor="#ffffff"
     bordercolor="#999999"
     borderopacity="1"
     inkscape:showpageshadow="2"
     inkscape:pageopacity="0"
     inkscape:pagecheckerboard="0"
     inkscape:deskcolor="#d1d1d1"
     inkscape:document-units="px"
     showgrid="true"
     inkscape:zoom="0.7246543"
     inkscape:cx="555.43726"
     inkscape:cy="257.3641"
     inkscape:window-width="1512"
     inkscape:window-height="836"
     inkscape:window-x="0"
     inkscape:window-y="38"
     inkscape:window-maximized="0"
     inkscape:current-layer="layer11"><inkscape:grid
       id="grid2"
       units="px"
       originx="-142.875"
       originy="-3.5768442e-09"
       spacingx="0.26458333"
       spacingy="0.26458333"
       empcolor="#0099e5"
       empopacity="0.30196078"
       color="#0099e5"
       opacity="0.14901961"
       empspacing="5"
       enabled="true"
       visible="true" /></sodipodi:namedview><defs
     id="defs1"><inkscape:path-effect
       effect="fillet_chamfer"
       id="path-effect3-7"
       is_visible="true"
       lpeversion="1"
       nodesatellites_param="F,0,0,1,0,3,0,1 @ F,0,0,1,0,3,0,1 @ F,0,0,1,0,3,0,1 @ F,0,0,1,0,3,0,1"
       radius="0"
       unit="px"
       method="auto"
       mode="F"
       chamfer_steps="1"
       flexible="false"
       use_knot_distance="true"
       apply_no_radius="true"
       apply_with_radius="true"
       only_selected="false"
       hide_knots="false" /></defs><g
     inkscape:groupmode="layer"
     id="layer4"
     inkscape:label="4"
     transform="matrix(0.99998908,0,0,1.0101899,-142.87292,-0.00209528)"
     inkscape:export-filename="Hearts/4.svg"
     inkscape:export-xdpi="96"
     inkscape:export-ydpi="96"><path
       style="fill:#ffffff;fill-opacity:1;stroke:#000000;stroke-width:0.526494;stroke-linecap:round;stroke-linejoin:round;stroke-dasharray:none;stroke-opacity:1"
       id="rect1-4"
       width="47.098965"
       height="65.475883"
       x="0.26119247"
       y="0.26535115"
       inkscape:path-effect="#path-effect3-7"
       sodipodi:type="rect"
       d="M 3.2611925,0.26535115 H 44.360157 a 3,3 45 0 1 3,2.99999995 V 62.741235 a 3,3 135 0 1 -3,3 H 3.2611925 a 3,3 45 0 1 -3.00000003,-3 V 3.2653511 A 3,3 135 0 1 3.2611925,0.26535115 Z"
       transform="translate(142.87653,-2.9988694e-5)"
       inkscape:label="card" /><path
       style="font-weight:300;font-size:18.2518px;font-family:'SF Pro Rounded';-inkscape-font-specification:'SF Pro Rounded Light';letter-spacing:-7.10767px;word-spacing:0px;fill:#ff0000;stroke:#ff0000;stroke-width:0.526494;stroke-linecap:round;stroke-linejoin:round"
       d="m 168.98476,39.55147 c 0.34038,0 0.59118,-0.25714 0.59118,-0.62955 v -2.411797 h 1.42422 c 0.33143,0 0.57327,-0.212806 0.57327,-0.540882 0,-0.328074 -0.24184,-0.532014 -0.57327,-0.532014 h -1.42422 v -8.033412 c 0,-0.620683 -0.34934,-0.948759 -0.99426,-0.948759 -0.52849,0 -0.85095,0.23054 -1.37943,0.984227 -1.96166,2.722138 -3.83375,5.399942 -5.1057,7.457064 -0.22393,0.390143 -0.29558,0.602949 -0.29558,0.91329 0,0.425612 0.27767,0.700486 0.71658,0.700486 h 5.86707 v 2.411797 c 0,0.37241 0.2508,0.62955 0.60014,0.62955 z m -0.60014,-4.114243 h -5.32963 v -0.03547 c 1.29882,-2.101455 2.97385,-4.495519 5.31171,-7.714204 h 0.0179 z"
       id="text3-8-1-1"
       inkscape:label="center"
       aria-label="4" /><path
       d="m 148.65625,6.8878708 c 0.0714,0 0.12093,-0.052179 0.12093,-0.1289111 V 5.7307405 h 0.60152 c 0.0682,0 0.11782,-0.04297 0.11782,-0.1104952 0,-0.067524 -0.0497,-0.1104952 -0.11782,-0.1104952 h -0.60152 V 2.550934 c 0,-0.1227724 -0.0714,-0.1902973 -0.19535,-0.1902973 -0.10231,0 -0.16433,0.04297 -0.26044,0.1749508 -0.74415,1.0036647 -1.43559,1.9674285 -2.02781,2.8667367 -0.0465,0.073663 -0.0651,0.1197031 -0.0651,0.1810893 0,0.08901 0.0558,0.147327 0.15193,0.147327 h 2.15493 v 1.0282192 c 0,0.076733 0.0496,0.1289111 0.12092,0.1289111 z m -0.12092,-1.3781207 h -2.03711 v -0.00614 c 0.56742,-0.8655457 1.24335,-1.8201015 2.03091,-2.8575288 h 0.006 z"
       id="text1-4-8-9"
       style="font-weight:200;font-size:6.31793px;font-family:'SF Pro Rounded';-inkscape-font-specification:'SF Pro Rounded, Ultra-Light';letter-spacing:-7.10767px;word-spacing:0px;fill:#ff0000;stroke:#ff0000;stroke-width:0.526494;stroke-linecap:round;stroke-linejoin:round"
       inkscape:label="top"
       aria-label="4" /><path
       d="m 184.71827,59.118807 c -0.0714,0 -0.12092,0.05217 -0.12092,0.128911 v 1.02822 h -0.60151 c -0.0682,0 -0.11783,0.04297 -0.11783,0.110495 0,0.06753 0.0497,0.110495 0.11783,0.110495 h 0.60151 v 2.958816 c 0,0.122772 0.0714,0.190297 0.19534,0.190297 0.10233,0 0.16433,-0.04297 0.26046,-0.17495 0.74414,-1.003665 1.43558,-1.967429 2.0278,-2.866737 0.0465,-0.07366 0.0651,-0.119703 0.0651,-0.18109 0,-0.08901 -0.0558,-0.147326 -0.15193,-0.147326 h -2.15493 v -1.02822 c 0,-0.07673 -0.0497,-0.128911 -0.12093,-0.128911 z m 0.12093,1.378121 h 2.03711 v 0.0062 c -0.56742,0.865546 -1.24335,1.820102 -2.0309,2.85753 h -0.006 z"
       id="text1-4-8-9-4"
       style="font-weight:200;font-size:6.31793px;font-family:'SF Pro Rounded';-inkscape-font-specification:'SF Pro Rounded, Ultra-Light';letter-spacing:-7.10767px;word-spacing:0px;fill:#ff0000;stroke:#ff0000;stroke-width:0.526494;stroke-linecap:round;stroke-linejoin:round"
       inkscape:label="bottom"
       aria-label="4" /><path
       d="m 147.1159,13.690928 c 0.0556,0 0.13348,-0.03337 0.1928,-0.07045 1.61656,-1.038157 2.66213,-2.243161 2.66213,-3.466704 0,-1.0084958 -0.69334,-1.7277906 -1.59802,-1.7277906 -0.55616,0 -1.00108,0.3114472 -1.25691,0.7897412 -0.25583,-0.4745863 -0.70447,-0.7897412 -1.26062,-0.7897412 -0.90468,0 -1.59802,0.7192948 -1.59802,1.7277906 0,1.223543 1.04557,2.428547 2.66213,3.466704 0.0593,0.03708 0.13718,0.07045 0.19651,0.07045 z"
       id="text5-74-6-9"
       style="font-weight:300;font-size:7.59338px;line-height:0;font-family:'SF Pro Rounded';-inkscape-font-specification:'SF Pro Rounded Light';letter-spacing:0px;word-spacing:0px;text-orientation:upright;fill:#ff0000;stroke-width:0.526494;stroke-linecap:round"
       inkscape:label="heart-top"
       transform="scale(1.0050875,0.99493825)"
       aria-label="♥" /><path
       d="m -184.57117,-52.651472 c 0.0556,0 0.13347,-0.03337 0.1928,-0.07045 1.61656,-1.038158 2.66213,-2.243162 2.66213,-3.466705 0,-1.008495 -0.69334,-1.72779 -1.59802,-1.72779 -0.55616,0 -1.00108,0.311447 -1.25691,0.789741 -0.25584,-0.474586 -0.70447,-0.789741 -1.26062,-0.789741 -0.90468,0 -1.59803,0.719295 -1.59803,1.72779 0,1.223543 1.04558,2.428547 2.66214,3.466705 0.0593,0.03708 0.13718,0.07045 0.19651,0.07045 z"
       id="text5-7-4-3-4"
       style="font-weight:300;font-size:7.59338px;line-height:0;font-family:'SF Pro Rounded';-inkscape-font-specification:'SF Pro Rounded Light';letter-spacing:0px;word-spacing:0px;text-orientation:upright;fill:#ff0000;stroke-width:0.526494;stroke-linecap:round"
       inkscape:label="heart-bottom"
       transform="scale(-1.0050875,-0.99493825)"
       aria-label="♥" /></g></svg>
