<?xml version="1.0" encoding="UTF-8" standalone="no"?>
<!-- Created with Inkscape (http://www.inkscape.org/) -->

<svg
   width="179.99977"
   height="251.99976"
   viewBox="0 0 47.624938 66.674935"
   version="1.1"
   id="svg1"
   inkscape:version="1.4 (e7c3feb1, 2024-10-09)"
   sodipodi:docname="All Cards - Diamonds.svg"
   xml:space="preserve"
   inkscape:export-filename="All Cards - Diamonds.png"
   inkscape:export-xdpi="96"
   inkscape:export-ydpi="96"
   inkscape:export-batch-path="Diamonds"
   inkscape:export-batch-name=""
   xmlns:inkscape="http://www.inkscape.org/namespaces/inkscape"
   xmlns:sodipodi="http://sodipodi.sourceforge.net/DTD/sodipodi-0.dtd"
   xmlns="http://www.w3.org/2000/svg"
   xmlns:svg="http://www.w3.org/2000/svg"><sodipodi:namedview
     id="namedview1"
     pagecolor="#ffffff"
     bordercolor="#999999"
     borderopacity="1"
     inkscape:showpageshadow="2"
     inkscape:pageopacity="0"
     inkscape:pagecheckerboard="0"
     inkscape:deskcolor="#d1d1d1"
     inkscape:document-units="px"
     showgrid="true"
     inkscape:zoom="0.69002035"
     inkscape:cx="626.79311"
     inkscape:cy="261.58649"
     inkscape:window-width="1512"
     inkscape:window-height="836"
     inkscape:window-x="0"
     inkscape:window-y="38"
     inkscape:window-maximized="0"
     inkscape:current-layer="layer14"><inkscape:grid
       id="grid2"
       units="px"
       originx="-285.75"
       originy="-3.5768442e-09"
       spacingx="0.26458333"
       spacingy="0.26458333"
       empcolor="#0099e5"
       empopacity="0.30196078"
       color="#0099e5"
       opacity="0.14901961"
       empspacing="5"
       enabled="true"
       visible="true" /></sodipodi:namedview><defs
     id="defs1"><inkscape:path-effect
       effect="fillet_chamfer"
       id="path-effect3-5"
       is_visible="true"
       lpeversion="1"
       nodesatellites_param="F,0,0,1,0,3,0,1 @ F,0,0,1,0,3,0,1 @ F,0,0,1,0,3,0,1 @ F,0,0,1,0,3,0,1"
       radius="0"
       unit="px"
       method="auto"
       mode="F"
       chamfer_steps="1"
       flexible="false"
       use_knot_distance="true"
       apply_no_radius="true"
       apply_with_radius="true"
       only_selected="false"
       hide_knots="false" /></defs><g
     inkscape:groupmode="layer"
     id="layer7"
     inkscape:label="7"
     transform="matrix(0.99998908,0,0,1.0101899,-285.74792,-0.00209528)"
     inkscape:export-filename="Diamonds/7.svg"
     inkscape:export-xdpi="96"
     inkscape:export-ydpi="96"><path
       style="fill:#ffffff;fill-opacity:1;stroke:#000000;stroke-width:0.526494;stroke-linecap:round;stroke-linejoin:round;stroke-dasharray:none;stroke-opacity:1"
       id="rect1-28"
       width="47.098965"
       height="65.475883"
       x="0.26119247"
       y="0.26535115"
       inkscape:path-effect="#path-effect3-5"
       sodipodi:type="rect"
       d="M 3.2611925,0.26535115 H 44.360157 a 3,3 45 0 1 3,2.99999995 V 62.741235 a 3,3 135 0 1 -3,3 H 3.2611925 a 3,3 45 0 1 -3.00000003,-3 V 3.2653511 A 3,3 135 0 1 3.2611925,0.26535115 Z"
       transform="translate(285.75309,-2.9988694e-5)"
       inkscape:label="card" /><path
       style="font-weight:300;font-size:18.2518px;font-family:'SF Pro Rounded';-inkscape-font-specification:'SF Pro Rounded Light';letter-spacing:-7.10767px;word-spacing:0px;fill:#ff0000;stroke:#ff0000;stroke-width:0.526494;stroke-linecap:round;stroke-linejoin:round"
       d="m 305.77773,39.676937 c 0.25845,0 0.41887,-0.106944 0.55255,-0.356481 l 5.65021,-11.131103 c 0.18715,-0.35648 0.26736,-0.543632 0.26736,-0.775345 0,-0.472336 -0.2941,-0.748609 -0.78426,-0.748609 h -7.13852 c -0.32974,0 -0.57928,0.213889 -0.57928,0.543633 0,0.338656 0.24954,0.543633 0.57928,0.543633 h 6.63945 v 0.03565 l -5.65021,10.988511 c -0.0802,0.151504 -0.10695,0.258448 -0.10695,0.392128 0,0.311921 0.23171,0.507985 0.57037,0.507985 z"
       id="text3-8-1-1-3-3-3"
       inkscape:label="center"
       transform="scale(1.0050875,0.99493825)"
       aria-label="7" /><path
       d="m 289.92971,6.8387618 c 0.0527,0 0.0868,-0.024554 0.11472,-0.079802 l 2.08052,-4.0883226 c 0.0341,-0.067524 0.0496,-0.1043566 0.0496,-0.1565349 0,-0.098218 -0.0651,-0.1534656 -0.16744,-0.1534656 h -2.58592 c -0.0682,0 -0.11782,0.04297 -0.11782,0.1104953 0,0.067525 0.0496,0.1104951 0.11782,0.1104951 h 2.4929 v 0.0092 l -2.08051,4.0606988 c -0.0186,0.033762 -0.0217,0.058317 -0.0217,0.082871 0,0.064455 0.0465,0.1043566 0.11783,0.1043566 z"
       id="text1-4-8-9-6-8-60"
       style="font-weight:200;font-size:6.31793px;font-family:'SF Pro Rounded';-inkscape-font-specification:'SF Pro Rounded, Ultra-Light';letter-spacing:-7.10767px;word-spacing:0px;fill:#ff0000;stroke:#ff0000;stroke-width:0.526494;stroke-linecap:round;stroke-linejoin:round"
       inkscape:label="top"
       aria-label="7" /><path
       d="m 329.19787,59.167878 c -0.0527,0 -0.0868,0.02456 -0.11472,0.0798 l -2.08051,4.088323 c -0.0341,0.06753 -0.0496,0.104357 -0.0496,0.156535 0,0.09822 0.0651,0.153466 0.16743,0.153466 h 2.58592 c 0.0682,0 0.11782,-0.04297 0.11782,-0.110496 0,-0.06753 -0.0496,-0.110495 -0.11782,-0.110495 h -2.4929 v -0.0093 l 2.08052,-4.060698 c 0.0186,-0.03376 0.0217,-0.05831 0.0217,-0.08287 0,-0.06445 -0.0465,-0.104358 -0.11783,-0.104358 z"
       id="text1-4-8-9-6-8-60-3"
       style="font-weight:200;font-size:6.31793px;font-family:'SF Pro Rounded';-inkscape-font-specification:'SF Pro Rounded, Ultra-Light';letter-spacing:-7.10767px;word-spacing:0px;fill:#ff0000;stroke:#ff0000;stroke-width:0.526494;stroke-linecap:round;stroke-linejoin:round"
       inkscape:label="bottom"
       aria-label="7" /><path
       d="m 290.74059,14.931195 c 0.12296,0 0.18602,-0.111756 0.31214,-0.331119 l 1.47874,-2.603415 c 0.063,-0.111755 0.0977,-0.219366 0.0977,-0.339396 0,-0.12003 -0.0346,-0.227643 -0.0977,-0.339396 l -1.47874,-2.6034149 c -0.12612,-0.2193657 -0.18918,-0.331118 -0.31214,-0.331118 -0.12612,0 -0.18918,0.1117522 -0.3153,0.331118 l -1.47874,2.6034149 c -0.063,0.111753 -0.0977,0.219366 -0.0977,0.339396 0,0.12003 0.0346,0.227644 0.0977,0.339396 l 1.47874,2.603415 c 0.12612,0.219366 0.18918,0.331119 0.3153,0.331119 z"
       id="text4-1-5-4-7-7-8"
       style="font-weight:300;font-size:7.39837px;line-height:0;font-family:'SF Pro Rounded';-inkscape-font-specification:'SF Pro Rounded Light';letter-spacing:0px;word-spacing:0px;text-orientation:upright;fill:#ff0000;stroke-width:0.526494;stroke-linecap:round"
       inkscape:label="diamond-top"
       aria-label="♦" /><path
       d="m 328.39015,57.623251 c 0.12296,0 0.18602,-0.111755 0.31214,-0.331118 l 1.47875,-2.603415 c 0.063,-0.111756 0.0977,-0.219366 0.0977,-0.339396 0,-0.12003 -0.0346,-0.227643 -0.0977,-0.339395 l -1.47875,-2.603416 c -0.12612,-0.219365 -0.18918,-0.331118 -0.31214,-0.331118 -0.12611,0 -0.18917,0.111755 -0.31529,0.331118 l -1.47875,2.603416 c -0.063,0.111756 -0.0977,0.219365 -0.0977,0.339395 0,0.12003 0.0346,0.227644 0.0977,0.339396 l 1.47875,2.603415 c 0.12612,0.219366 0.18918,0.331118 0.31529,0.331118 z"
       id="text4-5-0-0-0-5-2-0"
       style="font-weight:300;font-size:7.39837px;line-height:0;font-family:'SF Pro Rounded';-inkscape-font-specification:'SF Pro Rounded Light';letter-spacing:0px;word-spacing:0px;text-orientation:upright;fill:#ff0000;stroke-width:0.526494;stroke-linecap:round"
       inkscape:label="diamond-bottom"
       aria-label="♦" /></g></svg>
