<?xml version="1.0" encoding="UTF-8" standalone="no"?>
<!-- Created with Inkscape (http://www.inkscape.org/) -->

<svg
   width="179.99976"
   height="251.99976"
   viewBox="0 0 47.624934 66.674935"
   version="1.1"
   id="svg1"
   inkscape:version="1.4 (e7c3feb1, 2024-10-09)"
   sodipodi:docname="All Cards - Diamonds.svg"
   xml:space="preserve"
   inkscape:export-filename="All Cards - Diamonds.png"
   inkscape:export-xdpi="96"
   inkscape:export-ydpi="96"
   xmlns:inkscape="http://www.inkscape.org/namespaces/inkscape"
   xmlns:sodipodi="http://sodipodi.sourceforge.net/DTD/sodipodi-0.dtd"
   xmlns="http://www.w3.org/2000/svg"
   xmlns:svg="http://www.w3.org/2000/svg"><sodipodi:namedview
     id="namedview1"
     pagecolor="#ffffff"
     bordercolor="#999999"
     borderopacity="1"
     inkscape:showpageshadow="2"
     inkscape:pageopacity="0"
     inkscape:pagecheckerboard="0"
     inkscape:deskcolor="#d1d1d1"
     inkscape:document-units="px"
     showgrid="true"
     inkscape:zoom="0.56122896"
     inkscape:cx="712.7216"
     inkscape:cy="285.97954"
     inkscape:window-width="1512"
     inkscape:window-height="836"
     inkscape:window-x="0"
     inkscape:window-y="38"
     inkscape:window-maximized="0"
     inkscape:current-layer="layer14"><inkscape:grid
       id="grid2"
       units="px"
       originx="-285.75"
       originy="-3.5768444e-09"
       spacingx="0.26458333"
       spacingy="0.26458333"
       empcolor="#0099e5"
       empopacity="0.30196078"
       color="#0099e5"
       opacity="0.14901961"
       empspacing="5"
       enabled="true"
       visible="true" /><inkscape:page
       x="0"
       y="0"
       width="47.624935"
       height="66.674934"
       id="page2"
       margin="0"
       bleed="0" /></sodipodi:namedview><defs
     id="defs1"><inkscape:path-effect
       effect="fillet_chamfer"
       id="path-effect3-5"
       is_visible="true"
       lpeversion="1"
       nodesatellites_param="F,0,0,1,0,3,0,1 @ F,0,0,1,0,3,0,1 @ F,0,0,1,0,3,0,1 @ F,0,0,1,0,3,0,1"
       radius="0"
       unit="px"
       method="auto"
       mode="F"
       chamfer_steps="1"
       flexible="false"
       use_knot_distance="true"
       apply_no_radius="true"
       apply_with_radius="true"
       only_selected="false"
       hide_knots="false" /></defs><g
     inkscape:groupmode="layer"
     id="layer7"
     inkscape:label="7"
     transform="matrix(0.99998908,0,0,1.0101899,-285.74792,-0.00209528)"
     inkscape:export-filename="Diamonds/7.svg"
     inkscape:export-xdpi="96"
     inkscape:export-ydpi="96"><path
       style="fill:#ffffff;fill-opacity:1;stroke:#000000;stroke-width:0.526494;stroke-linecap:round;stroke-linejoin:round;stroke-dasharray:none;stroke-opacity:1"
       id="rect1-28"
       width="47.098965"
       height="65.475883"
       x="0.26119247"
       y="0.26535115"
       inkscape:path-effect="#path-effect3-5"
       sodipodi:type="rect"
       d="M 3.2611925,0.26535115 H 44.360157 a 3,3 45 0 1 3,2.99999995 V 62.741235 a 3,3 135 0 1 -3,3 H 3.2611925 a 3,3 45 0 1 -3.00000003,-3 V 3.2653511 A 3,3 135 0 1 3.2611925,0.26535115 Z"
       transform="translate(285.75309,-2.9988694e-5)"
       inkscape:label="card" /><path
       style="font-weight:300;font-size:18.2518px;font-family:'SF Pro Rounded';-inkscape-font-specification:'SF Pro Rounded Light';letter-spacing:-7.10767px;word-spacing:0px;fill:#ff0000;stroke:#ff0000;stroke-width:0.526494;stroke-linecap:round;stroke-linejoin:round"
       d="m 305.77773,39.676937 c 0.25845,0 0.41887,-0.106944 0.55255,-0.356481 l 5.65021,-11.131103 c 0.18715,-0.35648 0.26736,-0.543632 0.26736,-0.775345 0,-0.472336 -0.2941,-0.748609 -0.78426,-0.748609 h -7.13852 c -0.32974,0 -0.57928,0.213889 -0.57928,0.543633 0,0.338656 0.24954,0.543633 0.57928,0.543633 h 6.63945 v 0.03565 l -5.65021,10.988511 c -0.0802,0.151504 -0.10695,0.258448 -0.10695,0.392128 0,0.311921 0.23171,0.507985 0.57037,0.507985 z"
       id="text3-8-1-1-3-3-3"
       inkscape:label="center"
       transform="scale(1.0050875,0.99493825)"
       aria-label="7" /><path
       d="m 287.31862,6.8722157 c 0.0524,0 0.0864,-0.024679 0.11414,-0.080208 l 2.06999,-4.1091219 c 0.0339,-0.067868 0.0494,-0.1048875 0.0494,-0.1573313 0,-0.098718 -0.0648,-0.1542463 -0.16659,-0.1542463 h -2.57283 c -0.0679,0 -0.11723,0.043189 -0.11723,0.1110574 0,0.067868 0.0494,0.1110573 0.11723,0.1110573 h 2.48028 v 0.00925 l -2.06998,4.0813576 c -0.0185,0.033934 -0.0216,0.058614 -0.0216,0.083293 0,0.064783 0.0463,0.1048875 0.11723,0.1048875 z"
       id="text1-4-8-9-6-8-60"
       style="font-weight:200;font-size:6.31793px;font-family:'SF Pro Rounded';-inkscape-font-specification:'SF Pro Rounded, Ultra-Light';letter-spacing:-7.10767px;word-spacing:0px;fill:#ff0000;stroke:#ff0000;stroke-width:0.526494;stroke-linecap:round;stroke-linejoin:round"
       inkscape:label="top"
       transform="scale(1.0050875,0.99493825)"
       aria-label="7" /><path
       d="m -328.67503,-59.470283 c 0.0524,0 0.0864,-0.02468 0.11414,-0.08021 l 2.06998,-4.109122 c 0.0339,-0.06787 0.0494,-0.104888 0.0494,-0.157331 0,-0.09872 -0.0648,-0.154247 -0.16658,-0.154247 h -2.57283 c -0.0679,0 -0.11723,0.04319 -0.11723,0.111058 0,0.06787 0.0494,0.111057 0.11723,0.111057 h 2.48028 v 0.0093 l -2.06999,4.081357 c -0.0185,0.03393 -0.0216,0.05861 -0.0216,0.08329 0,0.06478 0.0463,0.104888 0.11723,0.104888 z"
       id="text1-4-8-9-6-8-60-3"
       style="font-weight:200;font-size:6.31793px;font-family:'SF Pro Rounded';-inkscape-font-specification:'SF Pro Rounded, Ultra-Light';letter-spacing:-7.10767px;word-spacing:0px;fill:#ff0000;stroke:#ff0000;stroke-width:0.526494;stroke-linecap:round;stroke-linejoin:round"
       inkscape:label="bottom"
       transform="scale(-1.0050875,-0.99493825)"
       aria-label="7" /><path
       d="m 331.98954,13.031903 c 0.14088,0 0.21313,-0.09754 0.35763,-0.288999 l 1.69426,-2.272253 c 0.0722,-0.09754 0.11199,-0.191462 0.11199,-0.296224 0,-0.104762 -0.0397,-0.1986866 -0.11199,-0.2962237 L 332.34717,7.60595 c -0.1445,-0.1914617 -0.21675,-0.2889988 -0.35763,-0.2889988 -0.1445,0 -0.21675,0.097537 -0.36125,0.2889988 l -1.69426,2.2722533 c -0.0722,0.097537 -0.11198,0.1914617 -0.11198,0.2962237 0,0.104762 0.0397,0.198687 0.11198,0.296224 l 1.69426,2.272253 c 0.1445,0.191462 0.21675,0.288999 0.36125,0.288999 z"
       id="text4-1-5-4-7-7-8"
       style="font-weight:300;font-size:7.39837px;line-height:0;font-family:'SF Pro Rounded';-inkscape-font-specification:'SF Pro Rounded Light';letter-spacing:0px;word-spacing:0px;text-orientation:upright;fill:#ff0000;stroke-width:0.526494;stroke-linecap:round"
       inkscape:label="diamond-top"
       transform="scale(0.87279708,1.1457417)"
       aria-label="♦" /><path
       d="m 377.37436,50.293405 c 0.14089,0 0.21314,-0.09754 0.35764,-0.288999 l 1.69426,-2.272253 c 0.0722,-0.09754 0.11198,-0.191462 0.11198,-0.296224 0,-0.104762 -0.0397,-0.198686 -0.11198,-0.296223 L 377.732,44.867452 c -0.1445,-0.191461 -0.21675,-0.288999 -0.35764,-0.288999 -0.14449,0 -0.21674,0.09754 -0.36124,0.288999 l -1.69426,2.272254 c -0.0722,0.09754 -0.11199,0.191461 -0.11199,0.296223 0,0.104762 0.0397,0.198687 0.11199,0.296224 l 1.69426,2.272253 c 0.1445,0.191462 0.21675,0.288999 0.36124,0.288999 z"
       id="text4-5-0-0-0-5-2-0"
       style="font-weight:300;font-size:7.39837px;line-height:0;font-family:'SF Pro Rounded';-inkscape-font-specification:'SF Pro Rounded Light';letter-spacing:0px;word-spacing:0px;text-orientation:upright;fill:#ff0000;stroke-width:0.526494;stroke-linecap:round"
       inkscape:label="diamond-bottom"
       transform="scale(0.87279708,1.1457417)"
       aria-label="♦" /></g></svg>
