<?xml version="1.0" encoding="UTF-8" standalone="no"?>
<!DOCTYPE svg PUBLIC "-//W3C//DTD SVG 1.1//EN" "http://www.w3.org/Graphics/SVG/1.1/DTD/svg11.dtd">
<!-- Created with Vectornator (http://vectornator.io/) -->
<svg height="100%" stroke-miterlimit="10" style="fill-rule:nonzero;clip-rule:evenodd;stroke-linecap:round;stroke-linejoin:round;" version="1.1" viewBox="0 0 180 252" width="100%" xml:space="preserve" xmlns="http://www.w3.org/2000/svg" xmlns:vectornator="http://vectornator.io" xmlns:xlink="http://www.w3.org/1999/xlink">
<defs>
<clipPath id="TextBounds">
<rect height="39" width="20.625" x="8.20312" y="3"/>
</clipPath>
<clipPath id="TextBounds_2">
<rect height="39" width="20.625" x="151.172" y="210"/>
</clipPath>
<clipPath id="TextBounds_3">
<rect height="77" width="38.25" x="70.875" y="87.5"/>
</clipPath>
</defs>
<clipPath id="ArtboardFrame">
<rect height="252" width="180" x="0" y="0"/>
</clipPath>
<g clip-path="url(#ArtboardFrame)" id="Layer-1" vectornator:layerName="Layer 1">
<path d="M16 0L164 0C172.837 0 180 7.16344 180 16L180 236C180 244.837 172.837 252 164 252L16 252C7.16344 252 0 244.837 0 236L0 16C0 7.16344 7.16344 0 16 0Z" fill="#ffffff" fill-rule="nonzero" opacity="1" stroke="none"/>
<path clip-path="url(#TextBounds)" d="M11.3438 28.625C11.3438 31.0156 14.2969 33.4531 18.3281 33.4531C22.6719 33.4531 25.7031 30.8906 25.7031 27.2344C25.7031 24.5469 23.6875 22.2344 21.0469 21.9375L21.0469 21.7812C23.2188 21.4062 24.9844 19.1562 24.9844 16.7969C24.9844 13.5469 22.2031 11.2187 18.2969 11.2187C14.4531 11.2187 11.8438 13.5625 11.8438 15.9844C11.8438 16.7656 12.3125 17.2812 13.0312 17.2812C13.6406 17.2812 14.0312 16.9531 14.3438 16.0937C14.9688 14.4844 16.375 13.5625 18.2344 13.5625C20.625 13.5625 22.2344 15 22.2344 17.1406C22.2344 19.2812 20.5781 20.8281 18.2969 20.8281L16.4531 20.8281C15.7031 20.8281 15.2031 21.3125 15.2031 22C15.2031 22.6719 15.7344 23.1875 16.4531 23.1875L18.4062 23.1875C21.125 23.1875 22.9531 24.7969 22.9531 27.1875C22.9531 29.5781 21.1719 31.1094 18.375 31.1094C16.25 31.1094 14.625 30.1719 13.8125 28.5C13.4062 27.7031 13.0625 27.4219 12.5156 27.4219C11.8281 27.4219 11.3438 27.9219 11.3438 28.625Z" fill="#000000" opacity="1" stroke="none"/>
<path clip-path="url(#TextBounds_2)" d="M168.656 223.375C168.656 220.984 165.703 218.547 161.672 218.547C157.328 218.547 154.297 221.109 154.297 224.766C154.297 227.453 156.312 229.766 158.953 230.062L158.953 230.219C156.781 230.594 155.016 232.844 155.016 235.203C155.016 238.453 157.797 240.781 161.703 240.781C165.547 240.781 168.156 238.438 168.156 236.016C168.156 235.234 167.688 234.719 166.969 234.719C166.359 234.719 165.969 235.047 165.656 235.906C165.031 237.516 163.625 238.438 161.766 238.438C159.375 238.438 157.766 237 157.766 234.859C157.766 232.719 159.422 231.172 161.703 231.172L163.547 231.172C164.297 231.172 164.797 230.688 164.797 230C164.797 229.328 164.266 228.812 163.547 228.812L161.594 228.812C158.875 228.812 157.047 227.203 157.047 224.812C157.047 222.422 158.828 220.891 161.625 220.891C163.75 220.891 165.375 221.828 166.188 223.5C166.594 224.297 166.938 224.578 167.484 224.578C168.172 224.578 168.656 224.078 168.656 223.375Z" fill="#000000" opacity="1" stroke="none"/>
<path clip-path="url(#TextBounds_3)" d="M75.6562 139.75C75.6562 144.531 81.5625 149.406 89.625 149.406C98.3125 149.406 104.375 144.281 104.375 136.969C104.375 131.594 100.344 126.969 95.0625 126.375L95.0625 126.062C99.4062 125.312 102.938 120.812 102.938 116.094C102.938 109.594 97.375 104.937 89.5625 104.937C81.875 104.937 76.6562 109.625 76.6562 114.469C76.6562 116.031 77.5938 117.062 79.0312 117.062C80.25 117.062 81.0312 116.406 81.6562 114.687C82.9062 111.469 85.7188 109.625 89.4375 109.625C94.2188 109.625 97.4375 112.5 97.4375 116.781C97.4375 121.062 94.125 124.156 89.5625 124.156L85.875 124.156C84.375 124.156 83.375 125.125 83.375 126.5C83.375 127.844 84.4375 128.875 85.875 128.875L89.7812 128.875C95.2188 128.875 98.875 132.094 98.875 136.875C98.875 141.656 95.3125 144.719 89.7188 144.719C85.4688 144.719 82.2188 142.844 80.5938 139.5C79.7812 137.906 79.0938 137.344 78 137.344C76.625 137.344 75.6562 138.344 75.6562 139.75Z" fill="#000000" opacity="1" stroke="none"/>
<path d="M15 1L165 1C172.732 1 179 7.28814 179 15.0449L179 236.955C179 244.712 172.732 251 165 251L15 251C7.26801 251 1 244.712 1 236.955L1 15.0449C1 7.28814 7.26801 1 15 1Z" fill="none" opacity="1" stroke="#000000" stroke-linecap="round" stroke-linejoin="round" stroke-width="2"/>
</g>
</svg>
