<?xml version="1.0" encoding="UTF-8" standalone="no"?>
<!-- Created with Inkscape (http://www.inkscape.org/) -->

<svg
   width="179.99977"
   height="251.99976"
   viewBox="0 0 47.624938 66.674935"
   version="1.1"
   id="svg1"
   inkscape:version="1.4 (e7c3feb1, 2024-10-09)"
   sodipodi:docname="All Cards - Diamonds.svg"
   xml:space="preserve"
   inkscape:export-filename="All Cards - Diamonds.png"
   inkscape:export-xdpi="96"
   inkscape:export-ydpi="96"
   inkscape:export-batch-path="Diamonds"
   inkscape:export-batch-name=""
   xmlns:inkscape="http://www.inkscape.org/namespaces/inkscape"
   xmlns:sodipodi="http://sodipodi.sourceforge.net/DTD/sodipodi-0.dtd"
   xmlns="http://www.w3.org/2000/svg"
   xmlns:svg="http://www.w3.org/2000/svg"><sodipodi:namedview
     id="namedview1"
     pagecolor="#ffffff"
     bordercolor="#999999"
     borderopacity="1"
     inkscape:showpageshadow="2"
     inkscape:pageopacity="0"
     inkscape:pagecheckerboard="0"
     inkscape:deskcolor="#d1d1d1"
     inkscape:document-units="px"
     showgrid="true"
     inkscape:zoom="0.69002035"
     inkscape:cx="626.79311"
     inkscape:cy="261.58649"
     inkscape:window-width="1512"
     inkscape:window-height="836"
     inkscape:window-x="0"
     inkscape:window-y="38"
     inkscape:window-maximized="0"
     inkscape:current-layer="layer14"><inkscape:grid
       id="grid2"
       units="px"
       originx="-47.624998"
       originy="-3.5768442e-09"
       spacingx="0.26458333"
       spacingy="0.26458333"
       empcolor="#0099e5"
       empopacity="0.30196078"
       color="#0099e5"
       opacity="0.14901961"
       empspacing="5"
       enabled="true"
       visible="true" /></sodipodi:namedview><defs
     id="defs1"><inkscape:path-effect
       effect="fillet_chamfer"
       id="path-effect3-4"
       is_visible="true"
       lpeversion="1"
       nodesatellites_param="F,0,0,1,0,3,0,1 @ F,0,0,1,0,3,0,1 @ F,0,0,1,0,3,0,1 @ F,0,0,1,0,3,0,1"
       radius="0"
       unit="px"
       method="auto"
       mode="F"
       chamfer_steps="1"
       flexible="false"
       use_knot_distance="true"
       apply_no_radius="true"
       apply_with_radius="true"
       only_selected="false"
       hide_knots="false" /></defs><g
     inkscape:groupmode="layer"
     id="layer2"
     inkscape:label="2"
     transform="matrix(0.99998908,0,0,1.0101899,-47.622914,-0.00209528)"
     inkscape:export-filename="Diamonds/2.svg"
     inkscape:export-xdpi="96"
     inkscape:export-ydpi="96"><path
       style="fill:#ffffff;fill-opacity:1;stroke:#000000;stroke-width:0.526494;stroke-linecap:round;stroke-linejoin:round;stroke-dasharray:none;stroke-opacity:1"
       id="rect1-1"
       width="47.098965"
       height="65.475883"
       x="0.26119247"
       y="0.26535115"
       inkscape:path-effect="#path-effect3-4"
       sodipodi:type="rect"
       d="M 3.2611925,0.26535115 H 44.360157 a 3,3 45 0 1 3,2.99999995 V 62.741235 a 3,3 135 0 1 -3,3 H 3.2611925 a 3,3 45 0 1 -3.00000003,-3 V 3.2653511 A 3,3 135 0 1 3.2611925,0.26535115 Z"
       transform="translate(47.625489,-2.9988694e-5)"
       inkscape:label="card" /><path
       style="font-weight:300;font-size:18.2518px;font-family:'SF Pro Rounded';-inkscape-font-specification:'SF Pro Rounded Light';letter-spacing:-7.10767px;word-spacing:0px;fill:#ff0000;stroke:#ff0000;stroke-width:0.526494;stroke-linecap:round;stroke-linejoin:round"
       d="m 67.425106,39.703671 h 7.334585 c 0.338657,0 0.570369,-0.213889 0.570369,-0.543633 0,-0.329745 -0.231712,-0.543633 -0.570369,-0.543633 h -6.211672 v -0.03565 L 72.095,34.882272 c 2.165619,-2.245827 2.816196,-3.306356 2.816196,-4.687718 0,-2.058675 -1.657635,-3.555893 -3.93911,-3.555893 -2.424067,0 -3.876725,1.577426 -4.081701,3.065732 -0.01782,0.124768 -0.02674,0.213888 -0.02674,0.320832 0,0.320833 0.204976,0.552545 0.561457,0.552545 0.338656,0 0.481248,-0.17824 0.552544,-0.4456 0.338657,-1.434834 1.381362,-2.424068 3.01226,-2.424068 1.55069,0 2.709252,1.096178 2.709252,2.548836 0,1.131825 -0.481249,1.90717 -2.308211,3.832165 l -4.224294,4.42927 c -0.285184,0.303008 -0.347568,0.418864 -0.347568,0.668401 0,0.320832 0.240624,0.516897 0.606017,0.516897 z"
       id="text3-8"
       inkscape:label="center"
       transform="scale(1.0050875,0.99493825)"
       aria-label="2" /><path
       d="m 51.287468,6.8541083 h 2.663433 c 0.07131,0 0.117824,-0.04297 0.117824,-0.1104953 0,-0.067524 -0.04651,-0.1104952 -0.117824,-0.1104952 h -2.437088 v -0.012277 l 1.385977,-1.448715 c 0.741049,-0.7703971 0.970495,-1.1325758 0.970495,-1.5991111 0,-0.6967336 -0.573615,-1.212378 -1.348771,-1.212378 -0.75345,0 -1.271253,0.4818819 -1.35187,1.0711897 -0.0062,0.04604 -0.0093,0.076733 -0.0093,0.1104952 0,0.067525 0.0403,0.1166338 0.114723,0.1166338 0.07131,0 0.10232,-0.036832 0.114723,-0.098218 0.07442,-0.5217829 0.468194,-0.9821797 1.141028,-0.9821797 0.620124,0 1.094519,0.4358423 1.094519,1.0036649 0,0.4143569 -0.198439,0.7151495 -0.880576,1.4333683 l -1.519304,1.5899033 c -0.05581,0.058317 -0.07131,0.085941 -0.07131,0.1381189 0,0.070594 0.05581,0.1104953 0.133327,0.1104953 z"
       id="text1-4"
       style="font-weight:200;font-size:6.31793px;font-family:'SF Pro Rounded';-inkscape-font-specification:'SF Pro Rounded, Ultra-Light';letter-spacing:-7.10767px;word-spacing:0px;fill:#ff0000;stroke:#ff0000;stroke-width:0.526494;stroke-linecap:round;stroke-linejoin:round"
       inkscape:label="top"
       aria-label="2" /><path
       d="m 91.584918,59.152594 h -2.663432 c -0.07131,0 -0.117825,0.04297 -0.117825,0.110495 0,0.06753 0.04651,0.110495 0.117825,0.110495 h 2.437088 v 0.01228 l -1.385978,1.448714 c -0.741049,0.770397 -0.970494,1.132576 -0.970494,1.599112 0,0.696733 0.573614,1.212377 1.34877,1.212377 0.753451,0 1.271255,-0.481881 1.351871,-1.071189 0.0062,-0.04604 0.0093,-0.07673 0.0093,-0.110495 0,-0.06753 -0.0403,-0.116634 -0.114723,-0.116634 -0.07131,0 -0.102319,0.03683 -0.114722,0.09822 -0.07442,0.521784 -0.468194,0.982181 -1.141029,0.982181 -0.620124,0 -1.094519,-0.435843 -1.094519,-1.003665 0,-0.414357 0.198439,-0.71515 0.880576,-1.433369 l 1.519305,-1.589903 c 0.05581,-0.05831 0.07131,-0.08594 0.07131,-0.138119 0,-0.07059 -0.05581,-0.110496 -0.133327,-0.110496 z"
       id="text1-4-2"
       style="font-weight:200;font-size:6.31793px;font-family:'SF Pro Rounded';-inkscape-font-specification:'SF Pro Rounded, Ultra-Light';letter-spacing:-7.10767px;word-spacing:0px;fill:#ff0000;stroke:#ff0000;stroke-width:0.526494;stroke-linecap:round;stroke-linejoin:round"
       inkscape:label="bottom"
       aria-label="2" /><path
       d="m 52.612989,14.931195 c 0.122965,0 0.186024,-0.111756 0.312143,-0.331119 l 1.478741,-2.603415 c 0.06306,-0.111755 0.09774,-0.219366 0.09774,-0.339396 0,-0.12003 -0.03468,-0.227643 -0.09774,-0.339396 L 52.925132,8.7144541 c -0.126119,-0.2193657 -0.189178,-0.331118 -0.312143,-0.331118 -0.12612,0 -0.189179,0.1117522 -0.315298,0.331118 L 50.81895,11.317869 c -0.06306,0.111753 -0.09774,0.219366 -0.09774,0.339396 0,0.12003 0.03468,0.227644 0.09774,0.339396 l 1.478741,2.603415 c 0.126119,0.219366 0.189178,0.331119 0.315298,0.331119 z"
       id="text4-1"
       style="font-weight:300;font-size:7.39837px;line-height:0;font-family:'SF Pro Rounded';-inkscape-font-specification:'SF Pro Rounded Light';letter-spacing:0px;word-spacing:0px;text-orientation:upright;fill:#ff0000;stroke-width:0.526494;stroke-linecap:round"
       inkscape:label="diamond-top"
       aria-label="♦" /><path
       d="m 90.26255,57.623251 c 0.122968,0 0.186028,-0.111755 0.312147,-0.331118 l 1.478736,-2.603415 c 0.06302,-0.111756 0.09775,-0.219366 0.09775,-0.339396 0,-0.12003 -0.03465,-0.227643 -0.09775,-0.339395 l -1.478736,-2.603416 c -0.126119,-0.219365 -0.189179,-0.331118 -0.312147,-0.331118 -0.126119,0 -0.189179,0.111755 -0.315298,0.331118 l -1.478745,2.603416 c -0.06302,0.111756 -0.09774,0.219365 -0.09774,0.339395 0,0.12003 0.03465,0.227644 0.09774,0.339396 l 1.478745,2.603415 c 0.126119,0.219366 0.189179,0.331118 0.315298,0.331118 z"
       id="text4-5-0"
       style="font-weight:300;font-size:7.39837px;line-height:0;font-family:'SF Pro Rounded';-inkscape-font-specification:'SF Pro Rounded Light';letter-spacing:0px;word-spacing:0px;text-orientation:upright;fill:#ff0000;stroke-width:0.526494;stroke-linecap:round"
       inkscape:label="diamond-bottom"
       aria-label="♦" /></g></svg>
