<?xml version="1.0" encoding="UTF-8" standalone="no"?>
<!-- Created with Inkscape (http://www.inkscape.org/) -->

<svg
   width="179.99976"
   height="251.99976"
   viewBox="0 0 47.624934 66.674935"
   version="1.1"
   id="svg1"
   inkscape:version="1.4 (e7c3feb1, 2024-10-09)"
   sodipodi:docname="All Cards - Spades.svg"
   xml:space="preserve"
   inkscape:export-filename="All Cards - Spades.png"
   inkscape:export-xdpi="96"
   inkscape:export-ydpi="96"
   xmlns:inkscape="http://www.inkscape.org/namespaces/inkscape"
   xmlns:sodipodi="http://sodipodi.sourceforge.net/DTD/sodipodi-0.dtd"
   xmlns="http://www.w3.org/2000/svg"
   xmlns:svg="http://www.w3.org/2000/svg"><sodipodi:namedview
     id="namedview1"
     pagecolor="#ffffff"
     bordercolor="#999999"
     borderopacity="1"
     inkscape:showpageshadow="2"
     inkscape:pageopacity="0"
     inkscape:pagecheckerboard="0"
     inkscape:deskcolor="#d1d1d1"
     inkscape:document-units="px"
     showgrid="true"
     inkscape:zoom="0.61073719"
     inkscape:cx="687.6935"
     inkscape:cy="297.18184"
     inkscape:window-width="1512"
     inkscape:window-height="836"
     inkscape:window-x="0"
     inkscape:window-y="38"
     inkscape:window-maximized="0"
     inkscape:current-layer="layer13"><inkscape:grid
       id="grid2"
       units="px"
       originx="-190.49999"
       originy="-3.5768444e-09"
       spacingx="0.26458333"
       spacingy="0.26458333"
       empcolor="#0099e5"
       empopacity="0.30196078"
       color="#0099e5"
       opacity="0.14901961"
       empspacing="5"
       enabled="true"
       visible="true" /><inkscape:page
       x="0"
       y="0"
       width="47.624935"
       height="66.674934"
       id="page2"
       margin="0"
       bleed="0" /></sodipodi:namedview><defs
     id="defs1"><inkscape:path-effect
       effect="fillet_chamfer"
       id="path-effect3-0"
       is_visible="true"
       lpeversion="1"
       nodesatellites_param="F,0,0,1,0,3,0,1 @ F,0,0,1,0,3,0,1 @ F,0,0,1,0,3,0,1 @ F,0,0,1,0,3,0,1"
       radius="0"
       unit="px"
       method="auto"
       mode="F"
       chamfer_steps="1"
       flexible="false"
       use_knot_distance="true"
       apply_no_radius="true"
       apply_with_radius="true"
       only_selected="false"
       hide_knots="false" /></defs><g
     inkscape:groupmode="layer"
     id="layer5"
     inkscape:label="5"
     transform="matrix(0.99998908,0,0,1.0101899,-190.4979,-0.00209528)"
     inkscape:export-filename="Spades/5.svg"
     inkscape:export-xdpi="96"
     inkscape:export-ydpi="96"><path
       style="fill:#ffffff;fill-opacity:1;stroke:#000000;stroke-width:0.526494;stroke-linecap:round;stroke-linejoin:round;stroke-dasharray:none"
       id="rect1-48"
       width="47.098965"
       height="65.475883"
       x="0.26119247"
       y="0.26535115"
       inkscape:path-effect="#path-effect3-0"
       sodipodi:type="rect"
       d="M 3.2611925,0.26535115 H 44.360157 a 3,3 45 0 1 3,2.99999995 V 62.741235 a 3,3 135 0 1 -3,3 H 3.2611925 a 3,3 45 0 1 -3.00000003,-3 V 3.2653511 A 3,3 135 0 1 3.2611925,0.26535115 Z"
       transform="translate(190.50205,-2.9988694e-5)"
       inkscape:label="card" /><path
       style="font-weight:300;font-size:18.2518px;font-family:'SF Pro Rounded';-inkscape-font-specification:'SF Pro Rounded Light';letter-spacing:-7.10767px;word-spacing:0px;stroke:#000000;stroke-width:0.526494;stroke-linecap:round;stroke-linejoin:round"
       d="m 213.07197,39.703672 c 2.62905,0 4.51839,-1.818051 4.51839,-4.375798 0,-2.459716 -1.79131,-4.233206 -4.25103,-4.233206 -1.31897,0 -2.47754,0.525809 -3.11029,1.408098 h -0.0267 l 0.49016,-4.776838 h 5.61456 c 0.34757,0 0.57037,-0.213889 0.57037,-0.543633 0,-0.329745 -0.2228,-0.543633 -0.57037,-0.543633 h -5.63239 c -0.70405,0 -1.01597,0.26736 -1.07835,0.935761 l -0.54363,5.525448 c 0,0.06238 0,0.09803 0,0.142592 -0.009,0.365392 0.20497,0.641665 0.5971,0.641665 0.32083,0 0.42778,-0.0713 0.87338,-0.552545 0.60601,-0.739697 1.5596,-1.185298 2.61122,-1.185298 1.86261,0 3.23506,1.354626 3.23506,3.208325 0,1.916082 -1.37245,3.270708 -3.27071,3.270708 -1.53287,0 -2.70925,-0.846641 -3.08356,-2.183443 -0.11585,-0.383216 -0.26736,-0.53472 -0.57928,-0.53472 -0.34757,0 -0.57037,0.2228 -0.57037,0.570368 0,0.249537 0.0535,0.445601 0.13368,0.659489 0.53472,1.532866 2.11215,2.56666 4.07279,2.56666 z"
       id="text3-8-1-1-3"
       inkscape:label="center"
       transform="scale(1.0050875,0.99493825)"
       aria-label="5" /><path
       d="m 193.33019,6.8876404 c 0.88229,0 1.53012,-0.6200702 1.53012,-1.4931044 0,-0.8421849 -0.62624,-1.4653401 -1.46842,-1.4653401 -0.48433,0 -0.93165,0.2190298 -1.17227,0.5707114 h -0.009 l 0.21286,-1.9064845 h 2.04222 c 0.071,0 0.11723,-0.043189 0.11723,-0.1110573 0,-0.067868 -0.0463,-0.1110574 -0.11723,-0.1110574 h -2.0669 c -0.12956,0 -0.18818,0.052444 -0.20052,0.1758408 L 191.97,4.6603235 c -0.003,0.00617 -0.003,0.01234 -0.003,0.01851 -0.003,0.080208 0.0432,0.1388216 0.12649,0.1388216 0.074,0 0.1018,-0.024679 0.19435,-0.1357367 0.24987,-0.3331721 0.63858,-0.5367772 1.07663,-0.5367772 0.71262,0 1.25248,0.5398621 1.25248,1.255565 0,0.7342125 -0.54603,1.2679048 -1.28024,1.2679048 -0.59231,0 -1.07972,-0.3609364 -1.20004,-0.8668643 -0.0247,-0.098718 -0.0524,-0.1357368 -0.12648,-0.1357368 -0.0679,0 -0.11414,0.046274 -0.11414,0.1172272 0,0.046274 0.009,0.089463 0.0247,0.1357368 0.14808,0.5645415 0.69411,0.9686669 1.40981,0.9686669 z"
       id="text1-4-8-9-6"
       style="font-weight:200;font-size:6.31793px;font-family:'SF Pro Rounded';-inkscape-font-specification:'SF Pro Rounded, Ultra-Light';letter-spacing:-7.10767px;word-spacing:0px;stroke:#000000;stroke-width:0.526494;stroke-linecap:round;stroke-linejoin:round"
       inkscape:label="top"
       transform="scale(1.0050875,0.99493825)"
       aria-label="5" /><path
       d="m -233.12564,-59.454679 c 0.88229,0 1.53013,-0.62007 1.53013,-1.493105 0,-0.842184 -0.62624,-1.46534 -1.46843,-1.46534 -0.48433,0 -0.93164,0.21903 -1.17227,0.570712 h -0.009 l 0.21286,-1.906485 h 2.04222 c 0.0709,0 0.11722,-0.04319 0.11722,-0.111057 0,-0.06787 -0.0463,-0.111057 -0.11722,-0.111057 h -2.0669 c -0.12957,0 -0.18818,0.05244 -0.20052,0.17584 l -0.22829,2.113175 c -0.003,0.0062 -0.003,0.01234 -0.003,0.01851 -0.003,0.08021 0.0432,0.138821 0.12648,0.138821 0.074,0 0.1018,-0.02468 0.19435,-0.135737 0.24988,-0.333172 0.63858,-0.536777 1.07664,-0.536777 0.71262,0 1.25248,0.539862 1.25248,1.255565 0,0.734213 -0.54603,1.267905 -1.28025,1.267905 -0.5923,0 -1.07972,-0.360936 -1.20003,-0.866864 -0.0247,-0.09872 -0.0524,-0.135737 -0.12648,-0.135737 -0.0679,0 -0.11415,0.04627 -0.11415,0.117227 0,0.04627 0.009,0.08946 0.0247,0.135737 0.14808,0.564542 0.69411,0.968667 1.40981,0.968667 z"
       id="text1-4-8-9-6-6"
       style="font-weight:200;font-size:6.31793px;font-family:'SF Pro Rounded';-inkscape-font-specification:'SF Pro Rounded, Ultra-Light';letter-spacing:-7.10767px;word-spacing:0px;stroke:#000000;stroke-width:0.526494;stroke-linecap:round;stroke-linejoin:round"
       inkscape:label="bottom"
       transform="scale(-1.0050875,-0.99493825)"
       aria-label="5" /><path
       d="m 191.6417,11.657064 c 0,0.651116 0.49359,1.148205 1.1517,1.148205 0.37107,0 0.73864,-0.129523 0.89967,-0.444579 h 0.028 c -0.0105,0.367565 -0.39557,0.67212 -0.5776,0.857653 -0.19254,0.196035 -0.077,0.472584 0.17503,0.472584 h 1.75381 c 0.24855,0 0.36407,-0.276549 0.17503,-0.472584 -0.18553,-0.185533 -0.5706,-0.490088 -0.5811,-0.857653 h 0.028 c 0.16103,0.315056 0.5321,0.444579 0.90317,0.444579 0.65461,0 1.1482,-0.497089 1.1482,-1.148205 0,-1.221718 -1.64529,-1.7258081 -2.29291,-3.0455437 -0.0525,-0.1050188 -0.12602,-0.1855331 -0.25905,-0.1855331 -0.12952,0 -0.20653,0.080514 -0.25554,0.1855331 -0.65112,1.3197356 -2.29641,1.8238257 -2.29641,3.0455437 z"
       id="text1-9-2-6-7"
       style="font-weight:300;font-size:7.16928px;line-height:0;font-family:'SF Pro Rounded';-inkscape-font-specification:'SF Pro Rounded Light';letter-spacing:0px;word-spacing:0px;text-orientation:upright;stroke-width:0.526494;stroke-linecap:round"
       inkscape:label="spade-top"
       transform="scale(1.0050875,0.99493825)"
       aria-label="♠" /><path
       d="m -234.81428,-54.685335 c 0,0.651117 0.49359,1.148205 1.15171,1.148205 0.37106,0 0.73863,-0.129523 0.89966,-0.444579 h 0.028 c -0.0105,0.367566 -0.39557,0.67212 -0.5776,0.857653 -0.19254,0.196035 -0.077,0.472585 0.17503,0.472585 h 1.75381 c 0.24855,0 0.36407,-0.27655 0.17503,-0.472585 -0.18553,-0.185533 -0.5706,-0.490087 -0.5811,-0.857653 h 0.028 c 0.16102,0.315056 0.53209,0.444579 0.90316,0.444579 0.65461,0 1.1482,-0.497088 1.1482,-1.148205 0,-1.221718 -1.64529,-1.725808 -2.29291,-3.045543 -0.0525,-0.105019 -0.12602,-0.185533 -0.25904,-0.185533 -0.12953,0 -0.20654,0.08051 -0.25555,0.185533 -0.65112,1.319735 -2.29641,1.823825 -2.29641,3.045543 z"
       id="text1-6-2-8-5-2"
       style="font-weight:300;font-size:7.16928px;line-height:0;font-family:'SF Pro Rounded';-inkscape-font-specification:'SF Pro Rounded Light';letter-spacing:0px;word-spacing:0px;text-orientation:upright;stroke-width:0.526494;stroke-linecap:round"
       inkscape:label="spade-bottom"
       transform="scale(-1.0050875,-0.99493825)"
       aria-label="♠" /></g></svg>
