<?xml version="1.0" encoding="UTF-8" standalone="no"?>
<!-- Created with Inkscape (http://www.inkscape.org/) -->

<svg
   width="179.99977"
   height="251.99976"
   viewBox="0 0 47.624938 66.674935"
   version="1.1"
   id="svg1"
   inkscape:version="1.4 (e7c3feb1, 2024-10-09)"
   sodipodi:docname="All Cards - Spades.svg"
   xml:space="preserve"
   inkscape:export-filename="All Cards - Spades.png"
   inkscape:export-xdpi="96"
   inkscape:export-ydpi="96"
   inkscape:export-batch-path="Spades"
   inkscape:export-batch-name=""
   xmlns:inkscape="http://www.inkscape.org/namespaces/inkscape"
   xmlns:sodipodi="http://sodipodi.sourceforge.net/DTD/sodipodi-0.dtd"
   xmlns="http://www.w3.org/2000/svg"
   xmlns:svg="http://www.w3.org/2000/svg"><sodipodi:namedview
     id="namedview1"
     pagecolor="#ffffff"
     bordercolor="#999999"
     borderopacity="1"
     inkscape:showpageshadow="2"
     inkscape:pageopacity="0"
     inkscape:pagecheckerboard="0"
     inkscape:deskcolor="#d1d1d1"
     inkscape:document-units="px"
     showgrid="true"
     inkscape:zoom="0.69476599"
     inkscape:cx="619.6331"
     inkscape:cy="265.55704"
     inkscape:window-width="1512"
     inkscape:window-height="836"
     inkscape:window-x="0"
     inkscape:window-y="38"
     inkscape:window-maximized="0"
     inkscape:current-layer="layer1"><inkscape:grid
       id="grid2"
       units="px"
       originx="-190.5"
       originy="-3.5768442e-09"
       spacingx="0.26458333"
       spacingy="0.26458333"
       empcolor="#0099e5"
       empopacity="0.30196078"
       color="#0099e5"
       opacity="0.14901961"
       empspacing="5"
       enabled="true"
       visible="true" /></sodipodi:namedview><defs
     id="defs1"><inkscape:path-effect
       effect="fillet_chamfer"
       id="path-effect3-0"
       is_visible="true"
       lpeversion="1"
       nodesatellites_param="F,0,0,1,0,3,0,1 @ F,0,0,1,0,3,0,1 @ F,0,0,1,0,3,0,1 @ F,0,0,1,0,3,0,1"
       radius="0"
       unit="px"
       method="auto"
       mode="F"
       chamfer_steps="1"
       flexible="false"
       use_knot_distance="true"
       apply_no_radius="true"
       apply_with_radius="true"
       only_selected="false"
       hide_knots="false" /></defs><g
     inkscape:groupmode="layer"
     id="layer5"
     inkscape:label="5"
     transform="matrix(0.99998908,0,0,1.0101899,-190.49792,-0.00209528)"
     inkscape:export-filename="Spades/5.svg"
     inkscape:export-xdpi="96"
     inkscape:export-ydpi="96"><path
       style="fill:#ffffff;fill-opacity:1;stroke:#000000;stroke-width:0.526494;stroke-linecap:round;stroke-linejoin:round;stroke-dasharray:none"
       id="rect1-48"
       width="47.098965"
       height="65.475883"
       x="0.26119247"
       y="0.26535115"
       inkscape:path-effect="#path-effect3-0"
       sodipodi:type="rect"
       d="M 3.2611925,0.26535115 H 44.360157 a 3,3 45 0 1 3,2.99999995 V 62.741235 a 3,3 135 0 1 -3,3 H 3.2611925 a 3,3 45 0 1 -3.00000003,-3 V 3.2653511 A 3,3 135 0 1 3.2611925,0.26535115 Z"
       transform="translate(190.50205,-2.9988694e-5)"
       inkscape:label="card" /><path
       style="font-weight:300;font-size:18.2518px;font-family:'SF Pro Rounded';-inkscape-font-specification:'SF Pro Rounded Light';letter-spacing:-7.10767px;word-spacing:0px;stroke:#000000;stroke-width:0.526494;stroke-linecap:round;stroke-linejoin:round"
       d="m 213.07197,39.703672 c 2.62905,0 4.51839,-1.818051 4.51839,-4.375798 0,-2.459716 -1.79131,-4.233206 -4.25103,-4.233206 -1.31897,0 -2.47754,0.525809 -3.11029,1.408098 h -0.0267 l 0.49016,-4.776838 h 5.61456 c 0.34757,0 0.57037,-0.213889 0.57037,-0.543633 0,-0.329745 -0.2228,-0.543633 -0.57037,-0.543633 h -5.63239 c -0.70405,0 -1.01597,0.26736 -1.07835,0.935761 l -0.54363,5.525448 c 0,0.06238 0,0.09803 0,0.142592 -0.009,0.365392 0.20497,0.641665 0.5971,0.641665 0.32083,0 0.42778,-0.0713 0.87338,-0.552545 0.60601,-0.739697 1.5596,-1.185298 2.61122,-1.185298 1.86261,0 3.23506,1.354626 3.23506,3.208325 0,1.916082 -1.37245,3.270708 -3.27071,3.270708 -1.53287,0 -2.70925,-0.846641 -3.08356,-2.183443 -0.11585,-0.383216 -0.26736,-0.53472 -0.57928,-0.53472 -0.34757,0 -0.57037,0.2228 -0.57037,0.570368 0,0.249537 0.0535,0.445601 0.13368,0.659489 0.53472,1.532866 2.11215,2.56666 4.07279,2.56666 z"
       id="text3-8-1-1-3"
       inkscape:label="center"
       transform="scale(1.0050875,0.99493825)"
       aria-label="5" /><path
       d="m 195.4397,6.8541085 c 0.88677,0 1.5379,-0.6169316 1.5379,-1.4855467 0,-0.837922 -0.62943,-1.4579229 -1.47589,-1.4579229 -0.48679,0 -0.93639,0.2179211 -1.17823,0.5678226 h -0.009 l 0.21394,-1.8968344 h 2.05261 c 0.0714,0 0.11783,-0.04297 0.11783,-0.1104951 0,-0.067525 -0.0465,-0.1104953 -0.11783,-0.1104953 h -2.07741 c -0.13022,0 -0.18914,0.052179 -0.20154,0.1749508 l -0.22944,2.1024782 c -0.003,0.00614 -0.003,0.012277 -0.003,0.018416 -0.003,0.079802 0.0434,0.1381189 0.12713,0.1381189 0.0744,0 0.10232,-0.024554 0.19534,-0.1350496 0.25114,-0.3314857 0.64183,-0.5340602 1.08211,-0.5340602 0.71625,0 1.25885,0.5371295 1.25885,1.2492097 0,0.7304961 -0.54881,1.261487 -1.28675,1.261487 -0.59532,0 -1.08521,-0.3591095 -1.20615,-0.8624765 -0.0248,-0.098218 -0.0527,-0.1350497 -0.12712,-0.1350497 -0.0683,0 -0.11472,0.04604 -0.11472,0.1166338 0,0.04604 0.009,0.08901 0.0248,0.1350497 0.14883,0.561684 0.69764,0.9637638 1.41698,0.9637638 z"
       id="text1-4-8-9-6"
       style="font-weight:200;font-size:6.31793px;font-family:'SF Pro Rounded';-inkscape-font-specification:'SF Pro Rounded, Ultra-Light';letter-spacing:-7.10767px;word-spacing:0px;stroke:#000000;stroke-width:0.526494;stroke-linecap:round;stroke-linejoin:round"
       inkscape:label="top"
       aria-label="5" /><path
       d="m 233.18588,59.152598 c -0.88678,0 -1.53792,0.616932 -1.53792,1.485548 0,0.837921 0.62943,1.457922 1.47591,1.457922 0.48679,0 0.93637,-0.217921 1.17823,-0.567823 h 0.009 l -0.21394,1.896835 h -2.05261 c -0.0713,0 -0.11781,0.04297 -0.11781,0.110495 0,0.06753 0.0465,0.110495 0.11781,0.110495 h 2.07742 c 0.13023,0 0.18913,-0.05217 0.20154,-0.17495 l 0.22945,-2.102479 c 0.003,-0.0062 0.003,-0.01228 0.003,-0.01842 0.003,-0.0798 -0.0434,-0.138118 -0.12712,-0.138118 -0.0744,0 -0.10232,0.02455 -0.19534,0.135049 -0.25115,0.331486 -0.64183,0.53406 -1.08212,0.53406 -0.71624,0 -1.25885,-0.537129 -1.25885,-1.249209 0,-0.730497 0.54881,-1.261487 1.28677,-1.261487 0.59531,0 1.08521,0.359109 1.20613,0.862476 0.0248,0.09822 0.0527,0.13505 0.12712,0.13505 0.0683,0 0.11474,-0.04604 0.11474,-0.116634 0,-0.04604 -0.009,-0.08901 -0.0248,-0.13505 -0.14883,-0.561684 -0.69764,-0.963764 -1.41698,-0.963764 z"
       id="text1-4-8-9-6-6"
       style="font-weight:200;font-size:6.31793px;font-family:'SF Pro Rounded';-inkscape-font-specification:'SF Pro Rounded, Ultra-Light';letter-spacing:-7.10767px;word-spacing:0px;stroke:#000000;stroke-width:0.526494;stroke-linecap:round;stroke-linejoin:round"
       inkscape:label="bottom"
       aria-label="5" /><path
       d="m 192.92307,11.598059 c 0,0.64782 0.4961,1.142393 1.15756,1.142393 0.37296,0 0.7424,-0.128867 0.90425,-0.442329 h 0.0281 c -0.0106,0.365705 -0.39758,0.668718 -0.58054,0.853312 -0.19352,0.195043 -0.0774,0.470192 0.17592,0.470192 h 1.76274 c 0.24981,0 0.36592,-0.275149 0.17592,-0.470192 -0.18648,-0.184594 -0.57351,-0.487607 -0.58406,-0.853312 h 0.0281 c 0.16185,0.313462 0.53481,0.442329 0.90777,0.442329 0.65794,0 1.15404,-0.494573 1.15404,-1.142393 0,-1.215534 -1.65366,-1.7170726 -2.30458,-3.0301281 -0.0528,-0.1044872 -0.12666,-0.1845939 -0.26036,-0.1845939 -0.13018,0 -0.20758,0.080106 -0.25684,0.1845939 -0.65444,1.3130555 -2.3081,1.8145941 -2.3081,3.0301281 z"
       id="text1-9-2-6-7"
       style="font-weight:300;font-size:7.16928px;line-height:0;font-family:'SF Pro Rounded';-inkscape-font-specification:'SF Pro Rounded Light';letter-spacing:0px;word-spacing:0px;text-orientation:upright;stroke-width:0.526494;stroke-linecap:round"
       inkscape:label="spade-top"
       aria-label="♠" /><path
       d="m 235.7025,54.408532 c 0,-0.647822 -0.4961,-1.142394 -1.15757,-1.142394 -0.37295,0 -0.74239,0.128868 -0.90424,0.442329 h -0.0281 c 0.0105,-0.365705 0.39758,-0.668718 0.58054,-0.853312 0.19352,-0.195042 0.0774,-0.470193 -0.17592,-0.470193 h -1.76273 c -0.24982,0 -0.36593,0.275151 -0.17592,0.470193 0.18647,0.184594 0.5735,0.487607 0.58405,0.853312 h -0.0281 c -0.16184,-0.313461 -0.5348,-0.442329 -0.90775,-0.442329 -0.65794,0 -1.15405,0.494572 -1.15405,1.142394 0,1.215533 1.65366,1.717072 2.30458,3.030127 0.0528,0.104487 0.12666,0.184594 0.26036,0.184594 0.13019,0 0.20759,-0.0801 0.25685,-0.184594 0.65443,-1.313055 2.30809,-1.814594 2.30809,-3.030127 z"
       id="text1-6-2-8-5-2"
       style="font-weight:300;font-size:7.16928px;line-height:0;font-family:'SF Pro Rounded';-inkscape-font-specification:'SF Pro Rounded Light';letter-spacing:0px;word-spacing:0px;text-orientation:upright;stroke-width:0.526494;stroke-linecap:round"
       inkscape:label="spade-bottom"
       aria-label="♠" /></g></svg>
