<?xml version="1.0" encoding="UTF-8" standalone="no"?>
<!-- Created with Inkscape (http://www.inkscape.org/) -->

<svg
   width="179.99977"
   height="251.99976"
   viewBox="0 0 47.624938 66.674935"
   version="1.1"
   id="svg1"
   inkscape:version="1.4 (e7c3feb1, 2024-10-09)"
   sodipodi:docname="All Cards - Spades.svg"
   xml:space="preserve"
   inkscape:export-filename="All Cards - Spades.png"
   inkscape:export-xdpi="96"
   inkscape:export-ydpi="96"
   inkscape:export-batch-path="Spades"
   inkscape:export-batch-name=""
   xmlns:inkscape="http://www.inkscape.org/namespaces/inkscape"
   xmlns:sodipodi="http://sodipodi.sourceforge.net/DTD/sodipodi-0.dtd"
   xmlns="http://www.w3.org/2000/svg"
   xmlns:svg="http://www.w3.org/2000/svg"><sodipodi:namedview
     id="namedview1"
     pagecolor="#ffffff"
     bordercolor="#999999"
     borderopacity="1"
     inkscape:showpageshadow="2"
     inkscape:pageopacity="0"
     inkscape:pagecheckerboard="0"
     inkscape:deskcolor="#d1d1d1"
     inkscape:document-units="px"
     showgrid="true"
     inkscape:zoom="0.69476599"
     inkscape:cx="619.6331"
     inkscape:cy="265.55704"
     inkscape:window-width="1512"
     inkscape:window-height="836"
     inkscape:window-x="0"
     inkscape:window-y="38"
     inkscape:window-maximized="0"
     inkscape:current-layer="layer1"><inkscape:grid
       id="grid2"
       units="px"
       originx="-2.9979343e-05"
       originy="-3.0297853e-05"
       spacingx="0.26458333"
       spacingy="0.26458333"
       empcolor="#0099e5"
       empopacity="0.30196078"
       color="#0099e5"
       opacity="0.14901961"
       empspacing="5"
       enabled="true"
       visible="true" /></sodipodi:namedview><defs
     id="defs1"><inkscape:path-effect
       effect="fillet_chamfer"
       id="path-effect3"
       is_visible="true"
       lpeversion="1"
       nodesatellites_param="F,0,0,1,0,3,0,1 @ F,0,0,1,0,3,0,1 @ F,0,0,1,0,3,0,1 @ F,0,0,1,0,3,0,1"
       radius="0"
       unit="px"
       method="auto"
       mode="F"
       chamfer_steps="1"
       flexible="false"
       use_knot_distance="true"
       apply_no_radius="true"
       apply_with_radius="true"
       only_selected="false"
       hide_knots="false" /></defs><g
     inkscape:label="Ace"
     inkscape:groupmode="layer"
     id="layer1"
     transform="matrix(0.99998908,0,0,1.0101899,0.00205452,-0.00212558)"
     inkscape:export-filename="Spades/Ace.svg"
     inkscape:export-xdpi="96"
     inkscape:export-ydpi="96"><path
       style="fill:#ffffff;fill-opacity:1;stroke:#000000;stroke-width:0.526494;stroke-linecap:round;stroke-linejoin:round;stroke-dasharray:none"
       id="rect1"
       width="47.098965"
       height="65.475883"
       x="0.26119247"
       y="0.26535115"
       inkscape:path-effect="#path-effect3"
       sodipodi:type="rect"
       d="M 3.2611925,0.26535115 H 44.360157 a 3,3 45 0 1 3,2.99999995 V 62.741235 a 3,3 135 0 1 -3,3 H 3.2611925 a 3,3 45 0 1 -3.00000003,-3 V 3.2653511 A 3,3 135 0 1 3.2611925,0.26535115 Z"
       inkscape:label="card" /><path
       style="font-weight:300;font-size:18.2518px;font-family:'SF Pro Rounded';-inkscape-font-specification:'SF Pro Rounded Light';letter-spacing:-7.10767px;word-spacing:0px;stroke:#000000;stroke-width:0.526494;stroke-linecap:round;stroke-linejoin:round"
       d="m 19.179725,39.524899 c 0.30455,0 0.483696,-0.133004 0.600143,-0.469946 l 1.325687,-3.573361 h 5.401284 l 1.325687,3.573361 c 0.125403,0.328075 0.295594,0.469946 0.609101,0.469946 0.358294,0 0.618057,-0.221673 0.618057,-0.532014 0,-0.09753 -0.02688,-0.203938 -0.08062,-0.354677 L 24.581008,27.058035 c -0.152275,-0.399011 -0.385167,-0.576348 -0.761375,-0.576348 -0.394124,0 -0.635972,0.186204 -0.788247,0.576348 l -4.389102,11.580173 c -0.0627,0.159605 -0.08062,0.266008 -0.08062,0.354677 0,0.310341 0.259763,0.532014 0.618057,0.532014 z m 2.284125,-5.089601 2.319954,-6.330969 h 0.05374 l 2.310997,6.330969 z"
       id="text3-8-2"
       inkscape:label="center"
       aria-label="A" /><path
       d="m 3.3162407,6.8817323 c 0.065114,0 0.09922,-0.027623 0.1271255,-0.1012873 L 3.9828742,5.3593539 H 5.988976 L 6.5315846,6.780445 c 0.024805,0.070594 0.062013,0.1012873 0.1240249,0.1012873 0.074415,0 0.1240248,-0.04604 0.1240248,-0.1135646 0,-0.018416 -0.0062,-0.04604 -0.015504,-0.076733 L 5.1363052,2.4742013 C 5.105299,2.3943992 5.0618903,2.3606367 4.9874754,2.3606367 c -0.074415,0 -0.1209242,0.036832 -0.1519304,0.1166339 L 3.2108196,6.6914349 c -0.012403,0.036832 -0.018603,0.058317 -0.018603,0.079802 0,0.064455 0.04961,0.1104953 0.1240241,0.1104954 z M 4.0634904,5.1414327 4.9781736,2.7228155 h 0.015503 l 0.9177838,2.4186172 z"
       id="text1-4-0"
       style="font-weight:200;font-size:6.31793px;font-family:'SF Pro Rounded';-inkscape-font-specification:'SF Pro Rounded, Ultra-Light';letter-spacing:-7.10767px;word-spacing:0px;stroke:#000000;stroke-width:0.526494;stroke-linecap:round;stroke-linejoin:round"
       inkscape:label="top"
       aria-label="A" /><path
       d="m 44.30517,59.124831 c -0.06511,0 -0.09922,0.02762 -0.127125,0.101288 l -0.539508,1.421091 h -2.006103 l -0.542608,-1.421091 c -0.02481,-0.07059 -0.06201,-0.101288 -0.124025,-0.101288 -0.07442,0 -0.124025,0.04604 -0.124025,0.113565 0,0.01842 0.0062,0.04603 0.01551,0.07673 l 1.627825,4.217233 c 0.03101,0.0798 0.07442,0.113565 0.148831,0.113565 0.07442,0 0.120924,-0.03683 0.15193,-0.116634 l 1.624726,-4.214164 c 0.0124,-0.03683 0.0186,-0.05831 0.0186,-0.0798 0,-0.06445 -0.04961,-0.110495 -0.124025,-0.110495 z m -0.747249,1.7403 -0.914684,2.418617 h -0.0155 l -0.917783,-2.418617 z"
       id="text1-4-0-7"
       style="font-weight:200;font-size:6.31793px;font-family:'SF Pro Rounded';-inkscape-font-specification:'SF Pro Rounded, Ultra-Light';letter-spacing:-7.10767px;word-spacing:0px;stroke:#000000;stroke-width:0.526494;stroke-linecap:round;stroke-linejoin:round"
       inkscape:label="bottom"
       aria-label="A" /><path
       d="m 2.4209871,11.598059 c 0,0.64782 0.4960993,1.142393 1.157565,1.142393 0.372954,0 0.7423896,-0.128867 0.9042377,-0.442329 h 0.028147 c -0.010555,0.365705 -0.397583,0.668718 -0.5805416,0.853312 -0.1935139,0.195043 -0.077406,0.470192 0.1759216,0.470192 h 1.7627357 c 0.2498088,0 0.3659171,-0.275149 0.1759217,-0.470192 -0.186477,-0.184594 -0.5735048,-0.487607 -0.5840601,-0.853312 h 0.028147 c 0.1618481,0.313462 0.5348021,0.442329 0.9077562,0.442329 0.6579472,0 1.1540465,-0.494573 1.1540465,-1.142393 0,-1.215534 -1.6536643,-1.7170726 -2.3045746,-3.0301281 C 5.1935135,8.4634437 5.1196264,8.383337 4.9859259,8.383337 c -0.1301821,0 -0.2075877,0.080106 -0.2568458,0.1845939 -0.6544287,1.3130555 -2.308093,1.8145941 -2.308093,3.0301281 z"
       id="text1"
       style="font-weight:300;font-size:7.16928px;line-height:0;font-family:'SF Pro Rounded';-inkscape-font-specification:'SF Pro Rounded Light';letter-spacing:0px;word-spacing:0px;text-orientation:upright;stroke-width:0.526494;stroke-linecap:round"
       inkscape:label="spade-top"
       aria-label="♠" /><path
       d="m 45.200431,54.408532 c 0,-0.647822 -0.4961,-1.142394 -1.157566,-1.142394 -0.372954,0 -0.742389,0.128868 -0.904238,0.442329 h -0.02815 c 0.01055,-0.365705 0.397583,-0.668718 0.580542,-0.853312 0.193514,-0.195042 0.0774,-0.470193 -0.175922,-0.470193 h -1.762736 c -0.249808,0 -0.365917,0.275151 -0.175921,0.470193 0.186477,0.184594 0.573505,0.487607 0.58406,0.853312 h -0.02815 c -0.161849,-0.313461 -0.534802,-0.442329 -0.907757,-0.442329 -0.657946,0 -1.154047,0.494572 -1.154047,1.142394 0,1.215533 1.653665,1.717072 2.304576,3.030127 0.05278,0.104487 0.126663,0.184594 0.260363,0.184594 0.130182,0 0.207588,-0.0801 0.256847,-0.184594 0.654428,-1.313055 2.308093,-1.814594 2.308093,-3.030127 z"
       id="text1-6"
       style="font-weight:300;font-size:7.16928px;line-height:0;font-family:'SF Pro Rounded';-inkscape-font-specification:'SF Pro Rounded Light';letter-spacing:0px;word-spacing:0px;text-orientation:upright;stroke-width:0.526494;stroke-linecap:round"
       inkscape:label="spade-bottom"
       aria-label="♠" /></g></svg>
