<?xml version="1.0" encoding="UTF-8" standalone="no"?>
<!-- Created with Inkscape (http://www.inkscape.org/) -->

<svg
   width="179.99976"
   height="251.99976"
   viewBox="0 0 47.624934 66.674935"
   version="1.1"
   id="svg1"
   inkscape:version="1.4 (e7c3feb1, 2024-10-09)"
   sodipodi:docname="All Cards - Spades.svg"
   xml:space="preserve"
   inkscape:export-filename="All Cards - Spades.png"
   inkscape:export-xdpi="96"
   inkscape:export-ydpi="96"
   xmlns:inkscape="http://www.inkscape.org/namespaces/inkscape"
   xmlns:sodipodi="http://sodipodi.sourceforge.net/DTD/sodipodi-0.dtd"
   xmlns="http://www.w3.org/2000/svg"
   xmlns:svg="http://www.w3.org/2000/svg"><sodipodi:namedview
     id="namedview1"
     pagecolor="#ffffff"
     bordercolor="#999999"
     borderopacity="1"
     inkscape:showpageshadow="2"
     inkscape:pageopacity="0"
     inkscape:pagecheckerboard="0"
     inkscape:deskcolor="#d1d1d1"
     inkscape:document-units="px"
     showgrid="true"
     inkscape:zoom="0.61073719"
     inkscape:cx="687.6935"
     inkscape:cy="297.18184"
     inkscape:window-width="1512"
     inkscape:window-height="836"
     inkscape:window-x="0"
     inkscape:window-y="38"
     inkscape:window-maximized="0"
     inkscape:current-layer="layer13"><inkscape:grid
       id="grid2"
       units="px"
       originx="-2.9979345e-05"
       originy="-3.0297852e-05"
       spacingx="0.26458333"
       spacingy="0.26458333"
       empcolor="#0099e5"
       empopacity="0.30196078"
       color="#0099e5"
       opacity="0.14901961"
       empspacing="5"
       enabled="true"
       visible="true" /><inkscape:page
       x="0"
       y="0"
       width="47.624935"
       height="66.674934"
       id="page2"
       margin="0"
       bleed="0" /></sodipodi:namedview><defs
     id="defs1"><inkscape:path-effect
       effect="fillet_chamfer"
       id="path-effect3"
       is_visible="true"
       lpeversion="1"
       nodesatellites_param="F,0,0,1,0,3,0,1 @ F,0,0,1,0,3,0,1 @ F,0,0,1,0,3,0,1 @ F,0,0,1,0,3,0,1"
       radius="0"
       unit="px"
       method="auto"
       mode="F"
       chamfer_steps="1"
       flexible="false"
       use_knot_distance="true"
       apply_no_radius="true"
       apply_with_radius="true"
       only_selected="false"
       hide_knots="false" /></defs><g
     inkscape:label="Ace"
     inkscape:groupmode="layer"
     id="layer1"
     transform="matrix(0.99998908,0,0,1.0101899,0.00205452,-0.00212558)"
     inkscape:export-filename="Spades/Ace.svg"
     inkscape:export-xdpi="96"
     inkscape:export-ydpi="96"><path
       style="fill:#ffffff;fill-opacity:1;stroke:#000000;stroke-width:0.526494;stroke-linecap:round;stroke-linejoin:round;stroke-dasharray:none"
       id="rect1"
       width="47.098965"
       height="65.475883"
       x="0.26119247"
       y="0.26535115"
       inkscape:path-effect="#path-effect3"
       sodipodi:type="rect"
       d="M 3.2611925,0.26535115 H 44.360157 a 3,3 45 0 1 3,2.99999995 V 62.741235 a 3,3 135 0 1 -3,3 H 3.2611925 a 3,3 45 0 1 -3.00000003,-3 V 3.2653511 A 3,3 135 0 1 3.2611925,0.26535115 Z"
       inkscape:label="card" /><path
       style="font-weight:300;font-size:18.2518px;font-family:'SF Pro Rounded';-inkscape-font-specification:'SF Pro Rounded Light';letter-spacing:-7.10767px;word-spacing:0px;stroke:#000000;stroke-width:0.526494;stroke-linecap:round;stroke-linejoin:round"
       d="m 19.082641,39.725984 c 0.303008,0 0.481248,-0.133681 0.597105,-0.472337 l 1.318977,-3.591541 h 5.373944 l 1.318977,3.591541 c 0.124768,0.329744 0.294097,0.472337 0.606017,0.472337 0.356481,0 0.614929,-0.222801 0.614929,-0.534721 0,-0.09803 -0.02674,-0.204976 -0.08021,-0.356481 L 24.456584,27.195695 c -0.151504,-0.401041 -0.383217,-0.579281 -0.757521,-0.579281 -0.392129,0 -0.632753,0.187152 -0.784257,0.579281 L 18.54792,38.834782 c -0.06238,0.160417 -0.08021,0.267361 -0.08021,0.356481 0,0.31192 0.258448,0.534721 0.614929,0.534721 z m 2.272563,-5.115495 2.308211,-6.363177 h 0.05347 l 2.299299,6.363177 z"
       id="text3-8-2"
       inkscape:label="center"
       transform="scale(1.0050875,0.99493826)"
       aria-label="A" /><path
       d="m 2.4504417,6.9123194 c 0.064784,0 0.098718,-0.027764 0.126482,-0.1018026 L 3.1137009,5.3821959 h 1.9959474 l 0.5398621,1.4283209 c 0.024679,0.070953 0.061699,0.1018026 0.1233971,0.1018026 0.074038,0 0.123397,-0.046274 0.123397,-0.1141423 0,-0.01851 -0.00617,-0.046274 -0.015425,-0.077123 L 4.2612935,2.4823651 C 4.2304443,2.402157 4.1872553,2.3682228 4.1132171,2.3682228 c -0.074038,0 -0.1203122,0.037019 -0.1511614,0.1172272 L 2.3455542,6.7210539 c -0.01234,0.037019 -0.018509,0.058614 -0.018509,0.080208 0,0.064783 0.049359,0.1110574 0.1233965,0.1110575 z M 3.193909,5.1631661 4.1039623,2.7322441 h 0.015425 l 0.9131382,2.430922 z"
       id="text1-4-0"
       style="font-weight:200;font-size:6.31793px;font-family:'SF Pro Rounded';-inkscape-font-specification:'SF Pro Rounded, Ultra-Light';letter-spacing:-7.10767px;word-spacing:0px;stroke:#000000;stroke-width:0.526494;stroke-linecap:round;stroke-linejoin:round"
       inkscape:label="top"
       transform="scale(1.0050875,0.99493825)"
       aria-label="A" /><path
       d="m -44.929962,-59.430155 c 0.06478,0 0.09872,-0.02776 0.126482,-0.101803 l 0.536777,-1.428321 h 1.995948 l 0.539862,1.428321 c 0.02468,0.07095 0.0617,0.101803 0.123397,0.101803 0.07404,0 0.123397,-0.04627 0.123397,-0.114142 0,-0.01851 -0.0062,-0.04627 -0.01543,-0.07712 l -1.619586,-4.238688 c -0.03085,-0.08021 -0.07404,-0.114143 -0.148077,-0.114143 -0.07404,0 -0.120312,0.03702 -0.151161,0.117228 l -1.616502,4.235603 c -0.01234,0.03702 -0.01851,0.05861 -0.01851,0.08021 0,0.06478 0.04936,0.111057 0.123397,0.111057 z m 0.743467,-1.749153 0.910054,-2.430922 h 0.01542 l 0.913138,2.430922 z"
       id="text1-4-0-7"
       style="font-weight:200;font-size:6.31793px;font-family:'SF Pro Rounded';-inkscape-font-specification:'SF Pro Rounded, Ultra-Light';letter-spacing:-7.10767px;word-spacing:0px;stroke:#000000;stroke-width:0.526494;stroke-linecap:round;stroke-linejoin:round"
       inkscape:label="bottom"
       transform="scale(-1.0050875,-0.99493825)"
       aria-label="A" /><path
       d="m 2.1039016,11.657064 c 0,0.651116 0.4935881,1.148205 1.1517057,1.148205 0.3710662,0 0.7386318,-0.129523 0.8996606,-0.444579 h 0.028005 c -0.010502,0.367565 -0.3955706,0.67212 -0.5776031,0.857653 -0.1925344,0.196035 -0.077014,0.472584 0.1750312,0.472584 h 1.7538131 c 0.2485444,0 0.364065,-0.276549 0.1750313,-0.472584 C 5.5240123,13.03281 5.1389435,12.728255 5.1284416,12.36069 h 0.028005 c 0.1610288,0.315056 0.532095,0.444579 0.9031613,0.444579 0.6546169,0 1.148205,-0.497089 1.148205,-1.148205 0,-1.221718 -1.6452938,-1.7258081 -2.2929094,-3.0455437 C 4.8623941,8.5065015 4.788881,8.4259872 4.6558573,8.4259872 c -0.1295232,0 -0.2065369,0.080514 -0.2555457,0.1855331 -0.6511162,1.3197356 -2.29641,1.8238257 -2.29641,3.0455437 z"
       id="text1"
       style="font-weight:300;font-size:7.16928px;line-height:0;font-family:'SF Pro Rounded';-inkscape-font-specification:'SF Pro Rounded Light';letter-spacing:0px;word-spacing:0px;text-orientation:upright;stroke-width:0.526494;stroke-linecap:round"
       inkscape:label="spade-top"
       transform="scale(1.0050875,0.99493825)"
       aria-label="♠" /><path
       d="m -45.27648,-54.685335 c 0,0.651117 0.493588,1.148205 1.151706,1.148205 0.371066,0 0.738632,-0.129523 0.899661,-0.444579 h 0.02801 c -0.0105,0.367566 -0.395571,0.67212 -0.577604,0.857653 -0.192534,0.196035 -0.07701,0.472585 0.175032,0.472585 h 1.753813 c 0.248544,0 0.364065,-0.27655 0.175031,-0.472585 -0.185533,-0.185533 -0.570602,-0.490087 -0.581104,-0.857653 h 0.02801 c 0.161029,0.315056 0.532095,0.444579 0.903162,0.444579 0.654616,0 1.148205,-0.497088 1.148205,-1.148205 0,-1.221718 -1.645294,-1.725808 -2.29291,-3.045543 -0.05251,-0.105019 -0.126022,-0.185533 -0.259046,-0.185533 -0.129523,0 -0.206537,0.08051 -0.255546,0.185533 -0.651116,1.319735 -2.29641,1.823825 -2.29641,3.045543 z"
       id="text1-6"
       style="font-weight:300;font-size:7.16928px;line-height:0;font-family:'SF Pro Rounded';-inkscape-font-specification:'SF Pro Rounded Light';letter-spacing:0px;word-spacing:0px;text-orientation:upright;stroke-width:0.526494;stroke-linecap:round"
       inkscape:label="spade-bottom"
       transform="scale(-1.0050875,-0.99493825)"
       aria-label="♠" /></g></svg>
