<?xml version="1.0" encoding="UTF-8" standalone="no"?>
<!-- Created with Inkscape (http://www.inkscape.org/) -->

<svg
   width="179.99977"
   height="251.99976"
   viewBox="0 0 47.624938 66.674935"
   version="1.1"
   id="svg1"
   inkscape:version="1.4 (e7c3feb1, 2024-10-09)"
   sodipodi:docname="All Cards - Clubs.svg"
   xml:space="preserve"
   inkscape:export-filename="All Cards - Clubs.png"
   inkscape:export-xdpi="96"
   inkscape:export-ydpi="96"
   inkscape:export-batch-path="Clubs"
   inkscape:export-batch-name=""
   xmlns:inkscape="http://www.inkscape.org/namespaces/inkscape"
   xmlns:sodipodi="http://sodipodi.sourceforge.net/DTD/sodipodi-0.dtd"
   xmlns="http://www.w3.org/2000/svg"
   xmlns:svg="http://www.w3.org/2000/svg"><sodipodi:namedview
     id="namedview1"
     pagecolor="#ffffff"
     bordercolor="#999999"
     borderopacity="1"
     inkscape:showpageshadow="2"
     inkscape:pageopacity="0"
     inkscape:pagecheckerboard="0"
     inkscape:deskcolor="#d1d1d1"
     inkscape:document-units="px"
     showgrid="true"
     inkscape:zoom="0.62203345"
     inkscape:cx="632.60264"
     inkscape:cy="315.89941"
     inkscape:window-width="1512"
     inkscape:window-height="836"
     inkscape:window-x="0"
     inkscape:window-y="38"
     inkscape:window-maximized="0"
     inkscape:current-layer="layer14"><inkscape:grid
       id="grid2"
       units="px"
       originx="-95.249997"
       originy="-3.5768442e-09"
       spacingx="0.26458333"
       spacingy="0.26458333"
       empcolor="#0099e5"
       empopacity="0.30196078"
       color="#0099e5"
       opacity="0.14901961"
       empspacing="5"
       enabled="true"
       visible="true" /></sodipodi:namedview><defs
     id="defs1"><inkscape:path-effect
       effect="fillet_chamfer"
       id="path-effect3-2"
       is_visible="true"
       lpeversion="1"
       nodesatellites_param="F,0,0,1,0,3,0,1 @ F,0,0,1,0,3,0,1 @ F,0,0,1,0,3,0,1 @ F,0,0,1,0,3,0,1"
       radius="0"
       unit="px"
       method="auto"
       mode="F"
       chamfer_steps="1"
       flexible="false"
       use_knot_distance="true"
       apply_no_radius="true"
       apply_with_radius="true"
       only_selected="false"
       hide_knots="false" /></defs><g
     inkscape:groupmode="layer"
     id="layer3"
     inkscape:label="3"
     transform="matrix(0.99998908,0,0,1.0101899,-95.247914,-0.00209528)"
     inkscape:export-filename="Clubs/3.svg"
     inkscape:export-xdpi="96"
     inkscape:export-ydpi="96"><path
       style="fill:#ffffff;fill-opacity:1;stroke:#000000;stroke-width:0.526494;stroke-linecap:round;stroke-linejoin:round;stroke-dasharray:none"
       id="rect1-6"
       width="47.098965"
       height="65.475883"
       x="0.26119247"
       y="0.26535115"
       inkscape:path-effect="#path-effect3-2"
       sodipodi:type="rect"
       d="M 3.2611925,0.26535115 H 44.360157 a 3,3 45 0 1 3,2.99999995 V 62.741235 a 3,3 135 0 1 -3,3 H 3.2611925 a 3,3 45 0 1 -3.00000003,-3 V 3.2653511 A 3,3 135 0 1 3.2611925,0.26535115 Z"
       transform="translate(95.251009,-2.9988694e-5)"
       inkscape:label="card" /><path
       style="font-weight:300;font-size:18.2518px;font-family:'SF Pro Rounded';-inkscape-font-specification:'SF Pro Rounded Light';letter-spacing:-7.10767px;word-spacing:0px;stroke:#000000;stroke-width:0.526494;stroke-linecap:round;stroke-linejoin:round"
       d="m 118.41892,39.806161 c 2.51319,0 4.40254,-1.55069 4.40254,-3.734133 0,-1.826962 -1.29225,-3.01226 -3.20833,-3.163764 v -0.03565 c 1.64872,-0.329745 2.7449,-1.443746 2.7449,-3.038996 0,-1.844787 -1.53287,-3.297445 -3.98367,-3.297445 -1.80023,0 -3.20832,0.846641 -3.7876,2.201267 -0.15151,0.311921 -0.21389,0.597105 -0.21389,0.891201 0,0.365393 0.19606,0.570369 0.54363,0.570369 0.32975,0 0.43669,-0.160416 0.56146,-0.534721 0.36539,-1.283329 1.36354,-2.058674 2.8964,-2.058674 1.73784,0 2.75381,0.980321 2.75381,2.370595 0,1.425922 -1.18529,2.441891 -2.90531,2.441891 h -1.06053 c -0.32975,0 -0.55255,0.213888 -0.55255,0.525809 0,0.31192 0.2228,0.516897 0.55255,0.516897 h 1.114 c 2.04976,0 3.31527,0.962497 3.30636,2.646867 -0.009,1.515042 -1.30116,2.629044 -3.16377,2.629044 -1.72002,0 -2.83402,-0.837729 -3.1905,-2.067587 -0.12477,-0.383217 -0.28518,-0.543633 -0.57037,-0.543633 -0.34757,0 -0.56145,0.231712 -0.56145,0.579281 0,0.294096 0.0624,0.570369 0.23171,0.891201 0.65057,1.390274 2.12106,2.210179 4.09061,2.210179 z"
       id="text3-8-1"
       inkscape:label="center"
       transform="scale(1.0050875,0.99493825)"
       aria-label="3" /><path
       d="m 100.22914,6.9185644 c 0.86507,0 1.4976,-0.5401989 1.4976,-1.2737644 0,-0.6292089 -0.45269,-1.0497046 -1.13793,-1.0957443 v -0.012277 c 0.58912,-0.1135646 0.95809,-0.5002979 0.95809,-1.0466353 0,-0.6445555 -0.54881,-1.1295067 -1.34877,-1.1295067 -0.635626,0 -1.147229,0.3376242 -1.302259,0.8409914 -0.0341,0.085941 -0.04651,0.1718814 -0.04651,0.2394063 0,0.082871 0.0403,0.1227725 0.111622,0.1227725 0.08062,0 0.09612,-0.049109 0.117824,-0.138119 0.08062,-0.4941592 0.530206,-0.8471301 1.119333,-0.8471301 0.65113,0 1.10072,0.3928719 1.10072,0.9238629 0,0.5524761 -0.4682,0.9422786 -1.15033,0.9422786 h -0.421693 c -0.06822,0 -0.114723,0.04297 -0.114723,0.1074259 0,0.064455 0.04651,0.107426 0.114723,0.107426 h 0.427893 c 0.82786,0 1.32706,0.3652481 1.32396,0.9913877 0,0.5954465 -0.5271,1.0497046 -1.24955,1.0497046 -0.675938,0 -1.159634,-0.3775254 -1.246452,-0.8594073 -0.0217,-0.1043566 -0.05581,-0.1411884 -0.124025,-0.1411884 -0.06821,0 -0.111623,0.04604 -0.111623,0.1227725 0,0.076733 0.0155,0.1503963 0.04961,0.2424756 0.176736,0.5125751 0.722445,0.8532687 1.43248,0.8532687 z"
       id="text1-4-8"
       style="font-weight:200;font-size:6.31793px;font-family:'SF Pro Rounded';-inkscape-font-specification:'SF Pro Rounded, Ultra-Light';letter-spacing:-7.10767px;word-spacing:0px;stroke:#000000;stroke-width:0.526494;stroke-linecap:round;stroke-linejoin:round"
       inkscape:label="top"
       aria-label="3" /><path
       d="m 137.89418,59.087901 c -0.86507,0 -1.4976,0.540198 -1.4976,1.273764 0,0.629209 0.45269,1.049705 1.13792,1.095745 v 0.01228 c -0.58911,0.113566 -0.95809,0.500298 -0.95809,1.046636 0,0.644555 0.54881,1.129506 1.34877,1.129506 0.63563,0 1.14724,-0.337623 1.30226,-0.84099 0.0341,-0.08594 0.0465,-0.171882 0.0465,-0.239407 0,-0.08287 -0.0403,-0.122773 -0.11163,-0.122773 -0.0806,0 -0.0961,0.04911 -0.11782,0.13812 -0.0806,0.494159 -0.53021,0.84713 -1.11933,0.84713 -0.65112,0 -1.10071,-0.392872 -1.10071,-0.923863 0,-0.552476 0.46819,-0.942279 1.15032,-0.942279 h 0.42169 c 0.0682,0 0.11473,-0.04297 0.11473,-0.107426 0,-0.06445 -0.0465,-0.107426 -0.11473,-0.107426 h -0.42789 c -0.82786,0 -1.32707,-0.365248 -1.32396,-0.991387 0,-0.595447 0.52711,-1.049705 1.24955,-1.049705 0.67594,0 1.15963,0.377525 1.24645,0.859407 0.0217,0.104357 0.0558,0.141189 0.12402,0.141189 0.0683,0 0.11163,-0.04604 0.11163,-0.122773 0,-0.07673 -0.0155,-0.150396 -0.0497,-0.242475 -0.17673,-0.512576 -0.72244,-0.853269 -1.43248,-0.853269 z"
       id="text1-4-8-0"
       style="font-weight:200;font-size:6.31793px;font-family:'SF Pro Rounded';-inkscape-font-specification:'SF Pro Rounded, Ultra-Light';letter-spacing:-7.10767px;word-spacing:0px;stroke:#000000;stroke-width:0.526494;stroke-linecap:round;stroke-linejoin:round"
       inkscape:label="bottom"
       aria-label="3" /><path
       d="m 97.576557,11.526311 c 0,0.673237 0.523717,1.184465 1.203823,1.184465 0.385513,0 0.771028,-0.133207 0.938326,-0.457225 h 0.0291 c -0.01454,0.378021 -0.41461,0.691238 -0.60373,0.882049 -0.196394,0.201611 -0.07638,0.486027 0.181846,0.486027 h 1.822098 c 0.26186,0 0.38188,-0.284416 0.18184,-0.486027 -0.18911,-0.190811 -0.58918,-0.504028 -0.60008,-0.882049 h 0.029 c 0.16731,0.324018 0.54918,0.457225 0.93469,0.457225 0.68374,0 1.20383,-0.511228 1.20383,-1.184465 0,-0.669637 -0.51645,-1.231269 -1.18927,-1.231269 -0.25459,0 -0.52009,0.08281 -0.73102,0.248414 0.36005,-0.291616 0.47643,-0.6480358 0.47643,-0.9576529 0,-0.6660369 -0.54554,-1.2024666 -1.21473,-1.2024666 -0.669194,0 -1.214733,0.5364297 -1.214733,1.2024666 0,0.3096171 0.116382,0.6660369 0.4728,0.9576529 -0.207304,-0.165609 -0.476436,-0.248414 -0.731021,-0.248414 -0.672832,0 -1.189275,0.561632 -1.189275,1.231269 z"
       id="text3-7-0"
       style="font-weight:300;font-size:7.41072px;line-height:0;font-family:'SF Pro Rounded';-inkscape-font-specification:'SF Pro Rounded Light';letter-spacing:0px;word-spacing:0px;text-orientation:upright;stroke-width:0.526494;stroke-linecap:round"
       inkscape:label="club-top"
       aria-label="♣" /><path
       d="m 140.5469,54.480279 c 0,-0.673237 -0.52371,-1.184466 -1.20382,-1.184466 -0.38551,0 -0.77102,0.133208 -0.93832,0.457226 h -0.0291 c 0.0146,-0.37802 0.41461,-0.691238 0.60373,-0.882049 0.19639,-0.201611 0.0764,-0.486027 -0.18184,-0.486027 h -1.82211 c -0.26185,0 -0.38187,0.284416 -0.18185,0.486027 0.18913,0.190811 0.58919,0.504029 0.6001,0.882049 h -0.0292 c -0.16729,-0.324018 -0.54917,-0.457226 -0.93469,-0.457226 -0.68374,0 -1.20382,0.511229 -1.20382,1.184466 0,0.669638 0.51644,1.231268 1.18928,1.231268 0.25459,0 0.52008,-0.08281 0.73102,-0.248413 -0.36005,0.291616 -0.47643,0.648035 -0.47643,0.957653 0,0.666037 0.54553,1.202467 1.21473,1.202467 0.66919,0 1.21473,-0.53643 1.21473,-1.202467 0,-0.309618 -0.11638,-0.666037 -0.4728,-0.957653 0.2073,0.165609 0.47643,0.248413 0.73102,0.248413 0.67283,0 1.18927,-0.56163 1.18927,-1.231268 z"
       id="text3-6-6-0"
       style="font-weight:300;font-size:7.41072px;line-height:0;font-family:'SF Pro Rounded';-inkscape-font-specification:'SF Pro Rounded Light';letter-spacing:0px;word-spacing:0px;text-orientation:upright;stroke-width:0.526494;stroke-linecap:round"
       inkscape:label="club-bottom"
       aria-label="♣" /></g></svg>
