<?xml version="1.0" encoding="UTF-8" standalone="no"?>
<!-- Created with Inkscape (http://www.inkscape.org/) -->

<svg
   width="179.99976"
   height="251.99976"
   viewBox="0 0 47.624934 66.674935"
   version="1.1"
   id="svg1"
   inkscape:version="1.4 (e7c3feb1, 2024-10-09)"
   sodipodi:docname="All Cards - Clubs.svg"
   xml:space="preserve"
   inkscape:export-filename="All Cards - Clubs.png"
   inkscape:export-xdpi="96"
   inkscape:export-ydpi="96"
   xmlns:inkscape="http://www.inkscape.org/namespaces/inkscape"
   xmlns:sodipodi="http://sodipodi.sourceforge.net/DTD/sodipodi-0.dtd"
   xmlns="http://www.w3.org/2000/svg"
   xmlns:svg="http://www.w3.org/2000/svg"><sodipodi:namedview
     id="namedview1"
     pagecolor="#ffffff"
     bordercolor="#999999"
     borderopacity="1"
     inkscape:showpageshadow="2"
     inkscape:pageopacity="0"
     inkscape:pagecheckerboard="0"
     inkscape:deskcolor="#d1d1d1"
     inkscape:document-units="px"
     showgrid="true"
     inkscape:zoom="0.6064148"
     inkscape:cx="370.20864"
     inkscape:cy="230.04056"
     inkscape:window-width="1512"
     inkscape:window-height="836"
     inkscape:window-x="0"
     inkscape:window-y="38"
     inkscape:window-maximized="0"
     inkscape:current-layer="layer14"><inkscape:grid
       id="grid2"
       units="px"
       originx="-95.25"
       originy="-3.4711749e-13"
       spacingx="0.26458333"
       spacingy="0.26458333"
       empcolor="#0099e5"
       empopacity="0.30196078"
       color="#0099e5"
       opacity="0.14901961"
       empspacing="5"
       enabled="true"
       visible="true" /><inkscape:page
       x="0"
       y="0"
       width="47.624935"
       height="66.674934"
       id="page2"
       margin="0"
       bleed="0" /></sodipodi:namedview><defs
     id="defs1"><inkscape:path-effect
       effect="fillet_chamfer"
       id="path-effect3-2"
       is_visible="true"
       lpeversion="1"
       nodesatellites_param="F,0,0,1,0,3,0,1 @ F,0,0,1,0,3,0,1 @ F,0,0,1,0,3,0,1 @ F,0,0,1,0,3,0,1"
       radius="0"
       unit="px"
       method="auto"
       mode="F"
       chamfer_steps="1"
       flexible="false"
       use_knot_distance="true"
       apply_no_radius="true"
       apply_with_radius="true"
       only_selected="false"
       hide_knots="false" /></defs><g
     inkscape:groupmode="layer"
     id="layer3"
     inkscape:label="3"
     transform="matrix(0.99998908,0,0,1.0101899,-95.247917,-0.00209528)"
     inkscape:export-filename="Clubs/3.svg"
     inkscape:export-xdpi="96"
     inkscape:export-ydpi="96"><path
       style="fill:#ffffff;fill-opacity:1;stroke:#000000;stroke-width:0.526494;stroke-linecap:round;stroke-linejoin:round;stroke-dasharray:none"
       id="rect1-6"
       width="47.098965"
       height="65.475883"
       x="0.26119247"
       y="0.26535115"
       inkscape:path-effect="#path-effect3-2"
       sodipodi:type="rect"
       d="M 3.2611925,0.26535115 H 44.360157 a 3,3 45 0 1 3,2.99999995 V 62.741235 a 3,3 135 0 1 -3,3 H 3.2611925 a 3,3 45 0 1 -3.00000003,-3 V 3.2653511 A 3,3 135 0 1 3.2611925,0.26535115 Z"
       transform="translate(95.251009,-2.9988694e-5)"
       inkscape:label="card" /><path
       style="font-weight:300;font-size:18.2518px;font-family:'SF Pro Rounded';-inkscape-font-specification:'SF Pro Rounded Light';letter-spacing:-7.10767px;word-spacing:0px;stroke:#000000;stroke-width:0.526494;stroke-linecap:round;stroke-linejoin:round"
       d="m 118.41892,39.806161 c 2.51319,0 4.40254,-1.55069 4.40254,-3.734133 0,-1.826962 -1.29225,-3.01226 -3.20833,-3.163764 v -0.03565 c 1.64872,-0.329745 2.7449,-1.443746 2.7449,-3.038996 0,-1.844787 -1.53287,-3.297445 -3.98367,-3.297445 -1.80023,0 -3.20832,0.846641 -3.7876,2.201267 -0.15151,0.311921 -0.21389,0.597105 -0.21389,0.891201 0,0.365393 0.19606,0.570369 0.54363,0.570369 0.32975,0 0.43669,-0.160416 0.56146,-0.534721 0.36539,-1.283329 1.36354,-2.058674 2.8964,-2.058674 1.73784,0 2.75381,0.980321 2.75381,2.370595 0,1.425922 -1.18529,2.441891 -2.90531,2.441891 h -1.06053 c -0.32975,0 -0.55255,0.213888 -0.55255,0.525809 0,0.31192 0.2228,0.516897 0.55255,0.516897 h 1.114 c 2.04976,0 3.31527,0.962497 3.30636,2.646867 -0.009,1.515042 -1.30116,2.629044 -3.16377,2.629044 -1.72002,0 -2.83402,-0.837729 -3.1905,-2.067587 -0.12477,-0.383217 -0.28518,-0.543633 -0.57037,-0.543633 -0.34757,0 -0.56145,0.231712 -0.56145,0.579281 0,0.294096 0.0624,0.570369 0.23171,0.891201 0.65057,1.390274 2.12106,2.210179 4.09061,2.210179 z"
       id="text3-8-1"
       inkscape:label="center"
       transform="scale(1.0050875,0.99493825)"
       aria-label="3" /><path
       d="m 98.576709,6.9585933 c 0.860695,0 1.490021,-0.5429472 1.490021,-1.2802447 0,-0.63241 -0.4504,-1.055045 -1.132169,-1.1013189 V 4.56469 c 0.586136,-0.1141423 0.953242,-0.5028431 0.953242,-1.05196 0,-0.6478347 -0.546032,-1.1352531 -1.341943,-1.1352531 -0.63241,0 -1.141423,0.3393419 -1.295669,0.8452699 -0.03393,0.086378 -0.04627,0.1727559 -0.04627,0.2406243 0,0.083293 0.0401,0.1233971 0.111057,0.1233971 0.08021,0 0.09563,-0.049359 0.117227,-0.1388217 0.08021,-0.4966732 0.527523,-0.8514398 1.113659,-0.8514398 0.647835,0 1.095149,0.3948706 1.095149,0.928563 0,0.5552868 -0.465824,0.9470725 -1.144508,0.9470725 h -0.41955 c -0.06787,0 -0.114142,0.043189 -0.114142,0.1079724 0,0.064783 0.04627,0.1079725 0.114142,0.1079725 h 0.42572 c 0.823676,0 1.320349,0.3671063 1.317264,0.9964314 0,0.5984758 -0.524438,1.055045 -1.243226,1.055045 -0.672514,0 -1.153762,-0.3794461 -1.24014,-0.8637796 -0.02159,-0.1048875 -0.05553,-0.1419066 -0.123397,-0.1419066 -0.06787,0 -0.111058,0.046274 -0.111058,0.1233971 0,0.077123 0.01542,0.1511614 0.04936,0.2437092 0.175841,0.5151828 0.718788,0.8576097 1.425236,0.8576097 z"
       id="text1-4-8"
       style="font-weight:200;font-size:6.31793px;font-family:'SF Pro Rounded';-inkscape-font-specification:'SF Pro Rounded, Ultra-Light';letter-spacing:-7.10767px;word-spacing:0px;stroke:#000000;stroke-width:0.526494;stroke-linecap:round;stroke-linejoin:round"
       inkscape:label="top"
       transform="scale(1.0050875,0.99493825)"
       aria-label="3" /><path
       d="m -138.34131,-59.383863 c 0.8607,0 1.49002,-0.542947 1.49002,-1.280245 0,-0.63241 -0.45039,-1.055045 -1.13216,-1.101319 v -0.01234 c 0.58613,-0.114143 0.95324,-0.502843 0.95324,-1.05196 0,-0.647835 -0.54603,-1.135253 -1.34194,-1.135253 -0.63241,0 -1.14143,0.339341 -1.29567,0.845269 -0.0339,0.08638 -0.0463,0.172756 -0.0463,0.240625 0,0.08329 0.0401,0.123397 0.11106,0.123397 0.0802,0 0.0956,-0.04936 0.11723,-0.138822 0.0802,-0.496673 0.52752,-0.85144 1.11366,-0.85144 0.64783,0 1.09514,0.394871 1.09514,0.928563 0,0.555287 -0.46582,0.947073 -1.1445,0.947073 h -0.41955 c -0.0679,0 -0.11415,0.04319 -0.11415,0.107972 0,0.06478 0.0463,0.107973 0.11415,0.107973 h 0.42572 c 0.82367,0 1.32035,0.367106 1.31726,0.996431 0,0.598476 -0.52444,1.055045 -1.24323,1.055045 -0.67251,0 -1.15376,-0.379446 -1.24014,-0.863779 -0.0216,-0.104888 -0.0555,-0.141907 -0.12339,-0.141907 -0.0679,0 -0.11106,0.04627 -0.11106,0.123397 0,0.07712 0.0154,0.151161 0.0494,0.243709 0.17584,0.515183 0.71879,0.85761 1.42523,0.85761 z"
       id="text1-4-8-0"
       style="font-weight:200;font-size:6.31793px;font-family:'SF Pro Rounded';-inkscape-font-specification:'SF Pro Rounded, Ultra-Light';letter-spacing:-7.10767px;word-spacing:0px;stroke:#000000;stroke-width:0.526494;stroke-linecap:round;stroke-linejoin:round"
       inkscape:label="bottom"
       transform="scale(-1.0050875,-0.99493825)"
       aria-label="3" /><path
       d="m 96.872803,11.584951 c 0,0.676662 0.521066,1.190491 1.197729,1.190491 0.383562,0 0.767125,-0.133885 0.933577,-0.459551 h 0.02895 c -0.01447,0.379944 -0.412511,0.694755 -0.600674,0.886536 -0.1954,0.202637 -0.07599,0.4885 0.180926,0.4885 h 1.812879 c 0.26053,0 0.37994,-0.285863 0.18092,-0.4885 -0.18816,-0.191781 -0.5862,-0.506592 -0.59705,-0.886536 h 0.0289 c 0.16646,0.325666 0.5464,0.459551 0.92996,0.459551 0.68028,0 1.19773,-0.513829 1.19773,-1.190491 0,-0.673044 -0.51383,-1.237533 -1.18325,-1.237533 -0.2533,0 -0.51745,0.08323 -0.72732,0.249678 0.35823,-0.2931 0.47402,-0.6513328 0.47402,-0.9625251 0,-0.6694254 -0.54278,-1.2085842 -1.208581,-1.2085842 -0.665807,0 -1.208585,0.5391588 -1.208585,1.2085842 0,0.3111923 0.115793,0.6694251 0.470407,0.9625251 -0.206255,-0.166452 -0.474025,-0.249678 -0.727321,-0.249678 -0.669426,0 -1.183255,0.564489 -1.183255,1.237533 z"
       id="text3-7-0"
       style="font-weight:300;font-size:7.41072px;line-height:0;font-family:'SF Pro Rounded';-inkscape-font-specification:'SF Pro Rounded Light';letter-spacing:0px;word-spacing:0px;text-orientation:upright;stroke-width:0.526494;stroke-linecap:round"
       inkscape:label="club-top"
       transform="scale(1.0050875,0.99493825)"
       aria-label="♣" /><path
       d="m -140.0453,-54.757448 c 0,0.676663 0.52106,1.190492 1.19773,1.190492 0.38356,0 0.76712,-0.133885 0.93357,-0.459552 h 0.0289 c -0.0145,0.379944 -0.41251,0.694755 -0.60067,0.886537 -0.1954,0.202636 -0.076,0.488499 0.18092,0.488499 h 1.81288 c 0.26053,0 0.37994,-0.285863 0.18093,-0.488499 -0.18817,-0.191782 -0.5862,-0.506593 -0.59706,-0.886537 h 0.029 c 0.16645,0.325667 0.54639,0.459552 0.92996,0.459552 0.68028,0 1.19773,-0.513829 1.19773,-1.190492 0,-0.673044 -0.51383,-1.237532 -1.18326,-1.237532 -0.2533,0 -0.51745,0.08323 -0.72732,0.249677 0.35823,-0.293099 0.47402,-0.651332 0.47402,-0.962525 0,-0.669425 -0.54277,-1.208584 -1.20858,-1.208584 -0.66581,0 -1.20858,0.539159 -1.20858,1.208584 0,0.311193 0.11579,0.669426 0.4704,0.962525 -0.20625,-0.166451 -0.47402,-0.249677 -0.72732,-0.249677 -0.66942,0 -1.18325,0.564488 -1.18325,1.237532 z"
       id="text3-6-6-0"
       style="font-weight:300;font-size:7.41072px;line-height:0;font-family:'SF Pro Rounded';-inkscape-font-specification:'SF Pro Rounded Light';letter-spacing:0px;word-spacing:0px;text-orientation:upright;stroke-width:0.526494;stroke-linecap:round"
       inkscape:label="club-bottom"
       transform="scale(-1.0050875,-0.99493825)"
       aria-label="♣" /></g></svg>
