<?xml version="1.0" encoding="UTF-8" standalone="no"?>
<!-- Created with Inkscape (http://www.inkscape.org/) -->

<svg
   width="179.99977"
   height="251.99976"
   viewBox="0 0 47.624938 66.674935"
   version="1.1"
   id="svg1"
   inkscape:version="1.4 (e7c3feb1, 2024-10-09)"
   sodipodi:docname="All Cards - Diamonds.svg"
   xml:space="preserve"
   inkscape:export-filename="All Cards - Diamonds.png"
   inkscape:export-xdpi="96"
   inkscape:export-ydpi="96"
   inkscape:export-batch-path="Diamonds"
   inkscape:export-batch-name=""
   xmlns:inkscape="http://www.inkscape.org/namespaces/inkscape"
   xmlns:sodipodi="http://sodipodi.sourceforge.net/DTD/sodipodi-0.dtd"
   xmlns="http://www.w3.org/2000/svg"
   xmlns:svg="http://www.w3.org/2000/svg"><sodipodi:namedview
     id="namedview1"
     pagecolor="#ffffff"
     bordercolor="#999999"
     borderopacity="1"
     inkscape:showpageshadow="2"
     inkscape:pageopacity="0"
     inkscape:pagecheckerboard="0"
     inkscape:deskcolor="#d1d1d1"
     inkscape:document-units="px"
     showgrid="true"
     inkscape:zoom="0.69002035"
     inkscape:cx="626.79311"
     inkscape:cy="261.58649"
     inkscape:window-width="1512"
     inkscape:window-height="836"
     inkscape:window-x="0"
     inkscape:window-y="38"
     inkscape:window-maximized="0"
     inkscape:current-layer="layer14"><inkscape:grid
       id="grid2"
       units="px"
       originx="-238.12499"
       originy="-66.675"
       spacingx="0.26458333"
       spacingy="0.26458333"
       empcolor="#0099e5"
       empopacity="0.30196078"
       color="#0099e5"
       opacity="0.14901961"
       empspacing="5"
       enabled="true"
       visible="true" /></sodipodi:namedview><defs
     id="defs1"><inkscape:path-effect
       effect="fillet_chamfer"
       id="path-effect3-6"
       is_visible="true"
       lpeversion="1"
       nodesatellites_param="F,0,0,1,0,3,0,1 @ F,0,0,1,0,3,0,1 @ F,0,0,1,0,3,0,1 @ F,0,0,1,0,3,0,1"
       radius="0"
       unit="px"
       method="auto"
       mode="F"
       chamfer_steps="1"
       flexible="false"
       use_knot_distance="true"
       apply_no_radius="true"
       apply_with_radius="true"
       only_selected="false"
       hide_knots="false" /></defs><g
     inkscape:groupmode="layer"
     id="layer13"
     inkscape:label="King"
     inkscape:export-filename="Diamonds/King.svg"
     inkscape:export-xdpi="96"
     inkscape:export-ydpi="96"
     transform="translate(-190.5,-66.675)"><path
       style="fill:#ffffff;fill-opacity:1;stroke:#000000;stroke-width:0.526494;stroke-linecap:round;stroke-linejoin:round;stroke-dasharray:none;stroke-opacity:1"
       id="rect1-47"
       width="47.098965"
       height="65.475883"
       x="0.26119247"
       y="0.26535115"
       inkscape:path-effect="#path-effect3-6"
       sodipodi:type="rect"
       d="M 3.2611925,0.26535115 H 44.360157 a 3,3 45 0 1 3,2.99999995 V 62.741235 a 3,3 135 0 1 -3,3 H 3.2611925 a 3,3 45 0 1 -3.00000003,-3 V 3.2653511 A 3,3 135 0 1 3.2611925,0.26535115 Z"
       transform="matrix(0.99998907,0,0,1.0101899,190.50205,66.672874)"
       inkscape:label="card" /><path
       style="font-weight:300;font-size:18.3445px;font-family:'SF Pro Rounded';-inkscape-font-specification:'SF Pro Rounded Light';letter-spacing:-7.14375px;word-spacing:0px;fill:#ff0000;stroke:#ff0000;stroke-width:0.529167;stroke-linecap:round;stroke-linejoin:round"
       d="m 210.37126,106.60055 c 0.37621,0 0.60909,-0.24185 0.60909,-0.63597 v -4.10243 l 1.63023,-1.72876 5.09669,6.16261 c 0.1881,0.22393 0.34037,0.3135 0.56431,0.3135 0.34037,0 0.59118,-0.25976 0.59118,-0.58222 0,-0.16123 -0.0627,-0.3135 -0.18811,-0.46578 l -5.21313,-6.296963 4.6757,-4.89963 c 0.10748,-0.116444 0.17019,-0.250803 0.17019,-0.39412 0,-0.313504 -0.23289,-0.555351 -0.56431,-0.555351 -0.19706,0 -0.33142,0.07166 -0.49265,0.250804 l -6.19844,6.5836 h -0.0717 v -6.18948 c 0,-0.39412 -0.23288,-0.635967 -0.60909,-0.635967 -0.37621,0 -0.6091,0.241847 -0.6091,0.635967 v 11.90422 c 0,0.39412 0.23289,0.63597 0.6091,0.63597 z"
       id="text3-8-1-1-3-3-3-1-3-1-7-7"
       inkscape:label="center"
       aria-label="K" /><path
       d="m 194.09109,73.623413 c 0.0744,0 0.12402,-0.04961 0.12402,-0.130225 v -1.553394 l 0.64493,-0.691431 1.90376,2.303737 c 0.0434,0.05271 0.0744,0.07131 0.12092,0.07131 0.0682,0 0.12093,-0.04961 0.12093,-0.117822 0,-0.03721 -0.0186,-0.06821 -0.0434,-0.09922 l -1.92856,-2.331641 1.72391,-1.826246 c 0.0217,-0.02481 0.0341,-0.05271 0.0341,-0.08372 0,-0.05891 -0.0434,-0.108521 -0.11161,-0.108521 -0.0403,0 -0.0682,0.0155 -0.10543,0.05581 l -2.34093,2.489771 h -0.0186 v -2.415357 c 0,-0.08062 -0.0496,-0.130225 -0.12402,-0.130225 -0.0744,0 -0.12092,0.04961 -0.12092,0.130225 v 4.306715 c 0,0.08062 0.0465,0.130225 0.12092,0.130225 z"
       id="text1-7-9-5-9"
       style="font-weight:200;font-size:6.35px;font-family:'SF Pro Rounded';-inkscape-font-specification:'SF Pro Rounded, Ultra-Light';letter-spacing:0px;word-spacing:0px;fill:#ff0000;stroke:#ff0000;stroke-width:0.529167;stroke-linecap:round;stroke-linejoin:round"
       inkscape:label="top"
       aria-label="K" /><path
       d="m 234.53389,126.40151 c -0.0744,0 -0.12402,0.0496 -0.12402,0.13023 v 1.55339 l -0.64492,0.69143 -1.90376,-2.30373 c -0.0434,-0.0527 -0.0744,-0.0713 -0.12093,-0.0713 -0.0682,0 -0.12092,0.0496 -0.12092,0.11782 0,0.0372 0.0186,0.0682 0.0434,0.0992 l 1.92856,2.33164 -1.72392,1.82625 c -0.0217,0.0248 -0.0341,0.0527 -0.0341,0.0837 0,0.0589 0.0434,0.10852 0.11162,0.10852 0.0403,0 0.0682,-0.0155 0.10542,-0.0558 l 2.34094,-2.48978 h 0.0186 v 2.41536 c 0,0.0806 0.0496,0.13023 0.12402,0.13023 0.0744,0 0.12092,-0.0496 0.12092,-0.13023 v -4.30671 c 0,-0.0806 -0.0465,-0.13023 -0.12092,-0.13023 z"
       id="text1-7-9-5-9-8"
       style="font-weight:200;font-size:6.35px;font-family:'SF Pro Rounded';-inkscape-font-specification:'SF Pro Rounded, Ultra-Light';letter-spacing:-7.14375px;word-spacing:0px;fill:#ff0000;stroke:#ff0000;stroke-width:0.529167;stroke-linecap:round;stroke-linejoin:round"
       inkscape:label="bottom"
       aria-label="K" /><path
       d="m 195.48949,81.756249 c 0.12296,0 0.18603,-0.112889 0.31214,-0.334492 l 1.47873,-2.629945 c 0.063,-0.112888 0.0977,-0.221601 0.0977,-0.342855 0,-0.121253 -0.0346,-0.229962 -0.0977,-0.342853 l -1.47873,-2.629945 c -0.12611,-0.221601 -0.18918,-0.334492 -0.31214,-0.334492 -0.12611,0 -0.18917,0.112889 -0.31529,0.334492 l -1.47873,2.629945 c -0.063,0.112888 -0.0977,0.2216 -0.0977,0.342853 0,0.121254 0.0346,0.229965 0.0977,0.342855 l 1.47873,2.629945 c 0.12612,0.221601 0.18918,0.334492 0.31529,0.334492 z"
       id="text4-6-9-8-7-5"
       style="font-weight:300;font-size:7.43593px;line-height:0;font-family:'SF Pro Rounded';-inkscape-font-specification:'SF Pro Rounded Light';letter-spacing:0px;word-spacing:0px;text-orientation:upright;fill:#ff0000;stroke-width:0.529167;stroke-linecap:round"
       inkscape:label="diamond-top"
       aria-label="♦" /><path
       d="m 233.13864,124.88333 c 0.12297,0 0.18603,-0.11286 0.31215,-0.33449 l 1.47872,-2.62994 c 0.063,-0.11286 0.0977,-0.22161 0.0977,-0.34286 0,-0.12125 -0.0346,-0.22996 -0.0977,-0.34286 l -1.47872,-2.62994 c -0.12612,-0.2216 -0.18918,-0.33449 -0.31215,-0.33449 -0.12611,0 -0.18917,0.11286 -0.31529,0.33449 l -1.47872,2.62994 c -0.063,0.11286 -0.0977,0.22161 -0.0977,0.34286 0,0.12125 0.0346,0.22997 0.0977,0.34286 l 1.47872,2.62994 c 0.12612,0.2216 0.18918,0.33449 0.31529,0.33449 z"
       id="text4-5-3-5-7-9-4"
       style="font-weight:300;font-size:7.43593px;line-height:0;font-family:'SF Pro Rounded';-inkscape-font-specification:'SF Pro Rounded Light';letter-spacing:0px;word-spacing:0px;text-orientation:upright;fill:#ff0000;stroke-width:0.529167;stroke-linecap:round"
       inkscape:label="diamond-bottom"
       aria-label="♦" /></g></svg>
