<?xml version="1.0" encoding="UTF-8" standalone="no"?>
<!-- Created with Inkscape (http://www.inkscape.org/) -->

<svg
   width="179.99977"
   height="251.99976"
   viewBox="0 0 47.624938 66.674935"
   version="1.1"
   id="svg1"
   inkscape:version="1.4 (e7c3feb1, 2024-10-09)"
   sodipodi:docname="All Cards - Spades.svg"
   xml:space="preserve"
   inkscape:export-filename="All Cards - Spades.png"
   inkscape:export-xdpi="96"
   inkscape:export-ydpi="96"
   inkscape:export-batch-path="Spades"
   inkscape:export-batch-name=""
   xmlns:inkscape="http://www.inkscape.org/namespaces/inkscape"
   xmlns:sodipodi="http://sodipodi.sourceforge.net/DTD/sodipodi-0.dtd"
   xmlns="http://www.w3.org/2000/svg"
   xmlns:svg="http://www.w3.org/2000/svg"><sodipodi:namedview
     id="namedview1"
     pagecolor="#ffffff"
     bordercolor="#999999"
     borderopacity="1"
     inkscape:showpageshadow="2"
     inkscape:pageopacity="0"
     inkscape:pagecheckerboard="0"
     inkscape:deskcolor="#d1d1d1"
     inkscape:document-units="px"
     showgrid="true"
     inkscape:zoom="0.69476599"
     inkscape:cx="619.6331"
     inkscape:cy="265.55704"
     inkscape:window-width="1512"
     inkscape:window-height="836"
     inkscape:window-x="0"
     inkscape:window-y="38"
     inkscape:window-maximized="0"
     inkscape:current-layer="layer1"><inkscape:grid
       id="grid2"
       units="px"
       originx="-95.249997"
       originy="-3.5768442e-09"
       spacingx="0.26458333"
       spacingy="0.26458333"
       empcolor="#0099e5"
       empopacity="0.30196078"
       color="#0099e5"
       opacity="0.14901961"
       empspacing="5"
       enabled="true"
       visible="true" /></sodipodi:namedview><defs
     id="defs1"><inkscape:path-effect
       effect="fillet_chamfer"
       id="path-effect3-2"
       is_visible="true"
       lpeversion="1"
       nodesatellites_param="F,0,0,1,0,3,0,1 @ F,0,0,1,0,3,0,1 @ F,0,0,1,0,3,0,1 @ F,0,0,1,0,3,0,1"
       radius="0"
       unit="px"
       method="auto"
       mode="F"
       chamfer_steps="1"
       flexible="false"
       use_knot_distance="true"
       apply_no_radius="true"
       apply_with_radius="true"
       only_selected="false"
       hide_knots="false" /></defs><g
     inkscape:groupmode="layer"
     id="layer3"
     inkscape:label="3"
     transform="matrix(0.99998908,0,0,1.0101899,-95.247914,-0.00209528)"
     inkscape:export-filename="Spades/3.svg"
     inkscape:export-xdpi="96"
     inkscape:export-ydpi="96"><path
       style="fill:#ffffff;fill-opacity:1;stroke:#000000;stroke-width:0.526494;stroke-linecap:round;stroke-linejoin:round;stroke-dasharray:none"
       id="rect1-6"
       width="47.098965"
       height="65.475883"
       x="0.26119247"
       y="0.26535115"
       inkscape:path-effect="#path-effect3-2"
       sodipodi:type="rect"
       d="M 3.2611925,0.26535115 H 44.360157 a 3,3 45 0 1 3,2.99999995 V 62.741235 a 3,3 135 0 1 -3,3 H 3.2611925 a 3,3 45 0 1 -3.00000003,-3 V 3.2653511 A 3,3 135 0 1 3.2611925,0.26535115 Z"
       transform="translate(95.251009,-2.9988694e-5)"
       inkscape:label="card" /><path
       style="font-weight:300;font-size:18.2518px;font-family:'SF Pro Rounded';-inkscape-font-specification:'SF Pro Rounded Light';letter-spacing:-7.10767px;word-spacing:0px;stroke:#000000;stroke-width:0.526494;stroke-linecap:round;stroke-linejoin:round"
       d="m 118.41892,39.806161 c 2.51319,0 4.40254,-1.55069 4.40254,-3.734133 0,-1.826962 -1.29225,-3.01226 -3.20833,-3.163764 v -0.03565 c 1.64872,-0.329745 2.7449,-1.443746 2.7449,-3.038996 0,-1.844787 -1.53287,-3.297445 -3.98367,-3.297445 -1.80023,0 -3.20832,0.846641 -3.7876,2.201267 -0.15151,0.311921 -0.21389,0.597105 -0.21389,0.891201 0,0.365393 0.19606,0.570369 0.54363,0.570369 0.32975,0 0.43669,-0.160416 0.56146,-0.534721 0.36539,-1.283329 1.36354,-2.058674 2.8964,-2.058674 1.73784,0 2.75381,0.980321 2.75381,2.370595 0,1.425922 -1.18529,2.441891 -2.90531,2.441891 h -1.06053 c -0.32975,0 -0.55255,0.213888 -0.55255,0.525809 0,0.31192 0.2228,0.516897 0.55255,0.516897 h 1.114 c 2.04976,0 3.31527,0.962497 3.30636,2.646867 -0.009,1.515042 -1.30116,2.629044 -3.16377,2.629044 -1.72002,0 -2.83402,-0.837729 -3.1905,-2.067587 -0.12477,-0.383217 -0.28518,-0.543633 -0.57037,-0.543633 -0.34757,0 -0.56145,0.231712 -0.56145,0.579281 0,0.294096 0.0624,0.570369 0.23171,0.891201 0.65057,1.390274 2.12106,2.210179 4.09061,2.210179 z"
       id="text3-8-1"
       inkscape:label="center"
       transform="scale(1.0050875,0.99493825)"
       aria-label="3" /><path
       d="m 100.22925,6.9185637 c 0.86507,0 1.4976,-0.5401987 1.4976,-1.2737641 0,-0.6292088 -0.45269,-1.0497044 -1.13793,-1.0957441 v -0.012277 c 0.58912,-0.1135646 0.95809,-0.5002978 0.95809,-1.0466352 0,-0.6445554 -0.54881,-1.1295066 -1.34877,-1.1295066 -0.635627,0 -1.147229,0.3376242 -1.30226,0.8409914 -0.0341,0.085941 -0.0465,0.1718814 -0.0465,0.2394062 0,0.082871 0.0403,0.1227725 0.111622,0.1227725 0.08062,0 0.09612,-0.049109 0.117823,-0.138119 0.08062,-0.4941591 0.530207,-0.84713 1.119325,-0.84713 0.65112,0 1.10073,0.3928719 1.10073,0.9238628 0,0.552476 -0.4682,0.9422785 -1.15034,0.9422785 h -0.421685 c -0.06822,0 -0.114722,0.04297 -0.114722,0.1074259 0,0.064455 0.0465,0.1074259 0.114722,0.1074259 h 0.427895 c 0.82786,0 1.32706,0.3652481 1.32396,0.9913875 0,0.5954465 -0.5271,1.0497045 -1.24955,1.0497045 -0.67594,0 -1.159636,-0.3775253 -1.246453,-0.8594071 -0.0217,-0.1043566 -0.05581,-0.1411884 -0.124025,-0.1411884 -0.06822,0 -0.111623,0.04604 -0.111623,0.1227724 0,0.076733 0.0155,0.1503963 0.04961,0.2424756 0.176735,0.512575 0.722445,0.8532685 1.432481,0.8532683 z"
       id="text1-4-8"
       style="font-weight:200;font-size:6.31793px;font-family:'SF Pro Rounded';-inkscape-font-specification:'SF Pro Rounded, Ultra-Light';letter-spacing:-7.10767px;word-spacing:0px;stroke:#000000;stroke-width:0.526494;stroke-linecap:round;stroke-linejoin:round"
       inkscape:label="top"
       aria-label="3" /><path
       d="m 137.89437,59.087901 c -0.86508,0 -1.4976,0.540198 -1.4976,1.273764 0,0.629208 0.45269,1.049704 1.13792,1.095744 v 0.01228 c -0.58911,0.113565 -0.95809,0.500298 -0.95809,1.046636 0,0.644554 0.54881,1.129506 1.34877,1.129506 0.63562,0 1.14723,-0.337624 1.30226,-0.840991 0.0341,-0.08594 0.0465,-0.171882 0.0465,-0.239406 0,-0.08287 -0.0403,-0.122773 -0.11162,-0.122773 -0.0806,0 -0.0961,0.04911 -0.11783,0.138119 -0.0806,0.494159 -0.5302,0.84713 -1.11932,0.84713 -0.65113,0 -1.10072,-0.392872 -1.10072,-0.923863 0,-0.552476 0.46819,-0.942278 1.15033,-0.942278 h 0.42168 c 0.0683,0 0.11473,-0.04297 0.11473,-0.107427 0,-0.06445 -0.0465,-0.107425 -0.11473,-0.107425 h -0.42788 c -0.82786,0 -1.32706,-0.365248 -1.32397,-0.991387 0,-0.595447 0.52711,-1.049705 1.24956,-1.049705 0.67593,0 1.15963,0.377525 1.24645,0.859407 0.0217,0.104357 0.0558,0.141189 0.12402,0.141189 0.0682,0 0.11162,-0.04604 0.11162,-0.122773 0,-0.07673 -0.0155,-0.150397 -0.0496,-0.242475 -0.17673,-0.512576 -0.72245,-0.853269 -1.43248,-0.853269 z"
       id="text1-4-8-0"
       style="font-weight:200;font-size:6.31793px;font-family:'SF Pro Rounded';-inkscape-font-specification:'SF Pro Rounded, Ultra-Light';letter-spacing:-7.10767px;word-spacing:0px;stroke:#000000;stroke-width:0.526494;stroke-linecap:round;stroke-linejoin:round"
       inkscape:label="bottom"
       aria-label="3" /><path
       d="m 97.672035,11.598059 c 0,0.64782 0.496099,1.142393 1.157564,1.142393 0.372955,0 0.74239,-0.128867 0.904238,-0.442329 h 0.02815 c -0.01055,0.365705 -0.397584,0.668718 -0.580542,0.853312 -0.193513,0.195043 -0.0774,0.470192 0.175922,0.470192 h 1.762743 c 0.2498,0 0.36592,-0.275149 0.17592,-0.470192 -0.18648,-0.184594 -0.57351,-0.487607 -0.58406,-0.853312 h 0.0282 c 0.16184,0.313462 0.5348,0.442329 0.90776,0.442329 0.65794,0 1.15404,-0.494573 1.15404,-1.142393 0,-1.215534 -1.65366,-1.7170726 -2.30457,-3.0301281 -0.0528,-0.1044872 -0.12667,-0.1845939 -0.26037,-0.1845939 -0.13018,0 -0.20758,0.080106 -0.256845,0.1845939 -0.654429,1.3130555 -2.308093,1.8145941 -2.308093,3.0301281 z"
       id="text1-9-2"
       style="font-weight:300;font-size:7.16928px;line-height:0;font-family:'SF Pro Rounded';-inkscape-font-specification:'SF Pro Rounded Light';letter-spacing:0px;word-spacing:0px;text-orientation:upright;stroke-width:0.526494;stroke-linecap:round"
       inkscape:label="spade-top"
       aria-label="♠" /><path
       d="m 140.45146,54.408532 c 0,-0.647822 -0.4961,-1.142394 -1.15757,-1.142394 -0.37295,0 -0.74239,0.128868 -0.90423,0.442329 h -0.0281 c 0.0106,-0.365705 0.39759,-0.668718 0.58054,-0.853312 0.19352,-0.195042 0.0774,-0.470193 -0.17592,-0.470193 h -1.76273 c -0.24982,0 -0.36592,0.275151 -0.17592,0.470193 0.18647,0.184594 0.5735,0.487607 0.58405,0.853312 h -0.0281 c -0.16184,-0.313461 -0.5348,-0.442329 -0.90775,-0.442329 -0.65794,0 -1.15404,0.494572 -1.15404,1.142394 0,1.215533 1.65366,1.717072 2.30457,3.030127 0.0528,0.104487 0.12666,0.184594 0.26036,0.184594 0.13019,0 0.20759,-0.0801 0.25685,-0.184594 0.65443,-1.313055 2.30809,-1.814594 2.30809,-3.030127 z"
       id="text1-6-2-8"
       style="font-weight:300;font-size:7.16928px;line-height:0;font-family:'SF Pro Rounded';-inkscape-font-specification:'SF Pro Rounded Light';letter-spacing:0px;word-spacing:0px;text-orientation:upright;stroke-width:0.526494;stroke-linecap:round"
       inkscape:label="spade-bottom"
       aria-label="♠" /></g></svg>
