<?xml version="1.0" encoding="UTF-8" standalone="no"?>
<!-- Created with Inkscape (http://www.inkscape.org/) -->

<svg
   width="179.99976"
   height="251.99976"
   viewBox="0 0 47.624934 66.674935"
   version="1.1"
   id="svg1"
   inkscape:version="1.4 (e7c3feb1, 2024-10-09)"
   sodipodi:docname="All Cards - Spades.svg"
   xml:space="preserve"
   inkscape:export-filename="All Cards - Spades.png"
   inkscape:export-xdpi="96"
   inkscape:export-ydpi="96"
   xmlns:inkscape="http://www.inkscape.org/namespaces/inkscape"
   xmlns:sodipodi="http://sodipodi.sourceforge.net/DTD/sodipodi-0.dtd"
   xmlns="http://www.w3.org/2000/svg"
   xmlns:svg="http://www.w3.org/2000/svg"><sodipodi:namedview
     id="namedview1"
     pagecolor="#ffffff"
     bordercolor="#999999"
     borderopacity="1"
     inkscape:showpageshadow="2"
     inkscape:pageopacity="0"
     inkscape:pagecheckerboard="0"
     inkscape:deskcolor="#d1d1d1"
     inkscape:document-units="px"
     showgrid="true"
     inkscape:zoom="0.61073719"
     inkscape:cx="687.6935"
     inkscape:cy="297.18184"
     inkscape:window-width="1512"
     inkscape:window-height="836"
     inkscape:window-x="0"
     inkscape:window-y="38"
     inkscape:window-maximized="0"
     inkscape:current-layer="layer13"><inkscape:grid
       id="grid2"
       units="px"
       originx="-95.25"
       originy="-3.5768444e-09"
       spacingx="0.26458333"
       spacingy="0.26458333"
       empcolor="#0099e5"
       empopacity="0.30196078"
       color="#0099e5"
       opacity="0.14901961"
       empspacing="5"
       enabled="true"
       visible="true" /><inkscape:page
       x="0"
       y="0"
       width="47.624935"
       height="66.674934"
       id="page2"
       margin="0"
       bleed="0" /></sodipodi:namedview><defs
     id="defs1"><inkscape:path-effect
       effect="fillet_chamfer"
       id="path-effect3-2"
       is_visible="true"
       lpeversion="1"
       nodesatellites_param="F,0,0,1,0,3,0,1 @ F,0,0,1,0,3,0,1 @ F,0,0,1,0,3,0,1 @ F,0,0,1,0,3,0,1"
       radius="0"
       unit="px"
       method="auto"
       mode="F"
       chamfer_steps="1"
       flexible="false"
       use_knot_distance="true"
       apply_no_radius="true"
       apply_with_radius="true"
       only_selected="false"
       hide_knots="false" /></defs><g
     inkscape:groupmode="layer"
     id="layer3"
     inkscape:label="3"
     transform="matrix(0.99998908,0,0,1.0101899,-95.247917,-0.00209528)"
     inkscape:export-filename="Spades/3.svg"
     inkscape:export-xdpi="96"
     inkscape:export-ydpi="96"><path
       style="fill:#ffffff;fill-opacity:1;stroke:#000000;stroke-width:0.526494;stroke-linecap:round;stroke-linejoin:round;stroke-dasharray:none"
       id="rect1-6"
       width="47.098965"
       height="65.475883"
       x="0.26119247"
       y="0.26535115"
       inkscape:path-effect="#path-effect3-2"
       sodipodi:type="rect"
       d="M 3.2611925,0.26535115 H 44.360157 a 3,3 45 0 1 3,2.99999995 V 62.741235 a 3,3 135 0 1 -3,3 H 3.2611925 a 3,3 45 0 1 -3.00000003,-3 V 3.2653511 A 3,3 135 0 1 3.2611925,0.26535115 Z"
       transform="translate(95.251009,-2.9988694e-5)"
       inkscape:label="card" /><path
       style="font-weight:300;font-size:18.2518px;font-family:'SF Pro Rounded';-inkscape-font-specification:'SF Pro Rounded Light';letter-spacing:-7.10767px;word-spacing:0px;stroke:#000000;stroke-width:0.526494;stroke-linecap:round;stroke-linejoin:round"
       d="m 118.41892,39.806161 c 2.51319,0 4.40254,-1.55069 4.40254,-3.734133 0,-1.826962 -1.29225,-3.01226 -3.20833,-3.163764 v -0.03565 c 1.64872,-0.329745 2.7449,-1.443746 2.7449,-3.038996 0,-1.844787 -1.53287,-3.297445 -3.98367,-3.297445 -1.80023,0 -3.20832,0.846641 -3.7876,2.201267 -0.15151,0.311921 -0.21389,0.597105 -0.21389,0.891201 0,0.365393 0.19606,0.570369 0.54363,0.570369 0.32975,0 0.43669,-0.160416 0.56146,-0.534721 0.36539,-1.283329 1.36354,-2.058674 2.8964,-2.058674 1.73784,0 2.75381,0.980321 2.75381,2.370595 0,1.425922 -1.18529,2.441891 -2.90531,2.441891 h -1.06053 c -0.32975,0 -0.55255,0.213888 -0.55255,0.525809 0,0.31192 0.2228,0.516897 0.55255,0.516897 h 1.114 c 2.04976,0 3.31527,0.962497 3.30636,2.646867 -0.009,1.515042 -1.30116,2.629044 -3.16377,2.629044 -1.72002,0 -2.83402,-0.837729 -3.1905,-2.067587 -0.12477,-0.383217 -0.28518,-0.543633 -0.57037,-0.543633 -0.34757,0 -0.56145,0.231712 -0.56145,0.579281 0,0.294096 0.0624,0.570369 0.23171,0.891201 0.65057,1.390274 2.12106,2.210179 4.09061,2.210179 z"
       id="text3-8-1"
       inkscape:label="center"
       transform="scale(1.0050875,0.99493825)"
       aria-label="3" /><path
       d="m 98.576709,6.9585932 c 0.860695,0 1.490021,-0.542947 1.490021,-1.2802444 0,-0.6324099 -0.450401,-1.0550448 -1.132169,-1.1013187 v -0.01234 c 0.586136,-0.1141423 0.953242,-0.502843 0.953242,-1.0519599 0,-0.6478346 -0.546032,-1.135253 -1.341943,-1.135253 -0.63241,0 -1.141423,0.3393419 -1.295669,0.8452699 -0.03393,0.086378 -0.04627,0.1727559 -0.04627,0.2406242 0,0.083293 0.0401,0.1233971 0.111057,0.1233971 0.08021,0 0.09563,-0.049359 0.117227,-0.1388217 0.08021,-0.4966731 0.527523,-0.8514397 1.113659,-0.8514397 0.647834,0 1.095149,0.3948706 1.095149,0.9285629 0,0.5552867 -0.465824,0.9470724 -1.144508,0.9470724 h -0.41955 c -0.06787,0 -0.114142,0.043189 -0.114142,0.1079724 0,0.064783 0.04627,0.1079724 0.114142,0.1079724 h 0.42572 c 0.823675,0 1.320348,0.3671063 1.317263,0.9964312 0,0.5984758 -0.524437,1.0550449 -1.243225,1.0550449 -0.672514,0 -1.153762,-0.379446 -1.24014,-0.8637794 -0.02159,-0.1048875 -0.05553,-0.1419066 -0.123397,-0.1419066 -0.06787,0 -0.111058,0.046274 -0.111058,0.123397 0,0.077123 0.01542,0.1511614 0.04936,0.2437092 0.175841,0.5151827 0.718788,0.8576095 1.425236,0.8576095 z"
       id="text1-4-8"
       style="font-weight:200;font-size:6.31793px;font-family:'SF Pro Rounded';-inkscape-font-specification:'SF Pro Rounded, Ultra-Light';letter-spacing:-7.10767px;word-spacing:0px;stroke:#000000;stroke-width:0.526494;stroke-linecap:round;stroke-linejoin:round"
       inkscape:label="top"
       transform="scale(1.0050875,0.99493825)"
       aria-label="3" /><path
       d="m -138.34131,-59.383863 c 0.8607,0 1.49002,-0.542947 1.49002,-1.280245 0,-0.632409 -0.4504,-1.055044 -1.13216,-1.101318 v -0.01234 c 0.58613,-0.114142 0.95324,-0.502843 0.95324,-1.05196 0,-0.647834 -0.54603,-1.135253 -1.34194,-1.135253 -0.63241,0 -1.14143,0.339342 -1.29567,0.84527 -0.0339,0.08638 -0.0463,0.172756 -0.0463,0.240624 0,0.08329 0.0401,0.123397 0.11106,0.123397 0.0802,0 0.0956,-0.04936 0.11723,-0.138821 0.0802,-0.496673 0.52752,-0.85144 1.11366,-0.85144 0.64783,0 1.09514,0.394871 1.09514,0.928563 0,0.555287 -0.46582,0.947072 -1.1445,0.947072 h -0.41955 c -0.0679,0 -0.11415,0.04319 -0.11415,0.107973 0,0.06478 0.0463,0.107972 0.11415,0.107972 h 0.42572 c 0.82367,0 1.32034,0.367106 1.31726,0.996431 0,0.598476 -0.52444,1.055045 -1.24323,1.055045 -0.67251,0 -1.15376,-0.379446 -1.24014,-0.863779 -0.0216,-0.104888 -0.0555,-0.141907 -0.12339,-0.141907 -0.0679,0 -0.11106,0.04627 -0.11106,0.123397 0,0.07712 0.0154,0.151162 0.0494,0.243709 0.17584,0.515183 0.71879,0.85761 1.42523,0.85761 z"
       id="text1-4-8-0"
       style="font-weight:200;font-size:6.31793px;font-family:'SF Pro Rounded';-inkscape-font-specification:'SF Pro Rounded, Ultra-Light';letter-spacing:-7.10767px;word-spacing:0px;stroke:#000000;stroke-width:0.526494;stroke-linecap:round;stroke-linejoin:round"
       inkscape:label="bottom"
       transform="scale(-1.0050875,-0.99493825)"
       aria-label="3" /><path
       d="m 96.872801,11.657064 c 0,0.651116 0.493588,1.148205 1.151705,1.148205 0.371067,0 0.738632,-0.129523 0.899661,-0.444579 h 0.02801 c -0.0105,0.367565 -0.395571,0.67212 -0.577603,0.857653 -0.192534,0.196035 -0.07701,0.472584 0.175031,0.472584 h 1.753815 c 0.24854,0 0.36407,-0.276549 0.17503,-0.472584 -0.18553,-0.185533 -0.570602,-0.490088 -0.581104,-0.857653 h 0.02801 c 0.161024,0.315056 0.532094,0.444579 0.903164,0.444579 0.65461,0 1.1482,-0.497089 1.1482,-1.148205 0,-1.221718 -1.64529,-1.7258081 -2.292907,-3.0455437 -0.05251,-0.1050188 -0.126023,-0.1855331 -0.259047,-0.1855331 -0.129523,0 -0.206536,0.080514 -0.255545,0.1855331 -0.651116,1.3197356 -2.29641,1.8238257 -2.29641,3.0455437 z"
       id="text1-9-2"
       style="font-weight:300;font-size:7.16928px;line-height:0;font-family:'SF Pro Rounded';-inkscape-font-specification:'SF Pro Rounded Light';letter-spacing:0px;word-spacing:0px;text-orientation:upright;stroke-width:0.526494;stroke-linecap:round"
       inkscape:label="spade-top"
       transform="scale(1.0050875,0.99493825)"
       aria-label="♠" /><path
       d="m -140.04539,-54.685335 c 0,0.651117 0.49359,1.148205 1.15171,1.148205 0.37106,0 0.73863,-0.129523 0.89966,-0.444579 h 0.028 c -0.0105,0.367566 -0.39557,0.67212 -0.5776,0.857653 -0.19254,0.196035 -0.077,0.472585 0.17503,0.472585 h 1.75381 c 0.24855,0 0.36407,-0.27655 0.17503,-0.472585 -0.18553,-0.185533 -0.5706,-0.490087 -0.5811,-0.857653 h 0.028 c 0.16102,0.315056 0.53209,0.444579 0.90316,0.444579 0.65461,0 1.1482,-0.497088 1.1482,-1.148205 0,-1.221718 -1.64529,-1.725808 -2.29291,-3.045543 -0.0525,-0.105019 -0.12602,-0.185533 -0.25904,-0.185533 -0.12953,0 -0.20654,0.08051 -0.25555,0.185533 -0.65112,1.319735 -2.29641,1.823825 -2.29641,3.045543 z"
       id="text1-6-2-8"
       style="font-weight:300;font-size:7.16928px;line-height:0;font-family:'SF Pro Rounded';-inkscape-font-specification:'SF Pro Rounded Light';letter-spacing:0px;word-spacing:0px;text-orientation:upright;stroke-width:0.526494;stroke-linecap:round"
       inkscape:label="spade-bottom"
       transform="scale(-1.0050875,-0.99493825)"
       aria-label="♠" /></g></svg>
