<?xml version="1.0" encoding="UTF-8" standalone="no"?>
<!-- Created with Inkscape (http://www.inkscape.org/) -->

<svg
   width="179.99977"
   height="251.99976"
   viewBox="0 0 47.624938 66.674935"
   version="1.1"
   id="svg1"
   inkscape:version="1.4 (e7c3feb1, 2024-10-09)"
   sodipodi:docname="All Cards - Hearts.svg"
   xml:space="preserve"
   inkscape:export-filename="All Cards - Hearts.png"
   inkscape:export-xdpi="96"
   inkscape:export-ydpi="96"
   inkscape:export-batch-path="Hearts"
   inkscape:export-batch-name=""
   xmlns:inkscape="http://www.inkscape.org/namespaces/inkscape"
   xmlns:sodipodi="http://sodipodi.sourceforge.net/DTD/sodipodi-0.dtd"
   xmlns="http://www.w3.org/2000/svg"
   xmlns:svg="http://www.w3.org/2000/svg"><sodipodi:namedview
     id="namedview1"
     pagecolor="#ffffff"
     bordercolor="#999999"
     borderopacity="1"
     inkscape:showpageshadow="2"
     inkscape:pageopacity="0"
     inkscape:pagecheckerboard="0"
     inkscape:deskcolor="#d1d1d1"
     inkscape:document-units="px"
     showgrid="true"
     inkscape:zoom="0.7246543"
     inkscape:cx="555.43726"
     inkscape:cy="257.3641"
     inkscape:window-width="1512"
     inkscape:window-height="836"
     inkscape:window-x="0"
     inkscape:window-y="38"
     inkscape:window-maximized="0"
     inkscape:current-layer="layer11"><inkscape:grid
       id="grid2"
       units="px"
       originx="-238.125"
       originy="-3.5768442e-09"
       spacingx="0.26458333"
       spacingy="0.26458333"
       empcolor="#0099e5"
       empopacity="0.30196078"
       color="#0099e5"
       opacity="0.14901961"
       empspacing="5"
       enabled="true"
       visible="true" /></sodipodi:namedview><defs
     id="defs1"><inkscape:path-effect
       effect="fillet_chamfer"
       id="path-effect3-71"
       is_visible="true"
       lpeversion="1"
       nodesatellites_param="F,0,0,1,0,3,0,1 @ F,0,0,1,0,3,0,1 @ F,0,0,1,0,3,0,1 @ F,0,0,1,0,3,0,1"
       radius="0"
       unit="px"
       method="auto"
       mode="F"
       chamfer_steps="1"
       flexible="false"
       use_knot_distance="true"
       apply_no_radius="true"
       apply_with_radius="true"
       only_selected="false"
       hide_knots="false" /></defs><g
     inkscape:groupmode="layer"
     id="layer6"
     inkscape:label="6"
     transform="matrix(0.99998908,0,0,1.0101899,-238.12292,-0.00209528)"
     inkscape:export-filename="Hearts/6.svg"
     inkscape:export-xdpi="96"
     inkscape:export-ydpi="96"><path
       style="fill:#ffffff;fill-opacity:1;stroke:#000000;stroke-width:0.526494;stroke-linecap:round;stroke-linejoin:round;stroke-dasharray:none;stroke-opacity:1"
       id="rect1-2"
       width="47.098965"
       height="65.475883"
       x="0.26119247"
       y="0.26535115"
       inkscape:path-effect="#path-effect3-71"
       sodipodi:type="rect"
       d="M 3.2611925,0.26535115 H 44.360157 a 3,3 45 0 1 3,2.99999995 V 62.741235 a 3,3 135 0 1 -3,3 H 3.2611925 a 3,3 45 0 1 -3.00000003,-3 V 3.2653511 A 3,3 135 0 1 3.2611925,0.26535115 Z"
       transform="translate(238.12757,-2.9988694e-5)"
       inkscape:label="card" /><path
       style="font-weight:300;font-size:18.2518px;font-family:'SF Pro Rounded';-inkscape-font-specification:'SF Pro Rounded Light';letter-spacing:-7.10767px;word-spacing:0px;fill:#ff0000;stroke:#ff0000;stroke-width:0.526494;stroke-linecap:round;stroke-linejoin:round"
       d="m 262.10394,39.604671 c 2.58868,0 4.48763,-1.844315 4.48763,-4.362516 0,-2.411797 -1.83626,-4.220644 -4.29057,-4.220644 -1.85417,0 -3.31421,1.055161 -3.80687,2.429531 h -0.0268 c 0,-0.0532 0,-0.150737 0,-0.221672 0.0538,-3.653164 1.39734,-5.75462 3.71729,-5.75462 1.26299,0 2.23935,0.611817 2.7947,1.737913 0.22393,0.407877 0.38517,0.549748 0.65389,0.549748 0.32246,0 0.56431,-0.212806 0.56431,-0.523148 0,-0.212805 -0.0627,-0.425611 -0.19706,-0.665018 -0.65389,-1.365503 -2.10498,-2.17239 -3.80687,-2.17239 -3.06342,0 -4.90864,2.580268 -4.90864,6.871849 0,1.604909 0.28664,2.908343 0.86887,3.910303 0.7972,1.551708 2.21247,2.420664 3.95019,2.420664 z m -0.009,-1.081761 c -1.85417,0 -3.27839,-1.471906 -3.27839,-3.325089 0,-1.746779 1.44213,-3.103415 3.28735,-3.103415 1.87209,0 3.24256,1.356636 3.24256,3.192084 0,1.808848 -1.43318,3.23642 -3.25152,3.23642 z"
       id="text3-8-1-1-3-3"
       inkscape:label="center"
       aria-label="6" /><path
       d="m 243.1755,6.9185639 c 0.86507,0 1.5069,-0.641486 1.5069,-1.5039624 0,-0.8317833 -0.63872,-1.4579229 -1.4852,-1.4579229 -0.67903,0 -1.24954,0.423565 -1.39838,1.0036648 h -0.0124 c 0,-0.027624 -0.003,-0.085941 -0.003,-0.1258418 0.009,-1.4149524 0.53021,-2.2559438 1.41079,-2.2559438 0.5271,0 0.94568,0.285446 1.10692,0.748912 0.0496,0.1197031 0.0775,0.1565349 0.14573,0.1565349 0.0651,0 0.11161,-0.04297 0.11161,-0.1043566 0,-0.055248 -0.0186,-0.1227724 -0.0497,-0.196436 -0.19535,-0.5187135 -0.69764,-0.8225754 -1.31157,-0.8225754 -1.01699,0 -1.65262,0.9207935 -1.65262,2.3940628 0,0.6629712 0.13952,1.1816849 0.40928,1.537725 0.27595,0.4020797 0.71003,0.6261394 1.22164,0.6261394 z m -0.003,-0.2209904 c -0.72554,0 -1.28676,-0.5893077 -1.28676,-1.3290117 0,-0.6537633 0.58602,-1.1939621 1.28676,-1.1939621 0.71624,0 1.26196,0.5371295 1.26196,1.243071 0,0.7182189 -0.55192,1.2799028 -1.26196,1.2799028 z"
       id="text1-4-8-9-6-8"
       style="font-weight:200;font-size:6.31793px;font-family:'SF Pro Rounded';-inkscape-font-specification:'SF Pro Rounded, Ultra-Light';letter-spacing:-7.10767px;word-spacing:0px;fill:#ff0000;stroke:#ff0000;stroke-width:0.526494;stroke-linecap:round;stroke-linejoin:round"
       inkscape:label="top"
       aria-label="6" /><path
       d="m 280.7011,59.087901 c -0.86507,0 -1.5069,0.641486 -1.5069,1.503962 0,0.831784 0.63872,1.457923 1.4852,1.457923 0.67903,0 1.24954,-0.423565 1.39838,-1.003665 h 0.0124 c 0,0.02762 0.003,0.08594 0.003,0.125842 -0.009,1.414952 -0.5302,2.255944 -1.41078,2.255944 -0.5271,0 -0.94568,-0.285446 -1.10692,-0.748912 -0.0496,-0.119703 -0.0775,-0.156535 -0.14573,-0.156535 -0.0651,0 -0.11162,0.04297 -0.11162,0.104356 0,0.05525 0.0186,0.122773 0.0496,0.196436 0.19534,0.518714 0.69764,0.822576 1.31157,0.822576 1.017,0 1.65262,-0.920793 1.65262,-2.394063 0,-0.662971 -0.13952,-1.181685 -0.40928,-1.537725 -0.27596,-0.402079 -0.71004,-0.626139 -1.22164,-0.626139 z m 0.003,0.22099 c 0.72555,0 1.28676,0.589307 1.28676,1.329012 0,0.653763 -0.58602,1.193962 -1.28676,1.193962 -0.71624,0 -1.26195,-0.53713 -1.26195,-1.243071 0,-0.718219 0.55191,-1.279903 1.26195,-1.279903 z"
       id="text1-4-8-9-6-8-6"
       style="font-weight:200;font-size:6.31793px;font-family:'SF Pro Rounded';-inkscape-font-specification:'SF Pro Rounded, Ultra-Light';letter-spacing:-7.10767px;word-spacing:0px;fill:#ff0000;stroke:#ff0000;stroke-width:0.526494;stroke-linecap:round;stroke-linejoin:round"
       inkscape:label="bottom"
       aria-label="6" /><path
       d="m 241.8848,13.690928 c 0.0556,0 0.13348,-0.03337 0.1928,-0.07045 1.61656,-1.038157 2.66214,-2.243161 2.66214,-3.466704 0,-1.0084958 -0.69334,-1.7277906 -1.59802,-1.7277906 -0.55616,0 -1.00108,0.3114472 -1.25692,0.7897412 -0.25583,-0.4745863 -0.70446,-0.7897412 -1.26062,-0.7897412 -0.90468,0 -1.59802,0.7192948 -1.59802,1.7277906 0,1.223543 1.04558,2.428547 2.66214,3.466704 0.0593,0.03708 0.13718,0.07045 0.1965,0.07045 z"
       id="text5-74-6-9-0-8"
       style="font-weight:300;font-size:7.59338px;line-height:0;font-family:'SF Pro Rounded';-inkscape-font-specification:'SF Pro Rounded Light';letter-spacing:0px;word-spacing:0px;text-orientation:upright;fill:#ff0000;stroke-width:0.526494;stroke-linecap:round"
       inkscape:label="heart-top"
       transform="scale(1.0050875,0.99493825)"
       aria-label="♥" /><path
       d="m -279.34006,-52.651472 c 0.0556,0 0.13347,-0.03337 0.1928,-0.07045 1.61656,-1.038158 2.66213,-2.243162 2.66213,-3.466705 0,-1.008495 -0.69334,-1.72779 -1.59802,-1.72779 -0.55616,0 -1.00108,0.311447 -1.25691,0.789741 -0.25584,-0.474586 -0.70447,-0.789741 -1.26062,-0.789741 -0.90468,0 -1.59803,0.719295 -1.59803,1.72779 0,1.223543 1.04558,2.428547 2.66214,3.466705 0.0593,0.03708 0.13718,0.07045 0.19651,0.07045 z"
       id="text5-7-4-3-4-7-1"
       style="font-weight:300;font-size:7.59338px;line-height:0;font-family:'SF Pro Rounded';-inkscape-font-specification:'SF Pro Rounded Light';letter-spacing:0px;word-spacing:0px;text-orientation:upright;fill:#ff0000;stroke-width:0.526494;stroke-linecap:round"
       inkscape:label="heart-bottom"
       transform="scale(-1.0050875,-0.99493825)"
       aria-label="♥" /></g></svg>
