<?xml version="1.0" encoding="UTF-8" standalone="no"?>
<!DOCTYPE svg PUBLIC "-//W3C//DTD SVG 1.1//EN" "http://www.w3.org/Graphics/SVG/1.1/DTD/svg11.dtd">
<!-- Created with Vectornator (http://vectornator.io/) -->
<svg height="100%" stroke-miterlimit="10" style="fill-rule:nonzero;clip-rule:evenodd;stroke-linecap:round;stroke-linejoin:round;" version="1.1" viewBox="0 0 180 252" width="100%" xml:space="preserve" xmlns="http://www.w3.org/2000/svg" xmlns:vectornator="http://vectornator.io" xmlns:xlink="http://www.w3.org/1999/xlink">
<defs>
<clipPath id="TextBounds">
<rect height="39" width="20.7188" x="8.20312" y="3"/>
</clipPath>
<clipPath id="TextBounds_2">
<rect height="39" width="20.7188" x="151.078" y="210"/>
</clipPath>
<clipPath id="TextBounds_3">
<rect height="77" width="38.4375" x="70.7812" y="87.5"/>
</clipPath>
</defs>
<g id="Layer-1" vectornator:layerName="Layer 1">
<path d="M16 1.42109e-14L164 1.42109e-14C172.837 1.42109e-14 180 7.16344 180 16L180 236C180 244.837 172.837 252 164 252L16 252C7.16344 252 0 244.837 0 236L0 16C0 7.16344 7.16344 1.42109e-14 16 1.42109e-14Z" fill="#ffffff" fill-rule="nonzero" opacity="1" stroke="none"/>
<path clip-path="url(#TextBounds)" d="M11.1719 22.9531C11.1719 26.1875 11.7031 28.6094 12.7812 30.3281C14.0625 32.3438 16.1719 33.4375 18.8125 33.4375C23.1562 33.4375 26.0938 30.5156 26.0938 26.2188C26.0938 22.1406 23.3125 19.2813 19.3438 19.2813C16.9062 19.2813 14.6719 20.625 13.9531 22.5313L13.8281 22.5313C13.875 16.6875 15.7188 13.625 19.2031 13.625C20.5938 13.625 21.7656 14.125 22.8906 15.2344C23.4531 15.7813 23.7812 15.9531 24.2188 15.9531C24.8906 15.9531 25.375 15.4531 25.375 14.7813C25.375 14.0625 24.75 13.2031 23.7188 12.5313C22.5312 11.7188 20.9219 11.2656 19.25 11.2656C14.0625 11.2656 11.1719 15.4375 11.1719 22.9531ZM14.2188 26.3125C14.2188 23.5469 16.1094 21.6094 18.8125 21.6094C21.5938 21.6094 23.4062 23.4844 23.4062 26.3281C23.4062 29.2031 21.6094 31.0938 18.9219 31.0938C16.1562 31.0938 14.2188 29.1094 14.2188 26.3125Z" fill="#000000" opacity="1" stroke="none"/>
<path clip-path="url(#TextBounds_2)" d="M168.828 229.047C168.828 225.812 168.297 223.391 167.219 221.672C165.938 219.656 163.828 218.562 161.188 218.562C156.844 218.562 153.906 221.484 153.906 225.781C153.906 229.859 156.688 232.719 160.656 232.719C163.094 232.719 165.328 231.375 166.047 229.469L166.172 229.469C166.125 235.312 164.281 238.375 160.797 238.375C159.406 238.375 158.234 237.875 157.109 236.766C156.547 236.219 156.219 236.047 155.781 236.047C155.109 236.047 154.625 236.547 154.625 237.219C154.625 237.938 155.25 238.797 156.281 239.469C157.469 240.281 159.078 240.734 160.75 240.734C165.938 240.734 168.828 236.562 168.828 229.047ZM165.781 225.688C165.781 228.453 163.891 230.391 161.188 230.391C158.406 230.391 156.594 228.516 156.594 225.672C156.594 222.797 158.391 220.906 161.078 220.906C163.844 220.906 165.781 222.891 165.781 225.688Z" fill="#000000" opacity="1" stroke="none"/>
<path clip-path="url(#TextBounds_3)" d="M75.2188 128.406C75.2188 134.875 76.2812 139.719 78.4375 143.156C81 147.188 85.2188 149.375 90.5 149.375C99.1875 149.375 105.062 143.531 105.062 134.938C105.062 126.781 99.5 121.063 91.5625 121.063C86.6875 121.063 82.2188 123.75 80.7812 127.563L80.5312 127.563C80.625 115.875 84.3125 109.75 91.2812 109.75C94.0625 109.75 96.4062 110.75 98.6562 112.969C99.7812 114.063 100.438 114.406 101.312 114.406C102.656 114.406 103.625 113.406 103.625 112.063C103.625 110.625 102.375 108.906 100.312 107.563C97.9375 105.938 94.7188 105.031 91.375 105.031C81 105.031 75.2188 113.375 75.2188 128.406ZM81.3125 135.125C81.3125 129.594 85.0938 125.719 90.5 125.719C96.0625 125.719 99.6875 129.469 99.6875 135.156C99.6875 140.906 96.0938 144.688 90.7188 144.688C85.1875 144.688 81.3125 140.719 81.3125 135.125Z" fill="#000000" opacity="1" stroke="none"/>
<path d="M15 1L165 1C172.732 1 179 7.28814 179 15.0449L179 236.955C179 244.712 172.732 251 165 251L15 251C7.26801 251 1 244.712 1 236.955L1 15.0449C1 7.28814 7.26801 1 15 1Z" fill="none" opacity="1" stroke="#000000" stroke-linecap="round" stroke-linejoin="round" stroke-width="2"/>
</g>
</svg>
