<?xml version="1.0" encoding="UTF-8" standalone="no"?>
<!DOCTYPE svg PUBLIC "-//W3C//DTD SVG 1.1//EN" "http://www.w3.org/Graphics/SVG/1.1/DTD/svg11.dtd">
<!-- Created with Vectornator (http://vectornator.io/) -->
<svg height="100%" stroke-miterlimit="10" style="fill-rule:nonzero;clip-rule:evenodd;stroke-linecap:round;stroke-linejoin:round;" version="1.1" viewBox="0 0 180 252" width="100%" xml:space="preserve" xmlns="http://www.w3.org/2000/svg" xmlns:vectornator="http://vectornator.io" xmlns:xlink="http://www.w3.org/1999/xlink">
<defs>
<clipPath id="TextBounds">
<rect height="39" width="21.75" x="8.20312" y="3"/>
</clipPath>
<clipPath id="TextBounds_2">
<rect height="39" width="21.75" x="150.047" y="210"/>
</clipPath>
<clipPath id="TextBounds_3">
<rect height="77" width="40.5" x="69.75" y="87.5"/>
</clipPath>
</defs>
<g id="Layer-1" vectornator:layerName="Layer 1">
<path d="M16 0L164 0C172.837 0 180 7.16344 180 16L180 236C180 244.837 172.837 252 164 252L16 252C7.16344 252 0 244.837 0 236L0 16C0 7.16344 7.16344 0 16 0Z" fill="#ffffff" fill-rule="nonzero" opacity="1" stroke="none"/>
<path clip-path="url(#TextBounds)" d="M11.8125 33.2031C12.5625 33.2031 12.9844 32.8594 13.2812 31.9219L15.0781 26.5938L23.0625 26.5938L24.8594 31.9219C25.1562 32.8438 25.5781 33.2031 26.3281 33.2031C27.125 33.2031 27.6406 32.75 27.6406 32.0156C27.6406 31.7188 27.5625 31.3906 27.4375 31.0469L21.0156 13.0938C20.625 12 20.0781 11.5 19.0781 11.5C18.0781 11.5 17.5312 12 17.1406 13.0938L10.7188 31.0469C10.5938 31.4219 10.5156 31.7188 10.5156 32.0312C10.5156 32.75 11.0312 33.2031 11.8125 33.2031ZM15.8125 24.3906L19.0156 14.8906L19.125 14.8906L22.3281 24.3906L15.8125 24.3906Z" fill="#000000" opacity="1" stroke="none"/>
<path clip-path="url(#TextBounds_2)" d="M168.188 218.797C167.438 218.797 167.016 219.141 166.719 220.078L164.922 225.406L156.938 225.406L155.141 220.078C154.844 219.156 154.422 218.797 153.672 218.797C152.875 218.797 152.359 219.25 152.359 219.984C152.359 220.281 152.438 220.609 152.562 220.953L158.984 238.906C159.375 240 159.922 240.5 160.922 240.5C161.922 240.5 162.469 240 162.859 238.906L169.281 220.953C169.406 220.578 169.484 220.281 169.484 219.969C169.484 219.25 168.969 218.797 168.188 218.797ZM164.188 227.609L160.984 237.109L160.875 237.109L157.672 227.609L164.188 227.609Z" fill="#000000" opacity="1" stroke="none"/>
<path clip-path="url(#TextBounds_3)" d="M75.4688 148.906C76.9688 148.906 77.8125 148.219 78.4062 146.344L82 135.688L97.9688 135.688L101.562 146.344C102.156 148.188 103 148.906 104.5 148.906C106.094 148.906 107.125 148 107.125 146.531C107.125 145.938 106.969 145.281 106.719 144.594L93.875 108.688C93.0938 106.5 92 105.5 90 105.5C88 105.5 86.9062 106.5 86.125 108.688L73.2812 144.594C73.0312 145.344 72.875 145.938 72.875 146.562C72.875 148 73.9062 148.906 75.4688 148.906ZM83.4688 131.281L89.875 112.281L90.0938 112.281L96.5 131.281L83.4688 131.281Z" fill="#000000" opacity="1" stroke="none"/>
<path d="M15 1L165 1C172.732 1 179 7.28814 179 15.0449L179 236.955C179 244.712 172.732 251 165 251L15 251C7.26801 251 1 244.712 1 236.955L1 15.0449C1 7.28814 7.26801 1 15 1Z" fill="none" opacity="1" stroke="#000000" stroke-linecap="round" stroke-linejoin="round" stroke-width="2"/>
</g>
</svg>
