<?xml version="1.0" encoding="UTF-8"?>
<!--Generator: Apple Native CoreSVG 175.5-->
<!DOCTYPE svg
PUBLIC "-//W3C//DTD SVG 1.1//EN"
       "http://www.w3.org/Graphics/SVG/1.1/DTD/svg11.dtd">
<svg version="1.1" xmlns="http://www.w3.org/2000/svg" xmlns:xlink="http://www.w3.org/1999/xlink" width="3300" height="2200">
 <!--glyph: "uni100EB4.medium", point size: 100.0, font version: "18.0d10e1", template writer version: "90"-->
 <g id="Notes">
  <rect height="2200" id="artboard" style="fill:white;opacity:1" width="3300" x="0" y="0"/>
  <line style="fill:none;stroke:black;opacity:1;stroke-width:0.5;" x1="263" x2="3036" y1="292" y2="292"/>
  <text style="stroke:none;fill:black;font-family:sans-serif;font-size:13;font-weight:bold;" transform="matrix(1 0 0 1 263 322)">Weight/Scale Variations</text>
  <text style="stroke:none;fill:black;font-family:sans-serif;font-size:13;text-anchor:middle;" transform="matrix(1 0 0 1 559.711 322)">Ultralight</text>
  <text style="stroke:none;fill:black;font-family:sans-serif;font-size:13;text-anchor:middle;" transform="matrix(1 0 0 1 856.422 322)">Thin</text>
  <text style="stroke:none;fill:black;font-family:sans-serif;font-size:13;text-anchor:middle;" transform="matrix(1 0 0 1 1153.13 322)">Light</text>
  <text style="stroke:none;fill:black;font-family:sans-serif;font-size:13;text-anchor:middle;" transform="matrix(1 0 0 1 1449.84 322)">Regular</text>
  <text style="stroke:none;fill:black;font-family:sans-serif;font-size:13;text-anchor:middle;" transform="matrix(1 0 0 1 1746.56 322)">Medium</text>
  <text style="stroke:none;fill:black;font-family:sans-serif;font-size:13;text-anchor:middle;" transform="matrix(1 0 0 1 2043.27 322)">Semibold</text>
  <text style="stroke:none;fill:black;font-family:sans-serif;font-size:13;text-anchor:middle;" transform="matrix(1 0 0 1 2339.98 322)">Bold</text>
  <text style="stroke:none;fill:black;font-family:sans-serif;font-size:13;text-anchor:middle;" transform="matrix(1 0 0 1 2636.69 322)">Heavy</text>
  <text style="stroke:none;fill:black;font-family:sans-serif;font-size:13;text-anchor:middle;" transform="matrix(1 0 0 1 2933.4 322)">Black</text>
  <line style="fill:none;stroke:black;opacity:1;stroke-width:0.5;" x1="263" x2="3036" y1="1903" y2="1903"/>
  <g transform="matrix(1 0 0 1 263 1933)">
   <path d="M9.24805 0.830078C13.5547 0.830078 17.1387-2.74414 17.1387-7.05078C17.1387-11.3574 13.5449-14.9316 9.23828-14.9316C4.94141-14.9316 1.36719-11.3574 1.36719-7.05078C1.36719-2.74414 4.95117 0.830078 9.24805 0.830078ZM9.24805-0.654297C5.70312-0.654297 2.87109-3.49609 2.87109-7.05078C2.87109-10.6055 5.69336-13.4473 9.23828-13.4473C12.793-13.4473 15.6445-10.6055 15.6445-7.05078C15.6445-3.49609 12.8027-0.654297 9.24805-0.654297ZM5.6543-7.05078C5.6543-6.62109 5.95703-6.32812 6.40625-6.32812L8.50586-6.32812L8.50586-4.20898C8.50586-3.76953 8.79883-3.4668 9.22852-3.4668C9.67773-3.4668 9.9707-3.76953 9.9707-4.20898L9.9707-6.32812L12.0898-6.32812C12.5293-6.32812 12.832-6.62109 12.832-7.05078C12.832-7.49023 12.5293-7.79297 12.0898-7.79297L9.9707-7.79297L9.9707-9.90234C9.9707-10.3516 9.67773-10.6543 9.22852-10.6543C8.79883-10.6543 8.50586-10.3516 8.50586-9.90234L8.50586-7.79297L6.40625-7.79297C5.95703-7.79297 5.6543-7.49023 5.6543-7.05078Z"/>
  </g>
  <g transform="matrix(1 0 0 1 281.867 1933)">
   <path d="M11.709 2.91016C17.1582 2.91016 21.6699-1.61133 21.6699-7.05078C21.6699-12.5 17.1484-17.0117 11.6992-17.0117C6.25977-17.0117 1.74805-12.5 1.74805-7.05078C1.74805-1.61133 6.26953 2.91016 11.709 2.91016ZM11.709 1.25C7.09961 1.25 3.41797-2.44141 3.41797-7.05078C3.41797-11.6602 7.08984-15.3516 11.6992-15.3516C16.3086-15.3516 20.0098-11.6602 20.0098-7.05078C20.0098-2.44141 16.3184 1.25 11.709 1.25ZM7.17773-7.05078C7.17773-6.57227 7.50977-6.25 8.00781-6.25L10.8789-6.25L10.8789-3.36914C10.8789-2.88086 11.2109-2.53906 11.6895-2.53906C12.1777-2.53906 12.5195-2.87109 12.5195-3.36914L12.5195-6.25L15.4004-6.25C15.8887-6.25 16.2305-6.57227 16.2305-7.05078C16.2305-7.53906 15.8887-7.88086 15.4004-7.88086L12.5195-7.88086L12.5195-10.752C12.5195-11.25 12.1777-11.5918 11.6895-11.5918C11.2109-11.5918 10.8789-11.25 10.8789-10.752L10.8789-7.88086L8.00781-7.88086C7.50977-7.88086 7.17773-7.53906 7.17773-7.05078Z"/>
  </g>
  <g transform="matrix(1 0 0 1 305.646 1933)">
   <path d="M14.9707 5.66406C21.9336 5.66406 27.6953-0.0976562 27.6953-7.05078C27.6953-14.0137 21.9238-19.7754 14.9609-19.7754C8.00781-19.7754 2.25586-14.0137 2.25586-7.05078C2.25586-0.0976562 8.01758 5.66406 14.9707 5.66406ZM14.9707 3.84766C8.93555 3.84766 4.08203-1.01562 4.08203-7.05078C4.08203-13.0957 8.92578-17.9492 14.9609-17.9492C21.0059-17.9492 25.8691-13.0957 25.8691-7.05078C25.8691-1.01562 21.0156 3.84766 14.9707 3.84766ZM9.19922-7.05078C9.19922-6.5332 9.57031-6.17188 10.1172-6.17188L14.0625-6.17188L14.0625-2.2168C14.0625-1.67969 14.4336-1.29883 14.9512-1.29883C15.4883-1.29883 15.8594-1.66992 15.8594-2.2168L15.8594-6.17188L19.8145-6.17188C20.3516-6.17188 20.7324-6.5332 20.7324-7.05078C20.7324-7.59766 20.3613-7.96875 19.8145-7.96875L15.8594-7.96875L15.8594-11.9141C15.8594-12.4609 15.4883-12.8418 14.9512-12.8418C14.4336-12.8418 14.0625-12.4609 14.0625-11.9141L14.0625-7.96875L10.1172-7.96875C9.57031-7.96875 9.19922-7.59766 9.19922-7.05078Z"/>
  </g>
  <text style="stroke:none;fill:black;font-family:sans-serif;font-size:13;font-weight:bold;" transform="matrix(1 0 0 1 263 1953)">Design Variations</text>
  <text style="stroke:none;fill:black;font-family:sans-serif;font-size:13;" transform="matrix(1 0 0 1 263 1971)">Symbols are supported in up to nine weights and three scales.</text>
  <text style="stroke:none;fill:black;font-family:sans-serif;font-size:13;" transform="matrix(1 0 0 1 263 1989)">For optimal layout with text and other symbols, vertically align</text>
  <text style="stroke:none;fill:black;font-family:sans-serif;font-size:13;" transform="matrix(1 0 0 1 263 2007)">symbols with the adjacent text.</text>
  <line style="fill:none;stroke:#00AEEF;stroke-width:0.5;opacity:1.0;" x1="776" x2="776" y1="1919" y2="1933"/>
  <g transform="matrix(1 0 0 1 776 1933)">
   <path d="M3.31055 0.15625C3.82812 0.15625 4.08203-0.0390625 4.26758-0.585938L5.52734-4.0332L11.2891-4.0332L12.5488-0.585938C12.7344-0.0390625 12.9883 0.15625 13.4961 0.15625C14.0137 0.15625 14.3457-0.15625 14.3457-0.644531C14.3457-0.810547 14.3164-0.966797 14.2383-1.17188L9.6582-13.3691C9.43359-13.9648 9.0332-14.2676 8.4082-14.2676C7.80273-14.2676 7.39258-13.9746 7.17773-13.3789L2.59766-1.16211C2.51953-0.957031 2.49023-0.800781 2.49023-0.634766C2.49023-0.146484 2.80273 0.15625 3.31055 0.15625ZM6.00586-5.51758L8.37891-12.0898L8.42773-12.0898L10.8008-5.51758Z"/>
  </g>
  <line style="fill:none;stroke:#00AEEF;stroke-width:0.5;opacity:1.0;" x1="793.197" x2="793.197" y1="1919" y2="1933"/>
  <text style="stroke:none;fill:black;font-family:sans-serif;font-size:13;font-weight:bold;" transform="matrix(1 0 0 1 776 1953)">Margins</text>
  <text style="stroke:none;fill:black;font-family:sans-serif;font-size:13;" transform="matrix(1 0 0 1 776 1971)">Leading and trailing margins on the left and right side of each symbol</text>
  <text style="stroke:none;fill:black;font-family:sans-serif;font-size:13;" transform="matrix(1 0 0 1 776 1989)">can be adjusted by modifying the x-location of the margin guidelines.</text>
  <text style="stroke:none;fill:black;font-family:sans-serif;font-size:13;" transform="matrix(1 0 0 1 776 2007)">Modifications are automatically applied proportionally to all</text>
  <text style="stroke:none;fill:black;font-family:sans-serif;font-size:13;" transform="matrix(1 0 0 1 776 2025)">scales and weights.</text>
  <g transform="matrix(1 0 0 1 1289 1933)">
   <path d="M2.8418 1.86523L4.54102 3.57422C5.40039 4.44336 6.38672 4.38477 7.31445 3.35938L18.0078-8.42773L17.041-9.4043L6.42578 2.27539C6.07422 2.67578 5.74219 2.77344 5.27344 2.30469L4.10156 1.14258C3.63281 0.683594 3.74023 0.341797 4.14062-0.0195312L15.6152-10.8203L14.6387-11.7871L3.04688-0.898438C2.06055 0.0195312 1.98242 0.996094 2.8418 1.86523ZM9.25781-16.3281C8.83789-15.918 8.80859-15.3418 9.04297-14.9512C9.27734-14.5898 9.73633-14.3555 10.3809-14.5215C11.8457-14.8633 13.3691-14.9219 14.7949-13.9844L14.209-12.5293C13.8672-11.6992 14.043-11.1133 14.5801-10.5664L16.875-8.25195C17.3633-7.76367 17.7734-7.74414 18.3398-7.8418L19.4043-8.03711L20.0684-7.36328L20.0293-6.80664C19.9902-6.30859 20.1172-5.92773 20.6055-5.44922L21.3672-4.70703C21.8457-4.22852 22.4609-4.19922 22.9297-4.66797L25.8398-7.58789C26.3086-8.05664 26.2891-8.65234 25.8105-9.13086L25.0391-9.89258C24.5605-10.3711 24.1895-10.5273 23.7109-10.4883L23.1348-10.4395L22.4902-11.0742L22.7344-12.1973C22.8613-12.7637 22.7051-13.2031 22.1191-13.7891L19.9219-15.9766C16.582-19.2969 12.1484-19.2188 9.25781-16.3281ZM10.752-15.957C13.1836-17.7344 16.4746-17.4316 18.7012-15.2051L21.1328-12.793C21.3672-12.5586 21.4062-12.373 21.3379-12.0312L21.0156-10.5469L22.5195-9.0625L23.5059-9.12109C23.7598-9.13086 23.8379-9.11133 24.0332-8.91602L24.6094-8.33984L22.168-5.89844L21.5918-6.47461C21.3965-6.66992 21.3672-6.74805 21.377-7.01172L21.4453-7.98828L19.9512-9.47266L18.4277-9.21875C18.1055-9.15039 17.959-9.17969 17.7148-9.41406L15.7129-11.416C15.459-11.6504 15.4297-11.8164 15.5859-12.1875L16.4648-14.2773C14.9023-15.7324 12.8711-16.3574 10.8398-15.7617C10.6836-15.7227 10.625-15.8496 10.752-15.957Z"/>
  </g>
  <text style="stroke:none;fill:black;font-family:sans-serif;font-size:13;font-weight:bold;" transform="matrix(1 0 0 1 1289 1953)">Exporting</text>
  <text style="stroke:none;fill:black;font-family:sans-serif;font-size:13;" transform="matrix(1 0 0 1 1289 1971)">Symbols should be outlined when exporting to ensure the</text>
  <text style="stroke:none;fill:black;font-family:sans-serif;font-size:13;" transform="matrix(1 0 0 1 1289 1989)">design is preserved when submitting to Xcode.</text>
  <text id="template-version" style="stroke:none;fill:black;font-family:sans-serif;font-size:13;text-anchor:end;" transform="matrix(1 0 0 1 3036 1933)">Template v.2.0</text>
  <text style="stroke:none;fill:black;font-family:sans-serif;font-size:13;text-anchor:end;" transform="matrix(1 0 0 1 3036 1951)">Requires Xcode 12 or greater</text>
  <text id="descriptive-name" style="stroke:none;fill:black;font-family:sans-serif;font-size:13;text-anchor:end;" transform="matrix(1 0 0 1 3036 1969)">Generated from dice</text>
  <text style="stroke:none;fill:black;font-family:sans-serif;font-size:13;text-anchor:end;" transform="matrix(1 0 0 1 3036 1987)">Typeset at 100 points</text>
  <text style="stroke:none;fill:black;font-family:sans-serif;font-size:13;" transform="matrix(1 0 0 1 263 726)">Small</text>
  <text style="stroke:none;fill:black;font-family:sans-serif;font-size:13;" transform="matrix(1 0 0 1 263 1156)">Medium</text>
  <text style="stroke:none;fill:black;font-family:sans-serif;font-size:13;" transform="matrix(1 0 0 1 263 1586)">Large</text>
 </g>
 <g id="Guides">
  <g id="H-reference" style="fill:#27AAE1;stroke:none;" transform="matrix(1 0 0 1 339 696)">
   <path d="M0.993654 0L3.63775 0L29.3281-67.1323L30.0303-67.1323L30.0303-70.459L28.1226-70.459ZM11.6885-24.4799L46.9815-24.4799L46.2315-26.7285L12.4385-26.7285ZM55.1196 0L57.7637 0L30.6382-70.459L29.4326-70.459L29.4326-67.1323Z"/>
  </g>
  <line id="Baseline-S" style="fill:none;stroke:#27AAE1;opacity:1;stroke-width:0.5;" x1="263" x2="3036" y1="696" y2="696"/>
  <line id="Capline-S" style="fill:none;stroke:#27AAE1;opacity:1;stroke-width:0.5;" x1="263" x2="3036" y1="625.541" y2="625.541"/>
  <g id="H-reference" style="fill:#27AAE1;stroke:none;" transform="matrix(1 0 0 1 339 1126)">
   <path d="M0.993654 0L3.63775 0L29.3281-67.1323L30.0303-67.1323L30.0303-70.459L28.1226-70.459ZM11.6885-24.4799L46.9815-24.4799L46.2315-26.7285L12.4385-26.7285ZM55.1196 0L57.7637 0L30.6382-70.459L29.4326-70.459L29.4326-67.1323Z"/>
  </g>
  <line id="Baseline-M" style="fill:none;stroke:#27AAE1;opacity:1;stroke-width:0.5;" x1="263" x2="3036" y1="1126" y2="1126"/>
  <line id="Capline-M" style="fill:none;stroke:#27AAE1;opacity:1;stroke-width:0.5;" x1="263" x2="3036" y1="1055.54" y2="1055.54"/>
  <g id="H-reference" style="fill:#27AAE1;stroke:none;" transform="matrix(1 0 0 1 339 1556)">
   <path d="M0.993654 0L3.63775 0L29.3281-67.1323L30.0303-67.1323L30.0303-70.459L28.1226-70.459ZM11.6885-24.4799L46.9815-24.4799L46.2315-26.7285L12.4385-26.7285ZM55.1196 0L57.7637 0L30.6382-70.459L29.4326-70.459L29.4326-67.1323Z"/>
  </g>
  <line id="Baseline-L" style="fill:none;stroke:#27AAE1;opacity:1;stroke-width:0.5;" x1="263" x2="3036" y1="1556" y2="1556"/>
  <line id="Capline-L" style="fill:none;stroke:#27AAE1;opacity:1;stroke-width:0.5;" x1="263" x2="3036" y1="1485.54" y2="1485.54"/>
  <line id="left-margin" style="fill:none;stroke:#00AEEF;stroke-width:0.5;opacity:1.0;" x1="1385.73" x2="1385.73" y1="1030.79" y2="1150.12"/>
  <line id="right-margin" style="fill:none;stroke:#00AEEF;stroke-width:0.5;opacity:1.0;" x1="1513.96" x2="1513.96" y1="1030.79" y2="1150.12"/>
 </g>
 <g id="Symbols">
  <g id="Black-L" transform="matrix(1 0 0 1 2843.68 1556)">
   <path d="M39.8556 5.0591L59.6245 5.0591L59.6245-14.9219L42.5864-14.9219C38.2704-14.9219 36.065-16.8521 36.065-21.4849L36.065-81.6057C36.065-86.2385 38.2704-88.1687 42.5864-88.1687L102.79-88.1687C107.102-88.1687 109.312-86.2385 109.312-81.6057L109.312-68.1807L129.293-68.1807L129.293-84.4613C129.293-99.5606 120.664-108.15 105.521-108.15L39.8556-108.15C24.6915-108.15 16.084-99.563 16.084-84.4613L16.084-18.6293C16.084-3.52762 24.6915 5.0591 39.8556 5.0591ZM73.9196 37.7736L139.585 37.7736C154.728 37.7736 163.357 29.1845 163.357 14.0852L163.357-51.7469C163.357-66.8462 154.728-75.4353 139.585-75.4353L73.9196-75.4353C58.7555-75.4353 50.1479-66.8486 50.1479-51.7469L50.1479 14.0852C50.1479 29.1868 58.7555 37.7736 73.9196 37.7736ZM76.6503 17.7925C72.3344 17.7925 70.129 15.8624 70.129 11.2295L70.129-48.8913C70.129-53.5241 72.3344-55.4543 76.6503-55.4543L136.854-55.4543C141.166-55.4543 143.376-53.5241 143.376-48.8913L143.376 11.2295C143.376 15.8624 141.166 17.7925 136.854 17.7925ZM85.4852-31.3557C90.2293-31.2753 94.2079-35.2539 94.2079-40.1004C94.2079-44.8444 90.2877-48.801 85.4852-48.801C80.6232-48.801 76.7042-44.9028 76.7042-40.1004C76.7042-35.2539 80.6232-31.4361 85.4852-31.3557ZM128.079-31.3557C132.88-31.2753 136.801-35.2539 136.801-40.1004C136.801-44.9028 132.939-48.801 128.079-48.801C123.275-48.801 119.355-44.9028 119.355-40.1004C119.355-35.2539 123.275-31.4361 128.079-31.3557ZM106.811-10.0266C111.592-10.0266 115.533-14.0052 115.533-18.8309C115.533-23.4945 111.534-27.4147 106.811-27.4147C102.008-27.4147 98.0893-23.5529 98.0893-18.8309C98.0893-13.9468 101.95-10.0266 106.811-10.0266ZM85.4852 11.377C90.2293 11.377 94.1483 7.39957 94.1483 2.57511C94.1483-2.16892 90.1709-6.06712 85.4852-6.06712C80.6232-6.06712 76.725-2.22733 76.725 2.57511C76.725 7.45797 80.6232 11.377 85.4852 11.377ZM128.079 11.377C132.939 11.377 136.801 7.39957 136.801 2.57511C136.801-2.22733 132.88-6.06712 128.079-6.06712C123.334-6.06712 119.436-2.22733 119.436 2.57511C119.436 7.39957 123.334 11.377 128.079 11.377Z"/>
  </g>
  <g id="Heavy-L" transform="matrix(1 0 0 1 2548.69 1556)">
   <path d="M38.8315 4.22978L57.6839 4.22978L57.6839-13.2706L40.9557-13.2706C36.118-13.2706 33.5844-15.5653 33.5844-20.7023L33.5844-81.4285C33.5844-86.5655 36.118-88.8602 40.9557-88.8602L101.803-88.8602C106.618-88.8602 109.174-86.5655 109.174-81.4285L109.174-68.0227L126.674-68.0227L126.674-83.7339C126.674-98.2749 118.54-106.361 103.927-106.361L38.8315-106.361C24.1886-106.361 16.084-98.2862 16.084-83.7339L16.084-18.397C16.084-3.84465 24.1886 4.22978 38.8315 4.22978ZM72.0684 35.9933L137.164 35.9933C151.776 35.9933 159.911 27.9076 159.911 13.3665L159.911-51.9704C159.911-66.5115 151.776-74.5971 137.164-74.5971L72.0684-74.5971C57.4255-74.5971 49.3209-66.5227 49.3209-51.9704L49.3209 13.3665C49.3209 27.9188 57.4255 35.9933 72.0684 35.9933ZM74.1926 18.4929C69.3549 18.4929 66.8213 16.1981 66.8213 11.0612L66.8213-49.665C66.8213-54.802 69.3549-57.0967 74.1926-57.0967L135.04-57.0967C139.855-57.0967 142.411-54.802 142.411-49.665L142.411 11.0612C142.411 16.1981 139.855 18.4929 135.04 18.4929ZM82.5002-32.6409C87.2685-32.5604 91.2526-36.5446 91.2526-41.429C91.2526-46.1973 87.3131-50.1456 82.5002-50.1456C77.6371-50.1456 73.7032-46.2419 73.7032-41.429C73.7032-36.5446 77.6371-32.7213 82.5002-32.6409ZM126.782-32.6409C131.589-32.5604 135.529-36.5446 135.529-41.429C135.529-46.2419 131.634-50.1456 126.782-50.1456C121.964-50.1456 118.024-46.2419 118.024-41.429C118.024-36.5446 121.964-32.7213 126.782-32.6409ZM104.661-10.4635C109.443-10.4635 113.413-14.4476 113.413-19.3019C113.413-23.9898 109.399-27.9292 104.661-27.9292C99.8478-27.9292 95.914-24.0344 95.914-19.3019C95.914-14.403 99.8032-10.4635 104.661-10.4635ZM82.5002 11.7661C87.2685 11.7661 91.2024 7.78766 91.2024 2.93898C91.2024-1.82927 87.2239-5.73296 82.5002-5.73296C77.6371-5.73296 73.7334-1.8739 73.7334 2.93898C73.7334 7.83228 77.6371 11.7661 82.5002 11.7661ZM126.782 11.7661C131.634 11.7661 135.529 7.78766 135.529 2.93898C135.529-1.8739 131.589-5.73296 126.782-5.73296C122.008-5.73296 118.105-1.8739 118.105 2.93898C118.105 7.78766 122.008 11.7661 126.782 11.7661Z"/>
  </g>
  <g id="Bold-L" transform="matrix(1 0 0 1 2254.05 1556)">
   <path d="M37.5412 3.26727L55.331 3.26727L55.331-11.1745L38.987-11.1745C33.4665-11.1745 30.5257-13.9225 30.5257-19.7117L30.5257-81.1313C30.5257-86.9205 33.4665-89.6685 38.987-89.6685L100.558-89.6685C106.026-89.6685 109.02-86.9205 109.02-81.1313L109.02-67.9423L123.462-67.9423L123.462-82.805C123.462-96.6172 115.919-104.11 102.004-104.11L37.5412-104.11C23.5885-104.11 16.084-96.6437 16.084-82.805L16.084-18.038C16.084-4.1993 23.5885 3.26727 37.5412 3.26727ZM69.853 33.7582L134.316 33.7582C148.231 33.7582 155.773 26.2651 155.773 12.4529L155.773-52.3141C155.773-66.1263 148.231-73.6194 134.316-73.6194L69.853-73.6194C55.9003-73.6194 48.3958-66.1528 48.3958-52.3141L48.3958 12.4529C48.3958 26.2916 55.9003 33.7582 69.853 33.7582ZM71.2988 19.3164C65.7783 19.3164 62.8375 16.5684 62.8375 10.7792L62.8375-50.6404C62.8375-56.4296 65.7783-59.1776 71.2988-59.1776L132.87-59.1776C138.338-59.1776 141.332-56.4296 141.332-50.6404L141.332 10.7792C141.332 16.5684 138.338 19.3164 132.87 19.3164ZM78.9309-34.306C83.7075-34.2256 87.6844-38.2024 87.6844-43.1107C87.6844-47.8873 83.7367-51.8129 78.9309-51.8129C74.0826-51.8129 70.1482-47.9165 70.1482-43.1107C70.1482-38.2024 74.0826-34.3864 78.9309-34.306ZM125.281-34.306C130.073-34.2256 134.021-38.2024 134.021-43.1107C134.021-47.9165 130.102-51.8129 125.281-51.8129C120.462-51.8129 116.514-47.9165 116.514-43.1107C116.514-38.2024 120.462-34.3864 125.281-34.306ZM102.114-11.0835C106.882-11.0835 110.867-15.0603 110.867-19.9306C110.867-24.6268 106.852-28.5745 102.114-28.5745C97.3079-28.5745 93.3735-24.656 93.3735-19.9306C93.3735-15.0311 97.2787-11.0835 102.114-11.0835ZM78.9309 12.1533C83.7075 12.1533 87.6419 8.18967 87.6419 3.33264C87.6419-1.44397 83.6783-5.34041 78.9309-5.34041C74.0826-5.34041 70.1862-1.47318 70.1862 3.33264C70.1862 8.21887 74.0826 12.1533 78.9309 12.1533ZM125.281 12.1533C130.102 12.1533 134.021 8.18967 134.021 3.33264C134.021-1.47318 130.073-5.34041 125.281-5.34041C120.491-5.34041 116.594-1.47318 116.594 3.33264C116.594 8.18967 120.491 12.1533 125.281 12.1533Z"/>
  </g>
  <g id="Semibold-L" transform="matrix(1 0 0 1 1958.76 1556)">
   <path d="M36.6517 2.60373L53.709 2.60373L53.709-9.72941L37.6298-9.72941C31.6387-9.72941 28.4171-12.7899 28.4171-19.0288L28.4171-80.9263C28.4171-87.1652 31.6387-90.2258 37.6298-90.2258L99.7008-90.2258C105.618-90.2258 108.913-87.1652 108.913-80.9263L108.913-67.8868L121.247-67.8868L121.247-82.1646C121.247-95.4744 114.112-102.559 100.679-102.559L36.6517-102.559C23.1749-102.559 16.084-95.5114 16.084-82.1646L16.084-17.7906C16.084-4.44379 23.1749 2.60373 36.6517 2.60373ZM68.3257 32.2173L132.353 32.2173C145.786 32.2173 152.921 25.1328 152.921 11.823L152.921-52.551C152.921-65.8609 145.786-72.9453 132.353-72.9453L68.3257-72.9453C54.8488-72.9453 47.758-65.8978 47.758-52.551L47.758 11.823C47.758 25.1698 54.8488 32.2173 68.3257 32.2173ZM69.3038 19.8842C63.3126 19.8842 60.0911 16.8236 60.0911 10.5847L60.0911-51.3128C60.0911-57.5517 63.3126-60.6122 69.3038-60.6122L131.375-60.6122C137.292-60.6122 140.587-57.5517 140.587-51.3128L140.587 10.5847C140.587 16.8236 137.292 19.8842 131.375 19.8842ZM76.4702-35.4539C81.2526-35.3735 85.2245-39.3454 85.2245-44.27C85.2245-49.0524 81.2712-52.9624 76.4702-52.9624C71.6322-52.9624 67.6974-49.071 67.6974-44.27C67.6974-39.3454 71.6322-35.5344 76.4702-35.4539ZM124.245-35.4539C129.028-35.3735 132.981-39.3454 132.981-44.27C132.981-49.071 129.046-52.9624 124.245-52.9624C119.426-52.9624 115.473-49.071 115.473-44.27C115.473-39.3454 119.426-35.5344 124.245-35.4539ZM100.358-11.5109C105.115-11.5109 109.112-15.4827 109.112-20.364C109.112-25.066 105.097-29.0193 100.358-29.0193C95.5569-29.0193 91.6221-25.0845 91.6221-20.364C91.6221-15.4642 95.5383-11.5109 100.358-11.5109ZM76.4702 12.4202C81.2526 12.4202 85.1874 8.46681 85.1874 3.60402C85.1874-1.17835 81.234-5.06979 76.4702-5.06979C71.6322-5.06979 67.7408-1.19693 67.7408 3.60402C67.7408 8.48539 71.6322 12.4202 76.4702 12.4202ZM124.245 12.4202C129.046 12.4202 132.981 8.46681 132.981 3.60402C132.981-1.19693 129.028-5.06979 124.245-5.06979C119.445-5.06979 115.553-1.19693 115.553 3.60402C115.553 8.46681 119.445 12.4202 124.245 12.4202Z"/>
  </g>
  <g id="Medium-L" transform="matrix(1 0 0 1 1663.13 1556)">
   <path d="M35.9773 2.1006L52.479 2.1006L52.479-8.6337L36.6007-8.6337C30.2527-8.6337 26.8183-11.9312 26.8183-18.511L26.8183-80.771C26.8183-87.3508 30.2527-90.6483 36.6007-90.6483L99.0504-90.6483C105.309-90.6483 108.833-87.3508 108.833-80.771L108.833-67.8448L119.567-67.8448L119.567-81.679C119.567-94.6079 112.743-101.383 99.6738-101.383L35.9773-101.383C22.8612-101.383 16.084-94.6528 16.084-81.679L16.084-17.6029C16.084-4.62917 22.8612 2.1006 35.9773 2.1006ZM67.1677 31.0489L130.864 31.0489C143.933 31.0489 150.758 24.2743 150.758 11.3454L150.758-52.7307C150.758-65.6595 143.933-72.4342 130.864-72.4342L67.1677-72.4342C54.0516-72.4342 47.2743-65.7045 47.2743-52.7307L47.2743 11.3454C47.2743 24.3192 54.0516 31.0489 67.1677 31.0489ZM67.7911 20.3146C61.4431 20.3146 58.0086 17.0172 58.0086 10.4373L58.0086-51.8226C58.0086-58.4025 61.4431-61.6999 67.7911-61.6999L130.241-61.6999C136.499-61.6999 140.023-58.4025 140.023-51.8226L140.023 10.4373C140.023 17.0172 136.499 20.3146 130.241 20.3146ZM74.6044-36.3244C79.3912-36.2439 83.3592-40.212 83.3592-45.1491C83.3592-49.9358 79.4017-53.834 74.6044-53.834C69.7742-53.834 65.8391-49.9463 65.8391-45.1491C65.8391-40.212 69.7742-36.4048 74.6044-36.3244ZM123.46-36.3244C128.235-36.2439 132.193-40.212 132.193-45.1491C132.193-49.9463 128.246-53.834 123.46-53.834C118.641-53.834 114.683-49.9463 114.683-45.1491C114.683-40.212 118.641-36.4048 123.46-36.3244ZM99.0265-11.8349C103.776-11.8349 107.781-15.803 107.781-20.6926C107.781-25.399 103.766-29.3565 99.0265-29.3565C94.2292-29.3565 90.2941-25.4095 90.2941-20.6926C90.2941-15.7925 94.2187-11.8349 99.0265-11.8349ZM74.6044 12.6226C79.3912 12.6226 83.3263 8.67696 83.3263 3.80979C83.3263-0.976946 79.3807-4.8646 74.6044-4.8646C69.7742-4.8646 65.8865-0.987459 65.8865 3.80979C65.8865 8.68747 69.7742 12.6226 74.6044 12.6226ZM123.46 12.6226C128.246 12.6226 132.193 8.67696 132.193 3.80979C132.193-0.987459 128.235-4.8646 123.46-4.8646C118.651-4.8646 114.764-0.987459 114.764 3.80979C114.764 8.67696 118.651 12.6226 123.46 12.6226Z"/>
  </g>
  <g id="Regular-L" transform="matrix(1 0 0 1 1367.83 1556)">
   <path d="M35.0976 1.44435L50.8748 1.44435L50.8748-7.20452L35.2584-7.20452C28.4449-7.20452 24.7328-10.8111 24.7328-17.8356L24.7328-80.5683C24.7328-87.5929 28.4449-91.1994 35.2584-91.1994L98.2021-91.1994C104.905-91.1994 108.728-87.5929 108.728-80.5683L108.728-67.79L117.377-67.79L117.377-81.0457C117.377-93.4776 110.956-99.8483 98.363-99.8483L35.0976-99.8483C22.4521-99.8483 16.084-93.5329 16.084-81.0457L16.084-17.3582C16.084-4.87097 22.4521 1.44435 35.0976 1.44435ZM65.6572 29.525L128.923 29.525C141.515 29.525 147.936 23.1544 147.936 10.7224L147.936-52.965C147.936-65.397 141.515-71.7676 128.923-71.7676L65.6572-71.7676C53.0116-71.7676 46.6436-65.4523 46.6436-52.965L46.6436 10.7224C46.6436 23.2097 53.0116 29.525 65.6572 29.525ZM65.818 20.8762C59.0045 20.8762 55.2924 17.2696 55.2924 10.245L55.2924-52.4876C55.2924-59.5122 59.0045-63.1187 65.818-63.1187L128.762-63.1187C135.465-63.1187 139.287-59.5122 139.287-52.4876L139.287 10.245C139.287 17.2696 135.465 20.8762 128.762 20.8762ZM72.1708-37.4597C76.9632-37.3793 80.9264-41.3424 80.9264-46.2957C80.9264-51.0881 76.9632-54.9708 72.1708-54.9708C67.3507-54.9708 63.4152-51.0881 63.4152-46.2957C63.4152-41.3424 67.3507-37.5401 72.1708-37.4597ZM122.437-37.4597C127.201-37.3793 131.164-41.3424 131.164-46.2957C131.164-51.0881 127.201-54.9708 122.437-54.9708C117.616-54.9708 113.653-51.0881 113.653-46.2957C113.653-41.3424 117.616-37.5401 122.437-37.4597ZM97.2899-12.2576C102.03-12.2576 106.045-16.2208 106.045-21.1213C106.045-25.8333 102.03-29.7964 97.2899-29.7964C92.4974-29.7964 88.5619-25.8333 88.5619-21.1213C88.5619-16.2208 92.4974-12.2576 97.2899-12.2576ZM72.1708 12.8865C76.9632 12.8865 80.8987 8.95105 80.8987 4.0782C80.8987-0.714242 76.9632-4.59696 72.1708-4.59696C67.3507-4.59696 63.468-0.714242 63.468 4.0782C63.468 8.95105 67.3507 12.8865 72.1708 12.8865ZM122.437 12.8865C127.201 12.8865 131.164 8.95105 131.164 4.0782C131.164-0.714242 127.201-4.59696 122.437-4.59696C117.616-4.59696 113.734-0.714242 113.734 4.0782C113.734 8.95105 117.616 12.8865 122.437 12.8865Z"/>
  </g>
  <g id="Light-L" transform="matrix(1 0 0 1 1072.13 1556)">
   <path d="M34.067 1.19624L49.577 1.19624L49.577-5.42959L34.2278-5.42959C26.7082-5.42959 22.7098-9.36058 22.7098-17.015L22.7098-79.8621C22.7098-87.5165 26.7082-91.4475 34.2278-91.4475L97.2097-91.4475C104.542-91.4475 108.728-87.5165 108.728-79.8621L108.728-68.477L115.354-68.477L115.354-80.225C115.354-91.9126 109.219-98.0733 97.3705-98.0733L34.067-98.0733C22.1849-98.0733 16.084-92.0061 16.084-80.225L16.084-16.6521C16.084-4.87097 22.1849 1.19624 34.067 1.19624ZM64.6266 27.7883L127.93 27.7883C139.779 27.7883 145.913 21.6276 145.913 9.93995L145.913-53.633C145.913-65.3206 139.779-71.4813 127.93-71.4813L64.6266-71.4813C52.7444-71.4813 46.6436-65.4141 46.6436-53.633L46.6436 9.93995C46.6436 21.721 52.7444 27.7883 64.6266 27.7883ZM64.7874 21.1624C57.2677 21.1624 53.2694 17.2314 53.2694 9.57704L53.2694-53.2701C53.2694-60.9245 57.2677-64.8555 64.7874-64.8555L127.769-64.8555C135.102-64.8555 139.287-60.9245 139.287-53.2701L139.287 9.57704C139.287 17.2314 135.102 21.1624 127.769 21.1624ZM70.5295-39.0819C75.1883-39.0015 79.056-42.8692 79.056-47.6889C79.056-52.3477 75.1883-56.135 70.5295-56.135C65.8239-56.135 62.0029-52.3477 62.0029-47.6889C62.0029-42.8692 65.8239-39.1623 70.5295-39.0819ZM122.074-39.0819C126.686-39.0015 130.554-42.8692 130.554-47.6889C130.554-52.3477 126.686-56.135 122.074-56.135C117.368-56.135 113.501-52.3477 113.501-47.6889C113.501-42.8692 117.368-39.1623 122.074-39.0819ZM96.2783-13.1928C100.904-13.1928 104.805-17.0605 104.805-21.8465C104.805-26.425 100.904-30.2927 96.2783-30.2927C91.6195-30.2927 87.7985-26.425 87.7985-21.8465C87.7985-17.0605 91.6195-13.1928 96.2783-13.1928ZM70.5295 12.543C75.1883 12.543 79.0093 8.72203 79.0093 3.98277C79.0093-0.676072 75.1883-4.46336 70.5295-4.46336C65.8239-4.46336 62.0366-0.676072 62.0366 3.98277C62.0366 8.72203 65.8239 12.543 70.5295 12.543ZM122.074 12.543C126.686 12.543 130.554 8.72203 130.554 3.98277C130.554-0.676072 126.686-4.46336 122.074-4.46336C117.368-4.46336 113.581-0.676072 113.581 3.98277C113.581 8.72203 117.368 12.543 122.074 12.543Z"/>
  </g>
  <g id="Thin-L" transform="matrix(1 0 0 1 776.761 1556)">
   <path d="M32.7039 0.868093L47.8606 0.868093L47.8606-3.0821L32.8648-3.0821C24.4111-3.0821 20.0342-7.4422 20.0342-15.9296L20.0342-78.9282C20.0342-87.4156 24.4111-91.7757 32.8648-91.7757L95.8971-91.7757C104.063-91.7757 108.728-87.4156 108.728-78.9282L108.728-69.3857L112.678-69.3857L112.678-79.1396C112.678-89.8428 106.922-95.7258 96.058-95.7258L32.7039-95.7258C21.8315-95.7258 16.084-89.9868 16.084-79.1396L16.084-15.7181C16.084-4.87097 21.8315 0.868093 32.7039 0.868093ZM63.2635 25.4912L126.618 25.4912C137.482 25.4912 143.237 19.6082 143.237 8.90504L143.237-54.5165C143.237-65.2197 137.482-71.1027 126.618-71.1027L63.2635-71.1027C52.3911-71.1027 46.6436-65.3636 46.6436-54.5165L46.6436 8.90504C46.6436 19.7522 52.3911 25.4912 63.2635 25.4912ZM63.4244 21.5411C54.9707 21.5411 50.5937 17.181 50.5937 8.69358L50.5937-54.305C50.5937-62.7924 54.9707-67.1525 63.4244-67.1525L126.457-67.1525C134.622-67.1525 139.287-62.7924 139.287-54.305L139.287 8.69358C139.287 17.181 134.622 21.5411 126.457 21.5411ZM68.3587-41.2275C72.8408-41.1471 76.5823-44.8886 76.5823-49.5315C76.5823-54.0137 72.8408-57.6748 68.3587-57.6748C63.8045-57.6748 60.135-54.0137 60.135-49.5315C60.135-44.8886 63.8045-41.3079 68.3587-41.2275ZM121.594-41.2275C126.005-41.1471 129.746-44.8886 129.746-49.5315C129.746-54.0137 126.005-57.6748 121.594-57.6748C117.04-57.6748 113.299-54.0137 113.299-49.5315C113.299-44.8886 117.04-41.3079 121.594-41.2275ZM94.9405-14.4297C99.4142-14.4297 103.164-18.1712 103.164-22.8057C103.164-27.2074 99.4142-30.9489 94.9405-30.9489C90.4584-30.9489 86.7889-27.2074 86.7889-22.8057C86.7889-18.1712 90.4584-14.4297 94.9405-14.4297ZM68.3587 12.0886C72.8408 12.0886 76.5103 8.41913 76.5103 3.85656C76.5103-0.625588 72.8408-4.28667 68.3587-4.28667C63.8045-4.28667 60.1435-0.625588 60.1435 3.85656C60.1435 8.41913 63.8045 12.0886 68.3587 12.0886ZM121.594 12.0886C126.005 12.0886 129.746 8.41913 129.746 3.85656C129.746-0.625588 126.005-4.28667 121.594-4.28667C117.04-4.28667 113.379-0.625588 113.379 3.85656C113.379 8.41913 117.04 12.0886 121.594 12.0886Z"/>
  </g>
  <g id="Ultralight-L" transform="matrix(1 0 0 1 480.736 1556)">
   <path d="M32.0058 0.700019L46.9814 0.700019L46.9814-1.87972L32.1666-1.87972C23.2346-1.87972 18.6637-6.45961 18.6637-15.3736L18.6637-78.4498C18.6637-87.3638 23.2346-91.9437 32.1666-91.9437L95.2248-91.9437C103.817-91.9437 108.728-87.3638 108.728-78.4498L108.728-69.8512L111.307-69.8512L111.307-78.5837C111.307-88.7827 105.745-94.5235 95.3857-94.5235L32.0058-94.5235C21.6505-94.5235 16.084-88.9525 16.084-78.5837L16.084-15.2398C16.084-4.87097 21.6505 0.700019 32.0058 0.700019ZM62.5654 24.3147L125.945 24.3147C136.305 24.3147 141.867 18.5739 141.867 8.37496L141.867-54.969C141.867-65.1679 136.305-70.9088 125.945-70.9088L62.5654-70.9088C52.2101-70.9088 46.6436-65.3378 46.6436-54.969L46.6436 8.37496C46.6436 18.7437 52.2101 24.3147 62.5654 24.3147ZM62.7262 21.735C53.7942 21.735 49.2233 17.1551 49.2233 8.24108L49.2233-54.8351C49.2233-63.7491 53.7942-68.329 62.7262-68.329L125.784-68.329C134.377-68.329 139.287-63.7491 139.287-54.8351L139.287 8.24108C139.287 17.1551 134.377 21.735 125.784 21.735ZM67.2468-42.3264C71.6384-42.246 75.3153-45.9229 75.3153-50.4753C75.3153-54.867 71.6384-58.4634 67.2468-58.4634C62.7702-58.4634 59.1783-54.867 59.1783-50.4753C59.1783-45.9229 62.7702-42.4068 67.2468-42.3264ZM121.349-42.3264C125.655-42.246 129.332-45.9229 129.332-50.4753C129.332-54.867 125.655-58.4634 121.349-58.4634C116.872-58.4634 113.195-54.867 113.195-50.4753C113.195-45.9229 116.872-42.4068 121.349-42.3264ZM94.2553-15.0632C98.6514-15.0632 102.324-18.74 102.324-23.297C102.324-27.6082 98.6514-31.2851 94.2553-31.2851C89.8637-31.2851 86.2717-27.6082 86.2717-23.297C86.2717-18.74 89.8637-15.0632 94.2553-15.0632ZM67.2468 11.8559C71.6384 11.8559 75.2304 8.26398 75.2304 3.79192C75.2304-0.599731 71.6384-4.19616 67.2468-4.19616C62.7702-4.19616 59.1738-0.599731 59.1738 3.79192C59.1738 8.26398 62.7702 11.8559 67.2468 11.8559ZM121.349 11.8559C125.655 11.8559 129.332 8.26398 129.332 3.79192C129.332-0.599731 125.655-4.19616 121.349-4.19616C116.872-4.19616 113.276-0.599731 113.276 3.79192C113.276 8.26398 116.872 11.8559 121.349 11.8559Z"/>
  </g>
  <g id="Black-M" transform="matrix(1 0 0 1 2862.55 1126)">
   <path d="M31.6184-3.33711L47.6856-3.33711L47.6856-20.6751L34.2553-20.6751C31.2643-20.6751 29.7989-21.9011 29.7989-25.1424L29.7989-71.2157C29.7989-74.457 31.2643-75.6831 34.2553-75.6831L80.3505-75.6831C83.3426-75.6831 84.8069-74.457 84.8069-71.2157L84.8069-60.9871L102.145-60.9871L102.145-73.8855C102.145-85.9624 95.0747-93.021 82.9874-93.021L31.6184-93.021C19.5256-93.021 12.4609-85.9619 12.4609-73.8855L12.4609-22.4726C12.4609-10.3963 19.5256-3.33711 31.6184-3.33711ZM58.72 22.6238L110.089 22.6238C122.176 22.6238 129.246 15.5652 129.246 3.48827L129.246-47.9246C129.246-60.0016 122.176-67.0601 110.089-67.0601L58.72-67.0601C46.6271-67.0601 39.5625-60.001 39.5625-47.9246L39.5625 3.48827C39.5625 15.5646 46.6271 22.6238 58.72 22.6238ZM61.3568 5.28583C58.3659 5.28583 56.9004 4.05978 56.9004 0.818468L56.9004-45.2548C56.9004-48.4961 58.3659-49.7222 61.3568-49.7222L107.452-49.7222C110.444-49.7222 111.908-48.4961 111.908-45.2548L111.908 0.818468C111.908 4.05978 110.444 5.28583 107.452 5.28583ZM68.572-31.3436C72.2085-31.2813 75.2732-34.3461 75.2732-38.0501C75.2732-41.6866 72.2656-44.7461 68.572-44.7461C64.8216-44.7461 61.8137-41.7437 61.8137-38.0501C61.8137-34.3461 64.8216-31.4059 68.572-31.3436ZM100.294-31.3436C103.988-31.2813 106.995-34.3461 106.995-38.0501C106.995-41.7437 104.045-44.7461 100.294-44.7461C96.6004-44.7461 93.5928-41.7437 93.5928-38.0501C93.5928-34.3461 96.6004-31.4059 100.294-31.3436ZM84.4616-15.4549C88.1496-15.4549 91.1628-18.5197 91.1628-22.2182C91.1628-25.7924 88.0925-28.8 84.4616-28.8C80.768-28.8 77.76-25.8495 77.76-22.2182C77.76-18.4626 80.7109-15.4549 84.4616-15.4549ZM68.572 0.49751C72.2085 0.49751 75.2164-2.56753 75.2164-6.26633C75.2164-9.90281 72.1514-12.9053 68.572-12.9053C64.8216-12.9053 61.8191-9.95991 61.8191-6.26633C61.8191-2.51044 64.8216 0.49751 68.572 0.49751ZM100.294 0.49751C104.045 0.49751 106.995-2.56753 106.995-6.26633C106.995-9.95991 103.988-12.9053 100.294-12.9053C96.6575-12.9053 93.6551-9.95991 93.6551-6.26633C93.6551-2.56753 96.6575 0.49751 100.294 0.49751Z"/>
  </g>
  <g id="Heavy-M" transform="matrix(1 0 0 1 2567.43 1126)">
   <path d="M30.7123-4.12493L45.9082-4.12493L45.9082-19.2245L32.7562-19.2245C29.3203-19.2245 27.5605-20.777 27.5605-24.4531L27.5605-71.1076C27.5605-74.7837 29.3203-76.3361 32.7562-76.3361L79.4765-76.3361C82.9033-76.3361 84.6722-74.7837 84.6722-71.1076L84.6722-60.7692L99.7718-60.7692L99.7718-73.2501C99.7718-84.85 93.1577-91.4358 81.5204-91.4358L30.7123-91.4358C19.0586-91.4358 12.4609-84.8545 12.4609-73.2501L12.4609-22.3106C12.4609-10.7062 19.0586-4.12493 30.7123-4.12493ZM57.0054 21.0436L107.813 21.0436C119.451 21.0436 126.065 14.4578 126.065 2.85792L126.065-48.0815C126.065-59.6814 119.451-66.2672 107.813-66.2672L57.0054-66.2672C45.3517-66.2672 38.754-59.686 38.754-48.0815L38.754 2.85792C38.754 14.4624 45.3517 21.0436 57.0054 21.0436ZM59.0493 5.94402C55.6134 5.94402 53.8536 4.39153 53.8536 0.715504L53.8536-45.9391C53.8536-49.6151 55.6134-51.1676 59.0493-51.1676L105.77-51.1676C109.196-51.1676 110.965-49.6151 110.965-45.9391L110.965 0.715504C110.965 4.39153 109.196 5.94402 105.77 5.94402ZM65.8054-32.4503C69.4779-32.388 72.5568-35.4669 72.5568-39.2204C72.5568-42.8929 69.5215-45.9531 65.8054-45.9531C62.0434-45.9531 59.0103-42.9365 59.0103-39.2204C59.0103-35.4669 62.0434-32.5126 65.8054-32.4503ZM99.0594-32.4503C102.773-32.388 105.809-35.4669 105.809-39.2204C105.809-42.9365 102.817-45.9531 99.0594-45.9531C95.341-45.9531 92.3057-42.9365 92.3057-39.2204C92.3057-35.4669 95.341-32.5126 99.0594-32.4503ZM82.453-15.7958C86.1527-15.7958 89.2045-18.8747 89.2045-22.6118C89.2045-26.222 86.1091-29.2573 82.453-29.2573C78.7369-29.2573 75.7039-26.2656 75.7039-22.6118C75.7039-18.8311 78.6933-15.7958 82.453-15.7958ZM65.8054 0.909628C69.4779 0.909628 72.5109-2.16702 72.5109-5.90182C72.5109-9.5743 69.4343-12.5909 65.8054-12.5909C62.0434-12.5909 59.0268-9.61793 59.0268-5.90182C59.0268-2.1234 62.0434 0.909628 65.8054 0.909628ZM99.0594 0.909628C102.817 0.909628 105.809-2.16702 105.809-5.90182C105.809-9.61793 102.773-12.5909 99.0594-12.5909C95.3846-12.5909 92.368-9.61793 92.368-5.90182C92.368-2.16702 95.3846 0.909628 99.0594 0.909628Z"/>
  </g>
  <g id="Bold-M" transform="matrix(1 0 0 1 2272.49 1126)">
   <path d="M29.6986-5.00623L43.92-5.00623L43.92-17.6019L31.0794-17.6019C27.1457-17.6019 25.0566-19.5196 25.0566-23.6819L25.0566-70.9867C25.0566-75.1491 27.1457-77.0667 31.0794-77.0667L78.4987-77.0667C82.4118-77.0667 84.5214-75.1491 84.5214-70.9867L84.5214-60.5255L97.1171-60.5255L97.1171-72.5392C97.1171-83.6055 91.0132-89.6624 79.8794-89.6624L29.6986-89.6624C18.5362-89.6624 12.4609-83.6158 12.4609-72.5392L12.4609-22.1294C12.4609-11.0529 18.5362-5.00623 29.6986-5.00623ZM55.0873 19.276L105.268 19.276C116.402 19.276 122.506 13.2191 122.506 2.15279L122.506-48.257C122.506-59.3233 116.402-65.3802 105.268-65.3802L55.0873-65.3802C43.9249-65.3802 37.8496-59.3335 37.8496-48.257L37.8496 2.15279C37.8496 13.2294 43.9249 19.276 55.0873 19.276ZM56.468 6.6803C52.5344 6.6803 50.4453 4.76265 50.4453 0.600323L50.4453-46.7045C50.4453-50.8668 52.5344-52.7845 56.468-52.7845L103.887-52.7845C107.8-52.7845 109.91-50.8668 109.91-46.7045L109.91 0.600323C109.91 4.76265 107.8 6.6803 103.887 6.6803ZM62.7105-33.6882C66.4233-33.6259 69.5181-36.7207 69.5181-40.5295C69.5181-44.2423 66.4518-47.3033 62.7105-47.3033C58.9355-47.3033 55.8744-44.2708 55.8744-40.5295C55.8744-36.7207 58.9355-33.7505 62.7105-33.6882ZM97.6786-33.6882C101.415-33.6259 104.481-36.7207 104.481-40.5295C104.481-44.2708 101.443-47.3033 97.6786-47.3033C93.9321-47.3033 90.8659-44.2708 90.8659-40.5295C90.8659-36.7207 93.9321-33.7505 97.6786-33.6882ZM80.2063-16.1771C83.9189-16.1771 87.0138-19.2719 87.0138-23.0521C87.0138-26.7025 83.8904-29.7688 80.2063-29.7688C76.4649-29.7688 73.4039-26.7311 73.4039-23.0521C73.4039-19.2433 76.4364-16.1771 80.2063-16.1771ZM62.7105 1.37064C66.4233 1.37064 69.4844-1.719 69.4844-5.49406C69.4844-9.20682 66.3947-12.2393 62.7105-12.2393C58.9355-12.2393 55.9031-9.23537 55.9031-5.49406C55.9031-1.69045 58.9355 1.37064 62.7105 1.37064ZM97.6786 1.37064C101.443 1.37064 104.481-1.719 104.481-5.49406C104.481-9.23537 101.415-12.2393 97.6786-12.2393C93.9607-12.2393 90.9282-9.23537 90.9282-5.49406C90.9282-1.719 93.9607 1.37064 97.6786 1.37064Z"/>
  </g>
  <g id="Semibold-M" transform="matrix(1 0 0 1 1977.01 1126)">
   <path d="M28.9998-5.61379L42.5493-5.61379L42.5493-16.4833L29.9233-16.4833C25.6466-16.4833 23.3305-18.6527 23.3305-23.1503L23.3305-70.9034C23.3305-75.401 25.6466-77.5704 29.9233-77.5704L77.8246-77.5704C82.073-77.5704 84.4175-75.401 84.4175-70.9034L84.4175-60.3575L95.287-60.3575L95.287-72.0491C95.287-82.7476 89.5349-88.4399 78.7481-88.4399L28.9998-88.4399C18.1761-88.4399 12.4609-82.7618 12.4609-72.0491L12.4609-22.0045C12.4609-11.2919 18.1761-5.61379 28.9998-5.61379ZM53.765 18.0574L103.513 18.0574C114.3 18.0574 120.052 12.3651 120.052 1.66667L120.052-48.3779C120.052-59.0764 114.3-64.7687 103.513-64.7687L53.765-64.7687C42.9412-64.7687 37.2261-59.0906 37.2261-48.3779L37.2261 1.66667C37.2261 12.3793 42.9412 18.0574 53.765 18.0574ZM54.6885 7.18789C50.4118 7.18789 48.0956 5.01849 48.0956 0.520919L48.0956-47.2322C48.0956-51.7298 50.4118-53.8992 54.6885-53.8992L102.59-53.8992C106.838-53.8992 109.183-51.7298 109.183-47.2322L109.183 0.520919C109.183 5.01849 106.838 7.18789 102.59 7.18789ZM60.577-34.5417C64.3175-34.4794 67.4232-37.5851 67.4232-41.4321C67.4232-45.1726 64.3356-48.2341 60.577-48.2341C56.793-48.2341 53.7126-45.1907 53.7126-41.4321C53.7126-37.5851 56.793-34.604 60.577-34.5417ZM96.7266-34.5417C100.478-34.4794 103.566-37.5851 103.566-41.4321C103.566-45.1907 100.496-48.2341 96.7266-48.2341C92.9609-48.2341 89.8733-45.1907 89.8733-41.4321C89.8733-37.5851 92.9609-34.604 96.7266-34.5417ZM78.6573-16.44C82.379-16.44 85.5035-19.5457 85.5035-23.3556C85.5035-27.0339 82.3608-30.1214 78.6573-30.1214C74.8986-30.1214 71.8182-27.052 71.8182-23.3556C71.8182-19.5275 74.8805-16.44 78.6573-16.44ZM60.577 1.68846C64.3175 1.68846 67.3979-1.41013 67.3979-5.21296C67.3979-8.95348 64.2993-11.9969 60.577-11.9969C56.793-11.9969 53.7496-8.97164 53.7496-5.21296C53.7496-1.39197 56.793 1.68846 60.577 1.68846ZM96.7266 1.68846C100.496 1.68846 103.566-1.41013 103.566-5.21296C103.566-8.97164 100.478-11.9969 96.7266-11.9969C92.979-11.9969 89.9356-8.97164 89.9356-5.21296C89.9356-1.41013 92.979 1.68846 96.7266 1.68846Z"/>
  </g>
  <g id="Medium-M" transform="matrix(1 0 0 1 1681.23 1126)">
   <path d="M28.47-6.07446L41.51-6.07446L41.51-15.6351L29.0468-15.6351C24.5098-15.6351 22.0216-17.9954 22.0216-22.7472L22.0216-70.8402C22.0216-75.592 24.5098-77.9522 29.0468-77.9522L77.3135-77.9522C81.8161-77.9522 84.3387-75.592 84.3387-70.8402L84.3387-60.2301L93.8994-60.2301L93.8994-71.6776C93.8994-82.0971 88.4139-87.5129 77.8903-87.5129L28.47-87.5129C17.903-87.5129 12.4609-82.1143 12.4609-71.6776L12.4609-21.9098C12.4609-11.4731 17.903-6.07446 28.47-6.07446ZM52.7624 17.1334L102.183 17.1334C112.706 17.1334 118.192 11.7176 118.192 1.29808L118.192-48.4697C118.192-58.8892 112.706-64.305 102.183-64.305L52.7624-64.305C42.1954-64.305 36.7534-58.9064 36.7534-48.4697L36.7534 1.29808C36.7534 11.7348 42.1954 17.1334 52.7624 17.1334ZM53.3392 7.57276C48.8023 7.57276 46.314 5.21249 46.314 0.460711L46.314-47.6323C46.314-52.3841 48.8023-54.7443 53.3392-54.7443L101.606-54.7443C106.108-54.7443 108.631-52.3841 108.631-47.6323L108.631 0.460711C108.631 5.21249 106.108 7.57276 101.606 7.57276ZM58.9592-35.1888C62.7208-35.1265 65.8347-38.2405 65.8347-42.1164C65.8347-45.878 62.731-48.9399 58.9592-48.9399C55.1685-48.9399 52.0734-45.8882 52.0734-42.1164C52.0734-38.2405 55.1685-35.2511 58.9592-35.1888ZM96.0049-35.1888C99.7681-35.1265 102.872-38.2405 102.872-42.1164C102.872-45.8882 99.7784-48.9399 96.0049-48.9399C92.2244-48.9399 89.1207-45.8882 89.1207-42.1164C89.1207-38.2405 92.2244-35.2511 96.0049-35.1888ZM77.4829-16.6393C81.2113-16.6393 84.3584-19.7533 84.3584-23.5858C84.3584-27.2851 81.201-30.3888 77.4829-30.3888C73.711-30.3888 70.6159-27.2953 70.6159-23.5858C70.6159-19.743 73.7007-16.6393 77.4829-16.6393ZM58.9592 1.92945C62.7208 1.92945 65.8159-1.17593 65.8159-4.99981C65.8159-8.76139 62.7105-11.8131 58.9592-11.8131C55.1685-11.8131 52.1168-8.77167 52.1168-4.99981C52.1168-1.16566 55.1685 1.92945 58.9592 1.92945ZM96.0049 1.92945C99.7784 1.92945 102.872-1.17593 102.872-4.99981C102.872-8.77167 99.7681-11.8131 96.0049-11.8131C92.2347-11.8131 89.183-8.77167 89.183-4.99981C89.183-1.17593 92.2347 1.92945 96.0049 1.92945Z"/>
  </g>
  <g id="Regular-M" transform="matrix(1 0 0 1 1385.73 1126)">
   <path d="M27.7789-6.67535L40.1544-6.67535L40.1544-14.5288L27.9035-14.5288C23.0272-14.5288 20.3144-17.1381 20.3144-22.2214L20.3144-70.7578C20.3144-75.8411 23.0272-78.4503 27.9035-78.4503L76.6469-78.4503C81.481-78.4503 84.2359-75.8411 84.2359-70.7578L84.2359-60.0639L92.0894-60.0639L92.0894-71.1929C92.0894-81.2486 86.9518-86.3038 76.7715-86.3038L27.7789-86.3038C17.5468-86.3038 12.4609-81.2697 12.4609-71.1929L12.4609-21.7863C12.4609-11.7095 17.5468-6.67535 27.7789-6.67535ZM51.4547 15.9282L100.447 15.9282C110.628 15.9282 115.765 10.873 115.765 0.81731L115.765-48.5893C115.765-58.645 110.628-63.7002 100.447-63.7002L51.4547-63.7002C41.2226-63.7002 36.1367-58.6661 36.1367-48.5893L36.1367 0.81731C36.1367 10.8941 41.2226 15.9282 51.4547 15.9282ZM51.5793 8.07477C46.7029 8.07477 43.9902 5.46552 43.9902 0.382179L43.9902-48.1542C43.9902-53.2375 46.7029-55.8468 51.5793-55.8468L100.323-55.8468C105.157-55.8468 107.912-53.2375 107.912-48.1542L107.912 0.382179C107.912 5.46552 105.157 8.07477 100.323 8.07477ZM56.8491-36.0329C60.6381-35.9706 63.7629-39.0954 63.7629-43.009C63.7629-46.798 60.6381-49.8605 56.8491-49.8605C53.0495-49.8605 49.9352-46.798 49.9352-43.009C49.9352-39.0954 53.0495-36.0952 56.8491-36.0329ZM95.0634-36.0329C98.8419-35.9706 101.967-39.0954 101.967-43.009C101.967-46.798 98.8419-49.8605 95.0634-49.8605C91.2638-49.8605 88.139-46.798 88.139-43.009C88.139-39.0954 91.2638-36.0952 95.0634-36.0329ZM75.951-16.8993C79.6882-16.8993 82.8648-20.0241 82.8648-23.886C82.8648-27.6127 79.6882-30.7375 75.951-30.7375C72.1619-30.7375 69.0477-27.6127 69.0477-23.886C69.0477-20.0241 72.1619-16.8993 75.951-16.8993ZM56.8491 2.24377C60.6381 2.24377 63.7523-0.87046 63.7523-4.7218C63.7523-8.51083 60.6381-11.5733 56.8491-11.5733C53.0495-11.5733 49.987-8.51083 49.987-4.7218C49.987-0.87046 53.0495 2.24377 56.8491 2.24377ZM95.0634 2.24377C98.8419 2.24377 101.967-0.87046 101.967-4.7218C101.967-8.51083 98.8419-11.5733 95.0634-11.5733C91.2638-11.5733 88.2013-8.51083 88.2013-4.7218C88.2013-0.87046 91.2638 2.24377 95.0634 2.24377Z"/>
  </g>
  <g id="Light-M" transform="matrix(1 0 0 1 1089.93 1126)">
   <path d="M26.8549-6.89779L38.9909-6.89779L38.9909-12.9375L26.9795-12.9375C21.4701-12.9375 18.5006-15.8376 18.5006-21.4856L18.5006-70.1247C18.5006-75.7727 21.4701-78.6728 26.9795-78.6728L75.7571-78.6728C81.1559-78.6728 84.2359-75.7727 84.2359-70.1247L84.2359-60.6799L90.2756-60.6799L90.2756-70.4571C90.2756-79.8455 85.3947-84.7125 75.8817-84.7125L26.8549-84.7125C17.3073-84.7125 12.4609-79.9008 12.4609-70.4571L12.4609-21.1532C12.4609-11.7095 17.3073-6.89779 26.8549-6.89779ZM50.5307 14.3711L99.5575 14.3711C109.07 14.3711 113.951 9.50413 113.951 0.115761L113.951-49.1882C113.951-58.5766 109.07-63.4436 99.5575-63.4436L50.5307-63.4436C40.983-63.4436 36.1367-58.6319 36.1367-49.1882L36.1367 0.115761C36.1367 9.55946 40.983 14.3711 50.5307 14.3711ZM50.6553 8.33143C45.1458 8.33143 42.1764 5.4313 42.1764-0.216704L42.1764-48.8557C42.1764-54.5037 45.1458-57.4039 50.6553-57.4039L99.4329-57.4039C104.832-57.4039 107.912-54.5037 107.912-48.8557L107.912-0.216704C107.912 5.4313 104.832 8.33143 99.4329 8.33143ZM55.3775-37.4873C59.0468-37.425 62.086-40.4642 62.086-44.2581C62.086-47.9274 59.0468-50.9043 55.3775-50.9043C51.6806-50.9043 48.669-47.9274 48.669-44.2581C48.669-40.4642 51.6806-37.5496 55.3775-37.4873ZM94.7383-37.4873C98.3799-37.425 101.419-40.4642 101.419-44.2581C101.419-47.9274 98.3799-50.9043 94.7383-50.9043C91.0414-50.9043 88.0021-47.9274 88.0021-44.2581C88.0021-40.4642 91.0414-37.5496 94.7383-37.4873ZM75.0441-17.7378C78.6787-17.7378 81.7526-20.777 81.7526-24.5362C81.7526-28.1432 78.6787-31.1824 75.0441-31.1824C71.3748-31.1824 68.3632-28.1432 68.3632-24.5362C68.3632-20.777 71.3748-17.7378 75.0441-17.7378ZM55.3775 1.93578C59.0468 1.93578 62.0583-1.07579 62.0583-4.80735C62.0583-8.47661 59.0468-11.4535 55.3775-11.4535C51.6806-11.4535 48.7037-8.47661 48.7037-4.80735C48.7037-1.07579 51.6806 1.93578 55.3775 1.93578ZM94.7383 1.93578C98.3799 1.93578 101.419-1.07579 101.419-4.80735C101.419-8.47661 98.3799-11.4535 94.7383-11.4535C91.0414-11.4535 88.0644-8.47661 88.0644-4.80735C88.0644-1.07579 91.0414 1.93578 94.7383 1.93578Z"/>
  </g>
  <g id="Thin-M" transform="matrix(1 0 0 1 794.415 1126)">
   <path d="M25.6328-7.19199L37.452-7.19199L37.452-10.8328L25.7574-10.8328C19.4107-10.8328 16.1018-14.1177 16.1018-20.5125L16.1018-69.2873C16.1018-75.6821 19.4107-78.967 25.7574-78.967L74.5803-78.967C80.7259-78.967 84.2359-75.6821 84.2359-69.2873L84.2359-61.4946L87.8768-61.4946L87.8768-69.484C87.8768-77.9898 83.3353-82.6078 74.7049-82.6078L25.6328-82.6078C16.9904-82.6078 12.4609-78.0904 12.4609-69.484L12.4609-20.3158C12.4609-11.7095 16.9904-7.19199 25.6328-7.19199ZM49.3086 12.3118L98.3807 12.3118C107.011 12.3118 111.553 7.69368 111.553-0.812093L111.553-49.9803C111.553-58.486 107.011-63.1041 98.3807-63.1041L49.3086-63.1041C40.6662-63.1041 36.1367-58.5866 36.1367-49.9803L36.1367-0.812093C36.1367 7.79427 40.6662 12.3118 49.3086 12.3118ZM49.4332 8.67089C43.0865 8.67089 39.7776 5.38604 39.7776-1.00878L39.7776-49.7836C39.7776-56.1784 43.0865-59.4632 49.4332-59.4632L98.2561-59.4632C104.402-59.4632 107.912-56.1784 107.912-49.7836L107.912-1.00878C107.912 5.38604 104.402 8.67089 98.2561 8.67089ZM53.4313-39.4109C56.9421-39.3486 59.8682-42.2747 59.8682-45.9101C59.8682-49.421 56.9421-52.2847 53.4313-52.2847C49.8701-52.2847 46.9944-49.421 46.9944-45.9101C46.9944-42.2747 49.8701-39.4732 53.4313-39.4109ZM94.3083-39.4109C97.7689-39.3486 100.695-42.2747 100.695-45.9101C100.695-49.421 97.7689-52.2847 94.3083-52.2847C90.7472-52.2847 87.8211-49.421 87.8211-45.9101C87.8211-42.2747 90.7472-39.4732 94.3083-39.4109ZM73.8446-18.8467C77.3435-18.8467 80.2816-21.7727 80.2816-25.3962C80.2816-28.8447 77.3435-31.7708 73.8446-31.7708C70.3338-31.7708 67.458-28.8447 67.458-25.3962C67.458-21.7727 70.3338-18.8467 73.8446-18.8467ZM53.4313 1.52843C56.9421 1.52843 59.8179-1.34736 59.8179-4.92051C59.8179-8.43135 56.9421-11.2951 53.4313-11.2951C49.8701-11.2951 47.0064-8.43135 47.0064-4.92051C47.0064-1.34736 49.8701 1.52843 53.4313 1.52843ZM94.3083 1.52843C97.7689 1.52843 100.695-1.34736 100.695-4.92051C100.695-8.43135 97.7689-11.2951 94.3083-11.2951C90.7472-11.2951 87.8834-8.43135 87.8834-4.92051C87.8834-1.34736 90.7472 1.52843 94.3083 1.52843Z"/>
  </g>
  <g id="Ultralight-M" transform="matrix(1 0 0 1 498.319 1126)">
   <path d="M25.0069-7.34267L36.6638-7.34267L36.6638-9.75486L25.1315-9.75486C18.3559-9.75486 14.8731-13.2368 14.8731-20.0141L14.8731-68.8584C14.8731-75.6358 18.3559-79.1177 25.1315-79.1177L73.9775-79.1177C80.5057-79.1177 84.2359-75.6358 84.2359-68.8584L84.2359-61.9119L86.6481-61.9119L86.6481-68.9856C86.6481-77.0393 82.2805-81.5299 74.1022-81.5299L25.0069-81.5299C16.8282-81.5299 12.4609-77.1631 12.4609-68.9856L12.4609-19.887C12.4609-11.7095 16.8282-7.34267 25.0069-7.34267ZM48.6827 11.2569L97.7779 11.2569C105.956 11.2569 110.324 6.76638 110.324-1.28734L110.324-50.386C110.324-58.4397 105.956-62.9302 97.7779-62.9302L48.6827-62.9302C40.5039-62.9302 36.1367-58.5634 36.1367-50.386L36.1367-1.28734C36.1367 6.89015 40.5039 11.2569 48.6827 11.2569ZM48.8073 8.84476C42.0317 8.84476 38.5489 5.36285 38.5489-1.41447L38.5489-50.2588C38.5489-57.0361 42.0317-60.5181 48.8073-60.5181L97.6533-60.5181C104.181-60.5181 107.912-57.0361 107.912-50.2588L107.912-1.41447C107.912 5.36285 104.181 8.84476 97.6533 8.84476ZM52.4344-40.3962C55.8641-40.3339 58.7323-43.202 58.7323-46.7563C58.7323-50.186 55.8641-52.9918 52.4344-52.9918C48.9428-52.9918 46.1366-50.186 46.1366-46.7563C46.1366-43.202 48.9428-40.4585 52.4344-40.3962ZM94.0881-40.3962C97.4559-40.3339 100.324-43.202 100.324-46.7563C100.324-50.186 97.4559-52.9918 94.0881-52.9918C90.5965-52.9918 87.7284-50.186 87.7284-46.7563C87.7284-43.202 90.5965-40.4585 94.0881-40.3962ZM73.2303-19.4146C76.6596-19.4146 79.5281-22.2828 79.5281-25.8366C79.5281-29.204 76.6596-32.0722 73.2303-32.0722C69.8006-32.0722 66.9944-29.204 66.9944-25.8366C66.9944-22.2828 69.8006-19.4146 73.2303-19.4146ZM52.4344 1.31978C55.8641 1.31978 58.6704-1.48645 58.6704-4.97846C58.6704-8.40817 55.8641-11.214 52.4344-11.214C48.9428-11.214 46.137-8.40817 46.137-4.97846C46.137-1.48645 48.9428 1.31978 52.4344 1.31978ZM94.0881 1.31978C97.4559 1.31978 100.324-1.48645 100.324-4.97846C100.324-8.40817 97.4559-11.214 94.0881-11.214C90.5965-11.214 87.7907-8.40817 87.7907-4.97846C87.7907-1.48645 90.5965 1.31978 94.0881 1.31978Z"/>
  </g>
  <g id="Black-S" transform="matrix(1 0 0 1 2877.44 696)">
   <path d="M25-10.0098L37.8418-10.0098L37.8418-24.1699L27.2461-24.1699C25-24.1699 23.9258-25.0488 23.9258-27.4902L23.9258-63.4277C23.9258-65.8691 25-66.748 27.2461-66.748L63.1836-66.748C65.4297-66.748 66.5039-65.8691 66.5039-63.4277L66.5039-55.5176L80.6641-55.5176L80.6641-65.6738C80.6641-75.2441 75-80.9082 65.4297-80.9082L25-80.9082C15.4297-80.9082 9.76562-75.2441 9.76562-65.6738L9.76562-25.2441C9.76562-15.6738 15.4297-10.0098 25-10.0098ZM46.4844 10.498L86.9141 10.498C96.4844 10.498 102.148 4.83398 102.148-4.73633L102.148-45.166C102.148-54.7363 96.4844-60.4004 86.9141-60.4004L46.4844-60.4004C36.9141-60.4004 31.25-54.7363 31.25-45.166L31.25-4.73633C31.25 4.83398 36.9141 10.498 46.4844 10.498ZM48.7305-3.66211C46.4844-3.66211 45.4102-4.54102 45.4102-6.98242L45.4102-42.9199C45.4102-45.3613 46.4844-46.2402 48.7305-46.2402L84.668-46.2402C86.9141-46.2402 87.9883-45.3613 87.9883-42.9199L87.9883-6.98242C87.9883-4.54102 86.9141-3.66211 84.668-3.66211ZM54.4922-31.9336C57.3242-31.8848 59.7168-34.2773 59.7168-37.1582C59.7168-39.9902 57.373-42.3828 54.4922-42.3828C51.5625-42.3828 49.2188-40.0391 49.2188-37.1582C49.2188-34.2773 51.5625-31.9824 54.4922-31.9336ZM78.9551-31.9336C81.8359-31.8848 84.1797-34.2773 84.1797-37.1582C84.1797-40.0391 81.8848-42.3828 78.9551-42.3828C76.0742-42.3828 73.7305-40.0391 73.7305-37.1582C73.7305-34.2773 76.0742-31.9824 78.9551-31.9336ZM66.748-19.6777C69.6289-19.6777 71.9727-22.0703 71.9727-24.9512C71.9727-27.7344 69.5801-30.0781 66.748-30.0781C63.8672-30.0781 61.5234-27.7832 61.5234-24.9512C61.5234-22.0215 63.8184-19.6777 66.748-19.6777ZM54.4922-7.37305C57.3242-7.37305 59.668-9.76562 59.668-12.6465C59.668-15.4785 57.2754-17.8223 54.4922-17.8223C51.5625-17.8223 49.2188-15.5273 49.2188-12.6465C49.2188-9.7168 51.5625-7.37305 54.4922-7.37305ZM78.9551-7.37305C81.8848-7.37305 84.1797-9.76562 84.1797-12.6465C84.1797-15.5273 81.8359-17.8223 78.9551-17.8223C76.123-17.8223 73.7793-15.5273 73.7793-12.6465C73.7793-9.76562 76.123-7.37305 78.9551-7.37305Z"/>
  </g>
  <g id="Heavy-S" transform="matrix(1 0 0 1 2581.98 696)">
   <path d="M24.3431-10.6551L36.4704-10.6551L36.4704-23.1327L26.0821-23.1327C23.5364-23.1327 22.2432-24.2536 22.2432-26.9947L22.2432-63.4162C22.2432-66.1573 23.5364-67.2782 26.0821-67.2782L62.5497-67.2782C65.0955-67.2782 66.3887-66.1573 66.3887-63.4162L66.3887-55.2525L78.8662-55.2525L78.8662-65.2244C78.8662-74.472 73.5594-79.7558 64.2888-79.7558L24.3431-79.7558C15.0609-79.7558 9.76562-74.472 9.76562-65.2244L9.76562-25.1865C9.76562-15.9389 15.0609-10.6551 24.3431-10.6551ZM45.136 9.3456L85.0817 9.3456C94.3523 9.3456 99.6592 4.06185 99.6592-5.18578L99.6592-45.2236C99.6592-54.4713 94.3523-59.755 85.0817-59.755L45.136-59.755C35.8538-59.755 30.5585-54.4713 30.5585-45.2236L30.5585-5.18578C30.5585 4.06185 35.8538 9.3456 45.136 9.3456ZM46.875-3.13198C44.3293-3.13198 43.0361-4.2529 43.0361-6.99395L43.0361-43.4155C43.0361-46.1565 44.3293-47.2774 46.875-47.2774L83.3427-47.2774C85.8884-47.2774 87.1816-46.1565 87.1816-43.4155L87.1816-6.99395C87.1816-4.2529 85.8884-3.13198 83.3427-3.13198ZM52.3141-32.6942C55.1922-32.6454 57.6078-35.061 57.6078-37.9995C57.6078-40.8776 55.2295-43.2817 52.3141-43.2817C49.3613-43.2817 46.983-40.9149 46.983-37.9995C46.983-35.061 49.3613-32.743 52.3141-32.6942ZM77.9409-32.6942C80.8564-32.6454 83.2347-35.061 83.2347-37.9995C83.2347-40.9149 80.8937-43.2817 77.9409-43.2817C75.0255-43.2817 72.6472-40.9149 72.6472-37.9995C72.6472-35.061 75.0255-32.743 77.9409-32.6942ZM65.1461-19.8621C68.0501-19.8621 70.4399-22.2778 70.4399-25.2047C70.4399-28.034 68.0128-30.4123 65.1461-30.4123C62.2307-30.4123 59.8524-28.0713 59.8524-25.2047C59.8524-22.2404 62.1934-19.8621 65.1461-19.8621ZM52.3141-6.98122C55.1922-6.98122 57.5705-9.39684 57.5705-12.3238C57.5705-15.2019 55.1549-17.5687 52.3141-17.5687C49.3613-17.5687 46.9945-15.2392 46.9945-12.3238C46.9945-9.35954 49.3613-6.98122 52.3141-6.98122ZM77.9409-6.98122C80.8937-6.98122 83.2347-9.39684 83.2347-12.3238C83.2347-15.2392 80.8564-17.5687 77.9409-17.5687C75.0628-17.5687 72.696-15.2392 72.696-12.3238C72.696-9.39684 75.0628-6.98122 77.9409-6.98122Z"/>
  </g>
  <g id="Bold-S" transform="matrix(1 0 0 1 2286.66 696)">
   <path d="M23.6084-11.377L34.9365-11.377L34.9365-21.9727L24.7803-21.9727C21.8994-21.9727 20.3613-23.3643 20.3613-26.4404L20.3613-63.4033C20.3613-66.4795 21.8994-67.8711 24.7803-67.8711L61.8408-67.8711C64.7217-67.8711 66.2598-66.4795 66.2598-63.4033L66.2598-54.9561L76.8555-54.9561L76.8555-64.7217C76.8555-73.6084 71.9482-78.4668 63.0127-78.4668L23.6084-78.4668C14.6484-78.4668 9.76562-73.6084 9.76562-64.7217L9.76562-25.1221C9.76562-16.2354 14.6484-11.377 23.6084-11.377ZM43.6279 8.05664L83.0322 8.05664C91.9678 8.05664 96.875 3.19824 96.875-5.68848L96.875-45.2881C96.875-54.1748 91.9678-59.0332 83.0322-59.0332L43.6279-59.0332C34.668-59.0332 29.7852-54.1748 29.7852-45.2881L29.7852-5.68848C29.7852 3.19824 34.668 8.05664 43.6279 8.05664ZM44.7998-2.53906C41.9189-2.53906 40.3809-3.93066 40.3809-7.00684L40.3809-43.9697C40.3809-47.0459 41.9189-48.4375 44.7998-48.4375L81.8604-48.4375C84.7412-48.4375 86.2793-47.0459 86.2793-43.9697L86.2793-7.00684C86.2793-3.93066 84.7412-2.53906 81.8604-2.53906ZM49.8779-33.5449C52.8076-33.4961 55.249-35.9375 55.249-38.9404C55.249-41.8701 52.832-44.2871 49.8779-44.2871C46.8994-44.2871 44.4824-41.8945 44.4824-38.9404C44.4824-35.9375 46.8994-33.5938 49.8779-33.5449ZM76.8066-33.5449C79.7607-33.4961 82.1777-35.9375 82.1777-38.9404C82.1777-41.8945 79.7852-44.2871 76.8066-44.2871C73.8525-44.2871 71.4355-41.8945 71.4355-38.9404C71.4355-35.9375 73.8525-33.5938 76.8066-33.5449ZM63.3545-20.0684C66.2842-20.0684 68.7256-22.5098 68.7256-25.4883C68.7256-28.3691 66.2598-30.7861 63.3545-30.7861C60.4004-30.7861 57.9834-28.3936 57.9834-25.4883C57.9834-22.4854 60.376-20.0684 63.3545-20.0684ZM49.8779-6.54297C52.8076-6.54297 55.2246-8.98438 55.2246-11.9629C55.2246-14.8926 52.7832-17.2852 49.8779-17.2852C46.8994-17.2852 44.5068-14.917 44.5068-11.9629C44.5068-8.95996 46.8994-6.54297 49.8779-6.54297ZM76.8066-6.54297C79.7852-6.54297 82.1777-8.98438 82.1777-11.9629C82.1777-14.917 79.7607-17.2852 76.8066-17.2852C73.877-17.2852 71.4844-14.917 71.4844-11.9629C71.4844-8.98438 73.877-6.54297 76.8066-6.54297Z"/>
  </g>
  <g id="Semibold-S" transform="matrix(1 0 0 1 1990.91 696)">
   <path d="M23.1019-11.8746L33.879-11.8746L33.879-21.1729L23.8827-21.1729C20.7708-21.1729 19.0639-22.7511 19.0639-26.0583L19.0639-63.3944C19.0639-66.7017 20.7708-68.2799 23.8827-68.2799L61.3521-68.2799C64.464-68.2799 66.1709-66.7017 66.1709-63.3944L66.1709-54.7517L75.4691-54.7517L75.4691-64.3751C75.4691-73.013 70.8374-77.5781 62.1329-77.5781L23.1019-77.5781C14.3641-77.5781 9.76562-73.013 9.76562-64.3751L9.76562-25.0776C9.76562-16.4397 14.3641-11.8746 23.1019-11.8746ZM42.5882 7.16797L81.6192 7.16797C90.3237 7.16797 94.9555 2.60283 94.9555-6.03506L94.9555-45.3325C94.9555-53.9704 90.3237-58.5355 81.6192-58.5355L42.5882-58.5355C33.8504-58.5355 29.252-53.9704 29.252-45.3325L29.252-6.03506C29.252 2.60283 33.8504 7.16797 42.5882 7.16797ZM43.369-2.13027C40.2571-2.13027 38.5502-3.7085 38.5502-7.01572L38.5502-44.3519C38.5502-47.6591 40.2571-49.2373 43.369-49.2373L80.8384-49.2373C83.9503-49.2373 85.6572-47.6591 85.6572-44.3519L85.6572-7.01572C85.6572-3.7085 83.9503-2.13027 80.8384-2.13027ZM48.1983-34.1314C51.1636-34.0826 53.6228-36.5418 53.6228-39.5892C53.6228-42.5544 51.1791-44.9803 48.1983-44.9803C45.2021-44.9803 42.7584-42.5699 42.7584-39.5892C42.7584-36.5418 45.2021-34.1803 48.1983-34.1314ZM76.0246-34.1314C79.0054-34.0826 81.449-36.5418 81.449-39.5892C81.449-42.5699 79.0209-44.9803 76.0246-44.9803C73.0438-44.9803 70.6002-42.5699 70.6002-39.5892C70.6002-36.5418 73.0438-34.1803 76.0246-34.1314ZM62.1192-20.2105C65.0667-20.2105 67.5437-22.6697 67.5437-25.6838C67.5437-28.6002 65.0512-31.0438 62.1192-31.0438C59.1385-31.0438 56.6948-28.6157 56.6948-25.6838C56.6948-22.6542 59.1229-20.2105 62.1192-20.2105ZM48.1983-6.24082C51.1636-6.24082 53.6072-8.7 53.6072-11.7141C53.6072-14.6793 51.148-17.0896 48.1983-17.0896C45.2021-17.0896 42.7917-14.6948 42.7917-11.7141C42.7917-8.68447 45.2021-6.24082 48.1983-6.24082ZM76.0246-6.24082C79.0209-6.24082 81.449-8.7 81.449-11.7141C81.449-14.6948 79.0054-17.0896 76.0246-17.0896C73.0594-17.0896 70.649-14.6948 70.649-11.7141C70.649-8.7 73.0594-6.24082 76.0246-6.24082Z"/>
  </g>
  <g id="Medium-S" transform="matrix(1 0 0 1 1694.92 696)">
   <path d="M22.7178-12.252L33.0771-12.252L33.0771-20.5664L23.2021-20.5664C19.915-20.5664 18.0801-22.2861 18.0801-25.7686L18.0801-63.3877C18.0801-66.8701 19.915-68.5898 23.2021-68.5898L60.9814-68.5898C64.2686-68.5898 66.1035-66.8701 66.1035-63.3877L66.1035-54.5967L74.418-54.5967L74.418-64.1123C74.418-72.5615 69.9951-76.9043 61.4658-76.9043L22.7178-76.9043C14.1484-76.9043 9.76562-72.5615 9.76562-64.1123L9.76562-25.0439C9.76562-16.5947 14.1484-12.252 22.7178-12.252ZM41.7998 6.49414L80.5479 6.49414C89.0771 6.49414 93.5 2.15137 93.5-6.29785L93.5-45.3662C93.5-53.8154 89.0771-58.1582 80.5479-58.1582L41.7998-58.1582C33.2305-58.1582 28.8477-53.8154 28.8477-45.3662L28.8477-6.29785C28.8477 2.15137 33.2305 6.49414 41.7998 6.49414ZM42.2842-1.82031C38.9971-1.82031 37.1621-3.54004 37.1621-7.02246L37.1621-44.6416C37.1621-48.124 38.9971-49.8438 42.2842-49.8438L80.0635-49.8438C83.3506-49.8438 85.1855-48.124 85.1855-44.6416L85.1855-7.02246C85.1855-3.54004 83.3506-1.82031 80.0635-1.82031ZM46.9248-34.5762C49.917-34.5273 52.3896-37 52.3896-40.0811C52.3896-43.0732 49.9258-45.5059 46.9248-45.5059C43.915-45.5059 41.4512-43.082 41.4512-40.0811C41.4512-37 43.915-34.625 46.9248-34.5762ZM75.4316-34.5762C78.4326-34.5273 80.8965-37 80.8965-40.0811C80.8965-43.082 78.4414-45.5059 75.4316-45.5059C72.4307-45.5059 69.9668-43.082 69.9668-40.0811C69.9668-37 72.4307-34.625 75.4316-34.5762ZM61.1826-20.3184C64.1436-20.3184 66.6475-22.791 66.6475-25.832C66.6475-28.7754 64.1348-31.2393 61.1826-31.2393C58.1816-31.2393 55.7178-28.7842 55.7178-25.832C55.7178-22.7822 58.1729-20.3184 61.1826-20.3184ZM46.9248-6.01172C49.917-6.01172 52.3809-8.48438 52.3809-11.5254C52.3809-14.5176 49.9082-16.9414 46.9248-16.9414C43.915-16.9414 41.4912-14.5264 41.4912-11.5254C41.4912-8.47559 43.915-6.01172 46.9248-6.01172ZM75.4316-6.01172C78.4414-6.01172 80.8965-8.48438 80.8965-11.5254C80.8965-14.5264 78.4326-16.9414 75.4316-16.9414C72.4395-16.9414 70.0156-14.5264 70.0156-11.5254C70.0156-8.48438 72.4395-6.01172 75.4316-6.01172Z"/>
  </g>
  <g id="Regular-S" transform="matrix(1 0 0 1 1399.16 696)">
   <path d="M22.2168-12.7441L32.0312-12.7441L32.0312-19.7754L22.3145-19.7754C18.7988-19.7754 16.7969-21.6797 16.7969-25.3906L16.7969-63.3789C16.7969-67.0898 18.7988-68.9941 22.3145-68.9941L60.498-68.9941C64.0137-68.9941 66.0156-67.0898 66.0156-63.3789L66.0156-54.3945L73.0469-54.3945L73.0469-63.7695C73.0469-71.9727 68.8965-76.0254 60.5957-76.0254L22.2168-76.0254C13.8672-76.0254 9.76562-71.9727 9.76562-63.7695L9.76562-25C9.76562-16.7969 13.8672-12.7441 22.2168-12.7441ZM40.7715 5.61523L79.1504 5.61523C87.4512 5.61523 91.6016 1.5625 91.6016-6.64062L91.6016-45.4102C91.6016-53.6133 87.4512-57.666 79.1504-57.666L40.7715-57.666C32.4219-57.666 28.3203-53.6133 28.3203-45.4102L28.3203-6.64062C28.3203 1.5625 32.4219 5.61523 40.7715 5.61523ZM40.8691-1.41602C37.3535-1.41602 35.3516-3.32031 35.3516-7.03125L35.3516-45.0195C35.3516-48.7305 37.3535-50.6348 40.8691-50.6348L79.0527-50.6348C82.5684-50.6348 84.5703-48.7305 84.5703-45.0195L84.5703-7.03125C84.5703-3.32031 82.5684-1.41602 79.0527-1.41602ZM45.2637-35.1562C48.291-35.1074 50.7812-37.5977 50.7812-40.7227C50.7812-43.75 48.291-46.1914 45.2637-46.1914C42.2363-46.1914 39.7461-43.75 39.7461-40.7227C39.7461-37.5977 42.2363-35.2051 45.2637-35.1562ZM74.6582-35.1562C77.6855-35.1074 80.1758-37.5977 80.1758-40.7227C80.1758-43.75 77.6855-46.1914 74.6582-46.1914C71.6309-46.1914 69.1406-43.75 69.1406-40.7227C69.1406-37.5977 71.6309-35.2051 74.6582-35.1562ZM59.9609-20.459C62.9395-20.459 65.4785-22.9492 65.4785-26.0254C65.4785-29.0039 62.9395-31.4941 59.9609-31.4941C56.9336-31.4941 54.4434-29.0039 54.4434-26.0254C54.4434-22.9492 56.9336-20.459 59.9609-20.459ZM45.2637-5.71289C48.291-5.71289 50.7812-8.20312 50.7812-11.2793C50.7812-14.3066 48.291-16.748 45.2637-16.748C42.2363-16.748 39.7949-14.3066 39.7949-11.2793C39.7949-8.20312 42.2363-5.71289 45.2637-5.71289ZM74.6582-5.71289C77.6855-5.71289 80.1758-8.20312 80.1758-11.2793C80.1758-14.3066 77.6855-16.748 74.6582-16.748C71.6309-16.748 69.1895-14.3066 69.1895-11.2793C69.1895-8.20312 71.6309-5.71289 74.6582-5.71289Z"/>
  </g>
  <g id="Light-S" transform="matrix(1 0 0 1 1103.25 696)">
   <path d="M21.3994-12.9409L31.002-12.9409L31.002-18.3677L21.4971-18.3677C17.4214-18.3677 15.1924-20.5293 15.1924-24.7398L15.1924-62.8189C15.1924-67.0293 17.4214-69.1909 21.4971-69.1909L59.7109-69.1909C63.7261-69.1909 66.0156-67.0293 66.0156-62.8189L66.0156-54.9394L71.4424-54.9394L71.4424-63.1187C71.4424-70.7315 67.5191-74.6177 59.8086-74.6177L21.3994-74.6177C13.6553-74.6177 9.76562-70.7617 9.76562-63.1187L9.76562-24.4399C9.76562-16.7969 13.6553-12.9409 21.3994-12.9409ZM39.9541 4.2378L78.3633 4.2378C86.0737 4.2378 89.9971 0.351572 89.9971-7.26123L89.9971-45.9399C89.9971-53.5527 86.0737-57.439 78.3633-57.439L39.9541-57.439C32.21-57.439 28.3203-53.583 28.3203-45.9399L28.3203-7.26123C28.3203 0.381845 32.21 4.2378 39.9541 4.2378ZM40.0518-1.18897C35.9761-1.18897 33.7471-3.35059 33.7471-7.56103L33.7471-45.6401C33.7471-49.8506 35.9761-52.0122 40.0518-52.0122L78.2656-52.0122C82.2808-52.0122 84.5703-49.8506 84.5703-45.6401L84.5703-7.56103C84.5703-3.35059 82.2808-1.18897 78.2656-1.18897ZM43.9619-36.4429C46.8833-36.394 49.2979-38.8086 49.2979-41.8276C49.2979-44.749 46.8833-47.1147 43.9619-47.1147C41.0254-47.1147 38.626-44.749 38.626-41.8276C38.626-38.8086 41.0254-36.4917 43.9619-36.4429ZM74.3706-36.4429C77.2769-36.394 79.6914-38.8086 79.6914-41.8276C79.6914-44.749 77.2769-47.1147 74.3706-47.1147C71.4341-47.1147 69.0195-44.749 69.0195-41.8276C69.0195-38.8086 71.4341-36.4917 74.3706-36.4429ZM59.1587-21.2007C62.0464-21.2007 64.4946-23.6152 64.4946-26.6006C64.4946-29.4731 62.0464-31.8877 59.1587-31.8877C56.2373-31.8877 53.8379-29.4731 53.8379-26.6006C53.8379-23.6152 56.2373-21.2007 59.1587-21.2007ZM43.9619-5.98535C46.8833-5.98535 49.2827-8.38476 49.2827-11.355C49.2827-14.2764 46.8833-16.6421 43.9619-16.6421C41.0254-16.6421 38.6597-14.2764 38.6597-11.355C38.6597-8.38476 41.0254-5.98535 43.9619-5.98535ZM74.3706-5.98535C77.2769-5.98535 79.6914-8.38476 79.6914-11.355C79.6914-14.2764 77.2769-16.6421 74.3706-16.6421C71.4341-16.6421 69.0684-14.2764 69.0684-11.355C69.0684-8.38476 71.4341-5.98535 74.3706-5.98535Z"/>
  </g>
  <g id="Thin-S" transform="matrix(1 0 0 1 807.602 696)">
   <path d="M20.3184-13.2012L29.6406-13.2012L29.6406-16.5059L20.416-16.5059C15.5996-16.5059 13.0703-19.0078 13.0703-23.8789L13.0703-62.0781C13.0703-66.9492 15.5996-69.4512 20.416-69.4512L58.6699-69.4512C63.3457-69.4512 66.0156-66.9492 66.0156-62.0781L66.0156-55.6601L69.3203-55.6601L69.3203-62.2578C69.3203-69.0899 65.6973-72.7559 58.7676-72.7559L20.3184-72.7559C13.375-72.7559 9.76562-69.1602 9.76562-62.2578L9.76562-23.6992C9.76562-16.7969 13.375-13.2012 20.3184-13.2012ZM38.8731 2.41604L77.3223 2.41604C84.252 2.41604 87.875-1.24998 87.875-8.08202L87.875-46.6406C87.875-53.4727 84.252-57.1387 77.3223-57.1387L38.8731-57.1387C31.9297-57.1387 28.3203-53.543 28.3203-46.6406L28.3203-8.08202C28.3203-1.17967 31.9297 2.41604 38.8731 2.41604ZM38.9707-0.888676C34.1543-0.888676 31.625-3.39062 31.625-8.26171L31.625-46.4609C31.625-51.332 34.1543-53.834 38.9707-53.834L77.2246-53.834C81.9004-53.834 84.5703-51.332 84.5703-46.4609L84.5703-8.26171C84.5703-3.39062 81.9004-0.888676 77.2246-0.888676ZM42.2403-38.1445C45.0215-38.0957 47.336-40.4101 47.336-43.289C47.336-46.0703 45.0215-48.3359 42.2403-48.3359C39.4239-48.3359 37.1446-46.0703 37.1446-43.289C37.1446-40.4101 39.4239-38.1933 42.2403-38.1445ZM73.9902-38.1445C76.7363-38.0957 79.0508-40.4101 79.0508-43.289C79.0508-46.0703 76.7363-48.3359 73.9902-48.3359C71.1738-48.3359 68.8594-46.0703 68.8594-43.289C68.8594-40.4101 71.1738-38.1933 73.9902-38.1445ZM58.0977-22.1816C60.8653-22.1816 63.1934-24.4961 63.1934-27.3613C63.1934-30.0937 60.8653-32.4082 58.0977-32.4082C55.3164-32.4082 53.0371-30.0937 53.0371-27.3613C53.0371-24.4961 55.3164-22.1816 58.0977-22.1816ZM42.2403-6.3457C45.0215-6.3457 47.3008-8.625 47.3008-11.4551C47.3008-14.2363 45.0215-16.502 42.2403-16.502C39.4239-16.502 37.1582-14.2363 37.1582-11.4551C37.1582-8.625 39.4239-6.3457 42.2403-6.3457ZM73.9902-6.3457C76.7363-6.3457 79.0508-8.625 79.0508-11.4551C79.0508-14.2363 76.7363-16.502 73.9902-16.502C71.1738-16.502 68.9082-14.2363 68.9082-11.4551C68.9082-8.625 71.1738-6.3457 73.9902-6.3457Z"/>
  </g>
  <g id="Ultralight-S" transform="matrix(1 0 0 1 511.434 696)">
   <path d="M19.7647-13.3345L28.9434-13.3345L28.9434-15.5523L19.8623-15.5523C14.6665-15.5523 11.9834-18.2285 11.9834-23.438L11.9834-61.6987C11.9834-66.9082 14.6665-69.5845 19.8623-69.5845L58.1367-69.5845C63.1509-69.5845 66.0156-66.9082 66.0156-61.6987L66.0156-56.0293L68.2334-56.0293L68.2334-61.8169C68.2334-68.2491 64.7642-71.8023 58.2344-71.8023L19.7647-71.8023C13.2315-71.8023 9.76562-68.3399 9.76562-61.8169L9.76562-23.3198C9.76562-16.7969 13.2315-13.3345 19.7647-13.3345ZM38.3194 1.48294L76.7891 1.48294C83.3189 1.48294 86.7881-2.07028 86.7881-8.50243L86.7881-46.9995C86.7881-53.4316 83.3189-56.9849 76.7891-56.9849L38.3194-56.9849C31.7861-56.9849 28.3203-53.5225 28.3203-46.9995L28.3203-8.50243C28.3203-1.97946 31.7861 1.48294 38.3194 1.48294ZM38.417-0.734869C33.2212-0.734869 30.5381-3.41113 30.5381-8.62059L30.5381-46.8813C30.5381-52.0908 33.2212-54.7671 38.417-54.7671L76.6914-54.7671C81.7056-54.7671 84.5703-52.0908 84.5703-46.8813L84.5703-8.62059C84.5703-3.41113 81.7056-0.734869 76.6914-0.734869ZM41.3584-39.0161C44.0679-38.9673 46.3311-41.2304 46.3311-44.0376C46.3311-46.747 44.0679-48.9614 41.3584-48.9614C38.6035-48.9614 36.3858-46.747 36.3858-44.0376C36.3858-41.2304 38.6035-39.0649 41.3584-39.0161ZM73.7954-39.0161C76.4595-38.9673 78.7227-41.2304 78.7227-44.0376C78.7227-46.747 76.4595-48.9614 73.7954-48.9614C71.0405-48.9614 68.7773-46.747 68.7773-44.0376C68.7773-41.2304 71.0405-39.0649 73.7954-39.0161ZM57.5542-22.6841C60.2603-22.6841 62.5269-24.9472 62.5269-27.751C62.5269-30.4116 60.2603-32.6748 57.5542-32.6748C54.8447-32.6748 52.627-30.4116 52.627-27.751C52.627-24.9472 54.8447-22.6841 57.5542-22.6841ZM41.3584-6.53027C44.0679-6.53027 46.2857-8.74804 46.2857-11.5063C46.2857-14.2158 44.0679-16.4302 41.3584-16.4302C38.6035-16.4302 36.3892-14.2158 36.3892-11.5063C36.3892-8.74804 38.6035-6.53027 41.3584-6.53027ZM73.7954-6.53027C76.4595-6.53027 78.7227-8.74804 78.7227-11.5063C78.7227-14.2158 76.4595-16.4302 73.7954-16.4302C71.0405-16.4302 68.8262-14.2158 68.8262-11.5063C68.8262-8.74804 71.0405-6.53027 73.7954-6.53027Z"/>
  </g>
 </g>
</svg>
