<?xml version="1.0" encoding="UTF-8" standalone="no"?> <!-- Created with Vectornator for iOS (http://vectornator.io/) --><!DOCTYPE svg PUBLIC "-//W3C//DTD SVG 1.1//EN" "http://www.w3.org/Graphics/SVG/1.1/DTD/svg11.dtd">
<svg width="100%" style="fill-rule:nonzero;clip-rule:evenodd;stroke-linecap:round;stroke-linejoin:round;" xml:space="preserve" xmlns:xlink="http://www.w3.org/1999/xlink" xmlns="http://www.w3.org/2000/svg" height="100%" version="1.1" viewBox="0 0 1024 1024" xmlns:vectornator="http://vectornator.io">
<metadata>
<vectornator:setting value="false" key="IsTimeLapseWatermarkDisabled"/>
<vectornator:setting key="UndoHistoryDisabled" value="false"/>
<vectornator:setting value="false" key="WDIsolateActiveLayer"/>
<vectornator:setting key="WDOutlineMode" value="false"/>
<vectornator:setting value="true" key="WDRulersVisible"/>
<vectornator:setting key="VNSnapToGuides" value="true"/>
<vectornator:setting key="WDGuidesVisible" value="true"/>
<vectornator:setting key="WDSnapToGrid" value="false"/>
<vectornator:setting value="false" key="WDCMYKEnabledKey"/>
<vectornator:setting key="WDSnapToEdges" value="false"/>
<vectornator:setting key="WDSnapToPoints" value="false"/>
<vectornator:setting key="WDDynamicGuides" value="false"/>
<vectornator:setting key="WDDisplayWhiteBackground" value="false"/>
<vectornator:setting key="WDUnits" value="Points"/>
<vectornator:setting key="VNDimensionsVisible" value="true"/>
<vectornator:setting key="VNPencilOnly" value="false"/>
</metadata>
<defs/>
<g id="Layer 2" vectornator:layerName="Layer 2">
<path fill="none" d="M818.075+701.896L499.688+884.196L181.3+701.896L181.3+337.295L499.688+154.995" stroke-linecap="round" stroke-width="12.1" stroke="#000000" opacity="1" stroke-opacity="0.144091" stroke-linejoin="round"/>
</g>
<g vectornator:layerName="Emblem" id="Emblem">
<path opacity="1" fill="none" stroke-width="12.1" stroke="#ffffff" stroke-linejoin="round" stroke-linecap="round" d="M830.388+695.194L512+878.387L193.612+695.194"/>
<path stroke-linecap="round" stroke-width="12.1" opacity="1" fill="none" d="M512+145.613L830.388+328.806L830.388+695.194" stroke-linejoin="round" stroke="#ffffff"/>
<path fill="none" opacity="1" stroke-linejoin="round" stroke-linecap="round" d="M193.612+695.194L193.612+328.806L512+145.613" stroke="#ffffff" stroke-width="12.1"/>
<path d="M512+878.387L512+832.589L512+786.79L512+740.992L512+695.194L512+649.395L512+603.597L512+557.798L512+512" stroke="#ffffff" stroke-width="12.1" opacity="1" stroke-linecap="round" fill="none" stroke-linejoin="round"/>
<path stroke="#ffffff" opacity="1" d="M196.999+328.425L512+512" stroke-width="12.1" stroke-linejoin="round" fill="none" stroke-linecap="round"/>
<path stroke-linecap="round" opacity="1" stroke="#ffffff" stroke-width="12.1" fill="none" stroke-linejoin="round" d="M827.001+328.425L512+512"/>
<path stroke="#ffffff" stroke-linejoin="round" fill="none" stroke-width="12.1" opacity="1" stroke-linecap="round" d="M447.368+320.171C447.368+301.567+476.305+286.485+512+286.485C547.695+286.485+576.632+301.567+576.632+320.171C576.632+338.775+547.695+353.857+512+353.857C476.305+353.857+447.368+338.775+447.368+320.171Z"/>
<path stroke-width="12.1" stroke-linecap="round" opacity="1" fill="none" stroke="#ffffff" stroke-linejoin="round" d="M471.52+343.123C471.52+337.194+489.644+332.388+512+332.388C534.356+332.388+552.48+337.194+552.48+343.123C552.48+349.051+534.356+353.857+512+353.857C489.644+353.857+471.52+349.051+471.52+343.123Z"/>
<path stroke="#ffffff" stroke-linejoin="round" fill="none" stroke-width="12.1" d="M604.223+590.338C622.322+569.643+633.964+536.194+623.125+518.403C612.286+500.612+590.663+506.659+572.565+527.354C554.467+548.049+544.113+578.965+554.952+596.756C565.791+614.547+586.125+611.033+604.223+590.338Z" opacity="1" stroke-linecap="round"/>
<path fill="none" d="M572.784+571.207C583.182+560.974+588.699+543.321+586.925+530.869C585.151+518.416+581.986+517.817+571.589+528.05C561.191+538.283+552.573+560.609+554.348+573.061C556.122+585.514+562.387+581.44+572.784+571.207Z" stroke-width="12.1" opacity="1" stroke="#ffffff" stroke-linejoin="round" stroke-linecap="round"/>
<path stroke-linejoin="round" stroke-linecap="round" opacity="1" stroke="#ffffff" d="M604.661+772.352C622.759+751.656+634.401+718.207+623.562+700.416C612.723+682.625+591.1+688.673+573.002+709.368C554.904+730.063+544.55+760.979+555.389+778.769C566.228+796.56+586.562+793.047+604.661+772.352Z" stroke-width="12.1" fill="none"/>
<path d="M573.221+753.22C583.619+742.987+589.136+725.335+587.362+712.882C585.588+700.429+582.423+699.83+572.026+710.063C561.628+720.296+553.01+742.622+554.785+755.075C556.559+767.527+562.824+763.453+573.221+753.22Z" stroke-width="12.1" stroke-linecap="round" fill="none" opacity="1" stroke-linejoin="round" stroke="#ffffff"/>
<path stroke-linejoin="round" stroke-width="12.1" stroke-linecap="round" d="M685.102+637.005C703.2+616.31+714.842+582.861+704.003+565.07C693.164+547.279+671.541+553.326+653.443+574.021C635.345+594.716+624.992+625.632+635.83+643.423C646.669+661.214+667.004+657.7+685.102+637.005Z" fill="none" stroke="#ffffff" opacity="1"/>
<path d="M653.662+617.874C664.06+607.641+669.578+589.988+667.803+577.536C666.029+565.083+662.864+564.484+652.467+574.717C642.069+584.95+633.452+607.276+635.226+619.728C637+632.181+643.265+628.107+653.662+617.874Z" opacity="1" fill="none" stroke-linejoin="round" stroke-width="12.1" stroke="#ffffff" stroke-linecap="round"/>
<path fill="none" stroke-width="12.1" stroke-linecap="round" stroke="#ffffff" d="M762.4+498.201C780.498+477.506+792.14+444.056+781.301+426.265C770.462+408.475+748.839+414.522+730.741+435.217C712.643+455.912+702.29+486.828+713.129+504.619C723.968+522.41+744.302+518.896+762.4+498.201Z" stroke-linejoin="round" opacity="1"/>
<path opacity="1" fill="none" stroke-linecap="round" stroke="#ffffff" stroke-width="12.1" stroke-linejoin="round" d="M730.961+479.07C741.358+468.837+746.876+451.184+745.101+438.732C743.327+426.279+740.162+425.68+729.765+435.913C719.368+446.146+710.75+468.472+712.524+480.924C714.299+493.377+720.563+489.303+730.961+479.07Z"/>
<path stroke-width="12.1" stroke-linejoin="round" d="M765.069+683.157C783.167+662.461+794.81+629.012+783.971+611.221C773.132+593.43+751.509+599.478+733.411+620.173C715.312+640.868+704.959+671.784+715.798+689.575C726.637+707.365+746.971+703.852+765.069+683.157Z" stroke="#ffffff" stroke-linecap="round" opacity="1" fill="none"/>
<path stroke-width="12.1" opacity="1" stroke-linecap="round" stroke="#ffffff" fill="none" d="M733.63+664.025C744.027+653.792+749.545+636.14+747.771+623.687C745.996+611.234+742.832+610.635+732.434+620.868C722.037+631.101+713.419+653.427+715.193+665.88C716.968+678.332+723.232+674.258+733.63+664.025Z" stroke-linejoin="round"/>
<path fill="none" stroke-width="12.1" stroke-linecap="round" opacity="1" d="M417.115+591.573C399.017+570.878+387.375+537.429+398.214+519.638C409.052+501.847+430.676+507.894+448.774+528.589C466.872+549.284+477.225+580.2+466.386+597.991C455.547+615.782+435.213+612.268+417.115+591.573Z" stroke="#ffffff" stroke-linejoin="round"/>
<path stroke="#ffffff" stroke-width="12.1" opacity="1" stroke-linecap="round" fill="none" d="M448.554+572.442C438.157+562.209+432.639+544.556+434.414+532.104C436.188+519.651+439.353+519.052+449.75+529.285C460.147+539.518+468.765+561.844+466.991+574.296C465.216+586.749+458.952+582.675+448.554+572.442Z" stroke-linejoin="round"/>
<path stroke="#ffffff" stroke-linejoin="round" d="M337.057+634.496C318.959+613.801+307.316+580.351+318.155+562.56C328.994+544.769+350.617+550.817+368.716+571.512C386.814+592.207+397.167+623.123+386.328+640.914C375.489+658.705+355.155+655.191+337.057+634.496Z" stroke-width="12.1" stroke-linecap="round" fill="none" opacity="1"/>
<path stroke-linecap="round" fill="none" stroke-width="12.1" stroke-linejoin="round" opacity="1" d="M368.496+615.364C358.099+605.131+352.581+587.479+354.355+575.026C356.13+562.574+359.294+561.974+369.692+572.207C380.089+582.44+388.707+604.766+386.933+617.219C385.158+629.672+378.894+625.597+368.496+615.364Z" stroke="#ffffff"/>
<path d="M258.257+679.884C240.159+659.189+228.517+625.74+239.355+607.949C250.194+590.158+271.818+596.205+289.916+616.9C308.014+637.595+318.367+668.511+307.528+686.302C296.689+704.093+276.355+700.579+258.257+679.884Z" opacity="1" stroke-linejoin="round" stroke-width="12.1" stroke="#ffffff" stroke-linecap="round" fill="none"/>
<path stroke="#ffffff" stroke-linejoin="round" opacity="1" stroke-width="12.1" d="M289.696+660.753C279.299+650.52+273.781+632.867+275.556+620.415C277.33+607.962+280.494+607.363+290.892+617.596C301.289+627.829+309.907+650.155+308.133+662.607C306.358+675.06+300.094+670.986+289.696+660.753Z" stroke-linecap="round" fill="none"/>
</g>
</svg>
