<?xml version="1.0" encoding="UTF-8" standalone="no"?>
<!-- Created with Inkscape (http://www.inkscape.org/) -->

<svg
   width="179.99976"
   height="251.99976"
   viewBox="0 0 47.624934 66.674935"
   version="1.1"
   id="svg1"
   inkscape:version="1.4 (e7c3feb1, 2024-10-09)"
   sodipodi:docname="All Cards - Spades.svg"
   xml:space="preserve"
   inkscape:export-filename="All Cards - Spades.png"
   inkscape:export-xdpi="96"
   inkscape:export-ydpi="96"
   xmlns:inkscape="http://www.inkscape.org/namespaces/inkscape"
   xmlns:sodipodi="http://sodipodi.sourceforge.net/DTD/sodipodi-0.dtd"
   xmlns="http://www.w3.org/2000/svg"
   xmlns:svg="http://www.w3.org/2000/svg"><sodipodi:namedview
     id="namedview1"
     pagecolor="#ffffff"
     bordercolor="#999999"
     borderopacity="1"
     inkscape:showpageshadow="2"
     inkscape:pageopacity="0"
     inkscape:pagecheckerboard="0"
     inkscape:deskcolor="#d1d1d1"
     inkscape:document-units="px"
     showgrid="true"
     inkscape:zoom="0.61073719"
     inkscape:cx="687.6935"
     inkscape:cy="297.18184"
     inkscape:window-width="1512"
     inkscape:window-height="836"
     inkscape:window-x="0"
     inkscape:window-y="38"
     inkscape:window-maximized="0"
     inkscape:current-layer="layer13"><inkscape:grid
       id="grid2"
       units="px"
       originx="-285.75"
       originy="-3.5768444e-09"
       spacingx="0.26458333"
       spacingy="0.26458333"
       empcolor="#0099e5"
       empopacity="0.30196078"
       color="#0099e5"
       opacity="0.14901961"
       empspacing="5"
       enabled="true"
       visible="true" /><inkscape:page
       x="0"
       y="0"
       width="47.624935"
       height="66.674934"
       id="page2"
       margin="0"
       bleed="0" /></sodipodi:namedview><defs
     id="defs1"><inkscape:path-effect
       effect="fillet_chamfer"
       id="path-effect3-5"
       is_visible="true"
       lpeversion="1"
       nodesatellites_param="F,0,0,1,0,3,0,1 @ F,0,0,1,0,3,0,1 @ F,0,0,1,0,3,0,1 @ F,0,0,1,0,3,0,1"
       radius="0"
       unit="px"
       method="auto"
       mode="F"
       chamfer_steps="1"
       flexible="false"
       use_knot_distance="true"
       apply_no_radius="true"
       apply_with_radius="true"
       only_selected="false"
       hide_knots="false" /></defs><g
     inkscape:groupmode="layer"
     id="layer7"
     inkscape:label="7"
     transform="matrix(0.99998908,0,0,1.0101899,-285.74792,-0.00209528)"
     inkscape:export-filename="Spades/7.svg"
     inkscape:export-xdpi="96"
     inkscape:export-ydpi="96"><path
       style="fill:#ffffff;fill-opacity:1;stroke:#000000;stroke-width:0.526494;stroke-linecap:round;stroke-linejoin:round;stroke-dasharray:none"
       id="rect1-28"
       width="47.098965"
       height="65.475883"
       x="0.26119247"
       y="0.26535115"
       inkscape:path-effect="#path-effect3-5"
       sodipodi:type="rect"
       d="M 3.2611925,0.26535115 H 44.360157 a 3,3 45 0 1 3,2.99999995 V 62.741235 a 3,3 135 0 1 -3,3 H 3.2611925 a 3,3 45 0 1 -3.00000003,-3 V 3.2653511 A 3,3 135 0 1 3.2611925,0.26535115 Z"
       transform="translate(285.75309,-2.9988694e-5)"
       inkscape:label="card" /><path
       style="font-weight:300;font-size:18.2518px;font-family:'SF Pro Rounded';-inkscape-font-specification:'SF Pro Rounded Light';letter-spacing:-7.10767px;word-spacing:0px;stroke:#000000;stroke-width:0.526494;stroke-linecap:round;stroke-linejoin:round"
       d="m 305.77773,39.676937 c 0.25845,0 0.41887,-0.106944 0.55255,-0.356481 l 5.65021,-11.131103 c 0.18715,-0.35648 0.26736,-0.543632 0.26736,-0.775345 0,-0.472336 -0.2941,-0.748609 -0.78426,-0.748609 h -7.13852 c -0.32974,0 -0.57928,0.213889 -0.57928,0.543633 0,0.338656 0.24954,0.543633 0.57928,0.543633 h 6.63945 v 0.03565 l -5.65021,10.988511 c -0.0802,0.151504 -0.10695,0.258448 -0.10695,0.392128 0,0.311921 0.23171,0.507985 0.57037,0.507985 z"
       id="text3-8-1-1-3-3-3"
       inkscape:label="center"
       transform="scale(1.0050875,0.99493825)"
       aria-label="7" /><path
       d="m 287.31862,6.8722157 c 0.0524,0 0.0864,-0.024679 0.11414,-0.080208 l 2.06999,-4.1091219 c 0.0339,-0.067868 0.0494,-0.1048875 0.0494,-0.1573313 0,-0.098718 -0.0648,-0.1542463 -0.16659,-0.1542463 h -2.57283 c -0.0679,0 -0.11723,0.043189 -0.11723,0.1110574 0,0.067868 0.0494,0.1110573 0.11723,0.1110573 h 2.48028 v 0.00925 l -2.06998,4.0813576 c -0.0185,0.033934 -0.0216,0.058614 -0.0216,0.083293 0,0.064783 0.0463,0.1048875 0.11723,0.1048875 z"
       id="text1-4-8-9-6-8-60"
       style="font-weight:200;font-size:6.31793px;font-family:'SF Pro Rounded';-inkscape-font-specification:'SF Pro Rounded, Ultra-Light';letter-spacing:-7.10767px;word-spacing:0px;stroke:#000000;stroke-width:0.526494;stroke-linecap:round;stroke-linejoin:round"
       inkscape:label="top"
       transform="scale(1.0050875,0.99493825)"
       aria-label="7" /><path
       d="m -328.67503,-59.470283 c 0.0524,0 0.0864,-0.02468 0.11414,-0.08021 l 2.06998,-4.109122 c 0.0339,-0.06787 0.0494,-0.104888 0.0494,-0.157331 0,-0.09872 -0.0648,-0.154247 -0.16658,-0.154247 h -2.57283 c -0.0679,0 -0.11723,0.04319 -0.11723,0.111058 0,0.06787 0.0494,0.111057 0.11723,0.111057 h 2.48028 v 0.0093 l -2.06999,4.081357 c -0.0185,0.03393 -0.0216,0.05861 -0.0216,0.08329 0,0.06478 0.0463,0.104888 0.11723,0.104888 z"
       id="text1-4-8-9-6-8-60-3"
       style="font-weight:200;font-size:6.31793px;font-family:'SF Pro Rounded';-inkscape-font-specification:'SF Pro Rounded, Ultra-Light';letter-spacing:-7.10767px;word-spacing:0px;stroke:#000000;stroke-width:0.526494;stroke-linecap:round;stroke-linejoin:round"
       inkscape:label="bottom"
       transform="scale(-1.0050875,-0.99493825)"
       aria-label="7" /><path
       d="m 286.41062,11.657064 c 0,0.651116 0.49359,1.148205 1.15171,1.148205 0.37106,0 0.73863,-0.129523 0.89966,-0.444579 h 0.028 c -0.0105,0.367565 -0.39557,0.67212 -0.5776,0.857653 -0.19254,0.196035 -0.077,0.472584 0.17503,0.472584 h 1.75381 c 0.24855,0 0.36407,-0.276549 0.17503,-0.472584 -0.18553,-0.185533 -0.5706,-0.490088 -0.5811,-0.857653 h 0.028 c 0.16103,0.315056 0.5321,0.444579 0.90317,0.444579 0.65461,0 1.1482,-0.497089 1.1482,-1.148205 0,-1.221718 -1.64529,-1.7258081 -2.29291,-3.0455437 -0.0525,-0.1050188 -0.12602,-0.1855331 -0.25904,-0.1855331 -0.12953,0 -0.20654,0.080514 -0.25555,0.1855331 -0.65112,1.3197356 -2.29641,1.8238257 -2.29641,3.0455437 z"
       id="text1-9-2-6-7-0-6"
       style="font-weight:300;font-size:7.16928px;line-height:0;font-family:'SF Pro Rounded';-inkscape-font-specification:'SF Pro Rounded Light';letter-spacing:0px;word-spacing:0px;text-orientation:upright;stroke-width:0.526494;stroke-linecap:round"
       inkscape:label="spade-top"
       transform="scale(1.0050875,0.99493825)"
       aria-label="♠" /><path
       d="m -329.58319,-54.685335 c 0,0.651117 0.49359,1.148205 1.15171,1.148205 0.37107,0 0.73863,-0.129523 0.89966,-0.444579 h 0.028 c -0.0105,0.367566 -0.39557,0.67212 -0.57761,0.857653 -0.19253,0.196035 -0.077,0.472585 0.17503,0.472585 h 1.75382 c 0.24854,0 0.36406,-0.27655 0.17503,-0.472585 -0.18553,-0.185533 -0.5706,-0.490087 -0.58111,-0.857653 h 0.028 c 0.16103,0.315056 0.53209,0.444579 0.90316,0.444579 0.65462,0 1.14821,-0.497088 1.14821,-1.148205 0,-1.221718 -1.6453,-1.725808 -2.29291,-3.045543 -0.0525,-0.105019 -0.12603,-0.185533 -0.25905,-0.185533 -0.12952,0 -0.20654,0.08051 -0.25555,0.185533 -0.65111,1.319735 -2.29641,1.823825 -2.29641,3.045543 z"
       id="text1-6-2-8-5-2-4-9"
       style="font-weight:300;font-size:7.16928px;line-height:0;font-family:'SF Pro Rounded';-inkscape-font-specification:'SF Pro Rounded Light';letter-spacing:0px;word-spacing:0px;text-orientation:upright;stroke-width:0.526494;stroke-linecap:round"
       inkscape:label="spade-bottom"
       transform="scale(-1.0050875,-0.99493826)"
       aria-label="♠" /></g></svg>
