<?xml version="1.0" encoding="UTF-8" standalone="no"?>
<!-- Created with Inkscape (http://www.inkscape.org/) -->

<svg
   width="179.99977"
   height="251.99976"
   viewBox="0 0 47.624938 66.674935"
   version="1.1"
   id="svg1"
   inkscape:version="1.4 (e7c3feb1, 2024-10-09)"
   sodipodi:docname="All Cards - Spades.svg"
   xml:space="preserve"
   inkscape:export-filename="All Cards - Spades.png"
   inkscape:export-xdpi="96"
   inkscape:export-ydpi="96"
   inkscape:export-batch-path="Spades"
   inkscape:export-batch-name=""
   xmlns:inkscape="http://www.inkscape.org/namespaces/inkscape"
   xmlns:sodipodi="http://sodipodi.sourceforge.net/DTD/sodipodi-0.dtd"
   xmlns="http://www.w3.org/2000/svg"
   xmlns:svg="http://www.w3.org/2000/svg"><sodipodi:namedview
     id="namedview1"
     pagecolor="#ffffff"
     bordercolor="#999999"
     borderopacity="1"
     inkscape:showpageshadow="2"
     inkscape:pageopacity="0"
     inkscape:pagecheckerboard="0"
     inkscape:deskcolor="#d1d1d1"
     inkscape:document-units="px"
     showgrid="true"
     inkscape:zoom="0.69476599"
     inkscape:cx="619.6331"
     inkscape:cy="265.55704"
     inkscape:window-width="1512"
     inkscape:window-height="836"
     inkscape:window-x="0"
     inkscape:window-y="38"
     inkscape:window-maximized="0"
     inkscape:current-layer="layer1"><inkscape:grid
       id="grid2"
       units="px"
       originx="-285.75"
       originy="-3.5768442e-09"
       spacingx="0.26458333"
       spacingy="0.26458333"
       empcolor="#0099e5"
       empopacity="0.30196078"
       color="#0099e5"
       opacity="0.14901961"
       empspacing="5"
       enabled="true"
       visible="true" /></sodipodi:namedview><defs
     id="defs1"><inkscape:path-effect
       effect="fillet_chamfer"
       id="path-effect3-5"
       is_visible="true"
       lpeversion="1"
       nodesatellites_param="F,0,0,1,0,3,0,1 @ F,0,0,1,0,3,0,1 @ F,0,0,1,0,3,0,1 @ F,0,0,1,0,3,0,1"
       radius="0"
       unit="px"
       method="auto"
       mode="F"
       chamfer_steps="1"
       flexible="false"
       use_knot_distance="true"
       apply_no_radius="true"
       apply_with_radius="true"
       only_selected="false"
       hide_knots="false" /></defs><g
     inkscape:groupmode="layer"
     id="layer7"
     inkscape:label="7"
     transform="matrix(0.99998908,0,0,1.0101899,-285.74792,-0.00209528)"
     inkscape:export-filename="Spades/7.svg"
     inkscape:export-xdpi="96"
     inkscape:export-ydpi="96"><path
       style="fill:#ffffff;fill-opacity:1;stroke:#000000;stroke-width:0.526494;stroke-linecap:round;stroke-linejoin:round;stroke-dasharray:none"
       id="rect1-28"
       width="47.098965"
       height="65.475883"
       x="0.26119247"
       y="0.26535115"
       inkscape:path-effect="#path-effect3-5"
       sodipodi:type="rect"
       d="M 3.2611925,0.26535115 H 44.360157 a 3,3 45 0 1 3,2.99999995 V 62.741235 a 3,3 135 0 1 -3,3 H 3.2611925 a 3,3 45 0 1 -3.00000003,-3 V 3.2653511 A 3,3 135 0 1 3.2611925,0.26535115 Z"
       transform="translate(285.75309,-2.9988694e-5)"
       inkscape:label="card" /><path
       style="font-weight:300;font-size:18.2518px;font-family:'SF Pro Rounded';-inkscape-font-specification:'SF Pro Rounded Light';letter-spacing:-7.10767px;word-spacing:0px;stroke:#000000;stroke-width:0.526494;stroke-linecap:round;stroke-linejoin:round"
       d="m 305.77773,39.676937 c 0.25845,0 0.41887,-0.106944 0.55255,-0.356481 l 5.65021,-11.131103 c 0.18715,-0.35648 0.26736,-0.543632 0.26736,-0.775345 0,-0.472336 -0.2941,-0.748609 -0.78426,-0.748609 h -7.13852 c -0.32974,0 -0.57928,0.213889 -0.57928,0.543633 0,0.338656 0.24954,0.543633 0.57928,0.543633 h 6.63945 v 0.03565 l -5.65021,10.988511 c -0.0802,0.151504 -0.10695,0.258448 -0.10695,0.392128 0,0.311921 0.23171,0.507985 0.57037,0.507985 z"
       id="text3-8-1-1-3-3-3"
       inkscape:label="center"
       transform="scale(1.0050875,0.99493825)"
       aria-label="7" /><path
       d="m 289.92967,6.8387618 c 0.0527,0 0.0868,-0.024554 0.11472,-0.079802 l 2.08052,-4.0883226 c 0.0341,-0.067524 0.0496,-0.1043566 0.0496,-0.1565349 0,-0.098218 -0.0651,-0.1534656 -0.16744,-0.1534656 h -2.58592 c -0.0682,0 -0.11782,0.04297 -0.11782,0.1104953 0,0.067525 0.0496,0.1104951 0.11782,0.1104951 h 2.4929 v 0.0092 l -2.08051,4.0606988 c -0.0186,0.033762 -0.0217,0.058317 -0.0217,0.082871 0,0.064455 0.0465,0.1043566 0.11783,0.1043566 z"
       id="text1-4-8-9-6-8-60"
       style="font-weight:200;font-size:6.31793px;font-family:'SF Pro Rounded';-inkscape-font-specification:'SF Pro Rounded, Ultra-Light';letter-spacing:-7.10767px;word-spacing:0px;stroke:#000000;stroke-width:0.526494;stroke-linecap:round;stroke-linejoin:round"
       inkscape:label="top"
       aria-label="7" /><path
       d="m 329.19799,59.167878 c -0.0527,0 -0.0868,0.02456 -0.11472,0.0798 l -2.08051,4.088323 c -0.0341,0.06753 -0.0497,0.104357 -0.0497,0.156535 0,0.09822 0.0651,0.153466 0.16743,0.153466 h 2.58592 c 0.0682,0 0.11782,-0.04297 0.11782,-0.110496 0,-0.06753 -0.0496,-0.110495 -0.11782,-0.110495 h -2.4929 v -0.0093 l 2.08052,-4.060698 c 0.0186,-0.03376 0.0217,-0.05831 0.0217,-0.08287 0,-0.06445 -0.0465,-0.104358 -0.11783,-0.104358 z"
       id="text1-4-8-9-6-8-60-3"
       style="font-weight:200;font-size:6.31793px;font-family:'SF Pro Rounded';-inkscape-font-specification:'SF Pro Rounded, Ultra-Light';letter-spacing:-7.10767px;word-spacing:0px;stroke:#000000;stroke-width:0.526494;stroke-linecap:round;stroke-linejoin:round"
       inkscape:label="bottom"
       aria-label="7" /><path
       d="m 288.17411,11.598059 c 0,0.64782 0.4961,1.142393 1.15757,1.142393 0.37295,0 0.74239,-0.128867 0.90424,-0.442329 h 0.0281 c -0.0105,0.365705 -0.39758,0.668718 -0.58054,0.853312 -0.19352,0.195043 -0.0774,0.470192 0.17592,0.470192 h 1.76274 c 0.24981,0 0.36592,-0.275149 0.17592,-0.470192 -0.18648,-0.184594 -0.57351,-0.487607 -0.58406,-0.853312 h 0.0281 c 0.16185,0.313462 0.53481,0.442329 0.90777,0.442329 0.65794,0 1.15404,-0.494573 1.15404,-1.142393 0,-1.215534 -1.65366,-1.7170726 -2.30458,-3.0301281 -0.0528,-0.1044872 -0.12666,-0.1845939 -0.26035,-0.1845939 -0.13019,0 -0.2076,0.080106 -0.25685,0.1845939 -0.65444,1.3130555 -2.3081,1.8145941 -2.3081,3.0301281 z"
       id="text1-9-2-6-7-0-6"
       style="font-weight:300;font-size:7.16928px;line-height:0;font-family:'SF Pro Rounded';-inkscape-font-specification:'SF Pro Rounded Light';letter-spacing:0px;word-spacing:0px;text-orientation:upright;stroke-width:0.526494;stroke-linecap:round"
       inkscape:label="spade-top"
       aria-label="♠" /><path
       d="m 330.95354,54.408532 c 0,-0.647821 -0.4961,-1.142393 -1.15757,-1.142393 -0.37296,0 -0.74239,0.128867 -0.90424,0.442329 h -0.0281 c 0.0106,-0.365706 0.39758,-0.668718 0.58055,-0.853312 0.19351,-0.195043 0.0774,-0.470193 -0.17592,-0.470193 h -1.76274 c -0.24981,0 -0.36592,0.27515 -0.17592,0.470193 0.18647,0.184594 0.5735,0.487606 0.58406,0.853312 h -0.0281 c -0.16185,-0.313462 -0.5348,-0.442329 -0.90776,-0.442329 -0.65795,0 -1.15405,0.494572 -1.15405,1.142393 0,1.215534 1.65367,1.717072 2.30458,3.030127 0.0528,0.104488 0.12667,0.184594 0.26037,0.184594 0.13017,0 0.20759,-0.0801 0.25685,-0.184594 0.65442,-1.313055 2.30809,-1.814593 2.30809,-3.030127 z"
       id="text1-6-2-8-5-2-4-9"
       style="font-weight:300;font-size:7.16928px;line-height:0;font-family:'SF Pro Rounded';-inkscape-font-specification:'SF Pro Rounded Light';letter-spacing:0px;word-spacing:0px;text-orientation:upright;stroke-width:0.526494;stroke-linecap:round"
       inkscape:label="spade-bottom"
       aria-label="♠" /></g></svg>
