<?xml version="1.0" encoding="UTF-8" standalone="no"?>
<!DOCTYPE svg PUBLIC "-//W3C//DTD SVG 1.1//EN" "http://www.w3.org/Graphics/SVG/1.1/DTD/svg11.dtd">
<!-- Created with Vectornator (http://vectornator.io/) -->
<svg height="100%" stroke-miterlimit="10" style="fill-rule:nonzero;clip-rule:evenodd;stroke-linecap:round;stroke-linejoin:round;" version="1.1" viewBox="0 0 180 252" width="100%" xml:space="preserve" xmlns="http://www.w3.org/2000/svg" xmlns:vectornator="http://vectornator.io" xmlns:xlink="http://www.w3.org/1999/xlink">
<defs>
<clipPath id="TextBounds">
<rect height="39" width="21.1875" x="8.20312" y="3"/>
</clipPath>
<clipPath id="TextBounds_2">
<rect height="39" width="21.1875" x="150.609" y="210"/>
</clipPath>
<clipPath id="TextBounds_3">
<rect height="77" width="39.375" x="70.3125" y="87.5"/>
</clipPath>
</defs>
<clipPath id="ArtboardFrame">
<rect height="252" width="180" x="0" y="0"/>
</clipPath>
<g clip-path="url(#ArtboardFrame)" id="Layer-1" vectornator:layerName="Layer 1">
<path d="M16-2.84217e-14L164-2.84217e-14C172.837-2.84217e-14 180 7.16344 180 16L180 236C180 244.837 172.837 252 164 252L16 252C7.16344 252 0 244.837 0 236L0 16C0 7.16344 7.16344-2.84217e-14 16-2.84217e-14Z" fill="#ffffff" fill-rule="nonzero" opacity="1" stroke="none"/>
<path clip-path="url(#TextBounds)" d="M21.5 31.7344C21.5 32.6406 21.9688 33.1562 22.7969 33.1562C23.6406 33.1562 24.1094 32.6406 24.1094 31.7344L24.1094 28.5625L25.7344 28.5625C26.625 28.5625 27.125 28.125 27.125 27.375C27.125 26.6094 26.6094 26.1719 25.7344 26.1719L24.1094 26.1719L24.1094 13.6875C24.1094 12.2344 23.3125 11.4219 21.8906 11.4219C20.8125 11.4219 20.0938 11.8906 19.1719 13.25C15.625 18.5625 14.2188 20.8125 11.9844 24.7656C11.4375 25.7656 11.25 26.3125 11.25 26.8906C11.25 27.9219 12.0625 28.5625 13.2812 28.5625L21.5 28.5625L21.5 31.7344ZM13.875 26.1719L13.875 26.0156C15.9219 22.4688 18.7031 18 21.3594 14.0781L21.5 14.0781L21.5 26.1719L13.875 26.1719Z" fill="#000000" opacity="1" stroke="none"/>
<path clip-path="url(#TextBounds_2)" d="M158.5 220.266C158.5 219.359 158.031 218.844 157.203 218.844C156.359 218.844 155.891 219.359 155.891 220.266L155.891 223.438L154.266 223.438C153.375 223.438 152.875 223.875 152.875 224.625C152.875 225.391 153.391 225.828 154.266 225.828L155.891 225.828L155.891 238.312C155.891 239.766 156.688 240.578 158.109 240.578C159.188 240.578 159.906 240.109 160.828 238.75C164.375 233.438 165.781 231.188 168.016 227.234C168.562 226.234 168.75 225.688 168.75 225.109C168.75 224.078 167.938 223.438 166.719 223.438L158.5 223.438L158.5 220.266ZM166.125 225.828L166.125 225.984C164.078 229.531 161.297 234 158.641 237.922L158.5 237.922L158.5 225.828L166.125 225.828Z" fill="#000000" opacity="1" stroke="none"/>
<path clip-path="url(#TextBounds_3)" d="M95.4062 145.969C95.4062 147.781 96.3438 148.812 98 148.812C99.6875 148.812 100.625 147.781 100.625 145.969L100.625 139.625L103.875 139.625C105.656 139.625 106.656 138.75 106.656 137.25C106.656 135.719 105.625 134.844 103.875 134.844L100.625 134.844L100.625 109.875C100.625 106.969 99.0312 105.344 96.1875 105.344C94.0312 105.344 92.5938 106.281 90.75 109C83.6562 119.625 80.8438 124.125 76.375 132.031C75.2812 134.031 74.9062 135.125 74.9062 136.281C74.9062 138.344 76.5312 139.625 78.9688 139.625L95.4062 139.625L95.4062 145.969ZM80.1562 134.844L80.1562 134.531C84.25 127.438 89.8125 118.5 95.125 110.656L95.4062 110.656L95.4062 134.844L80.1562 134.844Z" fill="#000000" opacity="1" stroke="none"/>
<path d="M15 1L165 1C172.732 1 179 7.28814 179 15.0449L179 236.955C179 244.712 172.732 251 165 251L15 251C7.26801 251 1 244.712 1 236.955L1 15.0449C1 7.28814 7.26801 1 15 1Z" fill="none" opacity="1" stroke="#000000" stroke-linecap="round" stroke-linejoin="round" stroke-width="2"/>
</g>
</svg>
