<?xml version="1.0" encoding="UTF-8" standalone="no"?>
<!-- Created with Inkscape (http://www.inkscape.org/) -->

<svg
   width="179.99976"
   height="251.99976"
   viewBox="0 0 47.624934 66.674935"
   version="1.1"
   id="svg1"
   inkscape:version="1.4 (e7c3feb1, 2024-10-09)"
   sodipodi:docname="All Cards - Clubs.svg"
   xml:space="preserve"
   inkscape:export-filename="All Cards - Clubs.png"
   inkscape:export-xdpi="96"
   inkscape:export-ydpi="96"
   xmlns:inkscape="http://www.inkscape.org/namespaces/inkscape"
   xmlns:sodipodi="http://sodipodi.sourceforge.net/DTD/sodipodi-0.dtd"
   xmlns="http://www.w3.org/2000/svg"
   xmlns:svg="http://www.w3.org/2000/svg"><sodipodi:namedview
     id="namedview1"
     pagecolor="#ffffff"
     bordercolor="#999999"
     borderopacity="1"
     inkscape:showpageshadow="2"
     inkscape:pageopacity="0"
     inkscape:pagecheckerboard="0"
     inkscape:deskcolor="#d1d1d1"
     inkscape:document-units="px"
     showgrid="true"
     inkscape:zoom="0.6064148"
     inkscape:cx="370.20864"
     inkscape:cy="230.04056"
     inkscape:window-width="1512"
     inkscape:window-height="836"
     inkscape:window-x="0"
     inkscape:window-y="38"
     inkscape:window-maximized="0"
     inkscape:current-layer="layer14"><inkscape:grid
       id="grid2"
       units="px"
       originx="-47.625"
       originy="-3.4711749e-13"
       spacingx="0.26458333"
       spacingy="0.26458333"
       empcolor="#0099e5"
       empopacity="0.30196078"
       color="#0099e5"
       opacity="0.14901961"
       empspacing="5"
       enabled="true"
       visible="true" /><inkscape:page
       x="0"
       y="0"
       width="47.624935"
       height="66.674934"
       id="page2"
       margin="0"
       bleed="0" /></sodipodi:namedview><defs
     id="defs1"><inkscape:path-effect
       effect="fillet_chamfer"
       id="path-effect3-4"
       is_visible="true"
       lpeversion="1"
       nodesatellites_param="F,0,0,1,0,3,0,1 @ F,0,0,1,0,3,0,1 @ F,0,0,1,0,3,0,1 @ F,0,0,1,0,3,0,1"
       radius="0"
       unit="px"
       method="auto"
       mode="F"
       chamfer_steps="1"
       flexible="false"
       use_knot_distance="true"
       apply_no_radius="true"
       apply_with_radius="true"
       only_selected="false"
       hide_knots="false" /></defs><g
     inkscape:groupmode="layer"
     id="layer2"
     inkscape:label="2"
     transform="matrix(0.99998908,0,0,1.0101899,-47.622916,-0.00209528)"
     inkscape:export-filename="Clubs/Clubs/2.svg"
     inkscape:export-xdpi="96"
     inkscape:export-ydpi="96"><path
       style="fill:#ffffff;fill-opacity:1;stroke:#000000;stroke-width:0.526494;stroke-linecap:round;stroke-linejoin:round;stroke-dasharray:none"
       id="rect1-1"
       width="47.098965"
       height="65.475883"
       x="0.26119247"
       y="0.26535115"
       inkscape:path-effect="#path-effect3-4"
       sodipodi:type="rect"
       d="M 3.2611925,0.26535115 H 44.360157 a 3,3 45 0 1 3,2.99999995 V 62.741235 a 3,3 135 0 1 -3,3 H 3.2611925 a 3,3 45 0 1 -3.00000003,-3 V 3.2653511 A 3,3 135 0 1 3.2611925,0.26535115 Z"
       transform="translate(47.625489,-2.9988694e-5)"
       inkscape:label="card" /><path
       style="font-weight:300;font-size:18.2518px;font-family:'SF Pro Rounded';-inkscape-font-specification:'SF Pro Rounded Light';letter-spacing:-7.10767px;word-spacing:0px;stroke:#000000;stroke-width:0.526494;stroke-linecap:round;stroke-linejoin:round"
       d="m 67.425106,39.703671 h 7.334585 c 0.338657,0 0.570369,-0.213889 0.570369,-0.543633 0,-0.329745 -0.231712,-0.543633 -0.570369,-0.543633 h -6.211672 v -0.03565 L 72.095,34.882272 c 2.165619,-2.245827 2.816196,-3.306356 2.816196,-4.687718 0,-2.058675 -1.657635,-3.555893 -3.93911,-3.555893 -2.424067,0 -3.876725,1.577426 -4.081701,3.065732 -0.01782,0.124768 -0.02674,0.213888 -0.02674,0.320832 0,0.320833 0.204976,0.552545 0.561457,0.552545 0.338656,0 0.481248,-0.17824 0.552544,-0.4456 0.338657,-1.434834 1.381362,-2.424068 3.01226,-2.424068 1.55069,0 2.709252,1.096178 2.709252,2.548836 0,1.131825 -0.481249,1.90717 -2.308211,3.832165 l -4.224294,4.42927 c -0.285184,0.303008 -0.347568,0.418864 -0.347568,0.668401 0,0.320832 0.240624,0.516897 0.606017,0.516897 z"
       id="text3-8"
       inkscape:label="center"
       transform="scale(1.0050875,0.99493825)"
       aria-label="2" /><path
       d="m 49.90893,6.8938098 h 2.649952 c 0.07095,0 0.117227,-0.043189 0.117227,-0.1110574 0,-0.067868 -0.04627,-0.1110573 -0.117227,-0.1110573 h -2.424753 v -0.01234 l 1.378963,-1.4560855 c 0.737297,-0.7743167 0.965582,-1.138338 0.965582,-1.6072469 0,-0.7002784 -0.570712,-1.2185461 -1.341943,-1.2185461 -0.749638,0 -1.26482,0.4843335 -1.345029,1.0766394 -0.0062,0.046274 -0.0093,0.077123 -0.0093,0.1110574 0,0.067868 0.0401,0.1172272 0.114142,0.1172272 0.07095,0 0.101803,-0.037019 0.114142,-0.098718 0.07404,-0.5244376 0.465824,-0.9871766 1.135253,-0.9871766 0.616986,0 1.08898,0.4380596 1.08898,1.0087711 0,0.4164651 -0.197436,0.7187879 -0.87612,1.4406608 L 49.847185,6.64393 c -0.05553,0.058614 -0.07095,0.086378 -0.07095,0.1388217 0,0.070953 0.05553,0.1110574 0.132652,0.1110574 z"
       id="text1-4"
       style="font-weight:200;font-size:6.31793px;font-family:'SF Pro Rounded';-inkscape-font-specification:'SF Pro Rounded, Ultra-Light';letter-spacing:-7.10767px;word-spacing:0px;stroke:#000000;stroke-width:0.526494;stroke-linecap:round;stroke-linejoin:round"
       inkscape:label="top"
       transform="scale(1.0050875,0.99493825)"
       aria-label="2" /><path
       d="m -92.240381,-59.448509 h 2.649952 c 0.07095,0 0.117227,-0.04319 0.117227,-0.111058 0,-0.06787 -0.04627,-0.111057 -0.117227,-0.111057 h -2.424753 v -0.01234 l 1.378963,-1.456085 c 0.737297,-0.774317 0.965582,-1.138338 0.965582,-1.607247 0,-0.700278 -0.570712,-1.218546 -1.341943,-1.218546 -0.749638,0 -1.26482,0.484333 -1.345029,1.076639 -0.0062,0.04627 -0.0093,0.07712 -0.0093,0.111058 0,0.06787 0.0401,0.117227 0.114142,0.117227 0.07095,0 0.101803,-0.03702 0.114142,-0.09872 0.07404,-0.524437 0.465824,-0.987176 1.135253,-0.987176 0.616986,0 1.088979,0.438059 1.088979,1.008771 0,0.416465 -0.197435,0.718788 -0.876119,1.440661 l -1.511614,1.597992 c -0.05553,0.05861 -0.07095,0.08638 -0.07095,0.138821 0,0.07095 0.05553,0.111058 0.132652,0.111058 z"
       id="text1-4-2"
       style="font-weight:200;font-size:6.31793px;font-family:'SF Pro Rounded';-inkscape-font-specification:'SF Pro Rounded, Ultra-Light';letter-spacing:-7.10767px;word-spacing:0px;stroke:#000000;stroke-width:0.526494;stroke-linecap:round;stroke-linejoin:round"
       inkscape:label="bottom"
       transform="scale(-1.0050875,-0.99493825)"
       aria-label="2" /><path
       d="m 49.488354,11.584951 c 0,0.676662 0.521066,1.190491 1.197729,1.190491 0.383562,0 0.767125,-0.133885 0.933577,-0.459551 h 0.02895 c -0.01447,0.379944 -0.412511,0.694755 -0.600674,0.886536 -0.1954,0.202637 -0.07599,0.4885 0.180926,0.4885 h 1.812876 c 0.260534,0 0.379945,-0.285863 0.180926,-0.4885 -0.188163,-0.191781 -0.586199,-0.506592 -0.597055,-0.886536 h 0.02895 c 0.166452,0.325666 0.546396,0.459551 0.929959,0.459551 0.680281,0 1.197728,-0.513829 1.197728,-1.190491 0,-0.673044 -0.513829,-1.237533 -1.183254,-1.237533 -0.253296,0 -0.517448,0.08323 -0.727322,0.249678 0.358233,-0.2931 0.474026,-0.6513328 0.474026,-0.9625251 0,-0.6694254 -0.542778,-1.2085842 -1.208584,-1.2085842 -0.665807,0 -1.208585,0.5391588 -1.208585,1.2085842 0,0.3111923 0.115793,0.6694251 0.470407,0.9625251 -0.206255,-0.166452 -0.474025,-0.249678 -0.727321,-0.249678 -0.669426,0 -1.183255,0.564489 -1.183255,1.237533 z"
       id="text3-7"
       style="font-weight:300;font-size:7.41072px;line-height:0;font-family:'SF Pro Rounded';-inkscape-font-specification:'SF Pro Rounded Light';letter-spacing:0px;word-spacing:0px;text-orientation:upright;stroke-width:0.526494;stroke-linecap:round"
       inkscape:label="club-top"
       transform="scale(1.0050875,0.99493825)"
       aria-label="♣" /><path
       d="m -92.660843,-54.757448 c 0,0.676663 0.521067,1.190492 1.197729,1.190492 0.383563,0 0.767125,-0.133885 0.933577,-0.459552 h 0.02895 c -0.01447,0.379944 -0.41251,0.694755 -0.600673,0.886537 -0.1954,0.202636 -0.07599,0.488499 0.180925,0.488499 h 1.812877 c 0.260533,0 0.379944,-0.285863 0.180926,-0.488499 -0.188163,-0.191782 -0.5862,-0.506593 -0.597056,-0.886537 h 0.02895 c 0.166451,0.325667 0.546395,0.459552 0.929958,0.459552 0.680281,0 1.197729,-0.513829 1.197729,-1.190492 0,-0.673044 -0.513829,-1.237532 -1.183255,-1.237532 -0.253296,0 -0.517448,0.08323 -0.727321,0.249677 0.358233,-0.293099 0.474025,-0.651332 0.474025,-0.962525 0,-0.669425 -0.542777,-1.208584 -1.208584,-1.208584 -0.665807,0 -1.208584,0.539159 -1.208584,1.208584 0,0.311193 0.115792,0.669426 0.470407,0.962525 -0.206256,-0.166451 -0.474026,-0.249677 -0.727322,-0.249677 -0.669425,0 -1.183255,0.564488 -1.183255,1.237532 z"
       id="text3-6-6"
       style="font-weight:300;font-size:7.41072px;line-height:0;font-family:'SF Pro Rounded';-inkscape-font-specification:'SF Pro Rounded Light';letter-spacing:0px;word-spacing:0px;text-orientation:upright;stroke-width:0.526494;stroke-linecap:round"
       inkscape:label="club-bottom"
       transform="scale(-1.0050875,-0.99493825)"
       aria-label="♣" /></g></svg>
