<?xml version="1.0" encoding="UTF-8" standalone="no"?>
<!-- Created with Inkscape (http://www.inkscape.org/) -->

<svg
   width="179.99977"
   height="251.99976"
   viewBox="0 0 47.624938 66.674935"
   version="1.1"
   id="svg1"
   inkscape:version="1.4 (e7c3feb1, 2024-10-09)"
   sodipodi:docname="All Cards - Clubs.svg"
   xml:space="preserve"
   inkscape:export-filename="All Cards - Clubs.png"
   inkscape:export-xdpi="96"
   inkscape:export-ydpi="96"
   inkscape:export-batch-path="Clubs"
   inkscape:export-batch-name=""
   xmlns:inkscape="http://www.inkscape.org/namespaces/inkscape"
   xmlns:sodipodi="http://sodipodi.sourceforge.net/DTD/sodipodi-0.dtd"
   xmlns="http://www.w3.org/2000/svg"
   xmlns:svg="http://www.w3.org/2000/svg"><sodipodi:namedview
     id="namedview1"
     pagecolor="#ffffff"
     bordercolor="#999999"
     borderopacity="1"
     inkscape:showpageshadow="2"
     inkscape:pageopacity="0"
     inkscape:pagecheckerboard="0"
     inkscape:deskcolor="#d1d1d1"
     inkscape:document-units="px"
     showgrid="true"
     inkscape:zoom="0.62203345"
     inkscape:cx="632.60264"
     inkscape:cy="315.89941"
     inkscape:window-width="1512"
     inkscape:window-height="836"
     inkscape:window-x="0"
     inkscape:window-y="38"
     inkscape:window-maximized="0"
     inkscape:current-layer="layer14"><inkscape:grid
       id="grid2"
       units="px"
       originx="-47.624998"
       originy="-3.5768442e-09"
       spacingx="0.26458333"
       spacingy="0.26458333"
       empcolor="#0099e5"
       empopacity="0.30196078"
       color="#0099e5"
       opacity="0.14901961"
       empspacing="5"
       enabled="true"
       visible="true" /></sodipodi:namedview><defs
     id="defs1"><inkscape:path-effect
       effect="fillet_chamfer"
       id="path-effect3-4"
       is_visible="true"
       lpeversion="1"
       nodesatellites_param="F,0,0,1,0,3,0,1 @ F,0,0,1,0,3,0,1 @ F,0,0,1,0,3,0,1 @ F,0,0,1,0,3,0,1"
       radius="0"
       unit="px"
       method="auto"
       mode="F"
       chamfer_steps="1"
       flexible="false"
       use_knot_distance="true"
       apply_no_radius="true"
       apply_with_radius="true"
       only_selected="false"
       hide_knots="false" /></defs><g
     inkscape:groupmode="layer"
     id="layer2"
     inkscape:label="2"
     transform="matrix(0.99998908,0,0,1.0101899,-47.622914,-0.00209528)"
     inkscape:export-filename="Clubs/Clubs/2.svg"
     inkscape:export-xdpi="96"
     inkscape:export-ydpi="96"><path
       style="fill:#ffffff;fill-opacity:1;stroke:#000000;stroke-width:0.526494;stroke-linecap:round;stroke-linejoin:round;stroke-dasharray:none"
       id="rect1-1"
       width="47.098965"
       height="65.475883"
       x="0.26119247"
       y="0.26535115"
       inkscape:path-effect="#path-effect3-4"
       sodipodi:type="rect"
       d="M 3.2611925,0.26535115 H 44.360157 a 3,3 45 0 1 3,2.99999995 V 62.741235 a 3,3 135 0 1 -3,3 H 3.2611925 a 3,3 45 0 1 -3.00000003,-3 V 3.2653511 A 3,3 135 0 1 3.2611925,0.26535115 Z"
       transform="translate(47.625489,-2.9988694e-5)"
       inkscape:label="card" /><path
       style="font-weight:300;font-size:18.2518px;font-family:'SF Pro Rounded';-inkscape-font-specification:'SF Pro Rounded Light';letter-spacing:-7.10767px;word-spacing:0px;stroke:#000000;stroke-width:0.526494;stroke-linecap:round;stroke-linejoin:round"
       d="m 67.425106,39.703671 h 7.334585 c 0.338657,0 0.570369,-0.213889 0.570369,-0.543633 0,-0.329745 -0.231712,-0.543633 -0.570369,-0.543633 h -6.211672 v -0.03565 L 72.095,34.882272 c 2.165619,-2.245827 2.816196,-3.306356 2.816196,-4.687718 0,-2.058675 -1.657635,-3.555893 -3.93911,-3.555893 -2.424067,0 -3.876725,1.577426 -4.081701,3.065732 -0.01782,0.124768 -0.02674,0.213888 -0.02674,0.320832 0,0.320833 0.204976,0.552545 0.561457,0.552545 0.338656,0 0.481248,-0.17824 0.552544,-0.4456 0.338657,-1.434834 1.381362,-2.424068 3.01226,-2.424068 1.55069,0 2.709252,1.096178 2.709252,2.548836 0,1.131825 -0.481249,1.90717 -2.308211,3.832165 l -4.224294,4.42927 c -0.285184,0.303008 -0.347568,0.418864 -0.347568,0.668401 0,0.320832 0.240624,0.516897 0.606017,0.516897 z"
       id="text3-8"
       inkscape:label="center"
       transform="scale(1.0050875,0.99493825)"
       aria-label="2" /><path
       d="m 51.287472,6.8541094 h 2.663433 c 0.07131,0 0.117824,-0.04297 0.117824,-0.1104953 0,-0.067524 -0.04651,-0.1104952 -0.117824,-0.1104952 h -2.437089 v -0.012278 l 1.385979,-1.4487151 c 0.741048,-0.7703974 0.970494,-1.1325761 0.970494,-1.5991115 0,-0.6967337 -0.573615,-1.2123781 -1.34877,-1.2123781 -0.753452,0 -1.271255,0.4818819 -1.351872,1.0711897 -0.0062,0.04604 -0.0093,0.076733 -0.0093,0.1104953 0,0.067525 0.0403,0.1166338 0.114723,0.1166338 0.07131,0 0.10232,-0.036832 0.114722,-0.098218 0.07442,-0.521783 0.468194,-0.9821798 1.141029,-0.9821798 0.620125,0 1.09452,0.4358423 1.09452,1.003665 0,0.414357 -0.19844,0.7151496 -0.880577,1.4333685 l -1.519305,1.5899035 c -0.05581,0.058317 -0.07131,0.085941 -0.07131,0.138119 0,0.070594 0.05581,0.1104953 0.133327,0.1104953 z"
       id="text1-4"
       style="font-weight:200;font-size:6.31793px;font-family:'SF Pro Rounded';-inkscape-font-specification:'SF Pro Rounded, Ultra-Light';letter-spacing:-7.10767px;word-spacing:0px;stroke:#000000;stroke-width:0.526494;stroke-linecap:round;stroke-linejoin:round"
       inkscape:label="top"
       aria-label="2" /><path
       d="m 91.584913,59.152594 h -2.663434 c -0.07131,0 -0.117823,0.04297 -0.117823,0.110495 0,0.06753 0.0465,0.110495 0.117823,0.110495 h 2.437089 v 0.01228 l -1.385978,1.448714 c -0.741048,0.770398 -0.970495,1.132576 -0.970495,1.599112 0,0.696733 0.573616,1.212378 1.348771,1.212378 0.753451,0 1.271254,-0.481881 1.351871,-1.071189 0.0062,-0.04604 0.0093,-0.07673 0.0093,-0.110496 0,-0.06753 -0.0403,-0.116634 -0.114723,-0.116634 -0.07131,0 -0.102321,0.03683 -0.114723,0.09822 -0.07442,0.521783 -0.468194,0.98218 -1.141028,0.98218 -0.620125,0 -1.094519,-0.435842 -1.094519,-1.003665 0,-0.414357 0.198439,-0.71515 0.880576,-1.433369 l 1.519304,-1.589903 c 0.05581,-0.05831 0.07131,-0.08594 0.07131,-0.138119 0,-0.07059 -0.05581,-0.110496 -0.133327,-0.110496 z"
       id="text1-4-2"
       style="font-weight:200;font-size:6.31793px;font-family:'SF Pro Rounded';-inkscape-font-specification:'SF Pro Rounded, Ultra-Light';letter-spacing:-7.10767px;word-spacing:0px;stroke:#000000;stroke-width:0.526494;stroke-linecap:round;stroke-linejoin:round"
       inkscape:label="bottom"
       aria-label="2" /><path
       d="m 49.951,11.526311 c 0,0.673237 0.523717,1.184465 1.203822,1.184465 0.385514,0 0.771028,-0.133207 0.938327,-0.457225 h 0.0291 c -0.01454,0.378021 -0.41461,0.691238 -0.60373,0.882049 -0.196394,0.201611 -0.07638,0.486027 0.181847,0.486027 h 1.822099 c 0.261859,0 0.381878,-0.284416 0.181846,-0.486027 -0.18912,-0.190811 -0.589181,-0.504028 -0.600092,-0.882049 h 0.0291 c 0.167299,0.324018 0.549176,0.457225 0.93469,0.457225 0.683742,0 1.203821,-0.511228 1.203821,-1.184465 0,-0.669637 -0.516443,-1.231269 -1.189273,-1.231269 -0.254585,0 -0.520081,0.08281 -0.731023,0.248414 0.360056,-0.291616 0.476438,-0.6480358 0.476438,-0.9576529 0,-0.6660369 -0.545539,-1.2024666 -1.214733,-1.2024666 -0.669194,0 -1.214733,0.5364297 -1.214733,1.2024666 0,0.3096171 0.116382,0.6660369 0.4728,0.9576529 -0.207304,-0.165609 -0.476437,-0.248414 -0.731021,-0.248414 -0.672832,0 -1.189275,0.561632 -1.189275,1.231269 z"
       id="text3-7"
       style="font-weight:300;font-size:7.41072px;line-height:0;font-family:'SF Pro Rounded';-inkscape-font-specification:'SF Pro Rounded Light';letter-spacing:0px;word-spacing:0px;text-orientation:upright;stroke-width:0.526494;stroke-linecap:round"
       inkscape:label="club-top"
       aria-label="♣" /><path
       d="m 92.921385,54.480279 c 0,-0.673237 -0.523718,-1.184466 -1.203822,-1.184466 -0.385515,0 -0.771028,0.133208 -0.938327,0.457226 h -0.0291 c 0.01454,-0.37802 0.414608,-0.691238 0.603729,-0.882049 0.196394,-0.201611 0.07638,-0.486027 -0.181846,-0.486027 h -1.8221 c -0.261858,0 -0.381877,0.284416 -0.181846,0.486027 0.18912,0.190811 0.589182,0.504029 0.600093,0.882049 h -0.0291 c -0.167298,-0.324018 -0.549175,-0.457226 -0.934689,-0.457226 -0.683742,0 -1.203823,0.511229 -1.203823,1.184466 0,0.669638 0.516443,1.231268 1.189275,1.231268 0.254585,0 0.520081,-0.08281 0.731021,-0.248413 -0.360055,0.291616 -0.476436,0.648035 -0.476436,0.957653 0,0.666037 0.545538,1.202467 1.214732,1.202467 0.669195,0 1.214733,-0.53643 1.214733,-1.202467 0,-0.309618 -0.116381,-0.666037 -0.4728,-0.957653 0.207305,0.165609 0.476438,0.248413 0.731022,0.248413 0.672831,0 1.189275,-0.56163 1.189275,-1.231268 z"
       id="text3-6-6"
       style="font-weight:300;font-size:7.41072px;line-height:0;font-family:'SF Pro Rounded';-inkscape-font-specification:'SF Pro Rounded Light';letter-spacing:0px;word-spacing:0px;text-orientation:upright;stroke-width:0.526494;stroke-linecap:round"
       inkscape:label="club-bottom"
       aria-label="♣" /></g></svg>
