<?xml version="1.0" encoding="UTF-8" standalone="no"?>
<!-- Created with Inkscape (http://www.inkscape.org/) -->

<svg
   width="179.99977"
   height="251.99976"
   viewBox="0 0 47.624938 66.674935"
   version="1.1"
   id="svg1"
   inkscape:version="1.4 (e7c3feb1, 2024-10-09)"
   sodipodi:docname="All Cards - Hearts.svg"
   xml:space="preserve"
   inkscape:export-filename="All Cards - Hearts.png"
   inkscape:export-xdpi="96"
   inkscape:export-ydpi="96"
   inkscape:export-batch-path="Hearts"
   inkscape:export-batch-name=""
   xmlns:inkscape="http://www.inkscape.org/namespaces/inkscape"
   xmlns:sodipodi="http://sodipodi.sourceforge.net/DTD/sodipodi-0.dtd"
   xmlns="http://www.w3.org/2000/svg"
   xmlns:svg="http://www.w3.org/2000/svg"><sodipodi:namedview
     id="namedview1"
     pagecolor="#ffffff"
     bordercolor="#999999"
     borderopacity="1"
     inkscape:showpageshadow="2"
     inkscape:pageopacity="0"
     inkscape:pagecheckerboard="0"
     inkscape:deskcolor="#d1d1d1"
     inkscape:document-units="px"
     showgrid="true"
     inkscape:zoom="0.64076144"
     inkscape:cx="641.42437"
     inkscape:cy="267.65031"
     inkscape:window-width="1512"
     inkscape:window-height="836"
     inkscape:window-x="0"
     inkscape:window-y="38"
     inkscape:window-maximized="0"
     inkscape:current-layer="layer14"><inkscape:grid
       id="grid2"
       units="px"
       originx="-47.624998"
       originy="-3.5768442e-09"
       spacingx="0.26458333"
       spacingy="0.26458333"
       empcolor="#0099e5"
       empopacity="0.30196078"
       color="#0099e5"
       opacity="0.14901961"
       empspacing="5"
       enabled="true"
       visible="true" /></sodipodi:namedview><defs
     id="defs1"><inkscape:path-effect
       effect="fillet_chamfer"
       id="path-effect3-4"
       is_visible="true"
       lpeversion="1"
       nodesatellites_param="F,0,0,1,0,3,0,1 @ F,0,0,1,0,3,0,1 @ F,0,0,1,0,3,0,1 @ F,0,0,1,0,3,0,1"
       radius="0"
       unit="px"
       method="auto"
       mode="F"
       chamfer_steps="1"
       flexible="false"
       use_knot_distance="true"
       apply_no_radius="true"
       apply_with_radius="true"
       only_selected="false"
       hide_knots="false" /></defs><g
     inkscape:groupmode="layer"
     id="layer2"
     inkscape:label="2"
     transform="matrix(0.99998908,0,0,1.0101899,-47.622914,-0.00209528)"
     inkscape:export-filename="Hearts/2.svg"
     inkscape:export-xdpi="96"
     inkscape:export-ydpi="96"><path
       style="fill:#ffffff;fill-opacity:1;stroke:#000000;stroke-width:0.526494;stroke-linecap:round;stroke-linejoin:round;stroke-dasharray:none;stroke-opacity:1"
       id="rect1-1"
       width="47.098965"
       height="65.475883"
       x="0.26119247"
       y="0.26535115"
       inkscape:path-effect="#path-effect3-4"
       sodipodi:type="rect"
       d="M 3.2611925,0.26535115 H 44.360157 a 3,3 45 0 1 3,2.99999995 V 62.741235 a 3,3 135 0 1 -3,3 H 3.2611925 a 3,3 45 0 1 -3.00000003,-3 V 3.2653511 A 3,3 135 0 1 3.2611925,0.26535115 Z"
       transform="translate(47.625489,-2.9988694e-5)"
       inkscape:label="card" /><path
       style="font-weight:300;font-size:18.2518px;font-family:'SF Pro Rounded';-inkscape-font-specification:'SF Pro Rounded Light';letter-spacing:-7.10767px;word-spacing:0px;fill:#ff0000;stroke:#ff0000;stroke-width:0.526494;stroke-linecap:round;stroke-linejoin:round"
       d="m 67.425106,39.703671 h 7.334585 c 0.338657,0 0.570369,-0.213889 0.570369,-0.543633 0,-0.329745 -0.231712,-0.543633 -0.570369,-0.543633 h -6.211672 v -0.03565 L 72.095,34.882272 c 2.165619,-2.245827 2.816196,-3.306356 2.816196,-4.687718 0,-2.058675 -1.657635,-3.555893 -3.93911,-3.555893 -2.424067,0 -3.876725,1.577426 -4.081701,3.065732 -0.01782,0.124768 -0.02674,0.213888 -0.02674,0.320832 0,0.320833 0.204976,0.552545 0.561457,0.552545 0.338656,0 0.481248,-0.17824 0.552544,-0.4456 0.338657,-1.434834 1.381362,-2.424068 3.01226,-2.424068 1.55069,0 2.709252,1.096178 2.709252,2.548836 0,1.131825 -0.481249,1.90717 -2.308211,3.832165 l -4.224294,4.42927 c -0.285184,0.303008 -0.347568,0.418864 -0.347568,0.668401 0,0.320832 0.240624,0.516897 0.606017,0.516897 z"
       id="text3-8"
       inkscape:label="center"
       transform="scale(1.0050875,0.99493825)"
       aria-label="2" /><path
       d="m 49.90893,6.8938098 h 2.649951 c 0.07095,0 0.117228,-0.043189 0.117228,-0.1110574 0,-0.067868 -0.04627,-0.1110573 -0.117228,-0.1110573 h -2.424752 v -0.01234 l 1.378962,-1.4560853 c 0.737298,-0.7743165 0.965582,-1.1383378 0.965582,-1.6072466 0,-0.7002783 -0.570711,-1.218546 -1.341943,-1.218546 -0.749637,0 -1.264819,0.4843335 -1.345028,1.0766394 -0.0062,0.046274 -0.0093,0.077123 -0.0093,0.1110573 0,0.067868 0.0401,0.1172272 0.114142,0.1172272 0.07095,0 0.101802,-0.037019 0.114142,-0.098718 0.07404,-0.5244375 0.465824,-0.9871765 1.135253,-0.9871765 0.616985,0 1.088979,0.4380596 1.088979,1.008771 0,0.416465 -0.197435,0.7187878 -0.876119,1.4406606 l -1.511614,1.5979919 c -0.05553,0.058614 -0.07095,0.086378 -0.07095,0.1388216 0,0.070953 0.05553,0.1110574 0.132652,0.1110574 z"
       id="text1-4"
       style="font-weight:200;font-size:6.31793px;font-family:'SF Pro Rounded';-inkscape-font-specification:'SF Pro Rounded, Ultra-Light';letter-spacing:-7.10767px;word-spacing:0px;fill:#ff0000;stroke:#ff0000;stroke-width:0.526494;stroke-linecap:round;stroke-linejoin:round"
       inkscape:label="top"
       transform="scale(1.0050875,0.99493825)"
       aria-label="2" /><path
       d="m -92.240381,-59.448509 h 2.649951 c 0.07095,0 0.117228,-0.04319 0.117228,-0.111058 0,-0.06787 -0.04627,-0.111057 -0.117228,-0.111057 h -2.424752 v -0.01234 l 1.378962,-1.456085 c 0.737298,-0.774316 0.965582,-1.138338 0.965582,-1.607247 0,-0.700278 -0.570711,-1.218545 -1.341943,-1.218545 -0.749637,0 -1.26482,0.484333 -1.345028,1.076639 -0.0062,0.04627 -0.0093,0.07712 -0.0093,0.111057 0,0.06787 0.0401,0.117227 0.114142,0.117227 0.07095,0 0.101802,-0.03702 0.114142,-0.09872 0.07404,-0.524438 0.465824,-0.987177 1.135253,-0.987177 0.616985,0 1.088979,0.43806 1.088979,1.008771 0,0.416465 -0.197435,0.718788 -0.876119,1.440661 l -1.511614,1.597992 c -0.05553,0.05861 -0.07095,0.08638 -0.07095,0.138821 0,0.07095 0.05553,0.111058 0.132652,0.111058 z"
       id="text1-4-2"
       style="font-weight:200;font-size:6.31793px;font-family:'SF Pro Rounded';-inkscape-font-specification:'SF Pro Rounded, Ultra-Light';letter-spacing:-7.10767px;word-spacing:0px;fill:#ff0000;stroke:#ff0000;stroke-width:0.526494;stroke-linecap:round;stroke-linejoin:round"
       inkscape:label="bottom"
       transform="scale(-1.0050875,-0.99493825)"
       aria-label="2" /><path
       d="m 52.346993,13.690928 c 0.05562,0 0.133477,-0.03337 0.1928,-0.07045 1.61656,-1.038157 2.662132,-2.243161 2.662132,-3.466704 0,-1.0084958 -0.69334,-1.7277906 -1.59802,-1.7277906 -0.556156,0 -1.001081,0.3114472 -1.256912,0.7897412 -0.255832,-0.4745863 -0.704464,-0.7897412 -1.26062,-0.7897412 -0.90468,0 -1.598021,0.7192948 -1.598021,1.7277906 0,1.223543 1.045573,2.428547 2.662132,3.466704 0.05932,0.03708 0.137185,0.07045 0.196509,0.07045 z"
       id="text5-74"
       style="font-weight:300;font-size:7.59338px;line-height:0;font-family:'SF Pro Rounded';-inkscape-font-specification:'SF Pro Rounded Light';letter-spacing:0px;word-spacing:0px;text-orientation:upright;fill:#ff0000;stroke-width:0.526494;stroke-linecap:round"
       inkscape:label="heart-top"
       transform="scale(1.0050875,0.99493825)"
       aria-label="♥" /><path
       d="m -89.802277,-52.651472 c 0.05562,0 0.133478,-0.03337 0.192801,-0.07045 1.616559,-1.038158 2.662132,-2.243162 2.662132,-3.466705 0,-1.008495 -0.693341,-1.72779 -1.598021,-1.72779 -0.556155,0 -1.00108,0.311447 -1.256912,0.789741 -0.255831,-0.474586 -0.704464,-0.789741 -1.260619,-0.789741 -0.90468,0 -1.598021,0.719295 -1.598021,1.72779 0,1.223543 1.045573,2.428547 2.662132,3.466705 0.05932,0.03708 0.137185,0.07045 0.196508,0.07045 z"
       id="text5-7-4"
       style="font-weight:300;font-size:7.59338px;line-height:0;font-family:'SF Pro Rounded';-inkscape-font-specification:'SF Pro Rounded Light';letter-spacing:0px;word-spacing:0px;text-orientation:upright;fill:#ff0000;stroke-width:0.526494;stroke-linecap:round"
       inkscape:label="heart-bottom"
       transform="scale(-1.0050875,-0.99493825)"
       aria-label="♥" /></g></svg>
