<?xml version="1.0" encoding="UTF-8" standalone="no"?>
<!-- Created with Inkscape (http://www.inkscape.org/) -->

<svg
   width="179.99977"
   height="251.99976"
   viewBox="0 0 47.624938 66.674935"
   version="1.1"
   id="svg1"
   inkscape:version="1.4 (e7c3feb1, 2024-10-09)"
   sodipodi:docname="All Cards - Hearts.svg"
   xml:space="preserve"
   inkscape:export-filename="All Cards - Hearts.png"
   inkscape:export-xdpi="96"
   inkscape:export-ydpi="96"
   inkscape:export-batch-path="Hearts"
   inkscape:export-batch-name=""
   xmlns:inkscape="http://www.inkscape.org/namespaces/inkscape"
   xmlns:sodipodi="http://sodipodi.sourceforge.net/DTD/sodipodi-0.dtd"
   xmlns="http://www.w3.org/2000/svg"
   xmlns:svg="http://www.w3.org/2000/svg"><sodipodi:namedview
     id="namedview1"
     pagecolor="#ffffff"
     bordercolor="#999999"
     borderopacity="1"
     inkscape:showpageshadow="2"
     inkscape:pageopacity="0"
     inkscape:pagecheckerboard="0"
     inkscape:deskcolor="#d1d1d1"
     inkscape:document-units="px"
     showgrid="true"
     inkscape:zoom="0.7246543"
     inkscape:cx="555.43726"
     inkscape:cy="257.3641"
     inkscape:window-width="1512"
     inkscape:window-height="836"
     inkscape:window-x="0"
     inkscape:window-y="38"
     inkscape:window-maximized="0"
     inkscape:current-layer="layer11"><inkscape:grid
       id="grid2"
       units="px"
       originx="-47.624998"
       originy="-3.5768442e-09"
       spacingx="0.26458333"
       spacingy="0.26458333"
       empcolor="#0099e5"
       empopacity="0.30196078"
       color="#0099e5"
       opacity="0.14901961"
       empspacing="5"
       enabled="true"
       visible="true" /></sodipodi:namedview><defs
     id="defs1"><inkscape:path-effect
       effect="fillet_chamfer"
       id="path-effect3-4"
       is_visible="true"
       lpeversion="1"
       nodesatellites_param="F,0,0,1,0,3,0,1 @ F,0,0,1,0,3,0,1 @ F,0,0,1,0,3,0,1 @ F,0,0,1,0,3,0,1"
       radius="0"
       unit="px"
       method="auto"
       mode="F"
       chamfer_steps="1"
       flexible="false"
       use_knot_distance="true"
       apply_no_radius="true"
       apply_with_radius="true"
       only_selected="false"
       hide_knots="false" /></defs><g
     inkscape:groupmode="layer"
     id="layer2"
     inkscape:label="2"
     transform="matrix(0.99998908,0,0,1.0101899,-47.622914,-0.00209528)"
     inkscape:export-filename="Hearts/2.svg"
     inkscape:export-xdpi="96"
     inkscape:export-ydpi="96"><path
       style="fill:#ffffff;fill-opacity:1;stroke:#000000;stroke-width:0.526494;stroke-linecap:round;stroke-linejoin:round;stroke-dasharray:none;stroke-opacity:1"
       id="rect1-1"
       width="47.098965"
       height="65.475883"
       x="0.26119247"
       y="0.26535115"
       inkscape:path-effect="#path-effect3-4"
       sodipodi:type="rect"
       d="M 3.2611925,0.26535115 H 44.360157 a 3,3 45 0 1 3,2.99999995 V 62.741235 a 3,3 135 0 1 -3,3 H 3.2611925 a 3,3 45 0 1 -3.00000003,-3 V 3.2653511 A 3,3 135 0 1 3.2611925,0.26535115 Z"
       transform="translate(47.625489,-2.9988694e-5)"
       inkscape:label="card" /><path
       style="font-weight:300;font-size:18.2518px;font-family:'SF Pro Rounded';-inkscape-font-specification:'SF Pro Rounded Light';letter-spacing:-7.10767px;word-spacing:0px;fill:#ff0000;stroke:#ff0000;stroke-width:0.526494;stroke-linecap:round;stroke-linejoin:round"
       d="m 67.768131,39.502702 h 7.371899 c 0.34038,0 0.573271,-0.212806 0.573271,-0.540881 0,-0.328076 -0.232891,-0.540882 -0.573271,-0.540882 h -6.243274 v -0.03547 l 3.565027,-3.679762 c 2.176636,-2.23446 2.830523,-3.28962 2.830523,-4.66399 0,-2.048255 -1.666068,-3.537894 -3.95915,-3.537894 -2.4364,0 -3.896448,1.569441 -4.102467,3.050214 -0.01791,0.124136 -0.02688,0.212805 -0.02688,0.319208 0,0.319209 0.206019,0.549748 0.564314,0.549748 0.340379,0 0.483696,-0.177338 0.555355,-0.443345 0.34038,-1.427571 1.388389,-2.411797 3.027585,-2.411797 1.558579,0 2.723035,1.090629 2.723035,2.535934 0,1.126096 -0.483697,1.897516 -2.319954,3.812767 l -4.245785,4.406851 c -0.286635,0.301474 -0.349336,0.416743 -0.349336,0.665017 0,0.319208 0.241848,0.514281 0.6091,0.514281 z"
       id="text3-8"
       inkscape:label="center"
       aria-label="2" /><path
       d="m 51.287501,6.8541083 h 2.663433 c 0.07131,0 0.117824,-0.04297 0.117824,-0.1104953 0,-0.067524 -0.04651,-0.1104952 -0.117824,-0.1104952 h -2.437088 v -0.012277 l 1.385977,-1.448715 c 0.741049,-0.7703971 0.970494,-1.1325758 0.970494,-1.5991111 0,-0.6967336 -0.573614,-1.212378 -1.34877,-1.212378 -0.75345,0 -1.271253,0.4818819 -1.35187,1.0711897 -0.0062,0.04604 -0.0093,0.076733 -0.0093,0.1104952 0,0.067525 0.0403,0.1166338 0.114723,0.1166338 0.07131,0 0.10232,-0.036832 0.114723,-0.098218 0.07442,-0.5217829 0.468193,-0.9821797 1.141028,-0.9821797 0.620124,0 1.094519,0.4358423 1.094519,1.0036649 0,0.4143569 -0.198439,0.7151495 -0.880576,1.4333683 L 51.22549,6.6054942 c -0.05581,0.058317 -0.07131,0.085941 -0.07131,0.1381189 0,0.070594 0.05581,0.1104953 0.133327,0.1104953 z"
       id="text1-4"
       style="font-weight:200;font-size:6.31793px;font-family:'SF Pro Rounded';-inkscape-font-specification:'SF Pro Rounded, Ultra-Light';letter-spacing:-7.10767px;word-spacing:0px;fill:#ff0000;stroke:#ff0000;stroke-width:0.526494;stroke-linecap:round;stroke-linejoin:round"
       inkscape:label="top"
       aria-label="2" /><path
       d="M 91.584952,59.152594 H 88.92152 c -0.07131,0 -0.117825,0.04297 -0.117825,0.110495 0,0.06753 0.04651,0.110495 0.117825,0.110495 h 2.437088 v 0.01228 l -1.385978,1.448714 c -0.741049,0.770397 -0.970494,1.132576 -0.970494,1.599112 0,0.696733 0.573614,1.212377 1.34877,1.212377 0.753451,0 1.271255,-0.481881 1.351871,-1.071189 0.0062,-0.04604 0.0093,-0.07673 0.0093,-0.110495 0,-0.06753 -0.0403,-0.116634 -0.114723,-0.116634 -0.07131,0 -0.102319,0.03683 -0.114722,0.09822 -0.07442,0.521784 -0.468194,0.982181 -1.141029,0.982181 -0.620124,0 -1.094519,-0.435843 -1.094519,-1.003665 0,-0.414357 0.198439,-0.71515 0.880576,-1.433369 l 1.519305,-1.589903 c 0.05581,-0.05831 0.07131,-0.08594 0.07131,-0.138119 0,-0.07059 -0.05581,-0.110496 -0.133327,-0.110496 z"
       id="text1-4-2"
       style="font-weight:200;font-size:6.31793px;font-family:'SF Pro Rounded';-inkscape-font-specification:'SF Pro Rounded, Ultra-Light';letter-spacing:-7.10767px;word-spacing:0px;fill:#ff0000;stroke:#ff0000;stroke-width:0.526494;stroke-linecap:round;stroke-linejoin:round"
       inkscape:label="bottom"
       aria-label="2" /><path
       d="m 52.346993,13.690928 c 0.05562,0 0.133477,-0.03337 0.1928,-0.07045 1.61656,-1.038157 2.662132,-2.243161 2.662132,-3.466704 0,-1.0084958 -0.69334,-1.7277906 -1.59802,-1.7277906 -0.556156,0 -1.001081,0.3114472 -1.256912,0.7897412 -0.255832,-0.4745863 -0.704464,-0.7897412 -1.26062,-0.7897412 -0.90468,0 -1.598021,0.7192948 -1.598021,1.7277906 0,1.223543 1.045573,2.428547 2.662132,3.466704 0.05932,0.03708 0.137185,0.07045 0.196509,0.07045 z"
       id="text5-74"
       style="font-weight:300;font-size:7.59338px;line-height:0;font-family:'SF Pro Rounded';-inkscape-font-specification:'SF Pro Rounded Light';letter-spacing:0px;word-spacing:0px;text-orientation:upright;fill:#ff0000;stroke-width:0.526494;stroke-linecap:round"
       inkscape:label="heart-top"
       transform="scale(1.0050875,0.99493825)"
       aria-label="♥" /><path
       d="m -89.802277,-52.651472 c 0.05562,0 0.133478,-0.03337 0.192801,-0.07045 1.616559,-1.038158 2.662132,-2.243162 2.662132,-3.466705 0,-1.008495 -0.693341,-1.72779 -1.598021,-1.72779 -0.556155,0 -1.00108,0.311447 -1.256912,0.789741 -0.255831,-0.474586 -0.704464,-0.789741 -1.260619,-0.789741 -0.90468,0 -1.598021,0.719295 -1.598021,1.72779 0,1.223543 1.045573,2.428547 2.662132,3.466705 0.05932,0.03708 0.137185,0.07045 0.196508,0.07045 z"
       id="text5-7-4"
       style="font-weight:300;font-size:7.59338px;line-height:0;font-family:'SF Pro Rounded';-inkscape-font-specification:'SF Pro Rounded Light';letter-spacing:0px;word-spacing:0px;text-orientation:upright;fill:#ff0000;stroke-width:0.526494;stroke-linecap:round"
       inkscape:label="heart-bottom"
       transform="scale(-1.0050875,-0.99493825)"
       aria-label="♥" /></g></svg>
