<?xml version="1.0" encoding="UTF-8" standalone="no"?>
<!-- Created with Inkscape (http://www.inkscape.org/) -->

<svg
   width="179.99977"
   height="251.99976"
   viewBox="0 0 47.624938 66.674935"
   version="1.1"
   id="svg1"
   inkscape:version="1.4 (e7c3feb1, 2024-10-09)"
   sodipodi:docname="All Cards - Hearts.svg"
   xml:space="preserve"
   inkscape:export-filename="All Cards - Hearts.png"
   inkscape:export-xdpi="96"
   inkscape:export-ydpi="96"
   inkscape:export-batch-path="Hearts"
   inkscape:export-batch-name=""
   xmlns:inkscape="http://www.inkscape.org/namespaces/inkscape"
   xmlns:sodipodi="http://sodipodi.sourceforge.net/DTD/sodipodi-0.dtd"
   xmlns="http://www.w3.org/2000/svg"
   xmlns:svg="http://www.w3.org/2000/svg"><sodipodi:namedview
     id="namedview1"
     pagecolor="#ffffff"
     bordercolor="#999999"
     borderopacity="1"
     inkscape:showpageshadow="2"
     inkscape:pageopacity="0"
     inkscape:pagecheckerboard="0"
     inkscape:deskcolor="#d1d1d1"
     inkscape:document-units="px"
     showgrid="true"
     inkscape:zoom="0.64076144"
     inkscape:cx="641.42437"
     inkscape:cy="267.65031"
     inkscape:window-width="1512"
     inkscape:window-height="836"
     inkscape:window-x="0"
     inkscape:window-y="38"
     inkscape:window-maximized="0"
     inkscape:current-layer="layer14"><inkscape:grid
       id="grid2"
       units="px"
       originx="-142.87499"
       originy="-66.675"
       spacingx="0.26458333"
       spacingy="0.26458333"
       empcolor="#0099e5"
       empopacity="0.30196078"
       color="#0099e5"
       opacity="0.14901961"
       empspacing="5"
       enabled="true"
       visible="true" /></sodipodi:namedview><defs
     id="defs1"><inkscape:path-effect
       effect="fillet_chamfer"
       id="path-effect3-26"
       is_visible="true"
       lpeversion="1"
       nodesatellites_param="F,0,0,1,0,3,0,1 @ F,0,0,1,0,3,0,1 @ F,0,0,1,0,3,0,1 @ F,0,0,1,0,3,0,1"
       radius="0"
       unit="px"
       method="auto"
       mode="F"
       chamfer_steps="1"
       flexible="false"
       use_knot_distance="true"
       apply_no_radius="true"
       apply_with_radius="true"
       only_selected="false"
       hide_knots="false" /></defs><g
     inkscape:groupmode="layer"
     id="layer12"
     inkscape:label="Queen"
     inkscape:export-filename="Hearts/Queen.svg"
     inkscape:export-xdpi="96"
     inkscape:export-ydpi="96"
     transform="translate(-142.875,-66.675)"><path
       style="fill:#ffffff;fill-opacity:1;stroke:#000000;stroke-width:0.526494;stroke-linecap:round;stroke-linejoin:round;stroke-dasharray:none;stroke-opacity:1"
       id="rect1-9"
       width="47.098965"
       height="65.475883"
       x="0.26119247"
       y="0.26535115"
       inkscape:path-effect="#path-effect3-26"
       sodipodi:type="rect"
       d="M 3.2611925,0.26535115 H 44.360157 a 3,3 45 0 1 3,2.99999995 V 62.741235 a 3,3 135 0 1 -3,3 H 3.2611925 a 3,3 45 0 1 -3.00000003,-3 V 3.2653511 A 3,3 135 0 1 3.2611925,0.26535115 Z"
       transform="matrix(0.99998907,0,0,1.0101899,142.87705,66.672874)"
       inkscape:label="card" /><path
       style="font-weight:300;font-size:18.3445px;font-family:'SF Pro Rounded';-inkscape-font-specification:'SF Pro Rounded Light';letter-spacing:-7.14375px;word-spacing:0px;fill:#ff0000;stroke:#ff0000;stroke-width:0.529167;stroke-linecap:round;stroke-linejoin:round"
       d="m 166.68299,105.94219 c 0.89573,0 1.69293,-0.16124 2.40951,-0.46578 l 1.21819,1.66605 c 0.13436,0.1881 0.28663,0.27768 0.49265,0.27768 0.3135,0 0.55535,-0.22394 0.55535,-0.53744 0,-0.16123 -0.0358,-0.24185 -0.14332,-0.39412 l -1.12861,-1.54961 c 1.57648,-1.11966 2.4722,-3.09922 2.4722,-5.660998 0,-4.093474 -2.27514,-6.67317 -5.87597,-6.67317 -3.60082,0 -5.86701,2.579696 -5.86701,6.67317 0,4.093478 2.25723,6.664218 5.86701,6.664218 z m 0,-1.13758 c -2.82154,0 -4.61299,-2.14079 -4.61299,-5.526638 0,-3.394807 1.78249,-5.535596 4.61299,-5.535596 2.8305,0 4.613,2.140789 4.613,5.535596 0,2.104958 -0.68971,3.753098 -1.92582,4.675698 l -1.20027,-1.6571 c -0.15227,-0.19706 -0.27768,-0.27767 -0.50161,-0.27767 -0.32246,0 -0.55535,0.22393 -0.55535,0.52848 0,0.13436 0.0358,0.25976 0.14332,0.40308 l 1.12861,1.5496 c -0.51056,0.19706 -1.08383,0.30455 -1.70188,0.30455 z"
       id="text3-8-1-1-3-3-3-1-3-1-7"
       inkscape:label="center"
       aria-label="Q" /><path
       d="m 147.21892,73.66682 c 0.32556,0 0.62012,-0.06511 0.88057,-0.189136 l 0.47439,0.651123 c 0.0279,0.04031 0.0558,0.06201 0.10542,0.06201 0.0651,0 0.11162,-0.04651 0.11162,-0.108521 0,-0.03411 -0.006,-0.05271 -0.031,-0.08682 l -0.45889,-0.629419 c 0.57981,-0.375171 0.91158,-1.085206 0.91158,-2.002979 0,-1.407667 -0.77515,-2.300636 -1.99368,-2.300636 -1.21853,0 -1.99368,0.892969 -1.99368,2.300636 0,1.413867 0.77205,2.303736 1.99368,2.303736 z m 0,-0.229444 c -1.0604,0 -1.74253,-0.806152 -1.74253,-2.074292 0,-1.26504 0.67903,-2.071193 1.74253,-2.071193 1.0635,0 1.73943,0.806153 1.73943,2.071193 0,0.827856 -0.28216,1.469678 -0.79995,1.807642 l -0.5147,-0.706934 c -0.031,-0.04341 -0.0558,-0.06201 -0.10542,-0.06201 -0.0651,0 -0.11162,0.04651 -0.11162,0.108521 0,0.02791 0.006,0.05271 0.0279,0.08372 l 0.5023,0.68833 c -0.21704,0.102319 -0.46819,0.155029 -0.73794,0.155029 z"
       id="text1-7-9-5"
       style="font-weight:200;font-size:6.35px;font-family:'SF Pro Rounded';-inkscape-font-specification:'SF Pro Rounded, Ultra-Light';letter-spacing:-7.14375px;word-spacing:0px;fill:#ff0000;stroke:#ff0000;stroke-width:0.529167;stroke-linecap:round;stroke-linejoin:round"
       inkscape:label="top"
       aria-label="Q" /><path
       d="m -186.15616,-126.35813 c 0.32556,0 0.62012,-0.0651 0.88057,-0.18913 l 0.47439,0.65112 c 0.0279,0.0403 0.0558,0.062 0.10542,0.062 0.0651,0 0.11162,-0.0465 0.11162,-0.10852 0,-0.0341 -0.006,-0.0527 -0.031,-0.0868 l -0.45888,-0.62942 c 0.57981,-0.37517 0.91157,-1.0852 0.91157,-2.00297 0,-1.40767 -0.77515,-2.30064 -1.99368,-2.30064 -1.21853,0 -1.99368,0.89297 -1.99368,2.30064 0,1.41386 0.77205,2.30373 1.99368,2.30373 z m 0,-0.22944 c -1.0604,0 -1.74253,-0.80615 -1.74253,-2.07429 0,-1.26504 0.67903,-2.0712 1.74253,-2.0712 1.0635,0 1.73943,0.80616 1.73943,2.0712 0,0.82785 -0.28215,1.46967 -0.79995,1.80764 l -0.5147,-0.70694 c -0.031,-0.0434 -0.0558,-0.062 -0.10542,-0.062 -0.0651,0 -0.11162,0.0465 -0.11162,0.10852 0,0.0279 0.006,0.0527 0.0279,0.0837 l 0.50229,0.68833 c -0.21704,0.10232 -0.46819,0.15503 -0.73794,0.15503 z"
       id="text1-7-9-5-2"
       style="font-weight:200;font-size:6.35px;font-family:'SF Pro Rounded';-inkscape-font-specification:'SF Pro Rounded, Ultra-Light';letter-spacing:-7.14375px;word-spacing:0px;fill:#ff0000;stroke:#ff0000;stroke-width:0.529167;stroke-linecap:round;stroke-linejoin:round"
       inkscape:label="bottom"
       transform="scale(-1)"
       aria-label="Q" /><path
       d="m 147.86481,80.433338 c 0.0559,0 0.13416,-0.03354 0.19378,-0.0708 1.62477,-1.043428 2.67565,-2.25455 2.67565,-3.484304 0,-1.013616 -0.69686,-1.736562 -1.60613,-1.736562 -0.55898,0 -1.00617,0.313028 -1.2633,0.79375 -0.25713,-0.476996 -0.70804,-0.79375 -1.26702,-0.79375 -0.90927,0 -1.60613,0.722946 -1.60613,1.736562 0,1.229754 1.05088,2.440876 2.67565,3.484304 0.0596,0.03727 0.13788,0.0708 0.1975,0.0708 z"
       id="text5-4-4-3-7"
       style="font-weight:300;font-size:7.63193px;line-height:0;font-family:'SF Pro Rounded';-inkscape-font-specification:'SF Pro Rounded Light';letter-spacing:0px;word-spacing:0px;text-orientation:upright;fill:#ff0000;stroke-width:0.529167;stroke-linecap:round"
       inkscape:label="heart-top"
       aria-label="♥" /><path
       d="m -185.51023,-119.59166 c 0.0559,0 0.13415,-0.0335 0.19378,-0.0708 1.62476,-1.04343 2.67564,-2.25455 2.67564,-3.4843 0,-1.01362 -0.69686,-1.73656 -1.60613,-1.73656 -0.55898,0 -1.00616,0.31302 -1.26329,0.79375 -0.25713,-0.477 -0.70804,-0.79375 -1.26702,-0.79375 -0.90928,0 -1.60614,0.72294 -1.60614,1.73656 0,1.22975 1.05088,2.44087 2.67565,3.4843 0.0596,0.0373 0.13788,0.0708 0.19751,0.0708 z"
       id="text5-7-5-6-7-0"
       style="font-weight:300;font-size:7.63193px;line-height:0;font-family:'SF Pro Rounded';-inkscape-font-specification:'SF Pro Rounded Light';letter-spacing:0px;word-spacing:0px;text-orientation:upright;fill:#ff0000;stroke-width:0.529167;stroke-linecap:round"
       inkscape:label="heart-bottom"
       transform="scale(-1)"
       aria-label="♥" /></g></svg>
