<?xml version="1.0" encoding="UTF-8" standalone="no"?>
<!DOCTYPE svg PUBLIC "-//W3C//DTD SVG 1.1//EN" "http://www.w3.org/Graphics/SVG/1.1/DTD/svg11.dtd">
<!-- Created with Vectornator (http://vectornator.io/) -->
<svg height="100%" stroke-miterlimit="10" style="fill-rule:nonzero;clip-rule:evenodd;stroke-linecap:round;stroke-linejoin:round;" version="1.1" viewBox="0 0 180 252" width="100%" xml:space="preserve" xmlns="http://www.w3.org/2000/svg" xmlns:vectornator="http://vectornator.io" xmlns:xlink="http://www.w3.org/1999/xlink">
<defs>
<clipPath id="TextBounds">
<rect height="39" width="21.5156" x="8.20312" y="3"/>
</clipPath>
<clipPath id="TextBounds_2">
<rect height="39" width="21.5156" x="150.281" y="210"/>
</clipPath>
<clipPath id="TextBounds_3">
<rect height="77" width="40.0312" x="69.9844" y="87.5"/>
</clipPath>
</defs>
<g id="Layer-1" vectornator:layerName="Layer 1">
<path d="M16 0L164 0C172.837 0 180 7.16344 180 16L180 236C180 244.837 172.837 252 164 252L16 252C7.16344 252 0 244.837 0 236L0 16C0 7.16344 7.16344 0 16 0Z" fill="#ffffff" fill-rule="nonzero" opacity="1" stroke="none"/>
<path clip-path="url(#TextBounds)" d="M25.7969 33.0469C26.625 33.0469 27.2031 32.5 27.2031 31.7031C27.2031 31.2969 27.0625 31.0156 26.4062 30.1094L19.7188 20.8281L25.8594 14.1094C26.4844 13.4531 26.6094 13.2188 26.6094 12.8125C26.6094 12.1562 26.0938 11.625 25.4062 11.625C24.9531 11.625 24.5938 11.8281 24.0156 12.4688L15.125 21.9531L15 21.9531L15 13.0156C15 12.0938 14.4688 11.5156 13.625 11.5156C12.7812 11.5156 12.2656 12.0938 12.2656 13.0156L12.2656 31.6562C12.2656 32.5781 12.7812 33.1562 13.625 33.1562C14.4688 33.1562 15 32.5781 15 31.6562L15 25.4844L17.6875 22.7031L24.2344 31.9688C24.7812 32.7344 25.25 33.0469 25.7969 33.0469Z" fill="#000000" opacity="1" stroke="none"/>
<path clip-path="url(#TextBounds_2)" d="M154.203 218.953C153.375 218.953 152.797 219.5 152.797 220.297C152.797 220.703 152.938 220.984 153.594 221.891L160.281 231.172L154.141 237.891C153.516 238.547 153.391 238.781 153.391 239.188C153.391 239.844 153.906 240.375 154.594 240.375C155.047 240.375 155.406 240.172 155.984 239.531L164.875 230.047L165 230.047L165 238.984C165 239.906 165.531 240.484 166.375 240.484C167.219 240.484 167.734 239.906 167.734 238.984L167.734 220.344C167.734 219.422 167.219 218.844 166.375 218.844C165.531 218.844 165 219.422 165 220.344L165 226.516L162.312 229.297L155.766 220.031C155.219 219.266 154.75 218.953 154.203 218.953Z" fill="#000000" opacity="1" stroke="none"/>
<path clip-path="url(#TextBounds_3)" d="M103.672 148.594C105.328 148.594 106.484 147.5 106.484 145.906C106.484 145.094 106.203 144.531 104.891 142.719L91.5156 124.156L103.797 110.719C105.047 109.406 105.297 108.938 105.297 108.125C105.297 106.812 104.266 105.75 102.891 105.75C101.984 105.75 101.266 106.156 100.109 107.438L82.3281 126.406L82.0781 126.406L82.0781 108.531C82.0781 106.688 81.0156 105.531 79.3281 105.531C77.6406 105.531 76.6094 106.688 76.6094 108.531L76.6094 145.812C76.6094 147.656 77.6406 148.812 79.3281 148.812C81.0156 148.812 82.0781 147.656 82.0781 145.812L82.0781 133.469L87.4531 127.906L100.547 146.438C101.641 147.969 102.578 148.594 103.672 148.594Z" fill="#000000" opacity="1" stroke="none"/>
<path d="M15 1L165 1C172.732 1 179 7.28814 179 15.0449L179 236.955C179 244.712 172.732 251 165 251L15 251C7.26801 251 1 244.712 1 236.955L1 15.0449C1 7.28814 7.26801 1 15 1Z" fill="none" opacity="1" stroke="#000000" stroke-linecap="round" stroke-linejoin="round" stroke-width="2"/>
</g>
</svg>
