<?xml version="1.0" encoding="UTF-8" standalone="no"?>
<!DOCTYPE svg PUBLIC "-//W3C//DTD SVG 1.1//EN" "http://www.w3.org/Graphics/SVG/1.1/DTD/svg11.dtd">
<!-- Created with Vectornator (http://vectornator.io/) -->
<svg height="100%" stroke-miterlimit="10" style="fill-rule:nonzero;clip-rule:evenodd;stroke-linecap:round;stroke-linejoin:round;" version="1.1" viewBox="0 0 180 252" width="100%" xml:space="preserve" xmlns="http://www.w3.org/2000/svg" xmlns:vectornator="http://vectornator.io" xmlns:xlink="http://www.w3.org/1999/xlink">
<defs>
<clipPath id="TextBounds">
<rect height="39" width="21.5469" x="8.20312" y="3"/>
</clipPath>
<clipPath id="TextBounds_2">
<rect height="39" width="21.5469" x="150.25" y="210"/>
</clipPath>
<clipPath id="TextBounds_3">
<rect height="77" width="40.0938" x="69.9531" y="87.5"/>
</clipPath>
</defs>
<clipPath id="ArtboardFrame">
<rect height="252" width="180" x="0" y="0"/>
</clipPath>
<g clip-path="url(#ArtboardFrame)" id="Layer-1" vectornator:layerName="Layer 1">
<path d="M16-4.26326e-14L164-4.26326e-14C172.837-4.26326e-14 180 7.16344 180 16L180 236C180 244.837 172.837 252 164 252L16 252C7.16344 252 0 244.837 0 236L0 16C0 7.16344 7.16344-4.26326e-14 16-4.26326e-14Z" fill="#ffffff" fill-rule="nonzero" opacity="1" stroke="none"/>
<path clip-path="url(#TextBounds)" d="M12.0469 28.75C12.0469 30.9375 14.625 33.4531 18.75 33.4531C23.1094 33.4531 26.2188 30.3906 26.2188 26.0781C26.2188 22.0312 23.4219 19.1875 19.4531 19.1875C17.6562 19.1875 15.8281 19.9375 15.125 20.9844L14.9688 20.9844L15.5625 14.0312L23.9844 14.0312C24.9062 14.0312 25.4219 13.6094 25.4219 12.8594C25.4219 12.0938 24.8906 11.6406 23.9844 11.6406L15.2188 11.6406C13.875 11.6406 13.2031 12.1875 13.1094 13.3438L12.4219 22.0938C12.3438 23.2969 12.7969 24 13.6875 24C14.1875 24 14.5 23.8125 15.6406 22.75C16.5469 21.9375 17.625 21.5312 18.8438 21.5312C21.5469 21.5312 23.4688 23.4688 23.4688 26.2188C23.4688 29.0938 21.4844 31.0938 18.6406 31.0938C16.7656 31.0938 15.3281 30.1875 14.4688 28.5156C14.0625 27.7188 13.7188 27.4375 13.1875 27.4375C12.5 27.4375 12.0469 27.9688 12.0469 28.75Z" fill="#000000" opacity="1" stroke="none"/>
<path clip-path="url(#TextBounds_2)" d="M167.953 223.25C167.953 221.062 165.375 218.547 161.25 218.547C156.891 218.547 153.781 221.609 153.781 225.922C153.781 229.969 156.578 232.812 160.547 232.812C162.344 232.812 164.172 232.062 164.875 231.016L165.031 231.016L164.438 237.969L156.016 237.969C155.094 237.969 154.578 238.391 154.578 239.141C154.578 239.906 155.109 240.359 156.016 240.359L164.781 240.359C166.125 240.359 166.797 239.812 166.891 238.656L167.578 229.906C167.656 228.703 167.203 228 166.312 228C165.812 228 165.5 228.188 164.359 229.25C163.453 230.062 162.375 230.469 161.156 230.469C158.453 230.469 156.531 228.531 156.531 225.781C156.531 222.906 158.516 220.906 161.359 220.906C163.234 220.906 164.672 221.812 165.531 223.484C165.938 224.281 166.281 224.562 166.812 224.562C167.5 224.562 167.953 224.031 167.953 223.25Z" fill="#000000" opacity="1" stroke="none"/>
<path clip-path="url(#TextBounds_3)" d="M76.1406 140C76.1406 144.375 81.2969 149.406 89.5469 149.406C98.2656 149.406 104.484 143.281 104.484 134.656C104.484 126.562 98.8906 120.875 90.9531 120.875C87.3594 120.875 83.7031 122.375 82.2969 124.469L81.9844 124.469L83.1719 110.562L100.016 110.562C101.859 110.562 102.891 109.719 102.891 108.219C102.891 106.688 101.828 105.781 100.016 105.781L82.4844 105.781C79.7969 105.781 78.4531 106.875 78.2656 109.188L76.8906 126.688C76.7344 129.094 77.6406 130.5 79.4219 130.5C80.4219 130.5 81.0469 130.125 83.3281 128C85.1406 126.375 87.2969 125.562 89.7344 125.562C95.1406 125.562 98.9844 129.438 98.9844 134.938C98.9844 140.688 95.0156 144.688 89.3281 144.688C85.5781 144.688 82.7031 142.875 80.9844 139.531C80.1719 137.938 79.4844 137.375 78.4219 137.375C77.0469 137.375 76.1406 138.438 76.1406 140Z" fill="#000000" opacity="1" stroke="none"/>
<path d="M15 1L165 1C172.732 1 179 7.28814 179 15.0449L179 236.955C179 244.712 172.732 251 165 251L15 251C7.26801 251 1 244.712 1 236.955L1 15.0449C1 7.28814 7.26801 1 15 1Z" fill="none" opacity="1" stroke="#000000" stroke-linecap="round" stroke-linejoin="round" stroke-width="2"/>
</g>
</svg>
