<?xml version="1.0" encoding="UTF-8" standalone="no"?>
<!-- Created with Inkscape (http://www.inkscape.org/) -->

<svg
   width="179.99976"
   height="251.99976"
   viewBox="0 0 47.624934 66.674935"
   version="1.1"
   id="svg1"
   inkscape:version="1.4 (e7c3feb1, 2024-10-09)"
   sodipodi:docname="All Cards - Clubs.svg"
   xml:space="preserve"
   inkscape:export-filename="All Cards - Clubs.png"
   inkscape:export-xdpi="96"
   inkscape:export-ydpi="96"
   xmlns:inkscape="http://www.inkscape.org/namespaces/inkscape"
   xmlns:sodipodi="http://sodipodi.sourceforge.net/DTD/sodipodi-0.dtd"
   xmlns="http://www.w3.org/2000/svg"
   xmlns:svg="http://www.w3.org/2000/svg"><sodipodi:namedview
     id="namedview1"
     pagecolor="#ffffff"
     bordercolor="#999999"
     borderopacity="1"
     inkscape:showpageshadow="2"
     inkscape:pageopacity="0"
     inkscape:pagecheckerboard="0"
     inkscape:deskcolor="#d1d1d1"
     inkscape:document-units="px"
     showgrid="true"
     inkscape:zoom="0.6064148"
     inkscape:cx="370.20864"
     inkscape:cy="230.04056"
     inkscape:window-width="1512"
     inkscape:window-height="836"
     inkscape:window-x="0"
     inkscape:window-y="38"
     inkscape:window-maximized="0"
     inkscape:current-layer="layer14"><inkscape:grid
       id="grid2"
       units="px"
       originx="-142.875"
       originy="-3.4711749e-13"
       spacingx="0.26458333"
       spacingy="0.26458333"
       empcolor="#0099e5"
       empopacity="0.30196078"
       color="#0099e5"
       opacity="0.14901961"
       empspacing="5"
       enabled="true"
       visible="true" /><inkscape:page
       x="0"
       y="0"
       width="47.624935"
       height="66.674934"
       id="page2"
       margin="0"
       bleed="0" /></sodipodi:namedview><defs
     id="defs1"><inkscape:path-effect
       effect="fillet_chamfer"
       id="path-effect3-7"
       is_visible="true"
       lpeversion="1"
       nodesatellites_param="F,0,0,1,0,3,0,1 @ F,0,0,1,0,3,0,1 @ F,0,0,1,0,3,0,1 @ F,0,0,1,0,3,0,1"
       radius="0"
       unit="px"
       method="auto"
       mode="F"
       chamfer_steps="1"
       flexible="false"
       use_knot_distance="true"
       apply_no_radius="true"
       apply_with_radius="true"
       only_selected="false"
       hide_knots="false" /></defs><g
     inkscape:groupmode="layer"
     id="layer4"
     inkscape:label="4"
     transform="matrix(0.99998908,0,0,1.0101899,-142.87292,-0.00209528)"
     inkscape:export-filename="Clubs/4.svg"
     inkscape:export-xdpi="96"
     inkscape:export-ydpi="96"><path
       style="fill:#ffffff;fill-opacity:1;stroke:#000000;stroke-width:0.526494;stroke-linecap:round;stroke-linejoin:round;stroke-dasharray:none"
       id="rect1-4"
       width="47.098965"
       height="65.475883"
       x="0.26119247"
       y="0.26535115"
       inkscape:path-effect="#path-effect3-7"
       sodipodi:type="rect"
       d="M 3.2611925,0.26535115 H 44.360157 a 3,3 45 0 1 3,2.99999995 V 62.741235 a 3,3 135 0 1 -3,3 H 3.2611925 a 3,3 45 0 1 -3.00000003,-3 V 3.2653511 A 3,3 135 0 1 3.2611925,0.26535115 Z"
       transform="translate(142.87653,-2.9988694e-5)"
       inkscape:label="card" /><path
       style="font-weight:300;font-size:18.2518px;font-family:'SF Pro Rounded';-inkscape-font-specification:'SF Pro Rounded Light';letter-spacing:-7.10767px;word-spacing:0px;stroke:#000000;stroke-width:0.526494;stroke-linecap:round;stroke-linejoin:round"
       d="m 168.1294,39.752689 c 0.33866,0 0.58819,-0.258448 0.58819,-0.632753 v -2.424067 h 1.41701 c 0.32975,0 0.57037,-0.213888 0.57037,-0.543633 0,-0.329744 -0.24062,-0.534721 -0.57037,-0.534721 h -1.41701 v -8.074282 c 0,-0.623841 -0.34757,-0.953586 -0.98923,-0.953586 -0.52581,0 -0.84664,0.231713 -1.37245,0.989234 -1.95173,2.735987 -3.81434,5.427415 -5.07985,7.495002 -0.2228,0.392128 -0.29409,0.606017 -0.29409,0.917937 0,0.427777 0.27627,0.704049 0.71296,0.704049 h 5.83737 v 2.424067 c 0,0.374305 0.24953,0.632753 0.5971,0.632753 z m -0.5971,-4.135174 h -5.30265 v -0.03565 c 1.29224,-2.112146 2.95879,-4.51839 5.28482,-7.75345 h 0.0178 z"
       id="text3-8-1-1"
       inkscape:label="center"
       transform="scale(1.0050875,0.99493825)"
       aria-label="4" /><path
       d="m 146.92674,6.9246592 c 0.071,0 0.12031,-0.052444 0.12031,-0.1295669 V 5.7616421 h 0.59848 c 0.0679,0 0.11723,-0.043189 0.11723,-0.1110574 0,-0.067868 -0.0494,-0.1110573 -0.11723,-0.1110573 h -0.59848 V 2.5656586 c 0,-0.1233971 -0.071,-0.1912655 -0.19435,-0.1912655 -0.1018,0 -0.1635,0.043189 -0.25913,0.1758408 -0.74038,1.0087709 -1.42832,1.9774377 -2.01754,2.8813211 -0.0463,0.074038 -0.0648,0.1203121 -0.0648,0.1820106 0,0.089463 0.0555,0.1480765 0.15116,0.1480765 h 2.14402 v 1.0334502 c 0,0.077123 0.0494,0.1295669 0.12031,0.1295669 z m -0.12031,-1.3851318 h -2.0268 v -0.00617 c 0.56455,-0.8699492 1.23706,-1.8293612 2.02063,-2.8720662 h 0.006 z"
       id="text1-4-8-9"
       style="font-weight:200;font-size:6.31793px;font-family:'SF Pro Rounded';-inkscape-font-specification:'SF Pro Rounded, Ultra-Light';letter-spacing:-7.10767px;word-spacing:0px;stroke:#000000;stroke-width:0.526494;stroke-linecap:round;stroke-linejoin:round"
       inkscape:label="top"
       transform="scale(1.0050875,0.99493825)"
       aria-label="4" /><path
       d="m -184.76031,-59.417636 c 0.071,0 0.12031,-0.05244 0.12031,-0.129567 v -1.033451 h 0.59847 c 0.0679,0 0.11723,-0.04319 0.11723,-0.111057 0,-0.06787 -0.0494,-0.111057 -0.11723,-0.111057 H -184.64 v -2.973869 c 0,-0.123397 -0.071,-0.191266 -0.19435,-0.191266 -0.10181,0 -0.1635,0.04319 -0.25914,0.175841 -0.74038,1.008771 -1.42832,1.977438 -2.01754,2.881321 -0.0463,0.07404 -0.0648,0.120312 -0.0648,0.182011 0,0.08946 0.0555,0.148076 0.15116,0.148076 h 2.14402 v 1.033451 c 0,0.07712 0.0494,0.129567 0.12032,0.129567 z m -0.12032,-1.385132 h -2.02679 v -0.0062 c 0.56454,-0.869949 1.23705,-1.829361 2.02062,-2.872066 h 0.006 z"
       id="text1-4-8-9-4"
       style="font-weight:200;font-size:6.31793px;font-family:'SF Pro Rounded';-inkscape-font-specification:'SF Pro Rounded, Ultra-Light';letter-spacing:-7.10767px;word-spacing:0px;stroke:#000000;stroke-width:0.526494;stroke-linecap:round;stroke-linejoin:round"
       inkscape:label="bottom"
       transform="scale(-1.0050875,-0.99493825)"
       aria-label="4" /><path
       d="m 144.25725,11.584951 c 0,0.676662 0.52106,1.190491 1.19773,1.190491 0.38356,0 0.76712,-0.133885 0.93357,-0.459551 h 0.0289 c -0.0145,0.379944 -0.41251,0.694755 -0.60067,0.886536 -0.1954,0.202637 -0.076,0.4885 0.18092,0.4885 h 1.81288 c 0.26053,0 0.37994,-0.285863 0.18093,-0.4885 -0.18817,-0.191781 -0.5862,-0.506592 -0.59706,-0.886536 h 0.029 c 0.16645,0.325666 0.5464,0.459551 0.92996,0.459551 0.68028,0 1.19773,-0.513829 1.19773,-1.190491 0,-0.673044 -0.51383,-1.237533 -1.18326,-1.237533 -0.25329,0 -0.51745,0.08323 -0.72732,0.249678 0.35823,-0.2931 0.47403,-0.6513328 0.47403,-0.9625251 0,-0.6694254 -0.54278,-1.2085842 -1.20859,-1.2085842 -0.66581,0 -1.20858,0.5391588 -1.20858,1.2085842 0,0.3111923 0.11579,0.6694251 0.4704,0.9625251 -0.20625,-0.166452 -0.47402,-0.249678 -0.72732,-0.249678 -0.66942,0 -1.18325,0.564489 -1.18325,1.237533 z"
       id="text3-7-0-5"
       style="font-weight:300;font-size:7.41072px;line-height:0;font-family:'SF Pro Rounded';-inkscape-font-specification:'SF Pro Rounded Light';letter-spacing:0px;word-spacing:0px;text-orientation:upright;stroke-width:0.526494;stroke-linecap:round"
       inkscape:label="club-top"
       transform="scale(1.0050875,0.99493825)"
       aria-label="♣" /><path
       d="m -187.42975,-54.757448 c 0,0.676663 0.52107,1.190492 1.19773,1.190492 0.38356,0 0.76713,-0.133885 0.93358,-0.459552 h 0.029 c -0.0145,0.379944 -0.41252,0.694755 -0.60068,0.886537 -0.1954,0.202636 -0.076,0.488499 0.18093,0.488499 h 1.81287 c 0.26054,0 0.37995,-0.285863 0.18093,-0.488499 -0.18816,-0.191782 -0.5862,-0.506593 -0.59706,-0.886537 h 0.0289 c 0.16645,0.325667 0.5464,0.459552 0.92996,0.459552 0.68028,0 1.19773,-0.513829 1.19773,-1.190492 0,-0.673044 -0.51383,-1.237532 -1.18325,-1.237532 -0.2533,0 -0.51745,0.08323 -0.72733,0.249677 0.35824,-0.293099 0.47403,-0.651332 0.47403,-0.962525 0,-0.669425 -0.54278,-1.208584 -1.20858,-1.208584 -0.66581,0 -1.20859,0.539159 -1.20859,1.208584 0,0.311193 0.11579,0.669426 0.47041,0.962525 -0.20626,-0.166451 -0.47403,-0.249677 -0.72732,-0.249677 -0.66943,0 -1.18326,0.564488 -1.18326,1.237532 z"
       id="text3-6-6-0-9"
       style="font-weight:300;font-size:7.41072px;line-height:0;font-family:'SF Pro Rounded';-inkscape-font-specification:'SF Pro Rounded Light';letter-spacing:0px;word-spacing:0px;text-orientation:upright;stroke-width:0.526494;stroke-linecap:round"
       inkscape:label="club-bottom"
       transform="scale(-1.0050875,-0.99493825)"
       aria-label="♣" /></g></svg>
