<?xml version="1.0" encoding="UTF-8" standalone="no"?>
<!-- Created with Inkscape (http://www.inkscape.org/) -->

<svg
   width="179.99977"
   height="251.99976"
   viewBox="0 0 47.624938 66.674935"
   version="1.1"
   id="svg1"
   inkscape:version="1.4 (e7c3feb1, 2024-10-09)"
   sodipodi:docname="All Cards - Hearts.svg"
   xml:space="preserve"
   inkscape:export-filename="All Cards - Hearts.png"
   inkscape:export-xdpi="96"
   inkscape:export-ydpi="96"
   inkscape:export-batch-path="Hearts"
   inkscape:export-batch-name=""
   xmlns:inkscape="http://www.inkscape.org/namespaces/inkscape"
   xmlns:sodipodi="http://sodipodi.sourceforge.net/DTD/sodipodi-0.dtd"
   xmlns="http://www.w3.org/2000/svg"
   xmlns:svg="http://www.w3.org/2000/svg"><sodipodi:namedview
     id="namedview1"
     pagecolor="#ffffff"
     bordercolor="#999999"
     borderopacity="1"
     inkscape:showpageshadow="2"
     inkscape:pageopacity="0"
     inkscape:pagecheckerboard="0"
     inkscape:deskcolor="#d1d1d1"
     inkscape:document-units="px"
     showgrid="true"
     inkscape:zoom="0.7246543"
     inkscape:cx="555.43726"
     inkscape:cy="257.3641"
     inkscape:window-width="1512"
     inkscape:window-height="836"
     inkscape:window-x="0"
     inkscape:window-y="38"
     inkscape:window-maximized="0"
     inkscape:current-layer="layer11"><inkscape:grid
       id="grid2"
       units="px"
       originx="-285.75"
       originy="-3.5768442e-09"
       spacingx="0.26458333"
       spacingy="0.26458333"
       empcolor="#0099e5"
       empopacity="0.30196078"
       color="#0099e5"
       opacity="0.14901961"
       empspacing="5"
       enabled="true"
       visible="true" /></sodipodi:namedview><defs
     id="defs1"><inkscape:path-effect
       effect="fillet_chamfer"
       id="path-effect3-5"
       is_visible="true"
       lpeversion="1"
       nodesatellites_param="F,0,0,1,0,3,0,1 @ F,0,0,1,0,3,0,1 @ F,0,0,1,0,3,0,1 @ F,0,0,1,0,3,0,1"
       radius="0"
       unit="px"
       method="auto"
       mode="F"
       chamfer_steps="1"
       flexible="false"
       use_knot_distance="true"
       apply_no_radius="true"
       apply_with_radius="true"
       only_selected="false"
       hide_knots="false" /></defs><g
     inkscape:groupmode="layer"
     id="layer7"
     inkscape:label="7"
     transform="matrix(0.99998908,0,0,1.0101899,-285.74792,-0.00209528)"
     inkscape:export-filename="Hearts/7.svg"
     inkscape:export-xdpi="96"
     inkscape:export-ydpi="96"><path
       style="fill:#ffffff;fill-opacity:1;stroke:#000000;stroke-width:0.526494;stroke-linecap:round;stroke-linejoin:round;stroke-dasharray:none;stroke-opacity:1"
       id="rect1-28"
       width="47.098965"
       height="65.475883"
       x="0.26119247"
       y="0.26535115"
       inkscape:path-effect="#path-effect3-5"
       sodipodi:type="rect"
       d="M 3.2611925,0.26535115 H 44.360157 a 3,3 45 0 1 3,2.99999995 V 62.741235 a 3,3 135 0 1 -3,3 H 3.2611925 a 3,3 45 0 1 -3.00000003,-3 V 3.2653511 A 3,3 135 0 1 3.2611925,0.26535115 Z"
       transform="translate(285.75309,-2.9988694e-5)"
       inkscape:label="card" /><path
       style="font-weight:300;font-size:18.2518px;font-family:'SF Pro Rounded';-inkscape-font-specification:'SF Pro Rounded Light';letter-spacing:-7.10767px;word-spacing:0px;fill:#ff0000;stroke:#ff0000;stroke-width:0.526494;stroke-linecap:round;stroke-linejoin:round"
       d="m 307.33338,39.4761 c 0.25977,0 0.42101,-0.106402 0.55537,-0.354676 l 5.67895,-11.07476 c 0.1881,-0.354676 0.26872,-0.540881 0.26872,-0.771421 0,-0.469945 -0.2956,-0.74482 -0.78825,-0.74482 h -7.17484 c -0.33141,0 -0.58222,0.212807 -0.58222,0.540882 0,0.336942 0.25081,0.540881 0.58222,0.540881 h 6.67323 v 0.03547 l -5.67895,10.932889 c -0.0806,0.150738 -0.1075,0.25714 -0.1075,0.390144 0,0.310342 0.23289,0.505413 0.57327,0.505413 z"
       id="text3-8-1-1-3-3-3"
       inkscape:label="center"
       aria-label="7" /><path
       d="m 289.92974,6.8387618 c 0.0527,0 0.0868,-0.024554 0.11472,-0.079802 l 2.08052,-4.0883226 c 0.0341,-0.067524 0.0496,-0.1043566 0.0496,-0.1565349 0,-0.098218 -0.0651,-0.1534656 -0.16743,-0.1534656 h -2.58592 c -0.0683,0 -0.11783,0.04297 -0.11783,0.1104953 0,0.067525 0.0496,0.1104951 0.11783,0.1104951 h 2.4929 v 0.0092 l -2.08051,4.0606988 c -0.0186,0.033762 -0.0217,0.058317 -0.0217,0.082871 0,0.064455 0.0465,0.1043566 0.11782,0.1043566 z"
       id="text1-4-8-9-6-8-60"
       style="font-weight:200;font-size:6.31793px;font-family:'SF Pro Rounded';-inkscape-font-specification:'SF Pro Rounded, Ultra-Light';letter-spacing:-7.10767px;word-spacing:0px;fill:#ff0000;stroke:#ff0000;stroke-width:0.526494;stroke-linecap:round;stroke-linejoin:round"
       inkscape:label="top"
       aria-label="7" /><path
       d="m 329.1979,59.167878 c -0.0527,0 -0.0868,0.02456 -0.11472,0.0798 l -2.08051,4.088323 c -0.0341,0.06753 -0.0497,0.104357 -0.0497,0.156535 0,0.09822 0.0651,0.153466 0.16743,0.153466 h 2.58592 c 0.0682,0 0.11783,-0.04297 0.11783,-0.110496 0,-0.06753 -0.0496,-0.110495 -0.11783,-0.110495 h -2.4929 v -0.0093 l 2.08052,-4.060698 c 0.0186,-0.03376 0.0217,-0.05831 0.0217,-0.08287 0,-0.06445 -0.0465,-0.104358 -0.11782,-0.104358 z"
       id="text1-4-8-9-6-8-60-3"
       style="font-weight:200;font-size:6.31793px;font-family:'SF Pro Rounded';-inkscape-font-specification:'SF Pro Rounded, Ultra-Light';letter-spacing:-7.10767px;word-spacing:0px;fill:#ff0000;stroke:#ff0000;stroke-width:0.526494;stroke-linecap:round;stroke-linejoin:round"
       inkscape:label="bottom"
       aria-label="7" /><path
       d="m 289.26925,13.690928 c 0.0556,0 0.13348,-0.03337 0.1928,-0.07045 1.61656,-1.038157 2.66213,-2.243161 2.66213,-3.466704 0,-1.0084958 -0.69334,-1.7277906 -1.59802,-1.7277906 -0.55615,0 -1.00108,0.3114472 -1.25691,0.7897412 -0.25583,-0.4745863 -0.70446,-0.7897412 -1.26062,-0.7897412 -0.90468,0 -1.59802,0.7192948 -1.59802,1.7277906 0,1.223543 1.04557,2.428547 2.66213,3.466704 0.0593,0.03708 0.13719,0.07045 0.19651,0.07045 z"
       id="text5-74-6-9-0-8-7"
       style="font-weight:300;font-size:7.59338px;line-height:0;font-family:'SF Pro Rounded';-inkscape-font-specification:'SF Pro Rounded Light';letter-spacing:0px;word-spacing:0px;text-orientation:upright;fill:#ff0000;stroke-width:0.526494;stroke-linecap:round"
       inkscape:label="heart-top"
       transform="scale(1.0050875,0.99493825)"
       aria-label="♥" /><path
       d="m -326.72453,-52.651472 c 0.0556,0 0.13348,-0.03337 0.19281,-0.07045 1.61655,-1.038158 2.66213,-2.243162 2.66213,-3.466705 0,-1.008495 -0.69334,-1.72779 -1.59802,-1.72779 -0.55616,0 -1.00108,0.311447 -1.25692,0.789741 -0.25583,-0.474586 -0.70446,-0.789741 -1.26062,-0.789741 -0.90468,0 -1.59802,0.719295 -1.59802,1.72779 0,1.223543 1.04558,2.428547 2.66214,3.466705 0.0593,0.03708 0.13718,0.07045 0.1965,0.07045 z"
       id="text5-7-4-3-4-7-1-3"
       style="font-weight:300;font-size:7.59338px;line-height:0;font-family:'SF Pro Rounded';-inkscape-font-specification:'SF Pro Rounded Light';letter-spacing:0px;word-spacing:0px;text-orientation:upright;fill:#ff0000;stroke-width:0.526494;stroke-linecap:round"
       inkscape:label="heart-bottom"
       transform="scale(-1.0050875,-0.99493825)"
       aria-label="♥" /></g></svg>
