<?xml version="1.0" encoding="UTF-8" standalone="no"?>
<!-- Created with Inkscape (http://www.inkscape.org/) -->

<svg
   width="179.99977"
   height="251.99976"
   viewBox="0 0 47.624938 66.674935"
   version="1.1"
   id="svg1"
   inkscape:version="1.4 (e7c3feb1, 2024-10-09)"
   sodipodi:docname="All Cards - Spades.svg"
   xml:space="preserve"
   inkscape:export-filename="All Cards - Spades.png"
   inkscape:export-xdpi="96"
   inkscape:export-ydpi="96"
   inkscape:export-batch-path="Spades"
   inkscape:export-batch-name=""
   xmlns:inkscape="http://www.inkscape.org/namespaces/inkscape"
   xmlns:sodipodi="http://sodipodi.sourceforge.net/DTD/sodipodi-0.dtd"
   xmlns="http://www.w3.org/2000/svg"
   xmlns:svg="http://www.w3.org/2000/svg"><sodipodi:namedview
     id="namedview1"
     pagecolor="#ffffff"
     bordercolor="#999999"
     borderopacity="1"
     inkscape:showpageshadow="2"
     inkscape:pageopacity="0"
     inkscape:pagecheckerboard="0"
     inkscape:deskcolor="#d1d1d1"
     inkscape:document-units="px"
     showgrid="true"
     inkscape:zoom="0.69476599"
     inkscape:cx="619.6331"
     inkscape:cy="265.55704"
     inkscape:window-width="1512"
     inkscape:window-height="836"
     inkscape:window-x="0"
     inkscape:window-y="38"
     inkscape:window-maximized="0"
     inkscape:current-layer="layer1"><inkscape:grid
       id="grid2"
       units="px"
       originx="-47.624999"
       originy="-66.675"
       spacingx="0.26458333"
       spacingy="0.26458333"
       empcolor="#0099e5"
       empopacity="0.30196078"
       color="#0099e5"
       opacity="0.14901961"
       empspacing="5"
       enabled="true"
       visible="true" /></sodipodi:namedview><defs
     id="defs1"><inkscape:path-effect
       effect="fillet_chamfer"
       id="path-effect3-3"
       is_visible="true"
       lpeversion="1"
       nodesatellites_param="F,0,0,1,0,3,0,1 @ F,0,0,1,0,3,0,1 @ F,0,0,1,0,3,0,1 @ F,0,0,1,0,3,0,1"
       radius="0"
       unit="px"
       method="auto"
       mode="F"
       chamfer_steps="1"
       flexible="false"
       use_knot_distance="true"
       apply_no_radius="true"
       apply_with_radius="true"
       only_selected="false"
       hide_knots="false" /></defs><g
     inkscape:groupmode="layer"
     id="layer9"
     inkscape:label="9"
     transform="matrix(0.99998908,0,0,1.0101899,0.0020845,-66.677095)"
     inkscape:export-filename="Spades/9.svg"
     inkscape:export-xdpi="96"
     inkscape:export-ydpi="96"><path
       style="fill:#ffffff;fill-opacity:1;stroke:#000000;stroke-width:0.526494;stroke-linecap:round;stroke-linejoin:round;stroke-dasharray:none"
       id="rect1-5"
       width="47.098965"
       height="65.475883"
       x="0.26119247"
       y="0.26535115"
       inkscape:path-effect="#path-effect3-3"
       sodipodi:type="rect"
       d="M 3.2611925,0.26535115 H 44.360157 a 3,3 45 0 1 3,2.99999995 V 62.741235 a 3,3 135 0 1 -3,3 H 3.2611925 a 3,3 45 0 1 -3.00000003,-3 V 3.2653511 A 3,3 135 0 1 3.2611925,0.26535115 Z"
       transform="translate(-2.998046e-5,66.002411)"
       inkscape:label="card" /><path
       style="font-weight:300;font-size:18.2518px;font-family:'SF Pro Rounded';-inkscape-font-specification:'SF Pro Rounded Light';letter-spacing:-7.10767px;word-spacing:0px;stroke:#000000;stroke-width:0.526494;stroke-linecap:round;stroke-linejoin:round"
       d="m 23.445041,106.14438 c 3.065732,0 4.874871,-2.6023 4.874871,-6.906806 0,-1.621986 -0.285185,-2.92314 -0.864465,-3.930197 -0.784257,-1.55069 -2.192355,-2.432979 -3.930198,-2.432979 -2.584483,0 -4.464918,1.86261 -4.464918,4.402534 0,2.415155 1.818051,4.224298 4.268854,4.224298 1.764579,0 3.297445,-1.01597 3.787605,-2.45972 h 0.02674 c 0,0.13368 0,0.276272 0,0.401041 -0.08021,3.529159 -1.37245,5.632389 -3.689573,5.632389 -1.434834,0 -2.299299,-0.65949 -2.851844,-1.79131 -0.213888,-0.41887 -0.383216,-0.55255 -0.659488,-0.55255 -0.329745,0 -0.543633,0.20498 -0.543633,0.52581 0,0.19607 0.05347,0.39213 0.17824,0.64167 0.490161,1.13182 1.835875,2.24582 3.867813,2.24582 z m 0.08021,-5.72151 c -1.880434,0 -3.23506,-1.38136 -3.23506,-3.181586 0,-1.835875 1.41701,-3.270709 3.243972,-3.270709 1.853699,0 3.270709,1.470482 3.270709,3.333093 0,1.72893 -1.434834,3.119202 -3.279621,3.119202 z"
       id="text3-8-1-1-3-3-3-1-3"
       inkscape:label="center"
       transform="scale(1.0050875,0.99493825)"
       aria-label="9" /><path
       d="m 4.9053184,72.921005 c 1.0294062,0 1.6495304,-0.926932 1.6495304,-2.394063 0,-0.659902 -0.139528,-1.172477 -0.409282,-1.531586 -0.2728546,-0.40208 -0.7007404,-0.632279 -1.2216446,-0.632279 -0.8712745,0 -1.5069018,0.650695 -1.5069018,1.51931 0,0.819506 0.6263254,1.442576 1.4851974,1.442576 0.6697341,0 1.2557515,-0.435842 1.4045813,-1.003665 h 0.0062 c 0.0031,0.0798 0.0062,0.174951 0.0031,0.251683 -0.031006,1.313666 -0.5302063,2.130102 -1.4107826,2.130102 -0.5860173,0 -0.9642931,-0.313069 -1.1224248,-0.776535 -0.04961,-0.122772 -0.080616,-0.156536 -0.1457291,-0.156536 -0.068213,0 -0.1116224,0.04297 -0.1116224,0.110496 0,0.04911 0.018604,0.113565 0.046509,0.187228 0.1674335,0.469605 0.6356273,0.853269 1.333267,0.853269 z m 0.021705,-1.813964 c -0.7379477,0 -1.2650533,-0.549406 -1.2650533,-1.227724 0,-0.730496 0.5426086,-1.295249 1.2650533,-1.295249 0.7317466,0 1.2867577,0.586238 1.2867577,1.322873 0,0.641486 -0.5798161,1.2001 -1.2867577,1.2001 z"
       id="text1-7"
       style="font-weight:200;font-size:6.31793px;font-family:'SF Pro Rounded';-inkscape-font-specification:'SF Pro Rounded, Ultra-Light';letter-spacing:-7.10767px;word-spacing:0px;stroke:#000000;stroke-width:0.526494;stroke-linecap:round;stroke-linejoin:round"
       inkscape:label="top"
       aria-label="9" /><path
       d="m 42.716119,125.0906 c -1.029407,0 -1.64953,0.92692 -1.64953,2.39406 0,0.6599 0.139528,1.17247 0.409281,1.53158 0.272855,0.40208 0.700741,0.63228 1.221645,0.63228 0.871275,0 1.506901,-0.65069 1.506901,-1.51931 0,-0.8195 -0.626325,-1.44257 -1.485196,-1.44257 -0.669734,0 -1.255752,0.43584 -1.404582,1.00366 h -0.0062 c -0.0031,-0.0798 -0.0062,-0.17495 -0.0031,-0.25168 0.03101,-1.31367 0.530207,-2.1301 1.410783,-2.1301 0.586017,0 0.964293,0.31306 1.122424,0.77653 0.04961,0.12277 0.08062,0.15653 0.14573,0.15653 0.06821,0 0.111622,-0.043 0.111622,-0.11049 0,-0.0491 -0.0186,-0.11357 -0.0465,-0.18722 -0.167434,-0.46962 -0.635628,-0.85327 -1.333267,-0.85327 z m -0.02171,1.81396 c 0.737948,0 1.265054,0.5494 1.265054,1.22772 0,0.7305 -0.542609,1.29525 -1.265054,1.29525 -0.731746,0 -1.286757,-0.58624 -1.286757,-1.32288 0,-0.64147 0.579816,-1.20009 1.286757,-1.20009 z"
       id="text1-7-3"
       style="font-weight:200;font-size:6.31793px;font-family:'SF Pro Rounded';-inkscape-font-specification:'SF Pro Rounded, Ultra-Light';letter-spacing:-7.10767px;word-spacing:0px;stroke:#000000;stroke-width:0.526494;stroke-linecap:round;stroke-linejoin:round"
       inkscape:label="bottom"
       aria-label="9" /><path
       d="m 2.4209959,77.600502 c 0,0.647821 0.4960992,1.142393 1.157565,1.142393 0.372954,0 0.7423895,-0.128867 0.9042376,-0.442328 h 0.028147 c -0.010555,0.365704 -0.3975831,0.668718 -0.5805417,0.853312 -0.1935139,0.195042 -0.077406,0.470191 0.1759217,0.470191 h 1.7627356 c 0.2498089,0 0.3659172,-0.275149 0.1759218,-0.470191 C 5.8585059,78.969285 5.471478,78.666271 5.4609227,78.300567 h 0.028148 c 0.161848,0.313461 0.534802,0.442328 0.9077561,0.442328 0.6579473,0 1.1540465,-0.494572 1.1540465,-1.142393 0,-1.215534 -1.6536642,-1.717072 -2.3045746,-3.030128 -0.052776,-0.104486 -0.1266636,-0.184594 -0.2603641,-0.184594 -0.1301821,0 -0.2075876,0.08011 -0.2568458,0.184594 -0.6544287,1.313056 -2.3080929,1.814594 -2.3080929,3.030128 z"
       id="text1-1"
       style="font-weight:300;font-size:7.16928px;line-height:0;font-family:'SF Pro Rounded';-inkscape-font-specification:'SF Pro Rounded Light';letter-spacing:0px;word-spacing:0px;text-orientation:upright;stroke-width:0.526494;stroke-linecap:round"
       inkscape:label="spade-top"
       aria-label="♠" /><path
       d="m 45.200445,120.41097 c 0,-0.64782 -0.4961,-1.14239 -1.157566,-1.14239 -0.372953,0 -0.742389,0.12887 -0.904238,0.44233 h -0.02815 c 0.01055,-0.36571 0.397583,-0.66872 0.580542,-0.85331 0.193514,-0.19505 0.0774,-0.4702 -0.175922,-0.4702 h -1.762736 c -0.249808,0 -0.365917,0.27515 -0.175921,0.4702 0.186477,0.18459 0.573505,0.4876 0.58406,0.85331 h -0.02815 c -0.161848,-0.31346 -0.534802,-0.44233 -0.907757,-0.44233 -0.657946,0 -1.154047,0.49457 -1.154047,1.14239 0,1.21553 1.653665,1.71707 2.304576,3.03013 0.05278,0.10449 0.126663,0.18459 0.260363,0.18459 0.130182,0 0.207588,-0.0801 0.256847,-0.18459 0.654428,-1.31306 2.308093,-1.8146 2.308093,-3.03013 z"
       id="text1-6-6"
       style="font-weight:300;font-size:7.16928px;line-height:0;font-family:'SF Pro Rounded';-inkscape-font-specification:'SF Pro Rounded Light';letter-spacing:0px;word-spacing:0px;text-orientation:upright;stroke-width:0.526494;stroke-linecap:round"
       inkscape:label="spade-bottom"
       aria-label="♠" /></g></svg>
