<?xml version="1.0" encoding="UTF-8" standalone="no"?>
<!-- Created with Inkscape (http://www.inkscape.org/) -->

<svg
   width="179.99977"
   height="251.99976"
   viewBox="0 0 47.624938 66.674935"
   version="1.1"
   id="svg1"
   inkscape:version="1.4 (e7c3feb1, 2024-10-09)"
   sodipodi:docname="All Cards - Spades.svg"
   xml:space="preserve"
   inkscape:export-filename="All Cards - Spades.png"
   inkscape:export-xdpi="96"
   inkscape:export-ydpi="96"
   xmlns:inkscape="http://www.inkscape.org/namespaces/inkscape"
   xmlns:sodipodi="http://sodipodi.sourceforge.net/DTD/sodipodi-0.dtd"
   xmlns="http://www.w3.org/2000/svg"
   xmlns:svg="http://www.w3.org/2000/svg"><sodipodi:namedview
     id="namedview1"
     pagecolor="#ffffff"
     bordercolor="#999999"
     borderopacity="1"
     inkscape:showpageshadow="2"
     inkscape:pageopacity="0"
     inkscape:pagecheckerboard="0"
     inkscape:deskcolor="#d1d1d1"
     inkscape:document-units="px"
     showgrid="true"
     inkscape:zoom="0.61073719"
     inkscape:cx="687.6935"
     inkscape:cy="297.18184"
     inkscape:window-width="1512"
     inkscape:window-height="836"
     inkscape:window-x="0"
     inkscape:window-y="38"
     inkscape:window-maximized="0"
     inkscape:current-layer="layer13"><inkscape:grid
       id="grid2"
       units="px"
       originx="7.8904389e-10"
       originy="-66.675003"
       spacingx="0.26458333"
       spacingy="0.26458333"
       empcolor="#0099e5"
       empopacity="0.30196078"
       color="#0099e5"
       opacity="0.14901961"
       empspacing="5"
       enabled="true"
       visible="true" /><inkscape:page
       x="0"
       y="0"
       width="47.624939"
       height="66.674934"
       id="page2"
       margin="0"
       bleed="0" /></sodipodi:namedview><defs
     id="defs1"><inkscape:path-effect
       effect="fillet_chamfer"
       id="path-effect3-3"
       is_visible="true"
       lpeversion="1"
       nodesatellites_param="F,0,0,1,0,3,0,1 @ F,0,0,1,0,3,0,1 @ F,0,0,1,0,3,0,1 @ F,0,0,1,0,3,0,1"
       radius="0"
       unit="px"
       method="auto"
       mode="F"
       chamfer_steps="1"
       flexible="false"
       use_knot_distance="true"
       apply_no_radius="true"
       apply_with_radius="true"
       only_selected="false"
       hide_knots="false" /></defs><g
     inkscape:groupmode="layer"
     id="layer9"
     inkscape:label="9"
     transform="matrix(0.99998908,0,0,1.0101899,0.0020845,-66.677097)"
     inkscape:export-filename="Spades/9.svg"
     inkscape:export-xdpi="96"
     inkscape:export-ydpi="96"><path
       style="fill:#ffffff;fill-opacity:1;stroke:#000000;stroke-width:0.526494;stroke-linecap:round;stroke-linejoin:round;stroke-dasharray:none"
       id="rect1-5"
       width="47.098965"
       height="65.475883"
       x="0.26119247"
       y="0.26535115"
       inkscape:path-effect="#path-effect3-3"
       sodipodi:type="rect"
       d="M 3.2611925,0.26535115 H 44.360157 a 3,3 45 0 1 3,2.99999995 V 62.741235 a 3,3 135 0 1 -3,3 H 3.2611925 a 3,3 45 0 1 -3.00000003,-3 V 3.2653511 A 3,3 135 0 1 3.2611925,0.26535115 Z"
       transform="translate(-2.998046e-5,66.002411)"
       inkscape:label="card" /><path
       style="font-weight:300;font-size:18.2518px;font-family:'SF Pro Rounded';-inkscape-font-specification:'SF Pro Rounded Light';letter-spacing:-7.10767px;word-spacing:0px;stroke:#000000;stroke-width:0.526494;stroke-linecap:round;stroke-linejoin:round"
       d="m 23.445041,106.14438 c 3.065732,0 4.874871,-2.6023 4.874871,-6.906806 0,-1.621986 -0.285185,-2.92314 -0.864465,-3.930197 -0.784257,-1.55069 -2.192355,-2.432979 -3.930198,-2.432979 -2.584483,0 -4.464918,1.86261 -4.464918,4.402534 0,2.415155 1.818051,4.224298 4.268854,4.224298 1.764579,0 3.297445,-1.01597 3.787605,-2.45972 h 0.02674 c 0,0.13368 0,0.276272 0,0.401041 -0.08021,3.529159 -1.37245,5.632389 -3.689573,5.632389 -1.434834,0 -2.299299,-0.65949 -2.851844,-1.79131 -0.213888,-0.41887 -0.383216,-0.55255 -0.659488,-0.55255 -0.329745,0 -0.543633,0.20498 -0.543633,0.52581 0,0.19607 0.05347,0.39213 0.17824,0.64167 0.490161,1.13182 1.835875,2.24582 3.867813,2.24582 z m 0.08021,-5.72151 c -1.880434,0 -3.23506,-1.38136 -3.23506,-3.181586 0,-1.835875 1.41701,-3.270709 3.243972,-3.270709 1.853699,0 3.270709,1.470482 3.270709,3.333093 0,1.72893 -1.434834,3.119202 -3.279621,3.119202 z"
       id="text3-8-1-1-3-3-3-1-3"
       inkscape:label="center"
       transform="scale(1.0050875,0.99493825)"
       aria-label="9" /><path
       d="m 3.8509982,73.296824 c 1.0241956,0 1.6411809,-0.931648 1.6411809,-2.406243 0,-0.663259 -0.1388217,-1.178442 -0.4072103,-1.539378 -0.2714735,-0.404125 -0.6971934,-0.635495 -1.215461,-0.635495 -0.8668643,0 -1.4992742,0.654005 -1.4992742,1.527039 0,0.823675 0.6231551,1.449915 1.4776797,1.449915 0.6663441,0 1.2493952,-0.438059 1.3974717,-1.008771 h 0.00617 c 0.00308,0.08021 0.00617,0.175841 0.00308,0.252964 -0.030849,1.320349 -0.5275225,2.140939 -1.4036416,2.140939 -0.583051,0 -0.9594121,-0.314662 -1.1167433,-0.780486 -0.049359,-0.123397 -0.080208,-0.157332 -0.1449915,-0.157332 -0.067868,0 -0.1110574,0.04319 -0.1110574,0.111058 0,0.04936 0.01851,0.114142 0.046274,0.18818 0.166586,0.471994 0.6324099,0.85761 1.3265183,0.85761 z m 0.021595,-1.823192 c -0.7342124,0 -1.2586499,-0.552201 -1.2586499,-1.23397 0,-0.734213 0.5398621,-1.301839 1.2586499,-1.301839 0.7280427,0 1.2802445,0.589221 1.2802445,1.329603 0,0.64475 -0.5768812,1.206206 -1.2802445,1.206206 z"
       id="text1-7"
       style="font-weight:200;font-size:6.31793px;font-family:'SF Pro Rounded';-inkscape-font-specification:'SF Pro Rounded, Ultra-Light';letter-spacing:-7.10767px;word-spacing:0px;stroke:#000000;stroke-width:0.526494;stroke-linecap:round;stroke-linejoin:round"
       inkscape:label="top"
       transform="scale(1.0050875,0.99493825)"
       aria-label="9" /><path
       d="m -43.529251,-125.7221 c 1.024196,0 1.641181,-0.93164 1.641181,-2.40624 0,-0.66326 -0.138822,-1.17844 -0.40721,-1.53938 -0.271474,-0.40412 -0.697194,-0.63549 -1.215461,-0.63549 -0.866865,0 -1.499274,0.654 -1.499274,1.52704 0,0.82367 0.623155,1.44991 1.477679,1.44991 0.666344,0 1.249395,-0.43806 1.397472,-1.00877 h 0.0062 c 0.0031,0.0802 0.0062,0.17584 0.0031,0.25296 -0.03085,1.32035 -0.527523,2.14094 -1.403642,2.14094 -0.583051,0 -0.959412,-0.31466 -1.116743,-0.78048 -0.04936,-0.1234 -0.08021,-0.15733 -0.144992,-0.15733 -0.06787,0 -0.111057,0.0432 -0.111057,0.11105 0,0.0494 0.01851,0.11415 0.04627,0.18818 0.166586,0.472 0.63241,0.85761 1.326518,0.85761 z m 0.0216,-1.82319 c -0.734213,0 -1.25865,-0.5522 -1.25865,-1.23397 0,-0.73421 0.539862,-1.30184 1.25865,-1.30184 0.728042,0 1.280244,0.58922 1.280244,1.32961 0,0.64474 -0.576881,1.2062 -1.280244,1.2062 z"
       id="text1-7-3"
       style="font-weight:200;font-size:6.31793px;font-family:'SF Pro Rounded';-inkscape-font-specification:'SF Pro Rounded, Ultra-Light';letter-spacing:-7.10767px;word-spacing:0px;stroke:#000000;stroke-width:0.526494;stroke-linecap:round;stroke-linejoin:round"
       inkscape:label="bottom"
       transform="scale(-1.0050875,-0.99493825)"
       aria-label="9" /><path
       d="m 2.1039016,77.995295 c 0,0.651116 0.4935881,1.148205 1.1517057,1.148205 0.3710662,0 0.7386318,-0.129523 0.8996606,-0.444579 h 0.028005 c -0.010502,0.367565 -0.3955706,0.67212 -0.5776031,0.857653 -0.1925344,0.196035 -0.077014,0.472584 0.1750312,0.472584 h 1.7538131 c 0.2485444,0 0.364065,-0.276549 0.1750313,-0.472584 C 5.5240123,79.371041 5.1389435,79.066486 5.1284416,78.698921 h 0.028005 c 0.1610288,0.315056 0.532095,0.444579 0.9031613,0.444579 0.6546169,0 1.148205,-0.497089 1.148205,-1.148205 0,-1.221718 -1.6452938,-1.725808 -2.2929094,-3.045544 -0.052509,-0.105018 -0.1260225,-0.185533 -0.2590462,-0.185533 -0.1295232,0 -0.2065369,0.08052 -0.2555457,0.185533 -0.6511162,1.319736 -2.29641,1.823826 -2.29641,3.045544 z"
       id="text1-1"
       style="font-weight:300;font-size:7.16928px;line-height:0;font-family:'SF Pro Rounded';-inkscape-font-specification:'SF Pro Rounded Light';letter-spacing:0px;word-spacing:0px;text-orientation:upright;stroke-width:0.526494;stroke-linecap:round"
       inkscape:label="spade-top"
       transform="scale(1.0050875,0.99493825)"
       aria-label="♠" /><path
       d="m -45.27648,-121.02356 c 0,0.65111 0.493588,1.1482 1.151706,1.1482 0.371066,0 0.738632,-0.12952 0.899661,-0.44458 h 0.02801 c -0.0105,0.36757 -0.395571,0.67212 -0.577604,0.85765 -0.192534,0.19604 -0.07701,0.47259 0.175032,0.47259 h 1.753813 c 0.248544,0 0.364065,-0.27655 0.175031,-0.47259 -0.185533,-0.18553 -0.570602,-0.49008 -0.581104,-0.85765 h 0.02801 c 0.161029,0.31506 0.532095,0.44458 0.903162,0.44458 0.654616,0 1.148205,-0.49709 1.148205,-1.1482 0,-1.22172 -1.645294,-1.72581 -2.29291,-3.04555 -0.05251,-0.10502 -0.126022,-0.18553 -0.259046,-0.18553 -0.129523,0 -0.206537,0.0805 -0.255546,0.18553 -0.651116,1.31974 -2.29641,1.82383 -2.29641,3.04555 z"
       id="text1-6-6"
       style="font-weight:300;font-size:7.16928px;line-height:0;font-family:'SF Pro Rounded';-inkscape-font-specification:'SF Pro Rounded Light';letter-spacing:0px;word-spacing:0px;text-orientation:upright;stroke-width:0.526494;stroke-linecap:round"
       inkscape:label="spade-bottom"
       transform="scale(-1.0050875,-0.99493825)"
       aria-label="♠" /></g></svg>
