<?xml version="1.0" encoding="UTF-8" standalone="no"?>
<!-- Created with Inkscape (http://www.inkscape.org/) -->

<svg
   width="179.99976"
   height="251.99976"
   viewBox="0 0 47.624934 66.674935"
   version="1.1"
   id="svg1"
   inkscape:version="1.4 (e7c3feb1, 2024-10-09)"
   sodipodi:docname="All Cards - Diamonds.svg"
   xml:space="preserve"
   inkscape:export-filename="All Cards - Diamonds.png"
   inkscape:export-xdpi="96"
   inkscape:export-ydpi="96"
   xmlns:inkscape="http://www.inkscape.org/namespaces/inkscape"
   xmlns:sodipodi="http://sodipodi.sourceforge.net/DTD/sodipodi-0.dtd"
   xmlns="http://www.w3.org/2000/svg"
   xmlns:svg="http://www.w3.org/2000/svg"><sodipodi:namedview
     id="namedview1"
     pagecolor="#ffffff"
     bordercolor="#999999"
     borderopacity="1"
     inkscape:showpageshadow="2"
     inkscape:pageopacity="0"
     inkscape:pagecheckerboard="0"
     inkscape:deskcolor="#d1d1d1"
     inkscape:document-units="px"
     showgrid="true"
     inkscape:zoom="0.56122896"
     inkscape:cx="712.7216"
     inkscape:cy="285.97954"
     inkscape:window-width="1512"
     inkscape:window-height="836"
     inkscape:window-x="0"
     inkscape:window-y="38"
     inkscape:window-maximized="0"
     inkscape:current-layer="layer14"><inkscape:grid
       id="grid2"
       units="px"
       originx="-95.25"
       originy="-66.675003"
       spacingx="0.26458333"
       spacingy="0.26458333"
       empcolor="#0099e5"
       empopacity="0.30196078"
       color="#0099e5"
       opacity="0.14901961"
       empspacing="5"
       enabled="true"
       visible="true" /><inkscape:page
       x="0"
       y="0"
       width="47.624935"
       height="66.674934"
       id="page2"
       margin="0"
       bleed="0" /></sodipodi:namedview><defs
     id="defs1"><inkscape:path-effect
       effect="fillet_chamfer"
       id="path-effect3-1"
       is_visible="true"
       lpeversion="1"
       nodesatellites_param="F,0,0,1,0,3,0,1 @ F,0,0,1,0,3,0,1 @ F,0,0,1,0,3,0,1 @ F,0,0,1,0,3,0,1"
       radius="0"
       unit="px"
       method="auto"
       mode="F"
       chamfer_steps="1"
       flexible="false"
       use_knot_distance="true"
       apply_no_radius="true"
       apply_with_radius="true"
       only_selected="false"
       hide_knots="false" /></defs><g
     inkscape:groupmode="layer"
     id="layer11"
     inkscape:label="Jack"
     inkscape:export-filename="Diamonds/Jack.svg"
     inkscape:export-xdpi="96"
     inkscape:export-ydpi="96"
     transform="translate(-95.250001,-66.675002)"><path
       style="fill:#ffffff;fill-opacity:1;stroke:#000000;stroke-width:0.526494;stroke-linecap:round;stroke-linejoin:round;stroke-dasharray:none;stroke-opacity:1"
       id="rect1-58"
       width="47.098965"
       height="65.475883"
       x="0.26119247"
       y="0.26535115"
       inkscape:path-effect="#path-effect3-1"
       sodipodi:type="rect"
       d="M 3.2611925,0.26535115 H 44.360157 a 3,3 45 0 1 3,2.99999995 V 62.741235 a 3,3 135 0 1 -3,3 H 3.2611925 a 3,3 45 0 1 -3.00000003,-3 V 3.2653511 A 3,3 135 0 1 3.2611925,0.26535115 Z"
       transform="matrix(0.99998907,0,0,1.0101899,95.252053,66.672874)"
       inkscape:label="card" /><path
       style="font-weight:300;font-size:18.3445px;font-family:'SF Pro Rounded';-inkscape-font-specification:'SF Pro Rounded Light';letter-spacing:-7.14375px;word-spacing:0px;fill:#ff0000;stroke:#ff0000;stroke-width:0.529167;stroke-linecap:round;stroke-linejoin:round"
       d="m 118.99081,106.64085 c 2.31993,0 3.69935,-1.43317 3.69935,-3.80684 v -8.813964 c 0,-0.39412 -0.23289,-0.635966 -0.60909,-0.635966 -0.37621,0 -0.6091,0.241846 -0.6091,0.635966 v 8.796044 c 0,1.72875 -0.90468,2.68718 -2.48116,2.68718 -1.21819,0 -2.11392,-0.71658 -2.36472,-1.95268 -0.0985,-0.39412 -0.28664,-0.56431 -0.6091,-0.56431 -0.35829,0 -0.58222,0.23289 -0.58222,0.63597 0,0.25976 0.0537,0.45682 0.1254,0.69866 0.40308,1.39734 1.75563,2.31994 3.43064,2.31994 z"
       id="text3-8-1-1-3-3-3-1-3-1"
       inkscape:label="center"
       aria-label="J" /><path
       d="m 98.821872,73.638911 c 0.768946,0 1.234038,-0.489892 1.234038,-1.26814 v -3.187403 c 0,-0.08061 -0.0496,-0.130225 -0.124027,-0.130225 -0.07441,0 -0.124024,0.04961 -0.124024,0.130225 v 3.178102 c 0,0.663525 -0.36897,1.047998 -0.989087,1.047998 -0.505396,0 -0.880567,-0.303858 -0.94878,-0.799951 -0.0186,-0.08372 -0.05581,-0.124024 -0.124023,-0.124024 -0.07131,0 -0.114722,0.04961 -0.114722,0.133325 0,0.05581 0.0062,0.108521 0.0217,0.176734 0.108521,0.499194 0.58291,0.843359 1.168921,0.843359 z"
       id="text1-7-9"
       style="font-weight:200;font-size:6.35px;font-family:'SF Pro Rounded';-inkscape-font-specification:'SF Pro Rounded, Ultra-Light';letter-spacing:-7.14375px;word-spacing:0px;fill:#ff0000;stroke:#ff0000;stroke-width:0.529167;stroke-linecap:round;stroke-linejoin:round"
       inkscape:label="top"
       aria-label="J" /><path
       d="m -139.30317,-126.38602 c 0.76894,0 1.23403,-0.48989 1.23403,-1.26814 v -3.1874 c 0,-0.0806 -0.0496,-0.13023 -0.12402,-0.13023 -0.0744,0 -0.12403,0.0496 -0.12403,0.13023 v 3.1781 c 0,0.66352 -0.36897,1.048 -0.98908,1.048 -0.5054,0 -0.88057,-0.30386 -0.94878,-0.79996 -0.0186,-0.0837 -0.0558,-0.12402 -0.12403,-0.12402 -0.0713,0 -0.11472,0.0496 -0.11472,0.13333 0,0.0558 0.006,0.10852 0.0217,0.17673 0.10852,0.49919 0.58291,0.84336 1.16892,0.84336 z"
       id="text1-7-9-1"
       style="font-weight:200;font-size:6.35px;font-family:'SF Pro Rounded';-inkscape-font-specification:'SF Pro Rounded, Ultra-Light';letter-spacing:-7.14375px;word-spacing:0px;fill:#ff0000;stroke:#ff0000;stroke-width:0.529167;stroke-linecap:round;stroke-linejoin:round"
       inkscape:label="bottom"
       transform="scale(-1)"
       aria-label="J" /><path
       d="m 114.3031,70.995423 c 0.1416,0 0.21422,-0.09803 0.35945,-0.290466 l 1.70286,-2.283789 c 0.0726,-0.09803 0.11255,-0.192434 0.11255,-0.297728 0,-0.105294 -0.0399,-0.199695 -0.11255,-0.297727 l -1.70286,-2.283789 c -0.14523,-0.192434 -0.21785,-0.290466 -0.35945,-0.290466 -0.14524,0 -0.21785,0.09803 -0.36308,0.290466 l -1.70286,2.283789 c -0.0726,0.09803 -0.11256,0.192433 -0.11256,0.297727 0,0.105294 0.0399,0.199696 0.11256,0.297728 l 1.70286,2.283789 c 0.14523,0.192434 0.21784,0.290466 0.36308,0.290466 z"
       id="text4-6-9-8"
       style="font-weight:300;font-size:7.43593px;line-height:0;font-family:'SF Pro Rounded';-inkscape-font-specification:'SF Pro Rounded Light';letter-spacing:0px;word-spacing:0px;text-orientation:upright;fill:#ff0000;stroke-width:0.529167;stroke-linecap:round"
       inkscape:label="diamond-top"
       transform="scale(0.86837916,1.1515707)"
       aria-label="♦" /><path
       d="m 159.9183,108.44608 c 0.1416,0 0.21422,-0.098 0.35945,-0.29046 l 1.70286,-2.28379 c 0.0726,-0.098 0.11256,-0.19244 0.11256,-0.29773 0,-0.10529 -0.0399,-0.19969 -0.11256,-0.29773 l -1.70286,-2.28379 c -0.14523,-0.19243 -0.21785,-0.29046 -0.35945,-0.29046 -0.14523,0 -0.21785,0.098 -0.36308,0.29046 l -1.70286,2.28379 c -0.0726,0.098 -0.11255,0.19244 -0.11255,0.29773 0,0.10529 0.0399,0.1997 0.11255,0.29773 l 1.70286,2.28379 c 0.14523,0.19243 0.21785,0.29046 0.36308,0.29046 z"
       id="text4-5-3-5-7"
       style="font-weight:300;font-size:7.43593px;line-height:0;font-family:'SF Pro Rounded';-inkscape-font-specification:'SF Pro Rounded Light';letter-spacing:0px;word-spacing:0px;text-orientation:upright;fill:#ff0000;stroke-width:0.529167;stroke-linecap:round"
       inkscape:label="diamond-bottom"
       transform="scale(0.86837917,1.1515707)"
       aria-label="♦" /></g></svg>
