<?xml version="1.0" encoding="UTF-8" standalone="no"?>
<!-- Created with Inkscape (http://www.inkscape.org/) -->

<svg
   width="179.99977"
   height="251.99976"
   viewBox="0 0 47.624938 66.674935"
   version="1.1"
   id="svg1"
   inkscape:version="1.4 (e7c3feb1, 2024-10-09)"
   sodipodi:docname="All Cards - Diamonds.svg"
   xml:space="preserve"
   inkscape:export-filename="All Cards - Diamonds.png"
   inkscape:export-xdpi="96"
   inkscape:export-ydpi="96"
   inkscape:export-batch-path="Diamonds"
   inkscape:export-batch-name=""
   xmlns:inkscape="http://www.inkscape.org/namespaces/inkscape"
   xmlns:sodipodi="http://sodipodi.sourceforge.net/DTD/sodipodi-0.dtd"
   xmlns="http://www.w3.org/2000/svg"
   xmlns:svg="http://www.w3.org/2000/svg"><sodipodi:namedview
     id="namedview1"
     pagecolor="#ffffff"
     bordercolor="#999999"
     borderopacity="1"
     inkscape:showpageshadow="2"
     inkscape:pageopacity="0"
     inkscape:pagecheckerboard="0"
     inkscape:deskcolor="#d1d1d1"
     inkscape:document-units="px"
     showgrid="true"
     inkscape:zoom="0.69002035"
     inkscape:cx="626.79311"
     inkscape:cy="261.58649"
     inkscape:window-width="1512"
     inkscape:window-height="836"
     inkscape:window-x="0"
     inkscape:window-y="38"
     inkscape:window-maximized="0"
     inkscape:current-layer="layer14"><inkscape:grid
       id="grid2"
       units="px"
       originx="-142.875"
       originy="-66.675"
       spacingx="0.26458333"
       spacingy="0.26458333"
       empcolor="#0099e5"
       empopacity="0.30196078"
       color="#0099e5"
       opacity="0.14901961"
       empspacing="5"
       enabled="true"
       visible="true" /></sodipodi:namedview><defs
     id="defs1"><inkscape:path-effect
       effect="fillet_chamfer"
       id="path-effect3-1"
       is_visible="true"
       lpeversion="1"
       nodesatellites_param="F,0,0,1,0,3,0,1 @ F,0,0,1,0,3,0,1 @ F,0,0,1,0,3,0,1 @ F,0,0,1,0,3,0,1"
       radius="0"
       unit="px"
       method="auto"
       mode="F"
       chamfer_steps="1"
       flexible="false"
       use_knot_distance="true"
       apply_no_radius="true"
       apply_with_radius="true"
       only_selected="false"
       hide_knots="false" /></defs><g
     inkscape:groupmode="layer"
     id="layer11"
     inkscape:label="Jack"
     inkscape:export-filename="Diamonds/Jack.svg"
     inkscape:export-xdpi="96"
     inkscape:export-ydpi="96"
     transform="translate(-95.249998,-66.675)"><path
       style="fill:#ffffff;fill-opacity:1;stroke:#000000;stroke-width:0.526494;stroke-linecap:round;stroke-linejoin:round;stroke-dasharray:none;stroke-opacity:1"
       id="rect1-58"
       width="47.098965"
       height="65.475883"
       x="0.26119247"
       y="0.26535115"
       inkscape:path-effect="#path-effect3-1"
       sodipodi:type="rect"
       d="M 3.2611925,0.26535115 H 44.360157 a 3,3 45 0 1 3,2.99999995 V 62.741235 a 3,3 135 0 1 -3,3 H 3.2611925 a 3,3 45 0 1 -3.00000003,-3 V 3.2653511 A 3,3 135 0 1 3.2611925,0.26535115 Z"
       transform="matrix(0.99998907,0,0,1.0101899,95.252053,66.672874)"
       inkscape:label="card" /><path
       style="font-weight:300;font-size:18.3445px;font-family:'SF Pro Rounded';-inkscape-font-specification:'SF Pro Rounded Light';letter-spacing:-7.14375px;word-spacing:0px;fill:#ff0000;stroke:#ff0000;stroke-width:0.529167;stroke-linecap:round;stroke-linejoin:round"
       d="m 118.99081,106.64085 c 2.31993,0 3.69935,-1.43317 3.69935,-3.80684 v -8.813964 c 0,-0.39412 -0.23289,-0.635966 -0.60909,-0.635966 -0.37621,0 -0.6091,0.241846 -0.6091,0.635966 v 8.796044 c 0,1.72875 -0.90468,2.68718 -2.48116,2.68718 -1.21819,0 -2.11392,-0.71658 -2.36472,-1.95268 -0.0985,-0.39412 -0.28664,-0.56431 -0.6091,-0.56431 -0.35829,0 -0.58222,0.23289 -0.58222,0.63597 0,0.25976 0.0537,0.45682 0.1254,0.69866 0.40308,1.39734 1.75563,2.31994 3.43064,2.31994 z"
       id="text3-8-1-1-3-3-3-1-3-1"
       inkscape:label="center"
       aria-label="J" /><path
       d="m 100.2162,73.642017 c 0.76895,0 1.23404,-0.489892 1.23404,-1.26814 v -3.187403 c 0,-0.08061 -0.0496,-0.130225 -0.12403,-0.130225 -0.0744,0 -0.12402,0.04961 -0.12402,0.130225 v 3.178102 c 0,0.663525 -0.36897,1.047998 -0.98909,1.047998 -0.505393,0 -0.880564,-0.303858 -0.948777,-0.799951 -0.0186,-0.08372 -0.05581,-0.124024 -0.124023,-0.124024 -0.07131,0 -0.114722,0.04961 -0.114722,0.133325 0,0.05581 0.0062,0.108521 0.0217,0.176734 0.108521,0.499194 0.58291,0.843359 1.168922,0.843359 z"
       id="text1-7-9"
       style="font-weight:200;font-size:6.35px;font-family:'SF Pro Rounded';-inkscape-font-specification:'SF Pro Rounded, Ultra-Light';letter-spacing:-7.14375px;word-spacing:0px;fill:#ff0000;stroke:#ff0000;stroke-width:0.529167;stroke-linecap:round;stroke-linejoin:round"
       inkscape:label="top"
       aria-label="J" /><path
       d="m 137.90881,126.38299 c -0.76893,0 -1.23403,0.48989 -1.23403,1.26814 v 3.1874 c 0,0.0806 0.0496,0.13023 0.12403,0.13023 0.0744,0 0.12403,-0.0496 0.12403,-0.13023 v -3.1781 c 0,-0.66352 0.36896,-1.048 0.98908,-1.048 0.5054,0 0.88056,0.30386 0.94878,0.79996 0.0186,0.0837 0.0558,0.12402 0.12403,0.12402 0.0713,0 0.11471,-0.0496 0.11471,-0.13333 0,-0.0558 -0.006,-0.10852 -0.0217,-0.17673 -0.10852,-0.49919 -0.5829,-0.84336 -1.16892,-0.84336 z"
       id="text1-7-9-1"
       style="font-weight:200;font-size:6.35px;font-family:'SF Pro Rounded';-inkscape-font-specification:'SF Pro Rounded, Ultra-Light';letter-spacing:-7.14375px;word-spacing:0px;fill:#ff0000;stroke:#ff0000;stroke-width:0.529167;stroke-linecap:round;stroke-linejoin:round"
       inkscape:label="bottom"
       aria-label="J" /><path
       d="m 100.23951,81.756249 c 0.12296,0 0.18602,-0.112889 0.31214,-0.334492 l 1.47873,-2.629945 c 0.0631,-0.112888 0.0977,-0.221601 0.0977,-0.342855 0,-0.121253 -0.0346,-0.229962 -0.0977,-0.342853 l -1.47873,-2.629945 c -0.12612,-0.221601 -0.18918,-0.334492 -0.31214,-0.334492 -0.12612,0 -0.18918,0.112889 -0.315293,0.334492 l -1.478728,2.629945 c -0.06304,0.112888 -0.09775,0.2216 -0.09775,0.342853 0,0.121254 0.03465,0.229965 0.09775,0.342855 l 1.478728,2.629945 c 0.126113,0.221601 0.189173,0.334492 0.315293,0.334492 z"
       id="text4-6-9-8"
       style="font-weight:300;font-size:7.43593px;line-height:0;font-family:'SF Pro Rounded';-inkscape-font-specification:'SF Pro Rounded Light';letter-spacing:0px;word-spacing:0px;text-orientation:upright;fill:#ff0000;stroke-width:0.529167;stroke-linecap:round"
       inkscape:label="diamond-top"
       aria-label="♦" /><path
       d="m 137.88864,124.88333 c 0.12297,0 0.18603,-0.11286 0.31214,-0.33449 l 1.47873,-2.62994 c 0.0631,-0.11286 0.0978,-0.22161 0.0978,-0.34286 0,-0.12125 -0.0346,-0.22996 -0.0978,-0.34286 l -1.47873,-2.62994 c -0.12611,-0.2216 -0.18917,-0.33449 -0.31214,-0.33449 -0.12611,0 -0.18917,0.11286 -0.31529,0.33449 l -1.47873,2.62994 c -0.063,0.11286 -0.0977,0.22161 -0.0977,0.34286 0,0.12125 0.0346,0.22997 0.0977,0.34286 l 1.47873,2.62994 c 0.12612,0.2216 0.18918,0.33449 0.31529,0.33449 z"
       id="text4-5-3-5-7"
       style="font-weight:300;font-size:7.43593px;line-height:0;font-family:'SF Pro Rounded';-inkscape-font-specification:'SF Pro Rounded Light';letter-spacing:0px;word-spacing:0px;text-orientation:upright;fill:#ff0000;stroke-width:0.529167;stroke-linecap:round"
       inkscape:label="diamond-bottom"
       aria-label="♦" /></g></svg>
