<?xml version="1.0" encoding="UTF-8" standalone="no"?>
<!-- Created with Inkscape (http://www.inkscape.org/) -->

<svg
   width="179.99976"
   height="251.99976"
   viewBox="0 0 47.624934 66.674935"
   version="1.1"
   id="svg1"
   inkscape:version="1.4 (e7c3feb1, 2024-10-09)"
   sodipodi:docname="All Cards - Clubs.svg"
   xml:space="preserve"
   inkscape:export-filename="All Cards - Clubs.png"
   inkscape:export-xdpi="96"
   inkscape:export-ydpi="96"
   xmlns:inkscape="http://www.inkscape.org/namespaces/inkscape"
   xmlns:sodipodi="http://sodipodi.sourceforge.net/DTD/sodipodi-0.dtd"
   xmlns="http://www.w3.org/2000/svg"
   xmlns:svg="http://www.w3.org/2000/svg"><sodipodi:namedview
     id="namedview1"
     pagecolor="#ffffff"
     bordercolor="#999999"
     borderopacity="1"
     inkscape:showpageshadow="2"
     inkscape:pageopacity="0"
     inkscape:pagecheckerboard="0"
     inkscape:deskcolor="#d1d1d1"
     inkscape:document-units="px"
     showgrid="true"
     inkscape:zoom="0.6064148"
     inkscape:cx="370.20864"
     inkscape:cy="230.04056"
     inkscape:window-width="1512"
     inkscape:window-height="836"
     inkscape:window-x="0"
     inkscape:window-y="38"
     inkscape:window-maximized="0"
     inkscape:current-layer="layer14"><inkscape:grid
       id="grid2"
       units="px"
       originx="-333.375"
       originy="-3.4711749e-13"
       spacingx="0.26458333"
       spacingy="0.26458333"
       empcolor="#0099e5"
       empopacity="0.30196078"
       color="#0099e5"
       opacity="0.14901961"
       empspacing="5"
       enabled="true"
       visible="true" /><inkscape:page
       x="0"
       y="0"
       width="47.624935"
       height="66.674934"
       id="page2"
       margin="0"
       bleed="0" /></sodipodi:namedview><defs
     id="defs1"><inkscape:path-effect
       effect="fillet_chamfer"
       id="path-effect3-08"
       is_visible="true"
       lpeversion="1"
       nodesatellites_param="F,0,0,1,0,3,0,1 @ F,0,0,1,0,3,0,1 @ F,0,0,1,0,3,0,1 @ F,0,0,1,0,3,0,1"
       radius="0"
       unit="px"
       method="auto"
       mode="F"
       chamfer_steps="1"
       flexible="false"
       use_knot_distance="true"
       apply_no_radius="true"
       apply_with_radius="true"
       only_selected="false"
       hide_knots="false" /></defs><g
     inkscape:groupmode="layer"
     id="layer8"
     inkscape:label="8"
     transform="matrix(0.99998908,0,0,1.0101899,-333.37292,-0.00209528)"
     inkscape:export-filename="Clubs/8.svg"
     inkscape:export-xdpi="96"
     inkscape:export-ydpi="96"><path
       style="fill:#ffffff;fill-opacity:1;stroke:#000000;stroke-width:0.526494;stroke-linecap:round;stroke-linejoin:round;stroke-dasharray:none"
       id="rect1-0"
       width="47.098965"
       height="65.475883"
       x="0.26119247"
       y="0.26535115"
       inkscape:path-effect="#path-effect3-08"
       sodipodi:type="rect"
       d="M 3.2611925,0.26535115 H 44.360157 a 3,3 45 0 1 3,2.99999995 V 62.741235 a 3,3 135 0 1 -3,3 H 3.2611925 a 3,3 45 0 1 -3.00000003,-3 V 3.2653511 A 3,3 135 0 1 3.2611925,0.26535115 Z"
       transform="translate(333.37861,-2.9988694e-5)"
       inkscape:label="card" /><path
       style="font-weight:300;font-size:18.2518px;font-family:'SF Pro Rounded';-inkscape-font-specification:'SF Pro Rounded Light';letter-spacing:-7.10767px;word-spacing:0px;stroke:#000000;stroke-width:0.526494;stroke-linecap:round;stroke-linejoin:round"
       d="m 355.38127,39.806161 c 2.70925,0 4.58077,-1.541778 4.58077,-3.698485 0,-1.613074 -1.15856,-2.940964 -2.86966,-3.306356 v -0.02674 c 1.46157,-0.418865 2.39733,-1.515042 2.39733,-2.87858 0,-1.942819 -1.71111,-3.359829 -4.10844,-3.359829 -2.38842,0 -4.11735,1.41701 -4.11735,3.359829 0,1.381362 0.93576,2.477539 2.40624,2.87858 v 0.02674 c -1.7111,0.365392 -2.86966,1.68437 -2.86966,3.306356 0,2.147795 1.88043,3.698485 4.58077,3.698485 z m 0,-7.495002 c -1.7022,0 -2.90532,-0.962497 -2.90532,-2.317123 0,-1.381362 1.17639,-2.397331 2.90532,-2.397331 1.73784,0 2.90532,1.015969 2.90532,2.397331 0,1.354626 -1.21204,2.317123 -2.90532,2.317123 z m 0,6.425561 c -1.98738,0 -3.34201,-1.14965 -3.34201,-2.70034 0,-1.541778 1.37245,-2.637955 3.34201,-2.637955 1.97847,0 3.342,1.096177 3.342,2.637955 0,1.55069 -1.35462,2.70034 -3.342,2.70034 z"
       id="text3-8-1-1-3-3-3-1"
       inkscape:label="center"
       transform="scale(1.0050875,0.99493825)"
       aria-label="8" /><path
       d="m 335.61003,6.9585932 c 0.92857,0 1.54864,-0.5336922 1.54864,-1.2802443 0,-0.5707114 -0.42572,-1.0303654 -1.03654,-1.1445076 v -0.00925 c 0.51827,-0.1295669 0.87304,-0.5182676 0.87304,-0.9964312 0,-0.6694289 -0.56763,-1.1506774 -1.38514,-1.1506774 -0.81442,0 -1.38821,0.4812485 -1.38821,1.1506774 0,0.4935882 0.35168,0.8730342 0.88229,0.9964312 v 0.00925 c -0.6139,0.1141422 -1.03962,0.5737962 -1.03962,1.1445076 0,0.7434672 0.62007,1.2802443 1.54554,1.2802443 z m 0,-2.5296394 c -0.66634,0 -1.1445,-0.3701912 -1.1445,-0.8884587 0,-0.5336923 0.45348,-0.9439875 1.1445,-0.9439875 0.69411,0 1.14451,0.4072103 1.14451,0.9439875 0,0.5182675 -0.47508,0.8884587 -1.14451,0.8884587 z m 0,2.3106097 c -0.78665,0 -1.29875,-0.4565691 -1.29875,-1.0704694 0,-0.5892209 0.52135,-1.0149407 1.29875,-1.0149407 0.78049,0 1.30184,0.4226349 1.30184,1.0149407 0,0.6139003 -0.51518,1.0704694 -1.30184,1.0704694 z"
       id="text1-4-8-9-6-8-60-0"
       style="font-weight:200;font-size:6.31793px;font-family:'SF Pro Rounded';-inkscape-font-specification:'SF Pro Rounded, Ultra-Light';letter-spacing:-7.10767px;word-spacing:0px;stroke:#000000;stroke-width:0.526494;stroke-linecap:round;stroke-linejoin:round"
       inkscape:label="top"
       transform="scale(1.0050875,0.99493825)"
       aria-label="8" /><path
       d="m -375.15257,-59.383867 c 0.92856,0 1.54863,-0.533692 1.54863,-1.280244 0,-0.570712 -0.42572,-1.030366 -1.03653,-1.144508 v -0.0093 c 0.51827,-0.129567 0.87303,-0.518267 0.87303,-0.996431 0,-0.669429 -0.56762,-1.150677 -1.38513,-1.150677 -0.81442,0 -1.38822,0.481248 -1.38822,1.150677 0,0.493588 0.35169,0.873034 0.88229,0.996431 v 0.0093 c -0.6139,0.114142 -1.03962,0.573796 -1.03962,1.144508 0,0.743467 0.62007,1.280244 1.54555,1.280244 z m 0,-2.529639 c -0.66634,0 -1.14451,-0.370192 -1.14451,-0.888459 0,-0.533692 0.45349,-0.943988 1.14451,-0.943988 0.69411,0 1.14451,0.407211 1.14451,0.943988 0,0.518267 -0.47508,0.888459 -1.14451,0.888459 z m 0,2.310609 c -0.78666,0 -1.29875,-0.456569 -1.29875,-1.070469 0,-0.589221 0.52135,-1.014941 1.29875,-1.014941 0.78049,0 1.30184,0.422635 1.30184,1.014941 0,0.6139 -0.51518,1.070469 -1.30184,1.070469 z"
       id="text1-4-8-9-6-8-60-0-7"
       style="font-weight:200;font-size:6.31793px;font-family:'SF Pro Rounded';-inkscape-font-specification:'SF Pro Rounded, Ultra-Light';letter-spacing:-7.10767px;word-spacing:0px;stroke:#000000;stroke-width:0.526494;stroke-linecap:round;stroke-linejoin:round"
       inkscape:label="bottom"
       transform="scale(-1.0050875,-0.99493825)"
       aria-label="8" /><path
       d="m 333.79504,11.584951 c 0,0.676662 0.52107,1.190491 1.19773,1.190491 0.38357,0 0.76713,-0.133885 0.93358,-0.459551 h 0.029 c -0.0145,0.379944 -0.41251,0.694755 -0.60068,0.886536 -0.1954,0.202637 -0.076,0.4885 0.18093,0.4885 h 1.81288 c 0.26053,0 0.37994,-0.285863 0.18092,-0.4885 -0.18816,-0.191781 -0.5862,-0.506592 -0.59705,-0.886536 h 0.029 c 0.16645,0.325666 0.54639,0.459551 0.92995,0.459551 0.68028,0 1.19773,-0.513829 1.19773,-1.190491 0,-0.673044 -0.51383,-1.237533 -1.18325,-1.237533 -0.2533,0 -0.51745,0.08323 -0.72732,0.249678 0.35823,-0.2931 0.47402,-0.6513328 0.47402,-0.9625251 0,-0.6694254 -0.54278,-1.2085842 -1.20858,-1.2085842 -0.66581,0 -1.20859,0.5391588 -1.20859,1.2085842 0,0.3111923 0.1158,0.6694251 0.47041,0.9625251 -0.20625,-0.166452 -0.47402,-0.249678 -0.72732,-0.249678 -0.66943,0 -1.18326,0.564489 -1.18326,1.237533 z"
       id="text3-7-0-5-9-3-7-2"
       style="font-weight:300;font-size:7.41072px;line-height:0;font-family:'SF Pro Rounded';-inkscape-font-specification:'SF Pro Rounded Light';letter-spacing:0px;word-spacing:0px;text-orientation:upright;stroke-width:0.526494;stroke-linecap:round"
       inkscape:label="club-top"
       transform="scale(1.0050875,0.99493825)"
       aria-label="♣" /><path
       d="m -376.96756,-54.757448 c 0,0.676663 0.52107,1.190492 1.19773,1.190492 0.38356,0 0.76712,-0.133885 0.93358,-0.459552 h 0.0289 c -0.0145,0.379944 -0.41251,0.694755 -0.60067,0.886537 -0.1954,0.202636 -0.076,0.488499 0.18093,0.488499 h 1.81287 c 0.26054,0 0.37995,-0.285863 0.18093,-0.488499 -0.18816,-0.191782 -0.5862,-0.506593 -0.59706,-0.886537 h 0.029 c 0.16645,0.325667 0.5464,0.459552 0.92996,0.459552 0.68028,0 1.19773,-0.513829 1.19773,-1.190492 0,-0.673044 -0.51383,-1.237532 -1.18326,-1.237532 -0.25329,0 -0.51744,0.08323 -0.72732,0.249677 0.35824,-0.293099 0.47403,-0.651332 0.47403,-0.962525 0,-0.669425 -0.54278,-1.208584 -1.20859,-1.208584 -0.6658,0 -1.20858,0.539159 -1.20858,1.208584 0,0.311193 0.11579,0.669426 0.47041,0.962525 -0.20626,-0.166451 -0.47403,-0.249677 -0.72732,-0.249677 -0.66943,0 -1.18326,0.564488 -1.18326,1.237532 z"
       id="text3-6-6-0-9-0-7-4-4"
       style="font-weight:300;font-size:7.41072px;line-height:0;font-family:'SF Pro Rounded';-inkscape-font-specification:'SF Pro Rounded Light';letter-spacing:0px;word-spacing:0px;text-orientation:upright;stroke-width:0.526494;stroke-linecap:round"
       inkscape:label="club-bottom"
       transform="scale(-1.0050875,-0.99493825)"
       aria-label="♣" /></g></svg>
