<?xml version="1.0" encoding="UTF-8" standalone="no"?>
<!-- Created with Inkscape (http://www.inkscape.org/) -->

<svg
   width="179.99977"
   height="251.99976"
   viewBox="0 0 47.624938 66.674935"
   version="1.1"
   id="svg1"
   inkscape:version="1.4 (e7c3feb1, 2024-10-09)"
   sodipodi:docname="All Cards - Clubs.svg"
   xml:space="preserve"
   inkscape:export-filename="All Cards - Clubs.png"
   inkscape:export-xdpi="96"
   inkscape:export-ydpi="96"
   inkscape:export-batch-path="Clubs"
   inkscape:export-batch-name=""
   xmlns:inkscape="http://www.inkscape.org/namespaces/inkscape"
   xmlns:sodipodi="http://sodipodi.sourceforge.net/DTD/sodipodi-0.dtd"
   xmlns="http://www.w3.org/2000/svg"
   xmlns:svg="http://www.w3.org/2000/svg"><sodipodi:namedview
     id="namedview1"
     pagecolor="#ffffff"
     bordercolor="#999999"
     borderopacity="1"
     inkscape:showpageshadow="2"
     inkscape:pageopacity="0"
     inkscape:pagecheckerboard="0"
     inkscape:deskcolor="#d1d1d1"
     inkscape:document-units="px"
     showgrid="true"
     inkscape:zoom="0.62203345"
     inkscape:cx="632.60264"
     inkscape:cy="315.89941"
     inkscape:window-width="1512"
     inkscape:window-height="836"
     inkscape:window-x="0"
     inkscape:window-y="38"
     inkscape:window-maximized="0"
     inkscape:current-layer="layer14"><inkscape:grid
       id="grid2"
       units="px"
       originx="-4.9849223e-06"
       originy="-66.675"
       spacingx="0.26458333"
       spacingy="0.26458333"
       empcolor="#0099e5"
       empopacity="0.30196078"
       color="#0099e5"
       opacity="0.14901961"
       empspacing="5"
       enabled="true"
       visible="true" /></sodipodi:namedview><defs
     id="defs1"><inkscape:path-effect
       effect="fillet_chamfer"
       id="path-effect3-08"
       is_visible="true"
       lpeversion="1"
       nodesatellites_param="F,0,0,1,0,3,0,1 @ F,0,0,1,0,3,0,1 @ F,0,0,1,0,3,0,1 @ F,0,0,1,0,3,0,1"
       radius="0"
       unit="px"
       method="auto"
       mode="F"
       chamfer_steps="1"
       flexible="false"
       use_knot_distance="true"
       apply_no_radius="true"
       apply_with_radius="true"
       only_selected="false"
       hide_knots="false" /></defs><g
     inkscape:groupmode="layer"
     id="layer8"
     inkscape:label="8"
     transform="matrix(0.99998908,0,0,1.0101899,-333.37291,-0.00209528)"
     inkscape:export-filename="Clubs/8.svg"
     inkscape:export-xdpi="96"
     inkscape:export-ydpi="96"><path
       style="fill:#ffffff;fill-opacity:1;stroke:#000000;stroke-width:0.526494;stroke-linecap:round;stroke-linejoin:round;stroke-dasharray:none"
       id="rect1-0"
       width="47.098965"
       height="65.475883"
       x="0.26119247"
       y="0.26535115"
       inkscape:path-effect="#path-effect3-08"
       sodipodi:type="rect"
       d="M 3.2611925,0.26535115 H 44.360157 a 3,3 45 0 1 3,2.99999995 V 62.741235 a 3,3 135 0 1 -3,3 H 3.2611925 a 3,3 45 0 1 -3.00000003,-3 V 3.2653511 A 3,3 135 0 1 3.2611925,0.26535115 Z"
       transform="translate(333.37861,-2.9988694e-5)"
       inkscape:label="card" /><path
       style="font-weight:300;font-size:18.2518px;font-family:'SF Pro Rounded';-inkscape-font-specification:'SF Pro Rounded Light';letter-spacing:-7.10767px;word-spacing:0px;stroke:#000000;stroke-width:0.526494;stroke-linecap:round;stroke-linejoin:round"
       d="m 355.38127,39.806161 c 2.70925,0 4.58077,-1.541778 4.58077,-3.698485 0,-1.613074 -1.15856,-2.940964 -2.86966,-3.306356 v -0.02674 c 1.46157,-0.418865 2.39733,-1.515042 2.39733,-2.87858 0,-1.942819 -1.71111,-3.359829 -4.10844,-3.359829 -2.38842,0 -4.11735,1.41701 -4.11735,3.359829 0,1.381362 0.93576,2.477539 2.40624,2.87858 v 0.02674 c -1.7111,0.365392 -2.86966,1.68437 -2.86966,3.306356 0,2.147795 1.88043,3.698485 4.58077,3.698485 z m 0,-7.495002 c -1.7022,0 -2.90532,-0.962497 -2.90532,-2.317123 0,-1.381362 1.17639,-2.397331 2.90532,-2.397331 1.73784,0 2.90532,1.015969 2.90532,2.397331 0,1.354626 -1.21204,2.317123 -2.90532,2.317123 z m 0,6.425561 c -1.98738,0 -3.34201,-1.14965 -3.34201,-2.70034 0,-1.541778 1.37245,-2.637955 3.34201,-2.637955 1.97847,0 3.342,1.096177 3.342,2.637955 0,1.55069 -1.35462,2.70034 -3.342,2.70034 z"
       id="text3-8-1-1-3-3-3-1"
       inkscape:label="center"
       transform="scale(1.0050875,0.99493825)"
       aria-label="8" /><path
       d="m 338.36303,6.9185553 c 0.93329,0 1.55652,-0.5309907 1.55652,-1.273764 0,-0.5678226 -0.42789,-1.0251499 -1.04182,-1.1387144 v -0.0092 c 0.52091,-0.128911 0.87748,-0.5156442 0.87748,-0.9913875 0,-0.6660404 -0.57051,-1.1448529 -1.39218,-1.1448529 -0.81857,0 -1.39528,0.4788125 -1.39528,1.1448529 0,0.4910898 0.35347,0.8686152 0.88678,0.9913875 v 0.0092 c -0.61702,0.1135645 -1.04491,0.5708918 -1.04491,1.1387144 0,0.739704 0.62323,1.273764 1.55341,1.273764 z m 0,-2.516835 c -0.66973,0 -1.15033,-0.3683173 -1.15033,-0.8839615 0,-0.5309909 0.45579,-0.9392093 1.15033,-0.9392093 0.69764,0 1.15033,0.4051491 1.15033,0.9392093 0,0.5156442 -0.4775,0.8839615 -1.15033,0.8839615 z m 0,2.298914 c -0.79065,0 -1.30536,-0.454258 -1.30536,-1.0650509 0,-0.5862384 0.524,-1.0098034 1.30536,-1.0098034 0.78446,0 1.30846,0.4204957 1.30846,1.0098034 0,0.6107929 -0.5178,1.0650509 -1.30846,1.0650509 z"
       id="text1-4-8-9-6-8-60-0"
       style="font-weight:200;font-size:6.31793px;font-family:'SF Pro Rounded';-inkscape-font-specification:'SF Pro Rounded, Ultra-Light';letter-spacing:-7.10767px;word-spacing:0px;stroke:#000000;stroke-width:0.526494;stroke-linecap:round;stroke-linejoin:round"
       inkscape:label="top"
       aria-label="8" /><path
       d="m 376.01564,59.087901 c -0.93328,0 -1.55651,0.53099 -1.55651,1.273763 0,0.567824 0.42789,1.025151 1.04181,1.138715 v 0.0093 c -0.52091,0.128911 -0.87747,0.515644 -0.87747,0.991387 0,0.666041 0.5705,1.144853 1.39217,1.144853 0.81857,0 1.39529,-0.478812 1.39529,-1.144853 0,-0.491089 -0.35348,-0.868614 -0.88678,-0.991387 v -0.0093 c 0.61702,-0.113564 1.04491,-0.570891 1.04491,-1.138715 0,-0.739703 -0.62323,-1.273763 -1.55342,-1.273763 z m 0,2.516834 c 0.66973,0 1.15034,0.368318 1.15034,0.883962 0,0.530991 -0.4558,0.93921 -1.15034,0.93921 -0.69764,0 -1.15033,-0.40515 -1.15033,-0.93921 0,-0.515644 0.4775,-0.883962 1.15033,-0.883962 z m 0,-2.298913 c 0.79066,0 1.30536,0.454258 1.30536,1.065051 0,0.586238 -0.524,1.009803 -1.30536,1.009803 -0.78446,0 -1.30846,-0.420496 -1.30846,-1.009803 0,-0.610793 0.5178,-1.065051 1.30846,-1.065051 z"
       id="text1-4-8-9-6-8-60-0-7"
       style="font-weight:200;font-size:6.31793px;font-family:'SF Pro Rounded';-inkscape-font-specification:'SF Pro Rounded, Ultra-Light';letter-spacing:-7.10767px;word-spacing:0px;stroke:#000000;stroke-width:0.526494;stroke-linecap:round;stroke-linejoin:round"
       inkscape:label="bottom"
       aria-label="8" /><path
       d="m 335.70412,11.526311 c 0,0.673237 0.52372,1.184465 1.20382,1.184465 0.38552,0 0.77103,-0.133207 0.93833,-0.457225 h 0.0292 c -0.0146,0.378021 -0.41461,0.691238 -0.60374,0.882049 -0.19639,0.201611 -0.0764,0.486027 0.18185,0.486027 h 1.8221 c 0.26186,0 0.38188,-0.284416 0.18184,-0.486027 -0.18911,-0.190811 -0.58918,-0.504028 -0.60008,-0.882049 h 0.0291 c 0.1673,0.324018 0.54917,0.457225 0.93469,0.457225 0.68374,0 1.20382,-0.511228 1.20382,-1.184465 0,-0.669637 -0.51645,-1.231269 -1.18927,-1.231269 -0.25459,0 -0.52008,0.08281 -0.73102,0.248414 0.36005,-0.291616 0.47643,-0.6480358 0.47643,-0.9576529 0,-0.6660369 -0.54554,-1.2024666 -1.21473,-1.2024666 -0.6692,0 -1.21474,0.5364297 -1.21474,1.2024666 0,0.3096171 0.11639,0.6660369 0.47281,0.9576529 -0.2073,-0.165609 -0.47644,-0.248414 -0.73102,-0.248414 -0.67284,0 -1.18928,0.561632 -1.18928,1.231269 z"
       id="text3-7-0-5-9-3-7-2"
       style="font-weight:300;font-size:7.41072px;line-height:0;font-family:'SF Pro Rounded';-inkscape-font-specification:'SF Pro Rounded Light';letter-spacing:0px;word-spacing:0px;text-orientation:upright;stroke-width:0.526494;stroke-linecap:round"
       inkscape:label="club-top"
       aria-label="♣" /><path
       d="m 378.67451,54.480279 c 0,-0.673237 -0.52372,-1.184466 -1.20382,-1.184466 -0.38552,0 -0.77103,0.133208 -0.93833,0.457226 h -0.029 c 0.0146,-0.37802 0.41461,-0.691238 0.60372,-0.882049 0.1964,-0.201611 0.0764,-0.486027 -0.18185,-0.486027 h -1.82209 c -0.26186,0 -0.38188,0.284416 -0.18185,0.486027 0.18912,0.190811 0.58918,0.504029 0.6001,0.882049 h -0.0292 c -0.1673,-0.324018 -0.54918,-0.457226 -0.93469,-0.457226 -0.68374,0 -1.20382,0.511229 -1.20382,1.184466 0,0.669638 0.51644,1.231268 1.18928,1.231268 0.25457,0 0.52007,-0.08281 0.73102,-0.248413 -0.36007,0.291616 -0.47645,0.648035 -0.47645,0.957653 0,0.666037 0.54555,1.202467 1.21474,1.202467 0.66919,0 1.21473,-0.53643 1.21473,-1.202467 0,-0.309618 -0.11638,-0.666037 -0.4728,-0.957653 0.20731,0.165609 0.47644,0.248413 0.73102,0.248413 0.67283,0 1.18928,-0.56163 1.18928,-1.231268 z"
       id="text3-6-6-0-9-0-7-4-4"
       style="font-weight:300;font-size:7.41072px;line-height:0;font-family:'SF Pro Rounded';-inkscape-font-specification:'SF Pro Rounded Light';letter-spacing:0px;word-spacing:0px;text-orientation:upright;stroke-width:0.526494;stroke-linecap:round"
       inkscape:label="club-bottom"
       aria-label="♣" /></g></svg>
