<?xml version="1.0" encoding="UTF-8" standalone="no"?>
<!-- Created with Inkscape (http://www.inkscape.org/) -->

<svg
   width="179.99976"
   height="251.99976"
   viewBox="0 0 47.624934 66.674935"
   version="1.1"
   id="svg1"
   inkscape:version="1.4 (e7c3feb1, 2024-10-09)"
   sodipodi:docname="All Cards - Spades.svg"
   xml:space="preserve"
   inkscape:export-filename="All Cards - Spades.png"
   inkscape:export-xdpi="96"
   inkscape:export-ydpi="96"
   xmlns:inkscape="http://www.inkscape.org/namespaces/inkscape"
   xmlns:sodipodi="http://sodipodi.sourceforge.net/DTD/sodipodi-0.dtd"
   xmlns="http://www.w3.org/2000/svg"
   xmlns:svg="http://www.w3.org/2000/svg"><sodipodi:namedview
     id="namedview1"
     pagecolor="#ffffff"
     bordercolor="#999999"
     borderopacity="1"
     inkscape:showpageshadow="2"
     inkscape:pageopacity="0"
     inkscape:pagecheckerboard="0"
     inkscape:deskcolor="#d1d1d1"
     inkscape:document-units="px"
     showgrid="true"
     inkscape:zoom="0.61073719"
     inkscape:cx="687.6935"
     inkscape:cy="297.18184"
     inkscape:window-width="1512"
     inkscape:window-height="836"
     inkscape:window-x="0"
     inkscape:window-y="38"
     inkscape:window-maximized="0"
     inkscape:current-layer="layer13"><inkscape:grid
       id="grid2"
       units="px"
       originx="-190.49999"
       originy="-66.675003"
       spacingx="0.26458333"
       spacingy="0.26458333"
       empcolor="#0099e5"
       empopacity="0.30196078"
       color="#0099e5"
       opacity="0.14901961"
       empspacing="5"
       enabled="true"
       visible="true" /><inkscape:page
       x="0"
       y="0"
       width="47.624935"
       height="66.674934"
       id="page2"
       margin="0"
       bleed="0" /></sodipodi:namedview><defs
     id="defs1"><inkscape:path-effect
       effect="fillet_chamfer"
       id="path-effect3-6"
       is_visible="true"
       lpeversion="1"
       nodesatellites_param="F,0,0,1,0,3,0,1 @ F,0,0,1,0,3,0,1 @ F,0,0,1,0,3,0,1 @ F,0,0,1,0,3,0,1"
       radius="0"
       unit="px"
       method="auto"
       mode="F"
       chamfer_steps="1"
       flexible="false"
       use_knot_distance="true"
       apply_no_radius="true"
       apply_with_radius="true"
       only_selected="false"
       hide_knots="false" /></defs><g
     inkscape:groupmode="layer"
     id="layer13"
     inkscape:label="King"
     inkscape:export-filename="Spades/King.svg"
     inkscape:export-xdpi="96"
     inkscape:export-ydpi="96"
     transform="translate(-190.49999,-66.675002)"><path
       style="fill:#ffffff;fill-opacity:1;stroke:#000000;stroke-width:0.526494;stroke-linecap:round;stroke-linejoin:round;stroke-dasharray:none"
       id="rect1-47"
       width="47.098965"
       height="65.475883"
       x="0.26119247"
       y="0.26535115"
       inkscape:path-effect="#path-effect3-6"
       sodipodi:type="rect"
       d="M 3.2611925,0.26535115 H 44.360157 a 3,3 45 0 1 3,2.99999995 V 62.741235 a 3,3 135 0 1 -3,3 H 3.2611925 a 3,3 45 0 1 -3.00000003,-3 V 3.2653511 A 3,3 135 0 1 3.2611925,0.26535115 Z"
       transform="matrix(0.99998907,0,0,1.0101899,190.50205,66.672874)"
       inkscape:label="card" /><path
       style="font-weight:300;font-size:18.3445px;font-family:'SF Pro Rounded';-inkscape-font-specification:'SF Pro Rounded Light';letter-spacing:-7.14375px;word-spacing:0px;stroke:#000000;stroke-width:0.529167;stroke-linecap:round;stroke-linejoin:round"
       d="m 210.37126,106.60055 c 0.37621,0 0.60909,-0.24185 0.60909,-0.63597 v -4.10243 l 1.63023,-1.72876 5.09669,6.16261 c 0.1881,0.22393 0.34037,0.3135 0.56431,0.3135 0.34037,0 0.59118,-0.25976 0.59118,-0.58222 0,-0.16123 -0.0627,-0.3135 -0.18811,-0.46578 l -5.21313,-6.296963 4.6757,-4.89963 c 0.10748,-0.116444 0.17019,-0.250803 0.17019,-0.39412 0,-0.313504 -0.23289,-0.555351 -0.56431,-0.555351 -0.19706,0 -0.33142,0.07166 -0.49265,0.250804 l -6.19844,6.5836 h -0.0717 v -6.18948 c 0,-0.39412 -0.23288,-0.635967 -0.60909,-0.635967 -0.37621,0 -0.6091,0.241847 -0.6091,0.635967 v 11.90422 c 0,0.39412 0.23289,0.63597 0.6091,0.63597 z"
       id="text3-8-1-1-3-3-3-1-3-1-7-7"
       inkscape:label="center"
       aria-label="K" /><path
       d="m 192.98046,73.623413 c 0.0744,0 0.12402,-0.04961 0.12402,-0.130225 v -1.553394 l 0.64493,-0.691431 1.90376,2.303737 c 0.0434,0.05271 0.0744,0.07131 0.12092,0.07131 0.0682,0 0.12092,-0.04961 0.12092,-0.117822 0,-0.03721 -0.0186,-0.06821 -0.0434,-0.09922 l -1.92856,-2.331641 1.72392,-1.826246 c 0.0217,-0.02481 0.0341,-0.05271 0.0341,-0.08372 0,-0.05891 -0.0434,-0.108521 -0.11162,-0.108521 -0.0403,0 -0.0682,0.0155 -0.10542,0.05581 l -2.34094,2.489771 h -0.0186 v -2.415357 c 0,-0.08062 -0.0496,-0.130225 -0.12402,-0.130225 -0.0744,0 -0.12092,0.04961 -0.12092,0.130225 v 4.306715 c 0,0.08062 0.0465,0.130225 0.12092,0.130225 z"
       id="text1-7-9-5-9"
       style="font-weight:200;font-size:6.35px;font-family:'SF Pro Rounded';-inkscape-font-specification:'SF Pro Rounded, Ultra-Light';letter-spacing:0px;word-spacing:0px;stroke:#000000;stroke-width:0.529167;stroke-linecap:round;stroke-linejoin:round"
       inkscape:label="top"
       aria-label="K" /><path
       d="m -235.6446,-126.40151 c 0.0744,0 0.12402,-0.0496 0.12402,-0.13023 v -1.55339 l 0.64492,-0.69143 1.90376,2.30373 c 0.0434,0.0527 0.0744,0.0713 0.12093,0.0713 0.0682,0 0.12092,-0.0496 0.12092,-0.11782 0,-0.0372 -0.0186,-0.0682 -0.0434,-0.0992 l -1.92856,-2.33164 1.72392,-1.82625 c 0.0217,-0.0248 0.0341,-0.0527 0.0341,-0.0837 0,-0.0589 -0.0434,-0.10852 -0.11162,-0.10852 -0.0403,0 -0.0682,0.0155 -0.10542,0.0558 l -2.34094,2.48978 h -0.0186 v -2.41536 c 0,-0.0806 -0.0496,-0.13023 -0.12402,-0.13023 -0.0744,0 -0.12092,0.0496 -0.12092,0.13023 v 4.30671 c 0,0.0806 0.0465,0.13023 0.12092,0.13023 z"
       id="text1-7-9-5-9-8"
       style="font-weight:200;font-size:6.35px;font-family:'SF Pro Rounded';-inkscape-font-specification:'SF Pro Rounded, Ultra-Light';letter-spacing:-7.14375px;word-spacing:0px;stroke:#000000;stroke-width:0.529167;stroke-linecap:round;stroke-linejoin:round"
       inkscape:label="bottom"
       transform="scale(-1)"
       aria-label="K" /><path
       d="m 192.61666,78.389146 c 0,0.654422 0.49609,1.154035 1.15755,1.154035 0.37295,0 0.74239,-0.130181 0.90423,-0.446837 h 0.0282 c -0.0106,0.369432 -0.39758,0.675533 -0.58054,0.862008 -0.19351,0.19703 -0.0774,0.474984 0.17592,0.474984 h 1.76272 c 0.24981,0 0.36591,-0.277954 0.17592,-0.474984 -0.18647,-0.186475 -0.5735,-0.492576 -0.58405,-0.862008 h 0.0281 c 0.16185,0.316656 0.5348,0.446837 0.90775,0.446837 0.65794,0 1.15404,-0.499613 1.15404,-1.154035 0,-1.227921 -1.65365,-1.73457 -2.30456,-3.061006 -0.0528,-0.105552 -0.12666,-0.186476 -0.26036,-0.186476 -0.13018,0 -0.20758,0.08092 -0.25684,0.186476 -0.65442,1.326436 -2.30807,1.833085 -2.30807,3.061006 z"
       id="text1-1-1-3-0-2"
       style="font-weight:300;font-size:7.20568px;line-height:0;font-family:'SF Pro Rounded';-inkscape-font-specification:'SF Pro Rounded Light';letter-spacing:0px;word-spacing:0px;text-orientation:upright;stroke-width:0.529167;stroke-linecap:round"
       inkscape:label="spade-top"
       aria-label="♠" /><path
       d="m -236.00842,-121.63585 c 0,0.65442 0.4961,1.15404 1.15756,1.15404 0.37295,0 0.74238,-0.13018 0.90423,-0.44684 h 0.0281 c -0.0105,0.36943 -0.39758,0.67553 -0.58053,0.86201 -0.19352,0.19703 -0.0774,0.47498 0.17592,0.47498 h 1.76271 c 0.24981,0 0.36592,-0.27795 0.17592,-0.47498 -0.18647,-0.18648 -0.57349,-0.49258 -0.58405,-0.86201 h 0.0282 c 0.16184,0.31666 0.53479,0.44684 0.90774,0.44684 0.65794,0 1.15404,-0.49962 1.15404,-1.15404 0,-1.22792 -1.65365,-1.73457 -2.30455,-3.061 -0.0528,-0.10556 -0.12666,-0.18648 -0.26036,-0.18648 -0.13018,0 -0.20759,0.0809 -0.25685,0.18648 -0.65442,1.32643 -2.30807,1.83308 -2.30807,3.061 z"
       id="text1-6-6-9-4-0-7"
       style="font-weight:300;font-size:7.20568px;line-height:0;font-family:'SF Pro Rounded';-inkscape-font-specification:'SF Pro Rounded Light';letter-spacing:0px;word-spacing:0px;text-orientation:upright;stroke-width:0.529167;stroke-linecap:round"
       inkscape:label="spade-bottom"
       transform="scale(-1)"
       aria-label="♠" /></g></svg>
