<?xml version="1.0" encoding="UTF-8" standalone="no"?>
<!DOCTYPE svg PUBLIC "-//W3C//DTD SVG 1.1//EN" "http://www.w3.org/Graphics/SVG/1.1/DTD/svg11.dtd">
<!-- Created with Vectornator (http://vectornator.io/) -->
<svg height="100%" stroke-miterlimit="10" style="fill-rule:nonzero;clip-rule:evenodd;stroke-linecap:round;stroke-linejoin:round;" version="1.1" viewBox="0 0 180 252" width="100%" xml:space="preserve" xmlns="http://www.w3.org/2000/svg" xmlns:vectornator="http://vectornator.io" xmlns:xlink="http://www.w3.org/1999/xlink">
<defs>
<clipPath id="TextBounds">
<rect height="39" width="20.7188" x="8.20312" y="3"/>
</clipPath>
<clipPath id="TextBounds_2">
<rect height="39" width="20.7188" x="151.078" y="210"/>
</clipPath>
<clipPath id="TextBounds_3">
<rect height="77" width="38.4375" x="70.7812" y="87.5"/>
</clipPath>
</defs>
<g id="Layer-1" vectornator:layerName="Layer 1">
<path d="M16 0L164 0C172.837 0 180 7.16344 180 16L180 236C180 244.837 172.837 252 164 252L16 252C7.16344 252 0 244.837 0 236L0 16C0 7.16344 7.16344 0 16 0Z" fill="#ffffff" fill-rule="nonzero" opacity="1" stroke="none"/>
<path clip-path="url(#TextBounds)" d="M11.8906 29.8281C11.8906 30.6094 12.5469 31.4844 13.5938 32.1719C14.8125 32.9688 16.4375 33.4062 18.1562 33.4062C23.375 33.4062 26.0781 29.5312 26.0781 22.0781C26.0781 15 23.4688 11.1875 18.5781 11.1875C14.1406 11.1875 11.1875 14.0781 11.1875 18.4219C11.1875 22.6406 13.9688 25.5781 17.9688 25.5781C20.5156 25.5781 22.5156 24.3125 23.2969 22.2031L23.4375 22.2031C23.4375 27.8281 21.6406 31.0625 18.1094 31.0625C16.6719 31.0625 15.5156 30.5469 14.375 29.4219C13.7969 28.8594 13.4688 28.6719 13.0469 28.6719C12.375 28.6719 11.8906 29.125 11.8906 29.8281ZM22.9688 18.4844C22.9688 21.3281 21.1562 23.2188 18.4219 23.2188C15.7031 23.2188 13.8906 21.3125 13.8906 18.4688C13.8906 15.5625 15.7344 13.5625 18.4219 13.5625C21.125 13.5625 22.9688 15.5625 22.9688 18.4844Z" fill="#000000" opacity="1" stroke="none"/>
<path clip-path="url(#TextBounds_2)" d="M168.109 222.172C168.109 221.391 167.453 220.516 166.406 219.828C165.188 219.031 163.562 218.594 161.844 218.594C156.625 218.594 153.922 222.469 153.922 229.922C153.922 237 156.531 240.812 161.422 240.812C165.859 240.812 168.812 237.922 168.812 233.578C168.812 229.359 166.031 226.422 162.031 226.422C159.484 226.422 157.484 227.688 156.703 229.797L156.562 229.797C156.562 224.172 158.359 220.938 161.891 220.938C163.328 220.938 164.484 221.453 165.625 222.578C166.203 223.141 166.531 223.328 166.953 223.328C167.625 223.328 168.109 222.875 168.109 222.172ZM157.031 233.516C157.031 230.672 158.844 228.781 161.578 228.781C164.297 228.781 166.109 230.688 166.109 233.531C166.109 236.438 164.266 238.438 161.578 238.438C158.875 238.438 157.031 236.438 157.031 233.516Z" fill="#000000" opacity="1" stroke="none"/>
<path clip-path="url(#TextBounds_3)" d="M76.6562 142.156C76.6562 143.719 77.9688 145.469 80.0625 146.844C82.5 148.438 85.75 149.312 89.1875 149.312C99.625 149.312 105.031 141.562 105.031 126.656C105.031 112.5 99.8125 104.875 90.0312 104.875C81.1562 104.875 75.25 110.656 75.25 119.344C75.25 127.781 80.8125 133.656 88.8125 133.656C93.9062 133.656 97.9062 131.125 99.4688 126.906L99.75 126.906C99.75 138.156 96.1562 144.625 89.0938 144.625C86.2188 144.625 83.9062 143.594 81.625 141.344C80.4688 140.219 79.8125 139.844 78.9688 139.844C77.625 139.844 76.6562 140.75 76.6562 142.156ZM98.8125 119.469C98.8125 125.156 95.1875 128.938 89.7188 128.938C84.2812 128.938 80.6562 125.125 80.6562 119.438C80.6562 113.625 84.3438 109.625 89.7188 109.625C95.125 109.625 98.8125 113.625 98.8125 119.469Z" fill="#000000" opacity="1" stroke="none"/>
<path d="M15 1L165 1C172.732 1 179 7.28814 179 15.0449L179 236.955C179 244.712 172.732 251 165 251L15 251C7.26801 251 1 244.712 1 236.955L1 15.0449C1 7.28814 7.26801 1 15 1Z" fill="none" opacity="1" stroke="#000000" stroke-linecap="round" stroke-linejoin="round" stroke-width="2"/>
</g>
</svg>
