<?xml version="1.0" encoding="UTF-8" standalone="no"?>
<!-- Created with Inkscape (http://www.inkscape.org/) -->

<svg
   width="179.99977"
   height="251.99976"
   viewBox="0 0 47.624938 66.674935"
   version="1.1"
   id="svg1"
   inkscape:version="1.4 (e7c3feb1, 2024-10-09)"
   sodipodi:docname="All Cards - Clubs.svg"
   xml:space="preserve"
   inkscape:export-filename="All Cards - Clubs.png"
   inkscape:export-xdpi="96"
   inkscape:export-ydpi="96"
   xmlns:inkscape="http://www.inkscape.org/namespaces/inkscape"
   xmlns:sodipodi="http://sodipodi.sourceforge.net/DTD/sodipodi-0.dtd"
   xmlns="http://www.w3.org/2000/svg"
   xmlns:svg="http://www.w3.org/2000/svg"><sodipodi:namedview
     id="namedview1"
     pagecolor="#ffffff"
     bordercolor="#999999"
     borderopacity="1"
     inkscape:showpageshadow="2"
     inkscape:pageopacity="0"
     inkscape:pagecheckerboard="0"
     inkscape:deskcolor="#d1d1d1"
     inkscape:document-units="px"
     showgrid="true"
     inkscape:zoom="0.6064148"
     inkscape:cx="370.20864"
     inkscape:cy="230.04056"
     inkscape:window-width="1512"
     inkscape:window-height="836"
     inkscape:window-x="0"
     inkscape:window-y="38"
     inkscape:window-maximized="0"
     inkscape:current-layer="layer14"><inkscape:grid
       id="grid2"
       units="px"
       originx="9.6754134e-14"
       originy="-66.675003"
       spacingx="0.26458333"
       spacingy="0.26458333"
       empcolor="#0099e5"
       empopacity="0.30196078"
       color="#0099e5"
       opacity="0.14901961"
       empspacing="5"
       enabled="true"
       visible="true" /><inkscape:page
       x="0"
       y="0"
       width="47.624939"
       height="66.674934"
       id="page2"
       margin="0"
       bleed="0" /></sodipodi:namedview><defs
     id="defs1"><inkscape:path-effect
       effect="fillet_chamfer"
       id="path-effect3-3"
       is_visible="true"
       lpeversion="1"
       nodesatellites_param="F,0,0,1,0,3,0,1 @ F,0,0,1,0,3,0,1 @ F,0,0,1,0,3,0,1 @ F,0,0,1,0,3,0,1"
       radius="0"
       unit="px"
       method="auto"
       mode="F"
       chamfer_steps="1"
       flexible="false"
       use_knot_distance="true"
       apply_no_radius="true"
       apply_with_radius="true"
       only_selected="false"
       hide_knots="false" /></defs><g
     inkscape:groupmode="layer"
     id="layer9"
     inkscape:label="9"
     transform="matrix(0.99998908,0,0,1.0101899,0.0020845,-66.677097)"
     inkscape:export-filename="Clubs/9.svg"
     inkscape:export-xdpi="96"
     inkscape:export-ydpi="96"><path
       style="fill:#ffffff;fill-opacity:1;stroke:#000000;stroke-width:0.526494;stroke-linecap:round;stroke-linejoin:round;stroke-dasharray:none"
       id="rect1-5"
       width="47.098965"
       height="65.475883"
       x="0.26119247"
       y="0.26535115"
       inkscape:path-effect="#path-effect3-3"
       sodipodi:type="rect"
       d="M 3.2611925,0.26535115 H 44.360157 a 3,3 45 0 1 3,2.99999995 V 62.741235 a 3,3 135 0 1 -3,3 H 3.2611925 a 3,3 45 0 1 -3.00000003,-3 V 3.2653511 A 3,3 135 0 1 3.2611925,0.26535115 Z"
       transform="translate(-2.998046e-5,66.002411)"
       inkscape:label="card" /><path
       style="font-weight:300;font-size:18.2518px;font-family:'SF Pro Rounded';-inkscape-font-specification:'SF Pro Rounded Light';letter-spacing:-7.10767px;word-spacing:0px;stroke:#000000;stroke-width:0.526494;stroke-linecap:round;stroke-linejoin:round"
       d="m 23.445041,106.14438 c 3.065732,0 4.874871,-2.6023 4.874871,-6.906806 0,-1.621986 -0.285185,-2.92314 -0.864465,-3.930197 -0.784257,-1.55069 -2.192355,-2.432979 -3.930198,-2.432979 -2.584483,0 -4.464918,1.86261 -4.464918,4.402534 0,2.415155 1.818051,4.224298 4.268854,4.224298 1.764579,0 3.297445,-1.01597 3.787605,-2.45972 h 0.02674 c 0,0.13368 0,0.276272 0,0.401041 -0.08021,3.529159 -1.37245,5.632389 -3.689573,5.632389 -1.434834,0 -2.299299,-0.65949 -2.851844,-1.79131 -0.213888,-0.41887 -0.383216,-0.55255 -0.659488,-0.55255 -0.329745,0 -0.543633,0.20498 -0.543633,0.52581 0,0.19607 0.05347,0.39213 0.17824,0.64167 0.490161,1.13182 1.835875,2.24582 3.867813,2.24582 z m 0.08021,-5.72151 c -1.880434,0 -3.23506,-1.38136 -3.23506,-3.181586 0,-1.835875 1.41701,-3.270709 3.243972,-3.270709 1.853699,0 3.270709,1.470482 3.270709,3.333093 0,1.72893 -1.434834,3.119202 -3.279621,3.119202 z"
       id="text3-8-1-1-3-3-3-1-3"
       inkscape:label="center"
       transform="scale(1.0050875,0.99493825)"
       aria-label="9" /><path
       d="m 3.8509981,73.296824 c 1.0241955,0 1.6411807,-0.931648 1.6411807,-2.406243 0,-0.663259 -0.1388216,-1.178441 -0.4072102,-1.539378 -0.2714735,-0.404125 -0.6971933,-0.635495 -1.2154609,-0.635495 -0.8668643,0 -1.4992741,0.654005 -1.4992741,1.527039 0,0.823675 0.623155,1.449915 1.4776796,1.449915 0.666344,0 1.2493951,-0.438059 1.3974715,-1.008771 h 0.00617 c 0.00308,0.08021 0.00617,0.175841 0.00308,0.252964 -0.030849,1.320349 -0.5275223,2.140939 -1.4036414,2.140939 -0.583051,0 -0.959412,-0.314662 -1.1167433,-0.780486 -0.049359,-0.123397 -0.080208,-0.157331 -0.1449915,-0.157331 -0.067868,0 -0.1110573,0.04319 -0.1110573,0.111057 0,0.04936 0.018509,0.114142 0.046274,0.18818 0.166586,0.471994 0.6324098,0.85761 1.3265182,0.85761 z m 0.021594,-1.823192 c -0.7342124,0 -1.2586499,-0.552201 -1.2586499,-1.23397 0,-0.734212 0.5398621,-1.301839 1.2586499,-1.301839 0.7280426,0 1.2802444,0.589221 1.2802444,1.329603 0,0.64475 -0.5768812,1.206206 -1.2802444,1.206206 z"
       id="text1-7"
       style="font-weight:200;font-size:6.31793px;font-family:'SF Pro Rounded';-inkscape-font-specification:'SF Pro Rounded, Ultra-Light';letter-spacing:-7.10767px;word-spacing:0px;stroke:#000000;stroke-width:0.526494;stroke-linecap:round;stroke-linejoin:round"
       inkscape:label="top"
       transform="scale(1.0050875,0.99493825)"
       aria-label="9" /><path
       d="m -43.529251,-125.7221 c 1.024196,0 1.641181,-0.93164 1.641181,-2.40624 0,-0.66326 -0.138822,-1.17844 -0.40721,-1.53938 -0.271474,-0.40412 -0.697194,-0.63549 -1.215461,-0.63549 -0.866865,0 -1.499274,0.654 -1.499274,1.52704 0,0.82367 0.623155,1.44991 1.477679,1.44991 0.666344,0 1.249395,-0.43806 1.397472,-1.00877 h 0.0062 c 0.0031,0.0802 0.0062,0.17584 0.0031,0.25296 -0.03085,1.32035 -0.527523,2.14094 -1.403642,2.14094 -0.583051,0 -0.959412,-0.31466 -1.116743,-0.78048 -0.04936,-0.1234 -0.08021,-0.15733 -0.144992,-0.15733 -0.06787,0 -0.111057,0.0432 -0.111057,0.11105 0,0.0494 0.01851,0.11415 0.04627,0.18818 0.166586,0.472 0.63241,0.85761 1.326518,0.85761 z m 0.0216,-1.82319 c -0.734213,0 -1.25865,-0.5522 -1.25865,-1.23397 0,-0.73421 0.539862,-1.30184 1.25865,-1.30184 0.728042,0 1.280244,0.58922 1.280244,1.32961 0,0.64475 -0.576881,1.2062 -1.280244,1.2062 z"
       id="text1-7-3"
       style="font-weight:200;font-size:6.31793px;font-family:'SF Pro Rounded';-inkscape-font-specification:'SF Pro Rounded, Ultra-Light';letter-spacing:-7.10767px;word-spacing:0px;stroke:#000000;stroke-width:0.526494;stroke-linecap:round;stroke-linejoin:round"
       inkscape:label="bottom"
       transform="scale(-1.0050875,-0.99493825)"
       aria-label="9" /><path
       d="m 2.1039016,77.923178 c 0,0.676662 0.5210663,1.190492 1.1977287,1.190492 0.3835626,0 0.7671253,-0.133885 0.933577,-0.459552 h 0.028948 c -0.014474,0.379944 -0.4125107,0.694755 -0.6006735,0.886536 -0.1953999,0.202637 -0.075989,0.4885 0.1809257,0.4885 h 1.8128763 c 0.2605332,0 0.3799442,-0.285863 0.1809258,-0.4885 -0.1881627,-0.191781 -0.5861994,-0.506592 -0.597055,-0.886536 h 0.028948 c 0.1664517,0.325667 0.5463958,0.459552 0.9299585,0.459552 0.6802809,0 1.1977286,-0.51383 1.1977286,-1.190492 0,-0.673044 -0.5138292,-1.237532 -1.1832546,-1.237532 -0.2532961,0 -0.5174477,0.08323 -0.7273216,0.249677 0.358233,-0.293099 0.4740255,-0.651333 0.4740255,-0.962525 0,-0.669425 -0.5427773,-1.208584 -1.2085842,-1.208584 -0.6658068,0 -1.2085842,0.539159 -1.2085842,1.208584 0,0.311192 0.1157925,0.669426 0.4704071,0.962525 -0.2062554,-0.166451 -0.4740256,-0.249677 -0.7273217,-0.249677 -0.6694253,0 -1.1832546,0.564488 -1.1832544,1.237532 z"
       id="text3-9"
       style="font-weight:300;font-size:7.41072px;line-height:0;font-family:'SF Pro Rounded';-inkscape-font-specification:'SF Pro Rounded Light';letter-spacing:0px;word-spacing:0px;text-orientation:upright;stroke-width:0.526494;stroke-linecap:round"
       inkscape:label="club-top"
       transform="scale(1.0050875,0.99493825)"
       aria-label="♣" /><path
       d="m -45.276394,-121.09567 c 0,0.67666 0.521067,1.19049 1.197729,1.19049 0.383563,0 0.767125,-0.13389 0.933577,-0.45955 h 0.02895 c -0.01447,0.37994 -0.41251,0.69475 -0.600673,0.88653 -0.1954,0.20264 -0.07599,0.4885 0.180925,0.4885 h 1.812877 c 0.260533,0 0.379944,-0.28586 0.180926,-0.4885 -0.188163,-0.19178 -0.5862,-0.50659 -0.597056,-0.88653 h 0.02895 c 0.166451,0.32566 0.546395,0.45955 0.929958,0.45955 0.680281,0 1.197729,-0.51383 1.197729,-1.19049 0,-0.67305 -0.513829,-1.23754 -1.183255,-1.23754 -0.253296,0 -0.517448,0.0832 -0.727321,0.24968 0.358233,-0.2931 0.474025,-0.65133 0.474025,-0.96252 0,-0.66943 -0.542777,-1.20859 -1.208584,-1.20859 -0.665807,0 -1.208584,0.53916 -1.208584,1.20859 0,0.31119 0.115792,0.66942 0.470407,0.96252 -0.206256,-0.16645 -0.474026,-0.24968 -0.727322,-0.24968 -0.669425,0 -1.183255,0.56449 -1.183255,1.23754 z"
       id="text3-6-64"
       style="font-weight:300;font-size:7.41072px;line-height:0;font-family:'SF Pro Rounded';-inkscape-font-specification:'SF Pro Rounded Light';letter-spacing:0px;word-spacing:0px;text-orientation:upright;stroke-width:0.526494;stroke-linecap:round"
       inkscape:label="club-bottom"
       transform="scale(-1.0050875,-0.99493825)"
       aria-label="♣" /></g></svg>
