<?xml version="1.0" encoding="UTF-8" standalone="no"?>
<!-- Created with Inkscape (http://www.inkscape.org/) -->

<svg
   width="179.99977"
   height="251.99976"
   viewBox="0 0 47.624938 66.674935"
   version="1.1"
   id="svg1"
   inkscape:version="1.4 (e7c3feb1, 2024-10-09)"
   sodipodi:docname="All Cards - Clubs.svg"
   xml:space="preserve"
   inkscape:export-filename="All Cards - Clubs.png"
   inkscape:export-xdpi="96"
   inkscape:export-ydpi="96"
   inkscape:export-batch-path="Clubs"
   inkscape:export-batch-name=""
   xmlns:inkscape="http://www.inkscape.org/namespaces/inkscape"
   xmlns:sodipodi="http://sodipodi.sourceforge.net/DTD/sodipodi-0.dtd"
   xmlns="http://www.w3.org/2000/svg"
   xmlns:svg="http://www.w3.org/2000/svg"><sodipodi:namedview
     id="namedview1"
     pagecolor="#ffffff"
     bordercolor="#999999"
     borderopacity="1"
     inkscape:showpageshadow="2"
     inkscape:pageopacity="0"
     inkscape:pagecheckerboard="0"
     inkscape:deskcolor="#d1d1d1"
     inkscape:document-units="px"
     showgrid="true"
     inkscape:zoom="0.62203345"
     inkscape:cx="632.60264"
     inkscape:cy="315.89941"
     inkscape:window-width="1512"
     inkscape:window-height="836"
     inkscape:window-x="0"
     inkscape:window-y="38"
     inkscape:window-maximized="0"
     inkscape:current-layer="layer14"><inkscape:grid
       id="grid2"
       units="px"
       originx="-47.624999"
       originy="-66.675"
       spacingx="0.26458333"
       spacingy="0.26458333"
       empcolor="#0099e5"
       empopacity="0.30196078"
       color="#0099e5"
       opacity="0.14901961"
       empspacing="5"
       enabled="true"
       visible="true" /></sodipodi:namedview><defs
     id="defs1"><inkscape:path-effect
       effect="fillet_chamfer"
       id="path-effect3-3"
       is_visible="true"
       lpeversion="1"
       nodesatellites_param="F,0,0,1,0,3,0,1 @ F,0,0,1,0,3,0,1 @ F,0,0,1,0,3,0,1 @ F,0,0,1,0,3,0,1"
       radius="0"
       unit="px"
       method="auto"
       mode="F"
       chamfer_steps="1"
       flexible="false"
       use_knot_distance="true"
       apply_no_radius="true"
       apply_with_radius="true"
       only_selected="false"
       hide_knots="false" /></defs><g
     inkscape:groupmode="layer"
     id="layer9"
     inkscape:label="9"
     transform="matrix(0.99998908,0,0,1.0101899,0.0020845,-66.677095)"
     inkscape:export-filename="Clubs/9.svg"
     inkscape:export-xdpi="96"
     inkscape:export-ydpi="96"><path
       style="fill:#ffffff;fill-opacity:1;stroke:#000000;stroke-width:0.526494;stroke-linecap:round;stroke-linejoin:round;stroke-dasharray:none"
       id="rect1-5"
       width="47.098965"
       height="65.475883"
       x="0.26119247"
       y="0.26535115"
       inkscape:path-effect="#path-effect3-3"
       sodipodi:type="rect"
       d="M 3.2611925,0.26535115 H 44.360157 a 3,3 45 0 1 3,2.99999995 V 62.741235 a 3,3 135 0 1 -3,3 H 3.2611925 a 3,3 45 0 1 -3.00000003,-3 V 3.2653511 A 3,3 135 0 1 3.2611925,0.26535115 Z"
       transform="translate(-2.998046e-5,66.002411)"
       inkscape:label="card" /><path
       style="font-weight:300;font-size:18.2518px;font-family:'SF Pro Rounded';-inkscape-font-specification:'SF Pro Rounded Light';letter-spacing:-7.10767px;word-spacing:0px;stroke:#000000;stroke-width:0.526494;stroke-linecap:round;stroke-linejoin:round"
       d="m 23.445041,106.14438 c 3.065732,0 4.874871,-2.6023 4.874871,-6.906806 0,-1.621986 -0.285185,-2.92314 -0.864465,-3.930197 -0.784257,-1.55069 -2.192355,-2.432979 -3.930198,-2.432979 -2.584483,0 -4.464918,1.86261 -4.464918,4.402534 0,2.415155 1.818051,4.224298 4.268854,4.224298 1.764579,0 3.297445,-1.01597 3.787605,-2.45972 h 0.02674 c 0,0.13368 0,0.276272 0,0.401041 -0.08021,3.529159 -1.37245,5.632389 -3.689573,5.632389 -1.434834,0 -2.299299,-0.65949 -2.851844,-1.79131 -0.213888,-0.41887 -0.383216,-0.55255 -0.659488,-0.55255 -0.329745,0 -0.543633,0.20498 -0.543633,0.52581 0,0.19607 0.05347,0.39213 0.17824,0.64167 0.490161,1.13182 1.835875,2.24582 3.867813,2.24582 z m 0.08021,-5.72151 c -1.880434,0 -3.23506,-1.38136 -3.23506,-3.181586 0,-1.835875 1.41701,-3.270709 3.243972,-3.270709 1.853699,0 3.270709,1.470482 3.270709,3.333093 0,1.72893 -1.434834,3.119202 -3.279621,3.119202 z"
       id="text3-8-1-1-3-3-3-1-3"
       inkscape:label="center"
       transform="scale(1.0050875,0.99493825)"
       aria-label="9" /><path
       d="m 4.9052741,72.921005 c 1.0294061,0 1.6495302,-0.926932 1.6495302,-2.394063 0,-0.659902 -0.1395278,-1.172476 -0.4092818,-1.531586 -0.2728547,-0.40208 -0.7007403,-0.632279 -1.2216446,-0.632279 -0.8712745,0 -1.5069016,0.650695 -1.5069016,1.51931 0,0.819506 0.6263253,1.442576 1.4851972,1.442576 0.6697341,0 1.2557514,-0.435842 1.4045812,-1.003665 h 0.0062 c 0.0031,0.0798 0.0062,0.174951 0.0031,0.251683 -0.031006,1.313666 -0.530206,2.130102 -1.4107824,2.130102 -0.5860173,0 -0.964293,-0.313069 -1.1224247,-0.776535 -0.04961,-0.122772 -0.080616,-0.156535 -0.1457292,-0.156535 -0.068213,0 -0.1116223,0.04297 -0.1116223,0.110495 0,0.04911 0.018603,0.113565 0.046509,0.187228 0.1674335,0.469605 0.6356271,0.853269 1.3332668,0.853269 z m 0.021704,-1.813964 c -0.7379477,0 -1.2650533,-0.549406 -1.2650533,-1.227724 0,-0.730495 0.5426087,-1.295249 1.2650533,-1.295249 0.7317465,0 1.2867576,0.586238 1.2867576,1.322873 0,0.641486 -0.579816,1.2001 -1.2867576,1.2001 z"
       id="text1-7"
       style="font-weight:200;font-size:6.31793px;font-family:'SF Pro Rounded';-inkscape-font-specification:'SF Pro Rounded, Ultra-Light';letter-spacing:-7.10767px;word-spacing:0px;stroke:#000000;stroke-width:0.526494;stroke-linecap:round;stroke-linejoin:round"
       inkscape:label="top"
       aria-label="9" /><path
       d="m 42.716067,125.0906 c -1.029407,0 -1.64953,0.92692 -1.64953,2.39406 0,0.6599 0.139528,1.17247 0.409281,1.53158 0.272855,0.40208 0.700741,0.63228 1.221645,0.63228 0.871275,0 1.506901,-0.65069 1.506901,-1.51931 0,-0.8195 -0.626325,-1.44257 -1.485196,-1.44257 -0.669734,0 -1.255752,0.43584 -1.404582,1.00366 h -0.0062 c -0.0031,-0.0798 -0.0062,-0.17495 -0.0031,-0.25168 0.03101,-1.31367 0.530207,-2.1301 1.410783,-2.1301 0.586017,0 0.964293,0.31306 1.122424,0.77653 0.04961,0.12277 0.08062,0.15653 0.14573,0.15653 0.06822,0 0.111622,-0.043 0.111622,-0.11049 0,-0.0491 -0.0186,-0.11357 -0.04651,-0.18722 -0.167434,-0.46962 -0.635628,-0.85327 -1.333267,-0.85327 z m -0.02171,1.81396 c 0.737948,0 1.265054,0.5494 1.265054,1.22772 0,0.7305 -0.542609,1.29525 -1.265054,1.29525 -0.731746,0 -1.286757,-0.58624 -1.286757,-1.32288 0,-0.64148 0.579816,-1.20009 1.286757,-1.20009 z"
       id="text1-7-3"
       style="font-weight:200;font-size:6.31793px;font-family:'SF Pro Rounded';-inkscape-font-specification:'SF Pro Rounded, Ultra-Light';letter-spacing:-7.10767px;word-spacing:0px;stroke:#000000;stroke-width:0.526494;stroke-linecap:round;stroke-linejoin:round"
       inkscape:label="bottom"
       aria-label="9" /><path
       d="m 2.3254802,77.52875 c 0,0.673237 0.5237172,1.184466 1.2038221,1.184466 0.385514,0 0.7710281,-0.133207 0.9383266,-0.457225 h 0.029095 c -0.014548,0.37802 -0.4146094,0.691238 -0.6037294,0.882048 -0.196394,0.201611 -0.076376,0.486027 0.1818461,0.486027 h 1.8220993 c 0.2618587,0 0.3818772,-0.284416 0.1818463,-0.486027 -0.18912,-0.19081 -0.5891817,-0.504028 -0.6000925,-0.882048 h 0.029095 c 0.1672986,0.324018 0.5491756,0.457225 0.9346897,0.457225 0.6837418,0 1.203822,-0.511229 1.203822,-1.184466 0,-0.669637 -0.5164433,-1.231268 -1.1892744,-1.231268 -0.2545847,0 -0.5200802,0.08281 -0.7310218,0.248414 0.3600555,-0.291616 0.4764371,-0.648036 0.4764371,-0.957653 0,-0.666037 -0.5455387,-1.202467 -1.2147329,-1.202467 -0.6691941,0 -1.2147328,0.53643 -1.2147328,1.202467 0,0.309617 0.1163815,0.666037 0.4728002,0.957653 -0.2073047,-0.165609 -0.4764372,-0.248414 -0.7310219,-0.248414 -0.672831,0 -1.1892744,0.561631 -1.1892737,1.231268 z"
       id="text3-9"
       style="font-weight:300;font-size:7.41072px;line-height:0;font-family:'SF Pro Rounded';-inkscape-font-specification:'SF Pro Rounded Light';letter-spacing:0px;word-spacing:0px;text-orientation:upright;stroke-width:0.526494;stroke-linecap:round"
       inkscape:label="club-top"
       aria-label="♣" /><path
       d="m 45.295865,120.48271 c 0,-0.67323 -0.523717,-1.18446 -1.203822,-1.18446 -0.385514,0 -0.771028,0.13321 -0.938327,0.45722 h -0.0291 c 0.01454,-0.37801 0.414609,-0.69123 0.603729,-0.88204 0.196394,-0.20161 0.07638,-0.48603 -0.181845,-0.48603 h -1.8221 c -0.261859,0 -0.381877,0.28442 -0.181847,0.48603 0.18912,0.19081 0.589182,0.50403 0.600094,0.88204 h -0.0291 c -0.167297,-0.32401 -0.549174,-0.45722 -0.934689,-0.45722 -0.683742,0 -1.203822,0.51123 -1.203822,1.18446 0,0.66965 0.516443,1.23128 1.189275,1.23128 0.254584,0 0.52008,-0.0828 0.731021,-0.24842 -0.360056,0.29162 -0.476437,0.64804 -0.476437,0.95765 0,0.66604 0.545539,1.20247 1.214733,1.20247 0.669194,0 1.214733,-0.53643 1.214733,-1.20247 0,-0.30961 -0.116381,-0.66603 -0.472801,-0.95765 0.207306,0.16561 0.476438,0.24842 0.731023,0.24842 0.67283,0 1.189274,-0.56163 1.189274,-1.23128 z"
       id="text3-6-64"
       style="font-weight:300;font-size:7.41072px;line-height:0;font-family:'SF Pro Rounded';-inkscape-font-specification:'SF Pro Rounded Light';letter-spacing:0px;word-spacing:0px;text-orientation:upright;stroke-width:0.526494;stroke-linecap:round"
       inkscape:label="club-bottom"
       aria-label="♣" /></g></svg>
