<?xml version="1.0" encoding="UTF-8" standalone="no"?>
<!DOCTYPE svg PUBLIC "-//W3C//DTD SVG 1.1//EN" "http://www.w3.org/Graphics/SVG/1.1/DTD/svg11.dtd">
<!-- Created with Vectornator (http://vectornator.io/) -->
<svg height="100%" stroke-miterlimit="10" style="fill-rule:nonzero;clip-rule:evenodd;stroke-linecap:round;stroke-linejoin:round;" version="1.1" viewBox="0 0 180 252" width="100%" xml:space="preserve" xmlns="http://www.w3.org/2000/svg" xmlns:vectornator="http://vectornator.io" xmlns:xlink="http://www.w3.org/1999/xlink">
<defs>
<clipPath id="TextBounds">
<rect height="39" width="15.5938" x="8" y="3"/>
</clipPath>
<clipPath id="TextBounds_2">
<rect height="39" width="15.5938" x="156" y="210"/>
</clipPath>
<clipPath id="TextBounds_3">
<rect height="77" width="28.1875" x="75.9062" y="87.5"/>
</clipPath>
</defs>
<g id="Layer-1" vectornator:layerName="Layer 1">
<path d="M16 0L164 0C172.837 0 180 7.16344 180 16L180 236C180 244.837 172.837 252 164 252L16 252C7.16344 252 0 244.837 0 236L0 16C0 7.16344 7.16344 0 16 0Z" fill="#ffffff" fill-rule="nonzero" opacity="1" stroke="none"/>
<path d="M15 1L165 1C172.732 1 179 7.28814 179 15.0449L179 236.955C179 244.712 172.732 251 165 251L15 251C7.26801 251 1 244.712 1 236.955L1 15.0449C1 7.28814 7.26801 1 15 1Z" fill="none" opacity="1" stroke="#000000" stroke-linecap="round" stroke-linejoin="round" stroke-width="2"/>
</g>
<g id="Layer-2" vectornator:layerName="Layer 2">
<path clip-path="url(#TextBounds)" d="M16.3281 31.6562C16.3281 32.5938 16.8438 33.1562 17.6719 33.1562C18.5156 33.1562 19.0156 32.6094 19.0156 31.6562L19.0156 13.3438C19.0156 12.2812 18.3125 11.5469 17.3125 11.5469C16.7031 11.5469 16.1562 11.7812 15.1719 12.5156L12.0156 14.8594C11.3906 15.3125 11.0938 15.7344 11.0938 16.1875C11.0938 16.7812 11.5625 17.2656 12.1406 17.2656C12.4844 17.2656 12.8125 17.1406 13.2656 16.8125L16.2031 14.6719L16.3281 14.6719L16.3281 31.6562Z" fill="#000000" opacity="1" stroke="none"/>
<path clip-path="url(#TextBounds_2)" d="M163.266 220.344C163.266 219.406 162.75 218.844 161.922 218.844C161.078 218.844 160.578 219.391 160.578 220.344L160.578 238.656C160.578 239.719 161.281 240.453 162.281 240.453C162.891 240.453 163.438 240.219 164.422 239.484L167.578 237.141C168.203 236.688 168.5 236.266 168.5 235.813C168.5 235.219 168.031 234.734 167.453 234.734C167.109 234.734 166.781 234.859 166.328 235.188L163.391 237.328L163.266 237.328L163.266 220.344Z" fill="#000000" opacity="1" stroke="none"/>
<path clip-path="url(#TextBounds_3)" d="M91.0625 145.812C91.0625 147.688 92.0938 148.812 93.75 148.812C95.4375 148.812 96.4375 147.719 96.4375 145.812L96.4375 109.188C96.4375 107.062 95.0312 105.594 93.0312 105.594C91.8125 105.594 90.7188 106.062 88.75 107.531L82.4375 112.219C81.1875 113.125 80.5938 113.969 80.5938 114.875C80.5938 116.062 81.5312 117.031 82.6875 117.031C83.375 117.031 84.0312 116.781 84.9375 116.125L90.8125 111.844L91.0625 111.844L91.0625 145.812Z" fill="#000000" opacity="1" stroke="none"/>
</g>
</svg>
