<?xml version="1.0" encoding="UTF-8" standalone="no"?>
<!-- Created with Inkscape (http://www.inkscape.org/) -->

<svg
   width="179.99976"
   height="251.99976"
   viewBox="0 0 47.624934 66.674935"
   version="1.1"
   id="svg1"
   inkscape:version="1.4 (e7c3feb1, 2024-10-09)"
   sodipodi:docname="All Cards - Clubs.svg"
   xml:space="preserve"
   inkscape:export-filename="All Cards - Clubs.png"
   inkscape:export-xdpi="96"
   inkscape:export-ydpi="96"
   xmlns:inkscape="http://www.inkscape.org/namespaces/inkscape"
   xmlns:sodipodi="http://sodipodi.sourceforge.net/DTD/sodipodi-0.dtd"
   xmlns="http://www.w3.org/2000/svg"
   xmlns:svg="http://www.w3.org/2000/svg"><sodipodi:namedview
     id="namedview1"
     pagecolor="#ffffff"
     bordercolor="#999999"
     borderopacity="1"
     inkscape:showpageshadow="2"
     inkscape:pageopacity="0"
     inkscape:pagecheckerboard="0"
     inkscape:deskcolor="#d1d1d1"
     inkscape:document-units="px"
     showgrid="true"
     inkscape:zoom="0.6064148"
     inkscape:cx="370.20864"
     inkscape:cy="230.04056"
     inkscape:window-width="1512"
     inkscape:window-height="836"
     inkscape:window-x="0"
     inkscape:window-y="38"
     inkscape:window-maximized="0"
     inkscape:current-layer="layer14"><inkscape:grid
       id="grid2"
       units="px"
       originx="-285.75"
       originy="-3.4711749e-13"
       spacingx="0.26458333"
       spacingy="0.26458333"
       empcolor="#0099e5"
       empopacity="0.30196078"
       color="#0099e5"
       opacity="0.14901961"
       empspacing="5"
       enabled="true"
       visible="true" /><inkscape:page
       x="0"
       y="0"
       width="47.624935"
       height="66.674934"
       id="page2"
       margin="0"
       bleed="0" /></sodipodi:namedview><defs
     id="defs1"><inkscape:path-effect
       effect="fillet_chamfer"
       id="path-effect3-5"
       is_visible="true"
       lpeversion="1"
       nodesatellites_param="F,0,0,1,0,3,0,1 @ F,0,0,1,0,3,0,1 @ F,0,0,1,0,3,0,1 @ F,0,0,1,0,3,0,1"
       radius="0"
       unit="px"
       method="auto"
       mode="F"
       chamfer_steps="1"
       flexible="false"
       use_knot_distance="true"
       apply_no_radius="true"
       apply_with_radius="true"
       only_selected="false"
       hide_knots="false" /></defs><g
     inkscape:groupmode="layer"
     id="layer7"
     inkscape:label="7"
     transform="matrix(0.99998908,0,0,1.0101899,-285.74792,-0.00209528)"
     inkscape:export-filename="Clubs/7.svg"
     inkscape:export-xdpi="96"
     inkscape:export-ydpi="96"><path
       style="fill:#ffffff;fill-opacity:1;stroke:#000000;stroke-width:0.526494;stroke-linecap:round;stroke-linejoin:round;stroke-dasharray:none"
       id="rect1-28"
       width="47.098965"
       height="65.475883"
       x="0.26119247"
       y="0.26535115"
       inkscape:path-effect="#path-effect3-5"
       sodipodi:type="rect"
       d="M 3.2611925,0.26535115 H 44.360157 a 3,3 45 0 1 3,2.99999995 V 62.741235 a 3,3 135 0 1 -3,3 H 3.2611925 a 3,3 45 0 1 -3.00000003,-3 V 3.2653511 A 3,3 135 0 1 3.2611925,0.26535115 Z"
       transform="translate(285.75309,-2.9988694e-5)"
       inkscape:label="card" /><path
       style="font-weight:300;font-size:18.2518px;font-family:'SF Pro Rounded';-inkscape-font-specification:'SF Pro Rounded Light';letter-spacing:-7.10767px;word-spacing:0px;stroke:#000000;stroke-width:0.526494;stroke-linecap:round;stroke-linejoin:round"
       d="m 305.77773,39.676937 c 0.25845,0 0.41887,-0.106944 0.55255,-0.356481 l 5.65021,-11.131103 c 0.18715,-0.35648 0.26736,-0.543632 0.26736,-0.775345 0,-0.472336 -0.2941,-0.748609 -0.78426,-0.748609 h -7.13852 c -0.32974,0 -0.57928,0.213889 -0.57928,0.543633 0,0.338656 0.24954,0.543633 0.57928,0.543633 h 6.63945 v 0.03565 l -5.65021,10.988511 c -0.0802,0.151504 -0.10695,0.258448 -0.10695,0.392128 0,0.311921 0.23171,0.507985 0.57037,0.507985 z"
       id="text3-8-1-1-3-3-3"
       inkscape:label="center"
       transform="scale(1.0050875,0.99493825)"
       aria-label="7" /><path
       d="m 287.31862,6.8722157 c 0.0524,0 0.0864,-0.024679 0.11414,-0.080208 l 2.06999,-4.1091216 c 0.0339,-0.067868 0.0494,-0.1048875 0.0494,-0.1573312 0,-0.098718 -0.0648,-0.1542464 -0.16659,-0.1542464 h -2.57283 c -0.0679,0 -0.11723,0.043189 -0.11723,0.1110574 0,0.067868 0.0494,0.1110573 0.11723,0.1110573 h 2.48028 v 0.00925 l -2.06998,4.0813573 c -0.0185,0.033934 -0.0216,0.058614 -0.0216,0.083293 0,0.064783 0.0463,0.1048875 0.11723,0.1048875 z"
       id="text1-4-8-9-6-8-60"
       style="font-weight:200;font-size:6.31793px;font-family:'SF Pro Rounded';-inkscape-font-specification:'SF Pro Rounded, Ultra-Light';letter-spacing:-7.10767px;word-spacing:0px;stroke:#000000;stroke-width:0.526494;stroke-linecap:round;stroke-linejoin:round"
       inkscape:label="top"
       transform="scale(1.0050875,0.99493825)"
       aria-label="7" /><path
       d="m -328.67503,-59.470283 c 0.0524,0 0.0864,-0.02468 0.11414,-0.08021 l 2.06998,-4.109122 c 0.0339,-0.06787 0.0494,-0.104887 0.0494,-0.157331 0,-0.09872 -0.0648,-0.154246 -0.16658,-0.154246 h -2.57283 c -0.0679,0 -0.11723,0.04319 -0.11723,0.111057 0,0.06787 0.0494,0.111057 0.11723,0.111057 h 2.48028 v 0.0093 l -2.06999,4.081357 c -0.0185,0.03393 -0.0216,0.05861 -0.0216,0.08329 0,0.06478 0.0463,0.104888 0.11723,0.104888 z"
       id="text1-4-8-9-6-8-60-3"
       style="font-weight:200;font-size:6.31793px;font-family:'SF Pro Rounded';-inkscape-font-specification:'SF Pro Rounded, Ultra-Light';letter-spacing:-7.10767px;word-spacing:0px;stroke:#000000;stroke-width:0.526494;stroke-linecap:round;stroke-linejoin:round"
       inkscape:label="bottom"
       transform="scale(-1.0050875,-0.99493825)"
       aria-label="7" /><path
       d="m 286.41061,11.584951 c 0,0.676662 0.52107,1.190491 1.19773,1.190491 0.38357,0 0.76713,-0.133885 0.93358,-0.459551 h 0.029 c -0.0145,0.379944 -0.41251,0.694755 -0.60068,0.886536 -0.1954,0.202637 -0.076,0.4885 0.18093,0.4885 h 1.81288 c 0.26053,0 0.37994,-0.285863 0.18092,-0.4885 -0.18816,-0.191781 -0.5862,-0.506592 -0.59705,-0.886536 h 0.029 c 0.16645,0.325666 0.54639,0.459551 0.92995,0.459551 0.68028,0 1.19773,-0.513829 1.19773,-1.190491 0,-0.673044 -0.51383,-1.237533 -1.18325,-1.237533 -0.2533,0 -0.51745,0.08323 -0.72732,0.249678 0.35823,-0.2931 0.47402,-0.6513328 0.47402,-0.9625251 0,-0.6694254 -0.54278,-1.2085842 -1.20858,-1.2085842 -0.66581,0 -1.20859,0.5391588 -1.20859,1.2085842 0,0.3111923 0.1158,0.6694251 0.47041,0.9625251 -0.20625,-0.166452 -0.47402,-0.249678 -0.72732,-0.249678 -0.66943,0 -1.18326,0.564489 -1.18326,1.237533 z"
       id="text3-7-0-5-9-3-7"
       style="font-weight:300;font-size:7.41072px;line-height:0;font-family:'SF Pro Rounded';-inkscape-font-specification:'SF Pro Rounded Light';letter-spacing:0px;word-spacing:0px;text-orientation:upright;stroke-width:0.526494;stroke-linecap:round"
       inkscape:label="club-top"
       transform="scale(1.0050875,0.99493825)"
       aria-label="♣" /><path
       d="m -329.5831,-54.757448 c 0,0.676663 0.52107,1.190492 1.19773,1.190492 0.38356,0 0.76712,-0.133885 0.93358,-0.459552 h 0.0289 c -0.0145,0.379944 -0.41251,0.694755 -0.60067,0.886537 -0.1954,0.202636 -0.076,0.488499 0.18093,0.488499 h 1.81287 c 0.26054,0 0.37995,-0.285863 0.18093,-0.488499 -0.18816,-0.191782 -0.5862,-0.506593 -0.59706,-0.886537 h 0.029 c 0.16645,0.325667 0.5464,0.459552 0.92996,0.459552 0.68028,0 1.19773,-0.513829 1.19773,-1.190492 0,-0.673044 -0.51383,-1.237532 -1.18326,-1.237532 -0.25329,0 -0.51744,0.08323 -0.72732,0.249677 0.35824,-0.293099 0.47403,-0.651332 0.47403,-0.962525 0,-0.669425 -0.54278,-1.208584 -1.20859,-1.208584 -0.6658,0 -1.20858,0.539159 -1.20858,1.208584 0,0.311193 0.11579,0.669426 0.47041,0.962525 -0.20626,-0.166451 -0.47403,-0.249677 -0.72732,-0.249677 -0.66943,0 -1.18326,0.564488 -1.18326,1.237532 z"
       id="text3-6-6-0-9-0-7-4"
       style="font-weight:300;font-size:7.41072px;line-height:0;font-family:'SF Pro Rounded';-inkscape-font-specification:'SF Pro Rounded Light';letter-spacing:0px;word-spacing:0px;text-orientation:upright;stroke-width:0.526494;stroke-linecap:round"
       inkscape:label="club-bottom"
       transform="scale(-1.0050875,-0.99493825)"
       aria-label="♣" /></g></svg>
