<?xml version="1.0" encoding="UTF-8" standalone="no"?>
<!DOCTYPE svg PUBLIC "-//W3C//DTD SVG 1.1//EN" "http://www.w3.org/Graphics/SVG/1.1/DTD/svg11.dtd">
<!-- Created with Vectornator (http://vectornator.io/) -->
<svg height="100%" stroke-miterlimit="10" style="fill-rule:nonzero;clip-rule:evenodd;stroke-linecap:round;stroke-linejoin:round;" version="1.1" viewBox="0 0 180 252" width="100%" xml:space="preserve" xmlns="http://www.w3.org/2000/svg" xmlns:vectornator="http://vectornator.io" xmlns:xlink="http://www.w3.org/1999/xlink">
<defs>
<clipPath id="TextBounds">
<rect height="39" width="23.5312" x="8.20312" y="3"/>
</clipPath>
<clipPath id="TextBounds_2">
<rect height="39" width="23.5312" x="148.266" y="210"/>
</clipPath>
<clipPath id="TextBounds_3">
<rect height="77" width="44.0625" x="67.9688" y="81.5077"/>
</clipPath>
</defs>
<g id="Layer-1" vectornator:layerName="Layer 1">
<path d="M16 0L164 0C172.837 0 180 7.16344 180 16L180 236C180 244.837 172.837 252 164 252L16 252C7.16344 252 0 244.837 0 236L0 16C0 7.16344 7.16344 0 16 0Z" fill="#ffffff" fill-rule="nonzero" opacity="1" stroke="none"/>
<path clip-path="url(#TextBounds)" d="M26.4531 35.3594C27.1406 35.3594 27.5625 34.7969 27.5625 34.2031C27.5625 33.8125 27.4062 33.5156 26.9844 32.9219L25.8125 31.3125C27.5312 29.7656 28.5156 27.3594 28.5156 24.0156L28.5156 20.875C28.5156 14.9219 25.1406 11.2188 19.9688 11.2188C14.7188 11.2188 11.4375 14.9219 11.4375 20.875L11.4375 24.0156C11.4375 29.875 14.5781 33.4531 19.9688 33.4531C21.375 33.4531 22.6094 33.1875 23.6875 32.7031L24.8906 34.3594C25.4219 35.0781 25.8438 35.3594 26.4531 35.3594ZM14.1562 24.0469L14.1562 20.875C14.1562 16.4219 16.3906 13.6719 19.9688 13.6719C23.2656 13.6719 25.7812 16.4219 25.7812 20.875L25.7812 24.0469C25.7812 26.5312 25.1719 28.0156 24.1875 29.1719L23.1719 27.7656C22.6875 27.0938 22.2656 26.8594 21.8438 26.8594C21.1719 26.8594 20.6562 27.375 20.6562 28.0469C20.6562 28.5 20.9219 28.9219 21.2656 29.3906L22.1719 30.6094C21.4844 30.8906 20.7344 31.0312 19.9531 31.0312C16.3906 31.0312 14.1562 28.4062 14.1562 24.0469Z" fill="#000000" opacity="1" stroke="none"/>
<path clip-path="url(#TextBounds_2)" d="M153.547 216.641C152.859 216.641 152.438 217.203 152.438 217.797C152.438 218.188 152.594 218.484 153.016 219.078L154.188 220.688C152.469 222.234 151.484 224.641 151.484 227.984L151.484 231.125C151.484 237.078 154.859 240.781 160.031 240.781C165.281 240.781 168.562 237.078 168.562 231.125L168.562 227.984C168.562 222.125 165.422 218.547 160.031 218.547C158.625 218.547 157.391 218.812 156.312 219.297L155.109 217.641C154.578 216.922 154.156 216.641 153.547 216.641ZM165.844 227.953L165.844 231.125C165.844 235.578 163.609 238.328 160.031 238.328C156.734 238.328 154.219 235.578 154.219 231.125L154.219 227.953C154.219 225.469 154.828 223.984 155.812 222.828L156.828 224.234C157.312 224.906 157.734 225.141 158.156 225.141C158.828 225.141 159.344 224.625 159.344 223.953C159.344 223.5 159.078 223.078 158.734 222.609L157.828 221.391C158.516 221.109 159.266 220.969 160.047 220.969C163.609 220.969 165.844 223.594 165.844 227.953Z" fill="#000000" opacity="1" stroke="none"/>
<path clip-path="url(#TextBounds_3)" d="M102.969 147.226C104.344 147.226 105.188 146.101 105.188 144.914C105.188 144.133 104.875 143.539 104.031 142.351L101.688 139.133C105.125 136.039 107.094 131.226 107.094 124.539L107.094 118.258C107.094 106.351 100.344 98.9452 90 98.9452C79.5 98.9452 72.9375 106.351 72.9375 118.258L72.9375 124.539C72.9375 136.258 79.2188 143.414 90 143.414C92.8125 143.414 95.2812 142.883 97.4375 141.914L99.8438 145.226C100.906 146.664 101.75 147.226 102.969 147.226ZM78.375 124.601L78.375 118.258C78.375 109.351 82.8438 103.851 90 103.851C96.5938 103.851 101.625 109.351 101.625 118.258L101.625 124.601C101.625 129.57 100.406 132.539 98.4375 134.851L96.4062 132.039C95.4375 130.695 94.5938 130.226 93.75 130.226C92.4062 130.226 91.375 131.258 91.375 132.601C91.375 133.508 91.9062 134.351 92.5938 135.289L94.4062 137.726C93.0312 138.289 91.5312 138.57 89.9688 138.57C82.8438 138.57 78.375 133.32 78.375 124.601Z" fill="#000000" opacity="1" stroke="none"/>
<path d="M15 1L165 1C172.732 1 179 7.28814 179 15.0449L179 236.955C179 244.712 172.732 251 165 251L15 251C7.26801 251 1 244.712 1 236.955L1 15.0449C1 7.28814 7.26801 1 15 1Z" fill="none" opacity="1" stroke="#000000" stroke-linecap="round" stroke-linejoin="round" stroke-width="2"/>
</g>
</svg>
