<?xml version="1.0" encoding="UTF-8" standalone="no"?>
<!-- Created with Inkscape (http://www.inkscape.org/) -->

<svg
   width="179.99977"
   height="251.99976"
   viewBox="0 0 47.624938 66.674935"
   version="1.1"
   id="svg1"
   inkscape:version="1.4 (e7c3feb1, 2024-10-09)"
   sodipodi:docname="All Cards - Diamonds.svg"
   xml:space="preserve"
   inkscape:export-filename="All Cards - Diamonds.png"
   inkscape:export-xdpi="96"
   inkscape:export-ydpi="96"
   inkscape:export-batch-path="Diamonds"
   inkscape:export-batch-name=""
   xmlns:inkscape="http://www.inkscape.org/namespaces/inkscape"
   xmlns:sodipodi="http://sodipodi.sourceforge.net/DTD/sodipodi-0.dtd"
   xmlns="http://www.w3.org/2000/svg"
   xmlns:svg="http://www.w3.org/2000/svg"><sodipodi:namedview
     id="namedview1"
     pagecolor="#ffffff"
     bordercolor="#999999"
     borderopacity="1"
     inkscape:showpageshadow="2"
     inkscape:pageopacity="0"
     inkscape:pagecheckerboard="0"
     inkscape:deskcolor="#d1d1d1"
     inkscape:document-units="px"
     showgrid="true"
     inkscape:zoom="0.69002035"
     inkscape:cx="626.79311"
     inkscape:cy="261.58649"
     inkscape:window-width="1512"
     inkscape:window-height="836"
     inkscape:window-x="0"
     inkscape:window-y="38"
     inkscape:window-maximized="0"
     inkscape:current-layer="layer14"><inkscape:grid
       id="grid2"
       units="px"
       originx="-142.875"
       originy="-3.5768442e-09"
       spacingx="0.26458333"
       spacingy="0.26458333"
       empcolor="#0099e5"
       empopacity="0.30196078"
       color="#0099e5"
       opacity="0.14901961"
       empspacing="5"
       enabled="true"
       visible="true" /></sodipodi:namedview><defs
     id="defs1"><inkscape:path-effect
       effect="fillet_chamfer"
       id="path-effect3-7"
       is_visible="true"
       lpeversion="1"
       nodesatellites_param="F,0,0,1,0,3,0,1 @ F,0,0,1,0,3,0,1 @ F,0,0,1,0,3,0,1 @ F,0,0,1,0,3,0,1"
       radius="0"
       unit="px"
       method="auto"
       mode="F"
       chamfer_steps="1"
       flexible="false"
       use_knot_distance="true"
       apply_no_radius="true"
       apply_with_radius="true"
       only_selected="false"
       hide_knots="false" /></defs><g
     inkscape:groupmode="layer"
     id="layer4"
     inkscape:label="4"
     transform="matrix(0.99998908,0,0,1.0101899,-142.87292,-0.00209528)"
     inkscape:export-filename="Diamonds/4.svg"
     inkscape:export-xdpi="96"
     inkscape:export-ydpi="96"><path
       style="fill:#ffffff;fill-opacity:1;stroke:#000000;stroke-width:0.526494;stroke-linecap:round;stroke-linejoin:round;stroke-dasharray:none;stroke-opacity:1"
       id="rect1-4"
       width="47.098965"
       height="65.475883"
       x="0.26119247"
       y="0.26535115"
       inkscape:path-effect="#path-effect3-7"
       sodipodi:type="rect"
       d="M 3.2611925,0.26535115 H 44.360157 a 3,3 45 0 1 3,2.99999995 V 62.741235 a 3,3 135 0 1 -3,3 H 3.2611925 a 3,3 45 0 1 -3.00000003,-3 V 3.2653511 A 3,3 135 0 1 3.2611925,0.26535115 Z"
       transform="translate(142.87653,-2.9988694e-5)"
       inkscape:label="card" /><path
       style="font-weight:300;font-size:18.2518px;font-family:'SF Pro Rounded';-inkscape-font-specification:'SF Pro Rounded Light';letter-spacing:-7.10767px;word-spacing:0px;fill:#ff0000;stroke:#ff0000;stroke-width:0.526494;stroke-linecap:round;stroke-linejoin:round"
       d="m 168.1294,39.752689 c 0.33866,0 0.58819,-0.258448 0.58819,-0.632753 v -2.424067 h 1.41701 c 0.32975,0 0.57037,-0.213888 0.57037,-0.543633 0,-0.329744 -0.24062,-0.534721 -0.57037,-0.534721 h -1.41701 v -8.074282 c 0,-0.623841 -0.34757,-0.953586 -0.98923,-0.953586 -0.52581,0 -0.84664,0.231713 -1.37245,0.989234 -1.95173,2.735987 -3.81434,5.427415 -5.07985,7.495002 -0.2228,0.392128 -0.29409,0.606017 -0.29409,0.917937 0,0.427777 0.27627,0.704049 0.71296,0.704049 h 5.83737 v 2.424067 c 0,0.374305 0.24953,0.632753 0.5971,0.632753 z m -0.5971,-4.135174 h -5.30265 v -0.03565 c 1.29224,-2.112146 2.95879,-4.51839 5.28482,-7.75345 h 0.0178 z"
       id="text3-8-1-1"
       inkscape:label="center"
       transform="scale(1.0050875,0.99493825)"
       aria-label="4" /><path
       d="m 148.65621,6.8878708 c 0.0714,0 0.12093,-0.052179 0.12093,-0.1289111 V 5.7307405 h 0.60151 c 0.0683,0 0.11783,-0.04297 0.11783,-0.1104952 0,-0.067524 -0.0496,-0.1104952 -0.11783,-0.1104952 h -0.60151 V 2.550934 c 0,-0.1227724 -0.0714,-0.1902973 -0.19535,-0.1902973 -0.10232,0 -0.16433,0.04297 -0.26045,0.1749508 -0.74414,1.0036647 -1.43558,1.9674285 -2.0278,2.8667367 -0.0465,0.073663 -0.0651,0.1197031 -0.0651,0.1810893 0,0.08901 0.0558,0.147327 0.15193,0.147327 h 2.15493 v 1.0282192 c 0,0.076733 0.0497,0.1289111 0.12092,0.1289111 z m -0.12092,-1.3781207 h -2.03712 v -0.00614 c 0.56743,-0.8655457 1.24336,-1.8201015 2.03091,-2.8575288 h 0.006 z"
       id="text1-4-8-9"
       style="font-weight:200;font-size:6.31793px;font-family:'SF Pro Rounded';-inkscape-font-specification:'SF Pro Rounded, Ultra-Light';letter-spacing:-7.10767px;word-spacing:0px;fill:#ff0000;stroke:#ff0000;stroke-width:0.526494;stroke-linecap:round;stroke-linejoin:round"
       inkscape:label="top"
       aria-label="4" /><path
       d="m 184.71824,59.118807 c -0.0714,0 -0.12092,0.05217 -0.12092,0.128911 v 1.02822 h -0.60152 c -0.0683,0 -0.11783,0.04297 -0.11783,0.110495 0,0.06753 0.0497,0.110495 0.11783,0.110495 h 0.60152 v 2.958816 c 0,0.122772 0.0714,0.190297 0.19533,0.190297 0.10233,0 0.16434,-0.04297 0.26046,-0.17495 0.74415,-1.003665 1.43559,-1.967429 2.02781,-2.866737 0.0465,-0.07366 0.0651,-0.119703 0.0651,-0.18109 0,-0.08901 -0.0558,-0.147326 -0.15193,-0.147326 h -2.15493 v -1.02822 c 0,-0.07673 -0.0497,-0.128911 -0.12093,-0.128911 z m 0.12093,1.378121 h 2.0371 v 0.0062 c -0.56741,0.865546 -1.24334,1.820102 -2.0309,2.85753 h -0.006 z"
       id="text1-4-8-9-4"
       style="font-weight:200;font-size:6.31793px;font-family:'SF Pro Rounded';-inkscape-font-specification:'SF Pro Rounded, Ultra-Light';letter-spacing:-7.10767px;word-spacing:0px;fill:#ff0000;stroke:#ff0000;stroke-width:0.526494;stroke-linecap:round;stroke-linejoin:round"
       inkscape:label="bottom"
       aria-label="4" /><path
       d="m 147.86403,14.931195 c 0.12296,0 0.18602,-0.111756 0.31214,-0.331119 l 1.47874,-2.603415 c 0.063,-0.111755 0.0977,-0.219366 0.0977,-0.339396 0,-0.12003 -0.0346,-0.227643 -0.0977,-0.339396 l -1.47874,-2.6034149 c -0.12612,-0.2193657 -0.18918,-0.331118 -0.31214,-0.331118 -0.12612,0 -0.18918,0.1117522 -0.3153,0.331118 l -1.47875,2.6034149 c -0.063,0.111753 -0.0977,0.219366 -0.0977,0.339396 0,0.12003 0.0346,0.227644 0.0977,0.339396 l 1.47875,2.603415 c 0.12612,0.219366 0.18918,0.331119 0.3153,0.331119 z"
       id="text4-1-5-4"
       style="font-weight:300;font-size:7.39837px;line-height:0;font-family:'SF Pro Rounded';-inkscape-font-specification:'SF Pro Rounded Light';letter-spacing:0px;word-spacing:0px;text-orientation:upright;fill:#ff0000;stroke-width:0.526494;stroke-linecap:round"
       inkscape:label="diamond-top"
       aria-label="♦" /><path
       d="m 185.51359,57.623251 c 0.12297,0 0.18603,-0.111755 0.31214,-0.331118 l 1.47874,-2.603415 c 0.063,-0.111756 0.0977,-0.219366 0.0977,-0.339396 0,-0.12003 -0.0346,-0.227643 -0.0977,-0.339395 l -1.47874,-2.603416 c -0.12611,-0.219365 -0.18917,-0.331118 -0.31214,-0.331118 -0.12612,0 -0.18918,0.111755 -0.3153,0.331118 l -1.47874,2.603416 c -0.063,0.111756 -0.0977,0.219365 -0.0977,0.339395 0,0.12003 0.0346,0.227644 0.0977,0.339396 l 1.47874,2.603415 c 0.12612,0.219366 0.18918,0.331118 0.3153,0.331118 z"
       id="text4-5-0-0-0"
       style="font-weight:300;font-size:7.39837px;line-height:0;font-family:'SF Pro Rounded';-inkscape-font-specification:'SF Pro Rounded Light';letter-spacing:0px;word-spacing:0px;text-orientation:upright;fill:#ff0000;stroke-width:0.526494;stroke-linecap:round"
       inkscape:label="diamond-bottom"
       aria-label="♦" /></g></svg>
