<?xml version="1.0" encoding="UTF-8" standalone="no"?>
<!-- Created with Inkscape (http://www.inkscape.org/) -->

<svg
   width="179.99977"
   height="251.99976"
   viewBox="0 0 47.624938 66.674935"
   version="1.1"
   id="svg1"
   inkscape:version="1.4 (e7c3feb1, 2024-10-09)"
   sodipodi:docname="All Cards - Clubs.svg"
   xml:space="preserve"
   inkscape:export-filename="All Cards - Clubs.png"
   inkscape:export-xdpi="96"
   inkscape:export-ydpi="96"
   inkscape:export-batch-path="Clubs"
   inkscape:export-batch-name=""
   xmlns:inkscape="http://www.inkscape.org/namespaces/inkscape"
   xmlns:sodipodi="http://sodipodi.sourceforge.net/DTD/sodipodi-0.dtd"
   xmlns="http://www.w3.org/2000/svg"
   xmlns:svg="http://www.w3.org/2000/svg"><sodipodi:namedview
     id="namedview1"
     pagecolor="#ffffff"
     bordercolor="#999999"
     borderopacity="1"
     inkscape:showpageshadow="2"
     inkscape:pageopacity="0"
     inkscape:pagecheckerboard="0"
     inkscape:deskcolor="#d1d1d1"
     inkscape:document-units="px"
     showgrid="true"
     inkscape:zoom="0.62203345"
     inkscape:cx="632.60264"
     inkscape:cy="315.89941"
     inkscape:window-width="1512"
     inkscape:window-height="836"
     inkscape:window-x="0"
     inkscape:window-y="38"
     inkscape:window-maximized="0"
     inkscape:current-layer="layer14"><inkscape:grid
       id="grid2"
       units="px"
       originx="-2.9979343e-05"
       originy="-3.0297853e-05"
       spacingx="0.26458333"
       spacingy="0.26458333"
       empcolor="#0099e5"
       empopacity="0.30196078"
       color="#0099e5"
       opacity="0.14901961"
       empspacing="5"
       enabled="true"
       visible="true" /></sodipodi:namedview><defs
     id="defs1"><inkscape:path-effect
       effect="fillet_chamfer"
       id="path-effect3"
       is_visible="true"
       lpeversion="1"
       nodesatellites_param="F,0,0,1,0,3,0,1 @ F,0,0,1,0,3,0,1 @ F,0,0,1,0,3,0,1 @ F,0,0,1,0,3,0,1"
       radius="0"
       unit="px"
       method="auto"
       mode="F"
       chamfer_steps="1"
       flexible="false"
       use_knot_distance="true"
       apply_no_radius="true"
       apply_with_radius="true"
       only_selected="false"
       hide_knots="false" /></defs><g
     inkscape:label="Ace"
     inkscape:groupmode="layer"
     id="layer1"
     transform="matrix(0.99998908,0,0,1.0101899,0.00205452,-0.00212558)"
     inkscape:export-filename="Clubs/Ace.svg"
     inkscape:export-xdpi="96"
     inkscape:export-ydpi="96"><path
       style="fill:#ffffff;fill-opacity:1;stroke:#000000;stroke-width:0.526494;stroke-linecap:round;stroke-linejoin:round;stroke-dasharray:none"
       id="rect1"
       width="47.098965"
       height="65.475883"
       x="0.26119247"
       y="0.26535115"
       inkscape:path-effect="#path-effect3"
       sodipodi:type="rect"
       d="M 3.2611925,0.26535115 H 44.360157 a 3,3 45 0 1 3,2.99999995 V 62.741235 a 3,3 135 0 1 -3,3 H 3.2611925 a 3,3 45 0 1 -3.00000003,-3 V 3.2653511 A 3,3 135 0 1 3.2611925,0.26535115 Z"
       inkscape:label="card" /><path
       style="font-weight:300;font-size:18.2518px;font-family:'SF Pro Rounded';-inkscape-font-specification:'SF Pro Rounded Light';letter-spacing:-7.10767px;word-spacing:0px;stroke:#000000;stroke-width:0.526494;stroke-linecap:round;stroke-linejoin:round"
       d="m 19.082641,39.725984 c 0.303008,0 0.481248,-0.133681 0.597105,-0.472337 l 1.318977,-3.591541 h 5.373944 l 1.318977,3.591541 c 0.124768,0.329744 0.294097,0.472337 0.606017,0.472337 0.356481,0 0.614929,-0.222801 0.614929,-0.534721 0,-0.09803 -0.02674,-0.204976 -0.08021,-0.356481 L 24.456584,27.195695 c -0.151504,-0.401041 -0.383217,-0.579281 -0.757521,-0.579281 -0.392129,0 -0.632753,0.187152 -0.784257,0.579281 L 18.54792,38.834782 c -0.06238,0.160417 -0.08021,0.267361 -0.08021,0.356481 0,0.31192 0.258448,0.534721 0.614929,0.534721 z m 2.272563,-5.115495 2.308211,-6.363177 h 0.05347 l 2.299299,6.363177 z"
       id="text3-8-2"
       inkscape:label="center"
       transform="scale(1.0050875,0.99493826)"
       aria-label="A" /><path
       style="font-weight:200;font-size:6.31793px;font-family:'SF Pro Rounded';-inkscape-font-specification:'SF Pro Rounded Ultra-Light';letter-spacing:-7.10767px;word-spacing:0px;stroke:#000000;stroke-width:0.526494;stroke-linecap:round;stroke-linejoin:round"
       d="m 3.3162413,6.8817329 c 0.065113,0 0.09922,-0.027623 0.1271255,-0.1012873 l 0.539508,-1.4210913 h 2.0061021 l 0.5426087,1.4210913 c 0.024805,0.070594 0.062013,0.1012873 0.1240249,0.1012873 0.074415,0 0.1240249,-0.04604 0.1240249,-0.1135646 0,-0.018416 -0.0062,-0.04604 -0.015504,-0.076733 L 5.136306,2.4742012 C 5.1052998,2.3943991 5.0618911,2.3606367 4.9874762,2.3606367 c -0.074415,0 -0.1209242,0.036832 -0.1519305,0.1166338 l -1.6247255,4.214165 c -0.012403,0.036832 -0.018604,0.058317 -0.018604,0.079802 0,0.064455 0.04961,0.1104953 0.1240251,0.1104954 z M 4.063491,5.141433 4.9781744,2.7228155 h 0.015503 l 0.917784,2.4186175 z"
       id="text1-4-0"
       inkscape:label="top"
       aria-label="A" /><path
       style="font-weight:200;font-size:6.31793px;font-family:'SF Pro Rounded';-inkscape-font-specification:'SF Pro Rounded Ultra-Light';letter-spacing:-7.10767px;word-spacing:0px;stroke:#000000;stroke-width:0.526494;stroke-linecap:round;stroke-linejoin:round"
       d="m 44.30517,59.124831 c -0.06511,0 -0.09922,0.02762 -0.127126,0.101288 l -0.539508,1.421091 h -2.006102 l -0.542609,-1.421091 c -0.02481,-0.07059 -0.06201,-0.101288 -0.124025,-0.101288 -0.07442,0 -0.124024,0.04604 -0.124024,0.113565 0,0.01842 0.0062,0.04603 0.0155,0.07673 l 1.627827,4.217234 c 0.03101,0.0798 0.07442,0.113564 0.148829,0.113564 0.07442,0 0.120925,-0.03683 0.151931,-0.116633 l 1.624726,-4.214165 c 0.0124,-0.03683 0.0186,-0.05831 0.0186,-0.0798 0,-0.06445 -0.04961,-0.110495 -0.124024,-0.110495 z m -0.74725,1.740301 -0.914684,2.418617 h -0.0155 l -0.917785,-2.418617 z"
       id="text1-4-0-7"
       inkscape:label="bottom"
       aria-label="A" /><path
       d="m 2.3255155,11.526311 c 0,0.673237 0.5237172,1.184465 1.2038221,1.184465 0.385514,0 0.7710281,-0.133207 0.9383266,-0.457225 h 0.029095 C 4.4822118,12.631572 4.0821501,12.944789 3.89303,13.1356 3.696636,13.337211 3.816654,13.621627 4.0748762,13.621627 h 1.8220993 c 0.2618587,0 0.3818772,-0.284416 0.1818463,-0.486027 -0.18912,-0.190811 -0.5891817,-0.504028 -0.6000926,-0.882049 h 0.029095 c 0.1672985,0.324018 0.5491756,0.457225 0.9346897,0.457225 0.6837418,0 1.203822,-0.511228 1.203822,-1.184465 0,-0.669637 -0.5164433,-1.231269 -1.1892744,-1.231269 -0.2545847,0 -0.5200802,0.08281 -0.7310218,0.248414 0.3600555,-0.291616 0.4764371,-0.6480358 0.4764371,-0.9576529 0,-0.6660369 -0.5455387,-1.2024666 -1.2147329,-1.2024666 -0.6691941,0 -1.2147329,0.5364297 -1.2147329,1.2024666 0,0.3096171 0.1163816,0.6660369 0.4728003,0.9576529 -0.2073047,-0.165609 -0.4764372,-0.248414 -0.7310219,-0.248414 -0.672831,0 -1.1892744,0.561632 -1.1892739,1.231269 z"
       id="text3"
       style="font-weight:300;font-size:7.41072px;line-height:0;font-family:'SF Pro Rounded';-inkscape-font-specification:'SF Pro Rounded Light';letter-spacing:0px;word-spacing:0px;text-orientation:upright;stroke-width:0.526494;stroke-linecap:round"
       inkscape:label="club-top"
       aria-label="♣" /><path
       d="m 45.295899,54.480279 c 0,-0.673237 -0.523718,-1.184466 -1.203823,-1.184466 -0.385514,0 -0.771027,0.133208 -0.938326,0.457226 h -0.0291 c 0.01454,-0.37802 0.414608,-0.691238 0.603728,-0.882049 0.196395,-0.201611 0.07638,-0.486027 -0.181845,-0.486027 h -1.8221 c -0.261858,0 -0.381877,0.284416 -0.181846,0.486027 0.18912,0.190811 0.589182,0.504029 0.600093,0.882049 h -0.0291 c -0.167298,-0.324018 -0.549175,-0.457226 -0.934689,-0.457226 -0.683742,0 -1.203823,0.511229 -1.203823,1.184466 0,0.669638 0.516443,1.231268 1.189275,1.231268 0.254585,0 0.52008,-0.08281 0.731021,-0.248413 -0.360055,0.291616 -0.476436,0.648035 -0.476436,0.957653 0,0.666037 0.545538,1.202467 1.214732,1.202467 0.669195,0 1.214733,-0.53643 1.214733,-1.202467 0,-0.309618 -0.116381,-0.666037 -0.4728,-0.957653 0.207305,0.165609 0.476437,0.248413 0.731022,0.248413 0.672831,0 1.189275,-0.56163 1.189275,-1.231268 z"
       id="text3-6"
       style="font-weight:300;font-size:7.41072px;line-height:0;font-family:'SF Pro Rounded';-inkscape-font-specification:'SF Pro Rounded Light';letter-spacing:0px;word-spacing:0px;text-orientation:upright;stroke-width:0.526494;stroke-linecap:round"
       inkscape:label="club-bottom"
       aria-label="♣" /></g></svg>
