<?xml version="1.0" encoding="UTF-8" standalone="no"?>
<!-- Created with Inkscape (http://www.inkscape.org/) -->

<svg
   width="179.99976"
   height="251.99976"
   viewBox="0 0 47.624934 66.674935"
   version="1.1"
   id="svg1"
   inkscape:version="1.4 (e7c3feb1, 2024-10-09)"
   sodipodi:docname="All Cards - Clubs.svg"
   xml:space="preserve"
   inkscape:export-filename="All Cards - Clubs.png"
   inkscape:export-xdpi="96"
   inkscape:export-ydpi="96"
   xmlns:inkscape="http://www.inkscape.org/namespaces/inkscape"
   xmlns:sodipodi="http://sodipodi.sourceforge.net/DTD/sodipodi-0.dtd"
   xmlns="http://www.w3.org/2000/svg"
   xmlns:svg="http://www.w3.org/2000/svg"><sodipodi:namedview
     id="namedview1"
     pagecolor="#ffffff"
     bordercolor="#999999"
     borderopacity="1"
     inkscape:showpageshadow="2"
     inkscape:pageopacity="0"
     inkscape:pagecheckerboard="0"
     inkscape:deskcolor="#d1d1d1"
     inkscape:document-units="px"
     showgrid="true"
     inkscape:zoom="0.6064148"
     inkscape:cx="370.20864"
     inkscape:cy="230.04056"
     inkscape:window-width="1512"
     inkscape:window-height="836"
     inkscape:window-x="0"
     inkscape:window-y="38"
     inkscape:window-maximized="0"
     inkscape:current-layer="layer14"><inkscape:grid
       id="grid2"
       units="px"
       originx="-2.9980131e-05"
       originy="-3.0294277e-05"
       spacingx="0.26458333"
       spacingy="0.26458333"
       empcolor="#0099e5"
       empopacity="0.30196078"
       color="#0099e5"
       opacity="0.14901961"
       empspacing="5"
       enabled="true"
       visible="true" /><inkscape:page
       x="0"
       y="0"
       width="47.624935"
       height="66.674934"
       id="page2"
       margin="0"
       bleed="0" /></sodipodi:namedview><defs
     id="defs1"><inkscape:path-effect
       effect="fillet_chamfer"
       id="path-effect3"
       is_visible="true"
       lpeversion="1"
       nodesatellites_param="F,0,0,1,0,3,0,1 @ F,0,0,1,0,3,0,1 @ F,0,0,1,0,3,0,1 @ F,0,0,1,0,3,0,1"
       radius="0"
       unit="px"
       method="auto"
       mode="F"
       chamfer_steps="1"
       flexible="false"
       use_knot_distance="true"
       apply_no_radius="true"
       apply_with_radius="true"
       only_selected="false"
       hide_knots="false" /></defs><g
     inkscape:label="Ace"
     inkscape:groupmode="layer"
     id="layer1"
     transform="matrix(0.99998908,0,0,1.0101899,0.00205452,-0.00212557)"
     inkscape:export-filename="Clubs/Ace.svg"
     inkscape:export-xdpi="96"
     inkscape:export-ydpi="96"><path
       style="fill:#ffffff;fill-opacity:1;stroke:#000000;stroke-width:0.526494;stroke-linecap:round;stroke-linejoin:round;stroke-dasharray:none"
       id="rect1"
       width="47.098965"
       height="65.475883"
       x="0.26119247"
       y="0.26535115"
       inkscape:path-effect="#path-effect3"
       sodipodi:type="rect"
       d="M 3.2611925,0.26535115 H 44.360157 a 3,3 45 0 1 3,2.99999995 V 62.741235 a 3,3 135 0 1 -3,3 H 3.2611925 a 3,3 45 0 1 -3.00000003,-3 V 3.2653511 A 3,3 135 0 1 3.2611925,0.26535115 Z"
       inkscape:label="card" /><path
       style="font-weight:300;font-size:18.2518px;font-family:'SF Pro Rounded';-inkscape-font-specification:'SF Pro Rounded Light';letter-spacing:-7.10767px;word-spacing:0px;stroke:#000000;stroke-width:0.526494;stroke-linecap:round;stroke-linejoin:round"
       d="m 19.082641,39.725984 c 0.303008,0 0.481248,-0.133681 0.597105,-0.472337 l 1.318977,-3.591541 h 5.373944 l 1.318977,3.591541 c 0.124768,0.329744 0.294097,0.472337 0.606017,0.472337 0.356481,0 0.614929,-0.222801 0.614929,-0.534721 0,-0.09803 -0.02674,-0.204976 -0.08021,-0.356481 L 24.456584,27.195695 c -0.151504,-0.401041 -0.383217,-0.579281 -0.757521,-0.579281 -0.392129,0 -0.632753,0.187152 -0.784257,0.579281 L 18.54792,38.834782 c -0.06238,0.160417 -0.08021,0.267361 -0.08021,0.356481 0,0.31192 0.258448,0.534721 0.614929,0.534721 z m 2.272563,-5.115495 2.308211,-6.363177 h 0.05347 l 2.299299,6.363177 z"
       id="text3-8-2"
       inkscape:label="center"
       transform="scale(1.0050875,0.99493826)"
       aria-label="A" /><path
       style="font-weight:200;font-size:6.31793px;font-family:'SF Pro Rounded';-inkscape-font-specification:'SF Pro Rounded Ultra-Light';letter-spacing:-7.10767px;word-spacing:0px;stroke:#000000;stroke-width:0.526494;stroke-linecap:round;stroke-linejoin:round"
       d="m 2.4504418,6.9123194 c 0.064783,0 0.098718,-0.027764 0.126482,-0.1018026 L 3.113701,5.3821957 h 1.9959477 l 0.5398622,1.4283211 c 0.024679,0.070953 0.061699,0.1018026 0.1233971,0.1018026 0.074038,0 0.1233971,-0.046274 0.1233971,-0.1141423 0,-0.01851 -0.00617,-0.046274 -0.015425,-0.077123 L 4.2612938,2.4823644 C 4.2304446,2.4021563 4.1872556,2.3682221 4.1132174,2.3682221 c -0.074038,0 -0.1203122,0.037019 -0.1511615,0.1172272 L 2.3455543,6.7210539 c -0.01234,0.037019 -0.01851,0.058614 -0.01851,0.080208 0,0.064783 0.049359,0.1110574 0.1233975,0.1110575 z M 3.1939091,5.1631658 4.1039626,2.7322435 h 0.015425 L 5.032526,5.1631658 Z"
       id="text1-4-0"
       inkscape:label="top"
       transform="scale(1.0050875,0.99493825)"
       aria-label="A" /><path
       style="font-weight:200;font-size:6.31793px;font-family:'SF Pro Rounded';-inkscape-font-specification:'SF Pro Rounded Ultra-Light';letter-spacing:-7.10767px;word-spacing:0px;stroke:#000000;stroke-width:0.526494;stroke-linecap:round;stroke-linejoin:round"
       d="m -44.929962,-59.430155 c 0.06478,0 0.09872,-0.02776 0.126482,-0.101803 l 0.536777,-1.428321 h 1.995948 l 0.539862,1.428321 c 0.02468,0.07095 0.0617,0.101803 0.123397,0.101803 0.07404,0 0.123397,-0.04627 0.123397,-0.114142 0,-0.01851 -0.0062,-0.04627 -0.01542,-0.07712 l -1.619587,-4.238689 c -0.03085,-0.08021 -0.07404,-0.114142 -0.148076,-0.114142 -0.07404,0 -0.120313,0.03702 -0.151162,0.117227 l -1.616502,4.235604 c -0.01234,0.03702 -0.01851,0.05861 -0.01851,0.08021 0,0.06478 0.04936,0.111057 0.123397,0.111057 z m 0.743467,-1.749154 0.910054,-2.430922 h 0.01542 l 0.913139,2.430922 z"
       id="text1-4-0-7"
       inkscape:label="bottom"
       transform="scale(-1.0050875,-0.99493825)"
       aria-label="A" /><path
       d="m 2.1039016,11.584951 c 0,0.676662 0.5210663,1.190491 1.1977287,1.190491 0.3835626,0 0.7671253,-0.133885 0.933577,-0.459551 h 0.028948 c -0.014474,0.379944 -0.4125107,0.694755 -0.6006735,0.886536 -0.1953999,0.202637 -0.075989,0.4885 0.1809257,0.4885 h 1.8128763 c 0.2605332,0 0.3799442,-0.285863 0.1809258,-0.4885 -0.1881627,-0.191781 -0.5861994,-0.506592 -0.597055,-0.886536 h 0.028948 c 0.1664517,0.325666 0.5463958,0.459551 0.9299585,0.459551 0.6802809,0 1.1977286,-0.513829 1.1977286,-1.190491 0,-0.673044 -0.5138292,-1.237533 -1.1832546,-1.237533 -0.2532961,0 -0.5174477,0.08323 -0.7273216,0.249678 0.358233,-0.2931 0.4740255,-0.6513328 0.4740255,-0.9625251 0,-0.6694254 -0.5427773,-1.2085842 -1.2085842,-1.2085842 -0.6658068,0 -1.2085842,0.5391588 -1.2085842,1.2085842 0,0.3111923 0.1157925,0.6694251 0.4704071,0.9625251 -0.2062554,-0.166452 -0.4740256,-0.249678 -0.7273217,-0.249678 -0.6694253,0 -1.1832546,0.564489 -1.1832544,1.237533 z"
       id="text3"
       style="font-weight:300;font-size:7.41072px;line-height:0;font-family:'SF Pro Rounded';-inkscape-font-specification:'SF Pro Rounded Light';letter-spacing:0px;word-spacing:0px;text-orientation:upright;stroke-width:0.526494;stroke-linecap:round"
       inkscape:label="club-top"
       transform="scale(1.0050875,0.99493825)"
       aria-label="♣" /><path
       d="m -45.276394,-54.757448 c 0,0.676663 0.521067,1.190492 1.197729,1.190492 0.383563,0 0.767125,-0.133885 0.933577,-0.459552 h 0.02895 c -0.01447,0.379944 -0.41251,0.694755 -0.600673,0.886537 -0.1954,0.202636 -0.07599,0.488499 0.180925,0.488499 h 1.812877 c 0.260533,0 0.379944,-0.285863 0.180926,-0.488499 -0.188163,-0.191782 -0.5862,-0.506593 -0.597056,-0.886537 h 0.02895 c 0.166451,0.325667 0.546395,0.459552 0.929958,0.459552 0.680281,0 1.197729,-0.513829 1.197729,-1.190492 0,-0.673044 -0.513829,-1.237532 -1.183255,-1.237532 -0.253296,0 -0.517448,0.08323 -0.727321,0.249677 0.358233,-0.293099 0.474025,-0.651332 0.474025,-0.962525 0,-0.669425 -0.542777,-1.208584 -1.208584,-1.208584 -0.665807,0 -1.208584,0.539159 -1.208584,1.208584 0,0.311193 0.115792,0.669426 0.470407,0.962525 -0.206256,-0.166451 -0.474026,-0.249677 -0.727322,-0.249677 -0.669425,0 -1.183255,0.564488 -1.183255,1.237532 z"
       id="text3-6"
       style="font-weight:300;font-size:7.41072px;line-height:0;font-family:'SF Pro Rounded';-inkscape-font-specification:'SF Pro Rounded Light';letter-spacing:0px;word-spacing:0px;text-orientation:upright;stroke-width:0.526494;stroke-linecap:round"
       inkscape:label="club-bottom"
       transform="scale(-1.0050875,-0.99493825)"
       aria-label="♣" /></g></svg>
