<?xml version="1.0" encoding="UTF-8" standalone="no"?>
<!-- Created with Inkscape (http://www.inkscape.org/) -->

<svg
   width="179.99977"
   height="251.99976"
   viewBox="0 0 47.624938 66.674935"
   version="1.1"
   id="svg1"
   inkscape:version="1.4 (e7c3feb1, 2024-10-09)"
   sodipodi:docname="All Cards - Clubs.svg"
   xml:space="preserve"
   inkscape:export-filename="All Cards - Clubs.png"
   inkscape:export-xdpi="96"
   inkscape:export-ydpi="96"
   inkscape:export-batch-path="Clubs"
   inkscape:export-batch-name=""
   xmlns:inkscape="http://www.inkscape.org/namespaces/inkscape"
   xmlns:sodipodi="http://sodipodi.sourceforge.net/DTD/sodipodi-0.dtd"
   xmlns="http://www.w3.org/2000/svg"
   xmlns:svg="http://www.w3.org/2000/svg"><sodipodi:namedview
     id="namedview1"
     pagecolor="#ffffff"
     bordercolor="#999999"
     borderopacity="1"
     inkscape:showpageshadow="2"
     inkscape:pageopacity="0"
     inkscape:pagecheckerboard="0"
     inkscape:deskcolor="#d1d1d1"
     inkscape:document-units="px"
     showgrid="true"
     inkscape:zoom="0.62203345"
     inkscape:cx="632.60264"
     inkscape:cy="315.89941"
     inkscape:window-width="1512"
     inkscape:window-height="836"
     inkscape:window-x="0"
     inkscape:window-y="38"
     inkscape:window-maximized="0"
     inkscape:current-layer="layer14"><inkscape:grid
       id="grid2"
       units="px"
       originx="-95.249997"
       originy="-66.675"
       spacingx="0.26458333"
       spacingy="0.26458333"
       empcolor="#0099e5"
       empopacity="0.30196078"
       color="#0099e5"
       opacity="0.14901961"
       empspacing="5"
       enabled="true"
       visible="true" /></sodipodi:namedview><defs
     id="defs1"><inkscape:path-effect
       effect="fillet_chamfer"
       id="path-effect3-21"
       is_visible="true"
       lpeversion="1"
       nodesatellites_param="F,0,0,1,0,3,0,1 @ F,0,0,1,0,3,0,1 @ F,0,0,1,0,3,0,1 @ F,0,0,1,0,3,0,1"
       radius="0"
       unit="px"
       method="auto"
       mode="F"
       chamfer_steps="1"
       flexible="false"
       use_knot_distance="true"
       apply_no_radius="true"
       apply_with_radius="true"
       only_selected="false"
       hide_knots="false" /></defs><g
     inkscape:groupmode="layer"
     id="layer10"
     inkscape:label="10"
     inkscape:export-filename="Clubs/10.svg"
     inkscape:export-xdpi="96"
     inkscape:export-ydpi="96"
     transform="translate(-47.624999,-66.675)"><path
       style="fill:#ffffff;fill-opacity:1;stroke:#000000;stroke-width:0.526494;stroke-linecap:round;stroke-linejoin:round;stroke-dasharray:none"
       id="rect1-24"
       width="47.098965"
       height="65.475883"
       x="0.26119247"
       y="0.26535115"
       inkscape:path-effect="#path-effect3-21"
       sodipodi:type="rect"
       d="M 3.2611925,0.26535115 H 44.360157 a 3,3 45 0 1 3,2.99999995 V 62.741235 a 3,3 135 0 1 -3,3 H 3.2611925 a 3,3 45 0 1 -3.00000003,-3 V 3.2653511 A 3,3 135 0 1 3.2611925,0.26535115 Z"
       transform="matrix(0.99998907,0,0,1.0101899,47.627054,66.672874)"
       inkscape:label="card" /><path
       style="font-weight:300;font-size:18.3445px;font-family:'SF Pro Rounded';-inkscape-font-specification:'SF Pro Rounded Light';word-spacing:0px;stroke:#000000;stroke-width:0.529167;stroke-linecap:round;stroke-linejoin:round"
       d="m 67.106628,106.62742 c 0.349333,0 0.59118,-0.25976 0.59118,-0.63597 V 94.069317 c 0,-0.420992 -0.250804,-0.671795 -0.653881,-0.671795 -0.277676,0 -0.438907,0.0627 -0.797198,0.322462 l -3.063388,2.087045 c -0.259761,0.188102 -0.340376,0.331419 -0.340376,0.555351 0,0.304547 0.19706,0.510564 0.49265,0.510564 0.152273,0 0.277675,-0.04479 0.412034,-0.143316 l 2.740927,-1.836241 h 0.02687 v 11.098063 c 0,0.37621 0.241847,0.63597 0.591182,0.63597 z m 8.24965,0.0537 c 2.937986,0 4.675698,-2.59761 4.675698,-6.682127 0,-4.057645 -1.746669,-6.655255 -4.675698,-6.655255 -2.920072,0 -4.684655,2.606567 -4.684655,6.664212 0,4.08452 1.746669,6.67317 4.684655,6.67317 z m 0,-1.07487 c -2.185575,0 -3.448551,-2.17662 -3.448551,-5.607257 0,-3.367935 1.289848,-5.571425 3.448551,-5.571425 2.167661,0 3.448551,2.185575 3.448551,5.580382 0,3.42168 -1.262976,5.5983 -3.448551,5.5983 z"
       id="text3-8-1-1-3-3-3-1-3-9"
       inkscape:label="center"
       aria-label="10" /><path
       d="m 51.175796,73.645121 c 0.07131,0 0.120923,-0.05271 0.120923,-0.130225 v -4.319117 c 0,-0.07752 -0.04651,-0.124024 -0.120923,-0.124024 -0.05581,0 -0.08372,0.0124 -0.142627,0.05581 l -1.196827,0.775147 c -0.05581,0.03411 -0.07131,0.06511 -0.07131,0.111621 0,0.06511 0.04341,0.10852 0.102319,0.10852 0.03411,0 0.05891,-0.0093 0.08682,-0.02791 l 1.091406,-0.703833 h 0.0093 v 4.12378 c 0,0.07752 0.04961,0.130225 0.120923,0.130225 z m 2.703712,0.0155 c 0.979785,0 1.5813,-0.889869 1.5813,-2.303736 0,-1.410767 -0.601515,-2.300636 -1.5813,-2.300636 -0.982886,0 -1.587501,0.892969 -1.587501,2.300636 0,1.413867 0.604615,2.303736 1.587501,2.303736 z m 0,-0.220142 c -0.830958,0 -1.339454,-0.806152 -1.339454,-2.083594 0,-1.26814 0.511597,-2.080494 1.339454,-2.080494 0.824756,0 1.336354,0.809253 1.336354,2.080494 0,1.277442 -0.508497,2.083594 -1.336354,2.083594 z"
       id="text1-7-4"
       style="font-weight:200;font-size:6.35px;font-family:'SF Pro Rounded';-inkscape-font-specification:'SF Pro Rounded, Ultra-Light';word-spacing:0px;stroke:#000000;stroke-width:0.529167;stroke-linecap:round;stroke-linejoin:round"
       inkscape:label="top"
       aria-label="10" /><path
       d="m 91.699195,126.37997 c -0.07131,0 -0.120923,0.0527 -0.120923,0.13022 v 4.31912 c 0,0.0775 0.04651,0.12402 0.120923,0.12402 0.05581,0 0.08372,-0.0124 0.142627,-0.0558 l 1.196826,-0.77514 c 0.05581,-0.0341 0.07131,-0.0651 0.07131,-0.11162 0,-0.0651 -0.04341,-0.10853 -0.10232,-0.10853 -0.03411,0 -0.05891,0.009 -0.08682,0.0279 l -1.091407,0.70383 h -0.0093 v -4.12378 c 0,-0.0775 -0.04961,-0.13022 -0.120923,-0.13022 z m -2.703712,-0.0155 c -0.979786,0 -1.581299,0.88986 -1.581299,2.30373 0,1.41077 0.601513,2.30064 1.581299,2.30064 0.982886,0 1.5875,-0.89297 1.5875,-2.30064 0,-1.41387 -0.604614,-2.30373 -1.5875,-2.30373 z m 0,0.22014 c 0.830957,0 1.339453,0.80615 1.339453,2.08359 0,1.26814 -0.511596,2.08049 -1.339453,2.08049 -0.824756,0 -1.336353,-0.80925 -1.336353,-2.08049 0,-1.27744 0.508496,-2.08359 1.336353,-2.08359 z"
       id="text1-7-4-3"
       style="font-weight:200;font-size:6.35px;font-family:'SF Pro Rounded';-inkscape-font-specification:'SF Pro Rounded, Ultra-Light';word-spacing:0px;stroke:#000000;stroke-width:0.529167;stroke-linecap:round;stroke-linejoin:round"
       inkscape:label="bottom"
       aria-label="10" /><path
       d="m 49.952539,78.316665 c 0,0.680098 0.523711,1.196535 1.203809,1.196535 0.385509,0 0.771019,-0.134565 0.938316,-0.461884 h 0.02909 c -0.01455,0.381873 -0.414605,0.698282 -0.603723,0.891037 -0.196392,0.203665 -0.07637,0.490979 0.181844,0.490979 h 1.82208 c 0.261855,0 0.381873,-0.287314 0.181844,-0.490979 -0.189118,-0.192755 -0.589175,-0.509164 -0.600086,-0.891037 h 0.0291 c 0.167297,0.327319 0.54917,0.461884 0.934679,0.461884 0.683735,0 1.203809,-0.516437 1.203809,-1.196535 0,-0.67646 -0.516437,-1.243814 -1.189261,-1.243814 -0.254582,0 -0.520075,0.08365 -0.731014,0.250945 0.360052,-0.294588 0.476432,-0.65464 0.476432,-0.967412 0,-0.672823 -0.545533,-1.214719 -1.21472,-1.214719 -0.669186,0 -1.214719,0.541896 -1.214719,1.214719 0,0.312772 0.11638,0.672824 0.472795,0.967412 -0.207302,-0.167297 -0.476432,-0.250945 -0.731014,-0.250945 -0.672824,0 -1.189261,0.567354 -1.189261,1.243814 z"
       id="text3-9-5"
       style="font-weight:300;font-size:7.44834px;line-height:0;font-family:'SF Pro Rounded';-inkscape-font-specification:'SF Pro Rounded Light';letter-spacing:0px;word-spacing:0px;text-orientation:upright;stroke-width:0.529167;stroke-linecap:round"
       inkscape:label="club-top"
       aria-label="♣" /><path
       d="m 92.922442,121.70833 c 0,-0.6801 -0.523712,-1.19654 -1.203809,-1.19654 -0.38551,0 -0.77102,0.13457 -0.938316,0.46189 h -0.02909 c 0.01455,-0.38187 0.414604,-0.69828 0.603722,-0.89104 0.196392,-0.20366 0.07637,-0.49098 -0.181844,-0.49098 h -1.822079 c -0.261856,0 -0.381873,0.28732 -0.181844,0.49098 0.189118,0.19276 0.589175,0.50917 0.600086,0.89104 h -0.02909 c -0.167297,-0.32732 -0.54917,-0.46189 -0.93468,-0.46189 -0.683734,0 -1.203809,0.51644 -1.203809,1.19654 0,0.67646 0.516438,1.24381 1.189262,1.24381 0.254582,0 0.520074,-0.0836 0.731013,-0.25094 -0.360051,0.29459 -0.476431,0.65464 -0.476431,0.96741 0,0.67282 0.545532,1.21472 1.214719,1.21472 0.669187,0 1.21472,-0.5419 1.21472,-1.21472 0,-0.31277 -0.116381,-0.67282 -0.472795,-0.96741 0.207302,0.1673 0.476431,0.25094 0.731013,0.25094 0.672824,0 1.189262,-0.56735 1.189262,-1.24381 z"
       id="text3-6-64-5"
       style="font-weight:300;font-size:7.44834px;line-height:0;font-family:'SF Pro Rounded';-inkscape-font-specification:'SF Pro Rounded Light';letter-spacing:0px;word-spacing:0px;text-orientation:upright;stroke-width:0.529167;stroke-linecap:round"
       inkscape:label="club-bottom"
       aria-label="♣" /></g></svg>
