<?xml version="1.0" encoding="UTF-8" standalone="no"?>
<!-- Created with Inkscape (http://www.inkscape.org/) -->

<svg
   width="179.99977"
   height="251.99976"
   viewBox="0 0 47.624938 66.674935"
   version="1.1"
   id="svg1"
   inkscape:version="1.4 (e7c3feb1, 2024-10-09)"
   sodipodi:docname="All Cards - Spades.svg"
   xml:space="preserve"
   inkscape:export-filename="All Cards - Spades.png"
   inkscape:export-xdpi="96"
   inkscape:export-ydpi="96"
   inkscape:export-batch-path="Spades"
   inkscape:export-batch-name=""
   xmlns:inkscape="http://www.inkscape.org/namespaces/inkscape"
   xmlns:sodipodi="http://sodipodi.sourceforge.net/DTD/sodipodi-0.dtd"
   xmlns="http://www.w3.org/2000/svg"
   xmlns:svg="http://www.w3.org/2000/svg"><sodipodi:namedview
     id="namedview1"
     pagecolor="#ffffff"
     bordercolor="#999999"
     borderopacity="1"
     inkscape:showpageshadow="2"
     inkscape:pageopacity="0"
     inkscape:pagecheckerboard="0"
     inkscape:deskcolor="#d1d1d1"
     inkscape:document-units="px"
     showgrid="true"
     inkscape:zoom="0.69476599"
     inkscape:cx="619.6331"
     inkscape:cy="265.55704"
     inkscape:window-width="1512"
     inkscape:window-height="836"
     inkscape:window-x="0"
     inkscape:window-y="38"
     inkscape:window-maximized="0"
     inkscape:current-layer="layer1"><inkscape:grid
       id="grid2"
       units="px"
       originx="-238.125"
       originy="-3.5768442e-09"
       spacingx="0.26458333"
       spacingy="0.26458333"
       empcolor="#0099e5"
       empopacity="0.30196078"
       color="#0099e5"
       opacity="0.14901961"
       empspacing="5"
       enabled="true"
       visible="true" /></sodipodi:namedview><defs
     id="defs1"><inkscape:path-effect
       effect="fillet_chamfer"
       id="path-effect3-71"
       is_visible="true"
       lpeversion="1"
       nodesatellites_param="F,0,0,1,0,3,0,1 @ F,0,0,1,0,3,0,1 @ F,0,0,1,0,3,0,1 @ F,0,0,1,0,3,0,1"
       radius="0"
       unit="px"
       method="auto"
       mode="F"
       chamfer_steps="1"
       flexible="false"
       use_knot_distance="true"
       apply_no_radius="true"
       apply_with_radius="true"
       only_selected="false"
       hide_knots="false" /></defs><g
     inkscape:groupmode="layer"
     id="layer6"
     inkscape:label="6"
     transform="matrix(0.99998908,0,0,1.0101899,-238.12292,-0.00209528)"
     inkscape:export-filename="Spades/6.svg"
     inkscape:export-xdpi="96"
     inkscape:export-ydpi="96"><path
       style="fill:#ffffff;fill-opacity:1;stroke:#000000;stroke-width:0.526494;stroke-linecap:round;stroke-linejoin:round;stroke-dasharray:none"
       id="rect1-2"
       width="47.098965"
       height="65.475883"
       x="0.26119247"
       y="0.26535115"
       inkscape:path-effect="#path-effect3-71"
       sodipodi:type="rect"
       d="M 3.2611925,0.26535115 H 44.360157 a 3,3 45 0 1 3,2.99999995 V 62.741235 a 3,3 135 0 1 -3,3 H 3.2611925 a 3,3 45 0 1 -3.00000003,-3 V 3.2653511 A 3,3 135 0 1 3.2611925,0.26535115 Z"
       transform="translate(238.12757,-2.9988694e-5)"
       inkscape:label="card" /><path
       style="font-weight:300;font-size:18.2518px;font-family:'SF Pro Rounded';-inkscape-font-specification:'SF Pro Rounded Light';letter-spacing:-7.10767px;word-spacing:0px;stroke:#000000;stroke-width:0.526494;stroke-linecap:round;stroke-linejoin:round"
       d="m 260.77726,39.806161 c 2.57557,0 4.46491,-1.853698 4.46491,-4.38471 0,-2.424067 -1.82696,-4.242117 -4.26885,-4.242117 -1.84479,0 -3.29744,1.060529 -3.7876,2.441891 h -0.0267 c 0,-0.05347 0,-0.151504 0,-0.2228 0.0535,-3.671749 1.39027,-5.783896 3.69848,-5.783896 1.2566,0 2.22801,0.614929 2.78055,1.746754 0.2228,0.409953 0.38322,0.552545 0.65058,0.552545 0.32083,0 0.56146,-0.213888 0.56146,-0.525809 0,-0.213888 -0.0624,-0.427776 -0.19607,-0.668401 -0.65058,-1.37245 -2.09432,-2.183443 -3.7876,-2.183443 -3.04791,0 -4.88379,2.593396 -4.88379,6.90681 0,1.613074 0.28519,2.923139 0.86447,3.930197 0.79317,1.559602 2.20127,2.432979 3.9302,2.432979 z m -0.009,-1.087265 c -1.84478,0 -3.26179,-1.479394 -3.26179,-3.342005 0,-1.755666 1.43483,-3.119204 3.27071,-3.119204 1.86261,0 3.22614,1.363538 3.22614,3.208324 0,1.818051 -1.42592,3.252885 -3.23506,3.252885 z"
       id="text3-8-1-1-3-3"
       inkscape:label="center"
       transform="scale(1.0050875,0.99493825)"
       aria-label="6" /><path
       d="m 243.17542,6.9185639 c 0.86507,0 1.5069,-0.641486 1.5069,-1.5039624 0,-0.8317833 -0.63872,-1.4579229 -1.4852,-1.4579229 -0.67903,0 -1.24954,0.423565 -1.39837,1.0036648 h -0.0124 c 0,-0.027624 -0.003,-0.085941 -0.003,-0.1258418 0.009,-1.4149524 0.53021,-2.2559438 1.41079,-2.2559438 0.5271,0 0.94569,0.285446 1.10692,0.748912 0.0496,0.1197031 0.0775,0.1565349 0.14573,0.1565349 0.0651,0 0.11161,-0.04297 0.11161,-0.1043566 0,-0.055248 -0.0186,-0.1227724 -0.0497,-0.196436 -0.19535,-0.5187135 -0.69764,-0.8225754 -1.31157,-0.8225754 -1.01699,0 -1.65262,0.9207935 -1.65262,2.3940628 0,0.6629712 0.13953,1.1816849 0.40928,1.537725 0.27595,0.4020797 0.71003,0.6261394 1.22164,0.6261394 z m -0.003,-0.2209904 c -0.72554,0 -1.28675,-0.5893077 -1.28675,-1.3290117 0,-0.6537633 0.58601,-1.1939621 1.28675,-1.1939621 0.71624,0 1.26196,0.5371295 1.26196,1.243071 0,0.7182189 -0.55192,1.2799028 -1.26196,1.2799028 z"
       id="text1-4-8-9-6-8"
       style="font-weight:200;font-size:6.31793px;font-family:'SF Pro Rounded';-inkscape-font-specification:'SF Pro Rounded, Ultra-Light';letter-spacing:-7.10767px;word-spacing:0px;stroke:#000000;stroke-width:0.526494;stroke-linecap:round;stroke-linejoin:round"
       inkscape:label="top"
       aria-label="6" /><path
       d="m 280.7012,59.087901 c -0.86507,0 -1.5069,0.641486 -1.5069,1.503962 0,0.831784 0.63872,1.457923 1.4852,1.457923 0.67902,0 1.24954,-0.423565 1.39837,-1.003665 h 0.0124 c 0,0.02762 0.003,0.08594 0.003,0.125842 -0.009,1.414952 -0.5302,2.255944 -1.41078,2.255944 -0.52711,0 -0.94569,-0.285446 -1.10692,-0.748912 -0.0497,-0.119703 -0.0775,-0.156535 -0.14573,-0.156535 -0.0651,0 -0.11162,0.04297 -0.11162,0.104356 0,0.05525 0.0186,0.122773 0.0496,0.196436 0.19534,0.518714 0.69764,0.822576 1.31157,0.822576 1.01699,0 1.65262,-0.920793 1.65262,-2.394063 0,-0.662971 -0.13953,-1.181685 -0.40928,-1.537725 -0.27596,-0.402079 -0.71004,-0.626139 -1.22164,-0.626139 z m 0.003,0.22099 c 0.72554,0 1.28675,0.589307 1.28675,1.329012 0,0.653763 -0.58601,1.193962 -1.28675,1.193962 -0.71624,0 -1.26196,-0.53713 -1.26196,-1.243071 0,-0.718219 0.55192,-1.279903 1.26196,-1.279903 z"
       id="text1-4-8-9-6-8-6"
       style="font-weight:200;font-size:6.31793px;font-family:'SF Pro Rounded';-inkscape-font-specification:'SF Pro Rounded, Ultra-Light';letter-spacing:-7.10767px;word-spacing:0px;stroke:#000000;stroke-width:0.526494;stroke-linecap:round;stroke-linejoin:round"
       inkscape:label="bottom"
       aria-label="6" /><path
       d="m 240.54859,11.598059 c 0,0.64782 0.4961,1.142393 1.15756,1.142393 0.37296,0 0.7424,-0.128867 0.90425,-0.442329 h 0.0281 c -0.0105,0.365705 -0.39758,0.668718 -0.58054,0.853312 -0.19352,0.195043 -0.0774,0.470192 0.17592,0.470192 h 1.76274 c 0.24981,0 0.36592,-0.275149 0.17592,-0.470192 -0.18648,-0.184594 -0.57351,-0.487607 -0.58406,-0.853312 h 0.0281 c 0.16185,0.313462 0.53481,0.442329 0.90777,0.442329 0.65794,0 1.15404,-0.494573 1.15404,-1.142393 0,-1.215534 -1.65366,-1.7170726 -2.30458,-3.0301281 -0.0528,-0.1044872 -0.12666,-0.1845939 -0.26036,-0.1845939 -0.13018,0 -0.20758,0.080106 -0.25684,0.1845939 -0.65444,1.3130555 -2.3081,1.8145941 -2.3081,3.0301281 z"
       id="text1-9-2-6-7-0"
       style="font-weight:300;font-size:7.16928px;line-height:0;font-family:'SF Pro Rounded';-inkscape-font-specification:'SF Pro Rounded Light';letter-spacing:0px;word-spacing:0px;text-orientation:upright;stroke-width:0.526494;stroke-linecap:round"
       inkscape:label="spade-top"
       aria-label="♠" /><path
       d="m 283.32802,54.408532 c 0,-0.647821 -0.49609,-1.142393 -1.15756,-1.142393 -0.37296,0 -0.74239,0.128867 -0.90424,0.442329 h -0.0281 c 0.0105,-0.365706 0.39758,-0.668718 0.58055,-0.853312 0.19351,-0.195043 0.0774,-0.470193 -0.17592,-0.470193 h -1.76274 c -0.24981,0 -0.36592,0.27515 -0.17592,0.470193 0.18647,0.184594 0.5735,0.487606 0.58405,0.853312 h -0.0281 c -0.16185,-0.313462 -0.53481,-0.442329 -0.90776,-0.442329 -0.65795,0 -1.15405,0.494572 -1.15405,1.142393 0,1.215534 1.65367,1.717072 2.30458,3.030127 0.0528,0.104488 0.12667,0.184594 0.26037,0.184594 0.13018,0 0.20759,-0.0801 0.25684,-0.184594 0.65443,-1.313055 2.30809,-1.814593 2.30809,-3.030127 z"
       id="text1-6-2-8-5-2-4"
       style="font-weight:300;font-size:7.16928px;line-height:0;font-family:'SF Pro Rounded';-inkscape-font-specification:'SF Pro Rounded Light';letter-spacing:0px;word-spacing:0px;text-orientation:upright;stroke-width:0.526494;stroke-linecap:round"
       inkscape:label="spade-bottom"
       aria-label="♠" /></g></svg>
