<?xml version="1.0" encoding="UTF-8" standalone="no"?>
<!DOCTYPE svg PUBLIC "-//W3C//DTD SVG 1.1//EN" "http://www.w3.org/Graphics/SVG/1.1/DTD/svg11.dtd">
<!-- Created with Vectornator (http://vectornator.io/) -->
<svg height="100%" stroke-miterlimit="10" style="fill-rule:nonzero;clip-rule:evenodd;stroke-linecap:round;stroke-linejoin:round;" version="1.1" viewBox="0 0 180 252" width="100%" xml:space="preserve" xmlns="http://www.w3.org/2000/svg" xmlns:vectornator="http://vectornator.io" xmlns:xlink="http://www.w3.org/1999/xlink">
<defs>
<clipPath id="TextBounds">
<rect height="39" width="33.6406" x="8.20312" y="3"/>
</clipPath>
<clipPath id="TextBounds_2">
<rect height="39" width="33.6406" x="138.156" y="210"/>
</clipPath>
<clipPath id="TextBounds_3">
<rect height="77" width="64.2812" x="57.8594" y="87.5"/>
</clipPath>
</defs>
<g id="Layer-1" vectornator:layerName="Layer 1">
<path d="M16 0L164 0C172.837 0 180 7.16344 180 16L180 236C180 244.837 172.837 252 164 252L16 252C7.16344 252 0 244.837 0 236L0 16C0 7.16344 7.16344 0 16 0Z" fill="#ffffff" fill-rule="nonzero" opacity="1" stroke="none"/>
<g fill="#000000" opacity="1" stroke="none">
<path clip-path="url(#TextBounds)" d="M16.5312 31.6562C16.5312 32.5938 17.0469 33.1562 17.875 33.1562C18.7188 33.1562 19.2188 32.6094 19.2188 31.6562L19.2188 13.3438C19.2188 12.2812 18.5156 11.5469 17.5156 11.5469C16.9062 11.5469 16.3594 11.7812 15.375 12.5156L12.2188 14.8594C11.5938 15.3125 11.2969 15.7344 11.2969 16.1875C11.2969 16.7812 11.7656 17.2656 12.3438 17.2656C12.6875 17.2656 13.0156 17.1406 13.4688 16.8125L16.4062 14.6719L16.5312 14.6719L16.5312 31.6562Z"/>
<path clip-path="url(#TextBounds)" d="M23.7344 22.75C23.7344 29.2188 26.5 33.4531 31.3125 33.4531C36.1406 33.4531 38.9062 29.2031 38.9062 22.75L38.9062 21.9688C38.9062 15.5 36.1562 11.2188 31.3281 11.2188C26.5 11.2188 23.7344 15.5 23.7344 21.9688L23.7344 22.75ZM26.4688 21.9844C26.4688 16.7812 28.3281 13.5938 31.3125 13.5938C34.3125 13.5938 36.1875 16.7812 36.1875 21.9844L36.1875 22.7188C36.1875 27.9219 34.3281 31.0938 31.3281 31.0938C28.3281 31.0938 26.4688 27.9219 26.4688 22.7188L26.4688 21.9844Z"/>
</g>
<g fill="#000000" opacity="1" stroke="none">
<path clip-path="url(#TextBounds_2)" d="M163.469 220.344C163.469 219.406 162.953 218.844 162.125 218.844C161.281 218.844 160.781 219.391 160.781 220.344L160.781 238.656C160.781 239.719 161.484 240.453 162.484 240.453C163.094 240.453 163.641 240.219 164.625 239.484L167.781 237.141C168.406 236.688 168.703 236.266 168.703 235.812C168.703 235.219 168.234 234.734 167.656 234.734C167.312 234.734 166.984 234.859 166.531 235.188L163.594 237.328L163.469 237.328L163.469 220.344Z"/>
<path clip-path="url(#TextBounds_2)" d="M156.266 229.25C156.266 222.781 153.5 218.547 148.688 218.547C143.859 218.547 141.094 222.797 141.094 229.25L141.094 230.031C141.094 236.5 143.844 240.781 148.672 240.781C153.5 240.781 156.266 236.5 156.266 230.031L156.266 229.25ZM153.531 230.016C153.531 235.219 151.672 238.406 148.688 238.406C145.688 238.406 143.812 235.219 143.812 230.016L143.812 229.281C143.812 224.078 145.672 220.906 148.672 220.906C151.672 220.906 153.531 224.078 153.531 229.281L153.531 230.016Z"/>
</g>
<g fill="#000000" opacity="1" stroke="none">
<path clip-path="url(#TextBounds_3)" d="M73.0156 145.812C73.0156 147.688 74.0469 148.812 75.7031 148.812C77.3906 148.812 78.3906 147.719 78.3906 145.812L78.3906 109.188C78.3906 107.062 76.9844 105.594 74.9844 105.594C73.7656 105.594 72.6719 106.062 70.7031 107.531L64.3906 112.219C63.1406 113.125 62.5469 113.969 62.5469 114.875C62.5469 116.062 63.4844 117.031 64.6406 117.031C65.3281 117.031 65.9844 116.781 66.8906 116.125L72.7656 111.844L73.0156 111.844L73.0156 145.812Z"/>
<path clip-path="url(#TextBounds_3)" d="M87.4219 128C87.4219 140.938 92.9531 149.406 102.578 149.406C112.234 149.406 117.766 140.906 117.766 128L117.766 126.438C117.766 113.5 112.266 104.938 102.609 104.938C92.9531 104.938 87.4219 113.5 87.4219 126.438L87.4219 128ZM92.8906 126.469C92.8906 116.062 96.6094 109.688 102.578 109.688C108.578 109.688 112.328 116.062 112.328 126.469L112.328 127.938C112.328 138.344 108.609 144.688 102.609 144.688C96.6094 144.688 92.8906 138.344 92.8906 127.938L92.8906 126.469Z"/>
</g>
<path d="M15 1L165 1C172.732 1 179 7.28814 179 15.0449L179 236.955C179 244.712 172.732 251 165 251L15 251C7.26801 251 1 244.712 1 236.955L1 15.0449C1 7.28814 7.26801 1 15 1Z" fill="none" opacity="1" stroke="#000000" stroke-linecap="round" stroke-linejoin="round" stroke-width="2"/>
</g>
</svg>
