<?xml version="1.0" encoding="UTF-8" standalone="no"?>
<!-- Created with Inkscape (http://www.inkscape.org/) -->

<svg
   width="179.99977"
   height="251.99976"
   viewBox="0 0 47.624938 66.674935"
   version="1.1"
   id="svg1"
   inkscape:version="1.4 (e7c3feb1, 2024-10-09)"
   sodipodi:docname="All Cards - Hearts.svg"
   xml:space="preserve"
   inkscape:export-filename="All Cards - Hearts.png"
   inkscape:export-xdpi="96"
   inkscape:export-ydpi="96"
   inkscape:export-batch-path="Hearts"
   inkscape:export-batch-name=""
   xmlns:inkscape="http://www.inkscape.org/namespaces/inkscape"
   xmlns:sodipodi="http://sodipodi.sourceforge.net/DTD/sodipodi-0.dtd"
   xmlns="http://www.w3.org/2000/svg"
   xmlns:svg="http://www.w3.org/2000/svg"><sodipodi:namedview
     id="namedview1"
     pagecolor="#ffffff"
     bordercolor="#999999"
     borderopacity="1"
     inkscape:showpageshadow="2"
     inkscape:pageopacity="0"
     inkscape:pagecheckerboard="0"
     inkscape:deskcolor="#d1d1d1"
     inkscape:document-units="px"
     showgrid="true"
     inkscape:zoom="0.7246543"
     inkscape:cx="555.43726"
     inkscape:cy="257.3641"
     inkscape:window-width="1512"
     inkscape:window-height="836"
     inkscape:window-x="0"
     inkscape:window-y="38"
     inkscape:window-maximized="0"
     inkscape:current-layer="layer11"><inkscape:grid
       id="grid2"
       units="px"
       originx="-2.9979343e-05"
       originy="-3.0297853e-05"
       spacingx="0.26458333"
       spacingy="0.26458333"
       empcolor="#0099e5"
       empopacity="0.30196078"
       color="#0099e5"
       opacity="0.14901961"
       empspacing="5"
       enabled="true"
       visible="true" /></sodipodi:namedview><defs
     id="defs1"><inkscape:path-effect
       effect="fillet_chamfer"
       id="path-effect3"
       is_visible="true"
       lpeversion="1"
       nodesatellites_param="F,0,0,1,0,3,0,1 @ F,0,0,1,0,3,0,1 @ F,0,0,1,0,3,0,1 @ F,0,0,1,0,3,0,1"
       radius="0"
       unit="px"
       method="auto"
       mode="F"
       chamfer_steps="1"
       flexible="false"
       use_knot_distance="true"
       apply_no_radius="true"
       apply_with_radius="true"
       only_selected="false"
       hide_knots="false" /></defs><g
     inkscape:label="Ace"
     inkscape:groupmode="layer"
     id="layer1"
     transform="matrix(0.99998908,0,0,1.0101899,0.00205452,-0.00212558)"
     inkscape:export-filename="Hearts/Ace.svg"
     inkscape:export-xdpi="96"
     inkscape:export-ydpi="96"><path
       style="fill:#ffffff;fill-opacity:1;stroke:#000000;stroke-width:0.526494;stroke-linecap:round;stroke-linejoin:round;stroke-dasharray:none;stroke-opacity:1"
       id="rect1"
       width="47.098965"
       height="65.475883"
       x="0.26119247"
       y="0.26535115"
       inkscape:path-effect="#path-effect3"
       sodipodi:type="rect"
       d="M 3.2611925,0.26535115 H 44.360157 a 3,3 45 0 1 3,2.99999995 V 62.741235 a 3,3 135 0 1 -3,3 H 3.2611925 a 3,3 45 0 1 -3.00000003,-3 V 3.2653511 A 3,3 135 0 1 3.2611925,0.26535115 Z"
       inkscape:label="card" /><path
       style="font-weight:300;font-size:18.2518px;font-family:'SF Pro Rounded';-inkscape-font-specification:'SF Pro Rounded Light';letter-spacing:-7.10767px;word-spacing:0px;fill:#ff0000;stroke:#ff0000;stroke-width:0.526494;stroke-linecap:round;stroke-linejoin:round"
       d="m 19.179725,39.524899 c 0.30455,0 0.483696,-0.133004 0.600143,-0.469946 l 1.325687,-3.573361 h 5.401284 l 1.325687,3.573361 c 0.125403,0.328075 0.295594,0.469946 0.609101,0.469946 0.358294,0 0.618057,-0.221673 0.618057,-0.532014 0,-0.09753 -0.02688,-0.203938 -0.08062,-0.354677 L 24.581008,27.058035 c -0.152275,-0.399011 -0.385167,-0.576348 -0.761375,-0.576348 -0.394124,0 -0.635972,0.186204 -0.788247,0.576348 l -4.389102,11.580173 c -0.0627,0.159605 -0.08062,0.266008 -0.08062,0.354677 0,0.310341 0.259763,0.532014 0.618057,0.532014 z m 2.284125,-5.089601 2.319954,-6.330969 h 0.05374 l 2.310997,6.330969 z"
       id="text3-8-2"
       inkscape:label="center"
       aria-label="A" /><path
       d="m 3.3162412,6.8817323 c 0.065114,0 0.09922,-0.027623 0.1271255,-0.1012873 L 3.9828747,5.3593539 H 5.9889765 L 6.5315851,6.780445 c 0.024805,0.070594 0.062013,0.1012873 0.1240249,0.1012873 0.074415,0 0.1240248,-0.04604 0.1240248,-0.1135646 0,-0.018416 -0.0062,-0.04604 -0.015504,-0.076733 L 5.1363057,2.4742013 C 5.1052995,2.3943992 5.0618908,2.3606367 4.9874759,2.3606367 c -0.074415,0 -0.1209242,0.036832 -0.1519304,0.1166339 L 3.2108201,6.6914349 c -0.012403,0.036832 -0.018603,0.058317 -0.018603,0.079802 0,0.064455 0.04961,0.1104953 0.1240241,0.1104954 z M 4.0634909,5.1414327 4.9781741,2.7228155 h 0.015503 l 0.9177838,2.4186172 z"
       id="text1-4-0"
       style="font-weight:200;font-size:6.31793px;font-family:'SF Pro Rounded';-inkscape-font-specification:'SF Pro Rounded, Ultra-Light';letter-spacing:-7.10767px;word-spacing:0px;fill:#ff0000;stroke:#ff0000;stroke-width:0.526494;stroke-linecap:round;stroke-linejoin:round"
       inkscape:label="top"
       aria-label="A" /><path
       d="m 44.305169,59.124831 c -0.06511,0 -0.09922,0.02762 -0.127125,0.101288 l -0.539508,1.421091 h -2.006103 l -0.542608,-1.421091 c -0.02481,-0.07059 -0.06201,-0.101288 -0.124025,-0.101288 -0.07442,0 -0.124025,0.04604 -0.124025,0.113565 0,0.01842 0.0062,0.04603 0.01551,0.07673 l 1.627825,4.217233 c 0.03101,0.0798 0.07442,0.113565 0.148831,0.113565 0.07442,0 0.120924,-0.03683 0.15193,-0.116634 l 1.624726,-4.214164 c 0.0124,-0.03683 0.0186,-0.05831 0.0186,-0.0798 0,-0.06445 -0.04961,-0.110495 -0.124025,-0.110495 z m -0.747249,1.7403 -0.914684,2.418617 h -0.0155 l -0.917783,-2.418617 z"
       id="text1-4-0-7"
       style="font-weight:200;font-size:6.31793px;font-family:'SF Pro Rounded';-inkscape-font-specification:'SF Pro Rounded, Ultra-Light';letter-spacing:-7.10767px;word-spacing:0px;fill:#ff0000;stroke:#ff0000;stroke-width:0.526494;stroke-linecap:round;stroke-linejoin:round"
       inkscape:label="bottom"
       aria-label="A" /><path
       d="m 4.9625422,13.690928 c 0.055616,0 0.1334774,-0.03337 0.1928007,-0.07045 1.6165594,-1.038157 2.6621322,-2.243161 2.6621322,-3.466704 0,-1.0084958 -0.6933408,-1.7277906 -1.5980209,-1.7277906 -0.5561557,0 -1.0010803,0.3114472 -1.256912,0.7897412 C 4.7067106,8.7411413 4.2580783,8.4259864 3.7019225,8.4259864 c -0.90468,0 -1.5980209,0.7192948 -1.5980209,1.7277906 0,1.223543 1.0455728,2.428547 2.6621322,3.466704 0.059323,0.03708 0.1371851,0.07045 0.1965084,0.07045 z"
       id="text5"
       style="font-weight:300;font-size:7.59338px;line-height:0;font-family:'SF Pro Rounded';-inkscape-font-specification:'SF Pro Rounded Light';letter-spacing:0px;word-spacing:0px;text-orientation:upright;fill:#ff0000;stroke-width:0.526494;stroke-linecap:round"
       inkscape:label="heart-top"
       transform="scale(1.0050875,0.99493825)"
       aria-label="♥" /><path
       d="m -42.417824,-52.651472 c 0.05562,0 0.133478,-0.03337 0.192801,-0.07045 1.616559,-1.038158 2.662132,-2.243162 2.662132,-3.466705 0,-1.008495 -0.693341,-1.72779 -1.598021,-1.72779 -0.556155,0 -1.00108,0.311447 -1.256912,0.789741 -0.255831,-0.474586 -0.704464,-0.789741 -1.260619,-0.789741 -0.904681,0 -1.598021,0.719295 -1.598021,1.72779 0,1.223543 1.045572,2.428547 2.662132,3.466705 0.05932,0.03708 0.137185,0.07045 0.196508,0.07045 z"
       id="text5-7"
       style="font-weight:300;font-size:7.59338px;line-height:0;font-family:'SF Pro Rounded';-inkscape-font-specification:'SF Pro Rounded Light';letter-spacing:0px;word-spacing:0px;text-orientation:upright;fill:#ff0000;stroke-width:0.526494;stroke-linecap:round"
       inkscape:label="heart-bottom"
       transform="scale(-1.0050875,-0.99493825)"
       aria-label="♥" /></g></svg>
