<?xml version="1.0" encoding="UTF-8" standalone="no"?>
<!-- Created with Inkscape (http://www.inkscape.org/) -->

<svg
   width="179.99977"
   height="251.99976"
   viewBox="0 0 47.624938 66.674935"
   version="1.1"
   id="svg1"
   inkscape:version="1.4 (e7c3feb1, 2024-10-09)"
   sodipodi:docname="All Cards - Diamonds.svg"
   xml:space="preserve"
   inkscape:export-filename="All Cards - Diamonds.png"
   inkscape:export-xdpi="96"
   inkscape:export-ydpi="96"
   inkscape:export-batch-path="Diamonds"
   inkscape:export-batch-name=""
   xmlns:inkscape="http://www.inkscape.org/namespaces/inkscape"
   xmlns:sodipodi="http://sodipodi.sourceforge.net/DTD/sodipodi-0.dtd"
   xmlns="http://www.w3.org/2000/svg"
   xmlns:svg="http://www.w3.org/2000/svg"><sodipodi:namedview
     id="namedview1"
     pagecolor="#ffffff"
     bordercolor="#999999"
     borderopacity="1"
     inkscape:showpageshadow="2"
     inkscape:pageopacity="0"
     inkscape:pagecheckerboard="0"
     inkscape:deskcolor="#d1d1d1"
     inkscape:document-units="px"
     showgrid="true"
     inkscape:zoom="0.69002035"
     inkscape:cx="626.79311"
     inkscape:cy="261.58649"
     inkscape:window-width="1512"
     inkscape:window-height="836"
     inkscape:window-x="0"
     inkscape:window-y="38"
     inkscape:window-maximized="0"
     inkscape:current-layer="layer14"><inkscape:grid
       id="grid2"
       units="px"
       originx="-2.9979343e-05"
       originy="-3.0297853e-05"
       spacingx="0.26458333"
       spacingy="0.26458333"
       empcolor="#0099e5"
       empopacity="0.30196078"
       color="#0099e5"
       opacity="0.14901961"
       empspacing="5"
       enabled="true"
       visible="true" /></sodipodi:namedview><defs
     id="defs1"><inkscape:path-effect
       effect="fillet_chamfer"
       id="path-effect3"
       is_visible="true"
       lpeversion="1"
       nodesatellites_param="F,0,0,1,0,3,0,1 @ F,0,0,1,0,3,0,1 @ F,0,0,1,0,3,0,1 @ F,0,0,1,0,3,0,1"
       radius="0"
       unit="px"
       method="auto"
       mode="F"
       chamfer_steps="1"
       flexible="false"
       use_knot_distance="true"
       apply_no_radius="true"
       apply_with_radius="true"
       only_selected="false"
       hide_knots="false" /></defs><g
     inkscape:label="Ace"
     inkscape:groupmode="layer"
     id="layer1"
     transform="matrix(0.99998908,0,0,1.0101899,0.00205452,-0.00212558)"
     inkscape:export-filename="Diamonds/Ace.svg"
     inkscape:export-xdpi="96"
     inkscape:export-ydpi="96"><path
       style="fill:#ffffff;fill-opacity:1;stroke:#000000;stroke-width:0.526494;stroke-linecap:round;stroke-linejoin:round;stroke-dasharray:none;stroke-opacity:1"
       id="rect1"
       width="47.098965"
       height="65.475883"
       x="0.26119247"
       y="0.26535115"
       inkscape:path-effect="#path-effect3"
       sodipodi:type="rect"
       d="M 3.2611925,0.26535115 H 44.360157 a 3,3 45 0 1 3,2.99999995 V 62.741235 a 3,3 135 0 1 -3,3 H 3.2611925 a 3,3 45 0 1 -3.00000003,-3 V 3.2653511 A 3,3 135 0 1 3.2611925,0.26535115 Z"
       inkscape:label="card" /><path
       style="font-weight:300;font-size:18.2518px;font-family:'SF Pro Rounded';-inkscape-font-specification:'SF Pro Rounded Light';letter-spacing:-7.10767px;word-spacing:0px;fill:#ff0000;stroke:#ff0000;stroke-width:0.526494;stroke-linecap:round;stroke-linejoin:round"
       d="m 19.082641,39.725984 c 0.303008,0 0.481248,-0.133681 0.597105,-0.472337 l 1.318977,-3.591541 h 5.373944 l 1.318977,3.591541 c 0.124768,0.329744 0.294097,0.472337 0.606017,0.472337 0.356481,0 0.614929,-0.222801 0.614929,-0.534721 0,-0.09803 -0.02674,-0.204976 -0.08021,-0.356481 L 24.456584,27.195695 c -0.151504,-0.401041 -0.383217,-0.579281 -0.757521,-0.579281 -0.392129,0 -0.632753,0.187152 -0.784257,0.579281 L 18.54792,38.834782 c -0.06238,0.160417 -0.08021,0.267361 -0.08021,0.356481 0,0.31192 0.258448,0.534721 0.614929,0.534721 z m 2.272563,-5.115495 2.308211,-6.363177 h 0.05347 l 2.299299,6.363177 z"
       id="text3-8-2"
       inkscape:label="center"
       transform="scale(1.0050875,0.99493826)"
       aria-label="A" /><path
       d="m 3.3162406,6.8817323 c 0.065114,0 0.09922,-0.027623 0.1271255,-0.1012873 L 3.9828741,5.3593539 H 5.9889759 L 6.5315845,6.780445 c 0.024805,0.070594 0.062013,0.1012873 0.1240249,0.1012873 0.074415,0 0.1240248,-0.04604 0.1240248,-0.1135646 0,-0.018416 -0.0062,-0.04604 -0.015504,-0.076733 L 5.1363051,2.4742013 C 5.1052989,2.3943992 5.0618902,2.3606367 4.9874753,2.3606367 c -0.074415,0 -0.1209242,0.036832 -0.1519304,0.1166339 L 3.2108195,6.6914349 c -0.012403,0.036832 -0.018603,0.058317 -0.018603,0.079802 0,0.064455 0.04961,0.1104953 0.1240241,0.1104954 z M 4.0634903,5.1414327 4.9781735,2.7228155 h 0.015503 l 0.9177838,2.4186172 z"
       id="text1-4-0"
       style="font-weight:200;font-size:6.31793px;font-family:'SF Pro Rounded';-inkscape-font-specification:'SF Pro Rounded, Ultra-Light';letter-spacing:-7.10767px;word-spacing:0px;fill:#ff0000;stroke:#ff0000;stroke-width:0.526494;stroke-linecap:round;stroke-linejoin:round"
       inkscape:label="top"
       aria-label="A" /><path
       d="m 44.305168,59.124831 c -0.06511,0 -0.09922,0.02762 -0.127126,0.101288 l -0.539508,1.421091 h -2.006102 l -0.542609,-1.421091 c -0.02481,-0.07059 -0.06201,-0.101288 -0.124025,-0.101288 -0.07442,0 -0.124024,0.04604 -0.124024,0.113565 0,0.01842 0.0062,0.04603 0.01551,0.07673 l 1.627826,4.217233 c 0.03101,0.0798 0.07442,0.113565 0.14883,0.113565 0.07442,0 0.120924,-0.03683 0.15193,-0.116634 l 1.624726,-4.214164 c 0.0124,-0.03683 0.0186,-0.05831 0.0186,-0.0798 0,-0.06445 -0.04961,-0.110495 -0.124024,-0.110495 z m -0.74725,1.7403 -0.914684,2.418617 h -0.0155 L 41.70995,60.865131 Z"
       id="text1-4-0-7"
       style="font-weight:200;font-size:6.31793px;font-family:'SF Pro Rounded';-inkscape-font-specification:'SF Pro Rounded, Ultra-Light';letter-spacing:-7.10767px;word-spacing:0px;fill:#ff0000;stroke:#ff0000;stroke-width:0.526494;stroke-linecap:round;stroke-linejoin:round"
       inkscape:label="bottom"
       aria-label="A" /><path
       d="m 4.9875017,14.931195 c 0.1229657,0 0.186025,-0.111756 0.3121437,-0.331119 l 1.4787413,-2.603415 c 0.06306,-0.111755 0.097742,-0.219366 0.097742,-0.339396 0,-0.12003 -0.034682,-0.227643 -0.097742,-0.339396 L 5.2996454,8.7144541 C 5.1735267,8.4950884 5.1104674,8.3833361 4.9875017,8.3833361 c -0.1261186,0 -0.1891779,0.1117522 -0.3152967,0.331118 L 3.1934638,11.317869 c -0.06306,0.111753 -0.097742,0.219366 -0.097742,0.339396 0,0.12003 0.034682,0.227644 0.097742,0.339396 l 1.4787412,2.603415 c 0.1261188,0.219366 0.1891781,0.331119 0.3152967,0.331119 z"
       id="text4"
       style="font-weight:300;font-size:7.39837px;line-height:0;font-family:'SF Pro Rounded';-inkscape-font-specification:'SF Pro Rounded Light';letter-spacing:0px;word-spacing:0px;text-orientation:upright;fill:#ff0000;stroke-width:0.526494;stroke-linecap:round"
       inkscape:label="diamond-top"
       aria-label="♦" /><path
       d="m 42.637062,57.623251 c 0.122966,0 0.186026,-0.111755 0.312144,-0.331118 l 1.478742,-2.603415 c 0.06306,-0.111756 0.09774,-0.219366 0.09774,-0.339396 0,-0.12003 -0.03468,-0.227643 -0.09774,-0.339395 l -1.478742,-2.603416 c -0.126118,-0.219365 -0.189178,-0.331118 -0.312144,-0.331118 -0.126118,0 -0.189178,0.111755 -0.315296,0.331118 l -1.478742,2.603416 c -0.06306,0.111756 -0.09774,0.219365 -0.09774,0.339395 0,0.12003 0.03468,0.227644 0.09774,0.339396 l 1.478742,2.603415 c 0.126118,0.219366 0.189178,0.331118 0.315296,0.331118 z"
       id="text4-5"
       style="font-weight:300;font-size:7.39837px;line-height:0;font-family:'SF Pro Rounded';-inkscape-font-specification:'SF Pro Rounded Light';letter-spacing:0px;word-spacing:0px;text-orientation:upright;fill:#ff0000;stroke-width:0.526494;stroke-linecap:round"
       inkscape:label="diamond-bottom"
       aria-label="♦" /></g></svg>
