<?xml version="1.0" encoding="UTF-8" standalone="no"?>
<!-- Created with Inkscape (http://www.inkscape.org/) -->

<svg
   width="179.99976"
   height="251.99976"
   viewBox="0 0 47.624934 66.674935"
   version="1.1"
   id="svg1"
   inkscape:version="1.4 (e7c3feb1, 2024-10-09)"
   sodipodi:docname="All Cards - Spades.svg"
   xml:space="preserve"
   inkscape:export-filename="All Cards - Spades.png"
   inkscape:export-xdpi="96"
   inkscape:export-ydpi="96"
   xmlns:inkscape="http://www.inkscape.org/namespaces/inkscape"
   xmlns:sodipodi="http://sodipodi.sourceforge.net/DTD/sodipodi-0.dtd"
   xmlns="http://www.w3.org/2000/svg"
   xmlns:svg="http://www.w3.org/2000/svg"><sodipodi:namedview
     id="namedview1"
     pagecolor="#ffffff"
     bordercolor="#999999"
     borderopacity="1"
     inkscape:showpageshadow="2"
     inkscape:pageopacity="0"
     inkscape:pagecheckerboard="0"
     inkscape:deskcolor="#d1d1d1"
     inkscape:document-units="px"
     showgrid="true"
     inkscape:zoom="0.61073719"
     inkscape:cx="687.6935"
     inkscape:cy="297.18184"
     inkscape:window-width="1512"
     inkscape:window-height="836"
     inkscape:window-x="0"
     inkscape:window-y="38"
     inkscape:window-maximized="0"
     inkscape:current-layer="layer13"><inkscape:grid
       id="grid2"
       units="px"
       originx="-142.875"
       originy="-66.675003"
       spacingx="0.26458333"
       spacingy="0.26458333"
       empcolor="#0099e5"
       empopacity="0.30196078"
       color="#0099e5"
       opacity="0.14901961"
       empspacing="5"
       enabled="true"
       visible="true" /><inkscape:page
       x="0"
       y="0"
       width="47.624935"
       height="66.674934"
       id="page2"
       margin="0"
       bleed="0" /></sodipodi:namedview><defs
     id="defs1"><inkscape:path-effect
       effect="fillet_chamfer"
       id="path-effect3-26"
       is_visible="true"
       lpeversion="1"
       nodesatellites_param="F,0,0,1,0,3,0,1 @ F,0,0,1,0,3,0,1 @ F,0,0,1,0,3,0,1 @ F,0,0,1,0,3,0,1"
       radius="0"
       unit="px"
       method="auto"
       mode="F"
       chamfer_steps="1"
       flexible="false"
       use_knot_distance="true"
       apply_no_radius="true"
       apply_with_radius="true"
       only_selected="false"
       hide_knots="false" /></defs><g
     inkscape:groupmode="layer"
     id="layer12"
     inkscape:label="Queen"
     inkscape:export-filename="Spades/Queen.svg"
     inkscape:export-xdpi="96"
     inkscape:export-ydpi="96"
     transform="translate(-142.875,-66.675002)"><path
       style="fill:#ffffff;fill-opacity:1;stroke:#000000;stroke-width:0.526494;stroke-linecap:round;stroke-linejoin:round;stroke-dasharray:none"
       id="rect1-9"
       width="47.098965"
       height="65.475883"
       x="0.26119247"
       y="0.26535115"
       inkscape:path-effect="#path-effect3-26"
       sodipodi:type="rect"
       d="M 3.2611925,0.26535115 H 44.360157 a 3,3 45 0 1 3,2.99999995 V 62.741235 a 3,3 135 0 1 -3,3 H 3.2611925 a 3,3 45 0 1 -3.00000003,-3 V 3.2653511 A 3,3 135 0 1 3.2611925,0.26535115 Z"
       transform="matrix(0.99998907,0,0,1.0101899,142.87705,66.672874)"
       inkscape:label="card" /><path
       style="font-weight:300;font-size:18.3445px;font-family:'SF Pro Rounded';-inkscape-font-specification:'SF Pro Rounded Light';letter-spacing:-7.14375px;word-spacing:0px;stroke:#000000;stroke-width:0.529167;stroke-linecap:round;stroke-linejoin:round"
       d="m 166.68299,105.94219 c 0.89573,0 1.69293,-0.16124 2.40951,-0.46578 l 1.21819,1.66605 c 0.13436,0.1881 0.28663,0.27768 0.49265,0.27768 0.3135,0 0.55535,-0.22394 0.55535,-0.53744 0,-0.16123 -0.0358,-0.24185 -0.14332,-0.39412 l -1.12861,-1.54961 c 1.57648,-1.11966 2.4722,-3.09922 2.4722,-5.660998 0,-4.093474 -2.27514,-6.67317 -5.87597,-6.67317 -3.60082,0 -5.86701,2.579696 -5.86701,6.67317 0,4.093478 2.25723,6.664218 5.86701,6.664218 z m 0,-1.13758 c -2.82154,0 -4.61299,-2.14079 -4.61299,-5.526638 0,-3.394807 1.78249,-5.535596 4.61299,-5.535596 2.8305,0 4.613,2.140789 4.613,5.535596 0,2.104958 -0.68971,3.753098 -1.92582,4.675698 l -1.20027,-1.6571 c -0.15227,-0.19706 -0.27768,-0.27767 -0.50161,-0.27767 -0.32246,0 -0.55535,0.22393 -0.55535,0.52848 0,0.13436 0.0358,0.25976 0.14332,0.40308 l 1.12861,1.5496 c -0.51056,0.19706 -1.08383,0.30455 -1.70188,0.30455 z"
       id="text3-8-1-1-3-3-3-1-3-1-7"
       inkscape:label="center"
       aria-label="Q" /><path
       d="m 147.21892,73.66682 c 0.32556,0 0.62012,-0.06511 0.88057,-0.189136 l 0.47439,0.651123 c 0.0279,0.04031 0.0558,0.06201 0.10542,0.06201 0.0651,0 0.11162,-0.04651 0.11162,-0.108521 0,-0.03411 -0.006,-0.05271 -0.031,-0.08682 l -0.45889,-0.629419 c 0.57981,-0.375171 0.91158,-1.085206 0.91158,-2.002979 0,-1.407667 -0.77515,-2.300636 -1.99368,-2.300636 -1.21853,0 -1.99368,0.892969 -1.99368,2.300636 0,1.413867 0.77205,2.303736 1.99368,2.303736 z m 0,-0.229444 c -1.0604,0 -1.74253,-0.806152 -1.74253,-2.074292 0,-1.26504 0.67903,-2.071193 1.74253,-2.071193 1.0635,0 1.73943,0.806153 1.73943,2.071193 0,0.827856 -0.28216,1.469678 -0.79995,1.807642 l -0.5147,-0.706934 c -0.031,-0.04341 -0.0558,-0.06201 -0.10542,-0.06201 -0.0651,0 -0.11162,0.04651 -0.11162,0.108521 0,0.02791 0.006,0.05271 0.0279,0.08372 l 0.5023,0.68833 c -0.21704,0.102319 -0.46819,0.155029 -0.73794,0.155029 z"
       id="text1-7-9-5"
       style="font-weight:200;font-size:6.35px;font-family:'SF Pro Rounded';-inkscape-font-specification:'SF Pro Rounded, Ultra-Light';letter-spacing:-7.14375px;word-spacing:0px;stroke:#000000;stroke-width:0.529167;stroke-linecap:round;stroke-linejoin:round"
       inkscape:label="top"
       aria-label="Q" /><path
       d="m -186.15616,-126.35813 c 0.32556,0 0.62012,-0.0651 0.88057,-0.18913 l 0.47439,0.65112 c 0.0279,0.0403 0.0558,0.062 0.10542,0.062 0.0651,0 0.11162,-0.0465 0.11162,-0.10852 0,-0.0341 -0.006,-0.0527 -0.031,-0.0868 l -0.45888,-0.62942 c 0.57981,-0.37517 0.91157,-1.0852 0.91157,-2.00297 0,-1.40767 -0.77515,-2.30064 -1.99368,-2.30064 -1.21853,0 -1.99368,0.89297 -1.99368,2.30064 0,1.41386 0.77205,2.30373 1.99368,2.30373 z m 0,-0.22944 c -1.0604,0 -1.74253,-0.80615 -1.74253,-2.07429 0,-1.26504 0.67903,-2.0712 1.74253,-2.0712 1.0635,0 1.73943,0.80616 1.73943,2.0712 0,0.82785 -0.28215,1.46967 -0.79995,1.80764 l -0.5147,-0.70694 c -0.031,-0.0434 -0.0558,-0.062 -0.10542,-0.062 -0.0651,0 -0.11162,0.0465 -0.11162,0.10852 0,0.0279 0.006,0.0527 0.0279,0.0837 l 0.50229,0.68833 c -0.21704,0.10232 -0.46819,0.15503 -0.73794,0.15503 z"
       id="text1-7-9-5-2"
       style="font-weight:200;font-size:6.35px;font-family:'SF Pro Rounded';-inkscape-font-specification:'SF Pro Rounded, Ultra-Light';letter-spacing:-7.14375px;word-spacing:0px;stroke:#000000;stroke-width:0.529167;stroke-linecap:round;stroke-linejoin:round"
       inkscape:label="bottom"
       transform="scale(-1)"
       aria-label="Q" /><path
       d="m 144.99166,78.389146 c 0,0.654422 0.49609,1.154035 1.15755,1.154035 0.37295,0 0.74239,-0.130181 0.90423,-0.446837 h 0.0282 c -0.0106,0.369432 -0.39758,0.675533 -0.58054,0.862008 -0.19351,0.19703 -0.0774,0.474984 0.17592,0.474984 h 1.76272 c 0.24981,0 0.36591,-0.277954 0.17592,-0.474984 -0.18647,-0.186475 -0.5735,-0.492576 -0.58405,-0.862008 h 0.0281 c 0.16185,0.316656 0.5348,0.446837 0.90775,0.446837 0.65794,0 1.15404,-0.499613 1.15404,-1.154035 0,-1.227921 -1.65365,-1.73457 -2.30456,-3.061006 -0.0528,-0.105552 -0.12666,-0.186476 -0.26036,-0.186476 -0.13018,0 -0.20758,0.08092 -0.25684,0.186476 -0.65442,1.326436 -2.30807,1.833085 -2.30807,3.061006 z"
       id="text1-1-1-3-0"
       style="font-weight:300;font-size:7.20568px;line-height:0;font-family:'SF Pro Rounded';-inkscape-font-specification:'SF Pro Rounded Light';letter-spacing:0px;word-spacing:0px;text-orientation:upright;stroke-width:0.529167;stroke-linecap:round"
       inkscape:label="spade-top"
       aria-label="♠" /><path
       d="m -188.38342,-121.63585 c 0,0.65442 0.4961,1.15404 1.15756,1.15404 0.37295,0 0.74238,-0.13018 0.90423,-0.44684 h 0.0281 c -0.0105,0.36943 -0.39758,0.67553 -0.58053,0.86201 -0.19352,0.19703 -0.0774,0.47498 0.17592,0.47498 h 1.76271 c 0.24981,0 0.36592,-0.27795 0.17592,-0.47498 -0.18647,-0.18648 -0.57349,-0.49258 -0.58405,-0.86201 h 0.0282 c 0.16184,0.31666 0.53479,0.44684 0.90774,0.44684 0.65794,0 1.15404,-0.49962 1.15404,-1.15404 0,-1.22792 -1.65365,-1.73457 -2.30455,-3.061 -0.0528,-0.10556 -0.12666,-0.18648 -0.26036,-0.18648 -0.13018,0 -0.20759,0.0809 -0.25685,0.18648 -0.65442,1.32643 -2.30807,1.83308 -2.30807,3.061 z"
       id="text1-6-6-9-4-0"
       style="font-weight:300;font-size:7.20568px;line-height:0;font-family:'SF Pro Rounded';-inkscape-font-specification:'SF Pro Rounded Light';letter-spacing:0px;word-spacing:0px;text-orientation:upright;stroke-width:0.529167;stroke-linecap:round"
       inkscape:label="spade-bottom"
       transform="scale(-1)"
       aria-label="♠" /></g></svg>
