<?xml version="1.0" encoding="UTF-8" standalone="no"?>
<!-- Created with Inkscape (http://www.inkscape.org/) -->

<svg
   width="179.99977"
   height="251.99976"
   viewBox="0 0 47.624938 66.674935"
   version="1.1"
   id="svg1"
   inkscape:version="1.4 (e7c3feb1, 2024-10-09)"
   sodipodi:docname="All Cards - Clubs.svg"
   xml:space="preserve"
   inkscape:export-filename="All Cards - Clubs.png"
   inkscape:export-xdpi="96"
   inkscape:export-ydpi="96"
   inkscape:export-batch-path="Clubs"
   inkscape:export-batch-name=""
   xmlns:inkscape="http://www.inkscape.org/namespaces/inkscape"
   xmlns:sodipodi="http://sodipodi.sourceforge.net/DTD/sodipodi-0.dtd"
   xmlns="http://www.w3.org/2000/svg"
   xmlns:svg="http://www.w3.org/2000/svg"><sodipodi:namedview
     id="namedview1"
     pagecolor="#ffffff"
     bordercolor="#999999"
     borderopacity="1"
     inkscape:showpageshadow="2"
     inkscape:pageopacity="0"
     inkscape:pagecheckerboard="0"
     inkscape:deskcolor="#d1d1d1"
     inkscape:document-units="px"
     showgrid="true"
     inkscape:zoom="0.62203345"
     inkscape:cx="632.60264"
     inkscape:cy="315.89941"
     inkscape:window-width="1512"
     inkscape:window-height="836"
     inkscape:window-x="0"
     inkscape:window-y="38"
     inkscape:window-maximized="0"
     inkscape:current-layer="layer14"><inkscape:grid
       id="grid2"
       units="px"
       originx="-142.875"
       originy="-66.675"
       spacingx="0.26458333"
       spacingy="0.26458333"
       empcolor="#0099e5"
       empopacity="0.30196078"
       color="#0099e5"
       opacity="0.14901961"
       empspacing="5"
       enabled="true"
       visible="true" /></sodipodi:namedview><defs
     id="defs1"><inkscape:path-effect
       effect="fillet_chamfer"
       id="path-effect3-1"
       is_visible="true"
       lpeversion="1"
       nodesatellites_param="F,0,0,1,0,3,0,1 @ F,0,0,1,0,3,0,1 @ F,0,0,1,0,3,0,1 @ F,0,0,1,0,3,0,1"
       radius="0"
       unit="px"
       method="auto"
       mode="F"
       chamfer_steps="1"
       flexible="false"
       use_knot_distance="true"
       apply_no_radius="true"
       apply_with_radius="true"
       only_selected="false"
       hide_knots="false" /></defs><g
     inkscape:groupmode="layer"
     id="layer11"
     inkscape:label="Jack"
     inkscape:export-filename="Clubs/Jack.svg"
     inkscape:export-xdpi="96"
     inkscape:export-ydpi="96"
     transform="translate(-95.249998,-66.675)"><path
       style="fill:#ffffff;fill-opacity:1;stroke:#000000;stroke-width:0.526494;stroke-linecap:round;stroke-linejoin:round;stroke-dasharray:none"
       id="rect1-58"
       width="47.098965"
       height="65.475883"
       x="0.26119247"
       y="0.26535115"
       inkscape:path-effect="#path-effect3-1"
       sodipodi:type="rect"
       d="M 3.2611925,0.26535115 H 44.360157 a 3,3 45 0 1 3,2.99999995 V 62.741235 a 3,3 135 0 1 -3,3 H 3.2611925 a 3,3 45 0 1 -3.00000003,-3 V 3.2653511 A 3,3 135 0 1 3.2611925,0.26535115 Z"
       transform="matrix(0.99998907,0,0,1.0101899,95.252053,66.672874)"
       inkscape:label="card" /><path
       style="font-weight:300;font-size:18.3445px;font-family:'SF Pro Rounded';-inkscape-font-specification:'SF Pro Rounded Light';letter-spacing:-7.14375px;word-spacing:0px;stroke:#000000;stroke-width:0.529167;stroke-linecap:round;stroke-linejoin:round"
       d="m 118.99081,106.64085 c 2.31993,0 3.69935,-1.43317 3.69935,-3.80684 v -8.813964 c 0,-0.39412 -0.23289,-0.635966 -0.60909,-0.635966 -0.37621,0 -0.6091,0.241846 -0.6091,0.635966 v 8.796044 c 0,1.72875 -0.90468,2.68718 -2.48116,2.68718 -1.21819,0 -2.11392,-0.71658 -2.36472,-1.95268 -0.0985,-0.39412 -0.28664,-0.56431 -0.6091,-0.56431 -0.35829,0 -0.58222,0.23289 -0.58222,0.63597 0,0.25976 0.0537,0.45682 0.1254,0.69866 0.40308,1.39734 1.75563,2.31994 3.43064,2.31994 z"
       id="text3-8-1-1-3-3-3-1-3-1"
       inkscape:label="center"
       aria-label="J" /><path
       d="m 100.21621,73.642016 c 0.76895,0 1.23404,-0.489892 1.23404,-1.26814 v -3.187403 c 0,-0.08061 -0.0496,-0.130224 -0.12403,-0.130224 -0.0744,0 -0.12402,0.04961 -0.12402,0.130224 v 3.178102 c 0,0.663525 -0.36897,1.047998 -0.98909,1.047998 -0.505394,0 -0.880565,-0.303857 -0.948778,-0.799951 -0.0186,-0.08372 -0.05581,-0.124024 -0.124023,-0.124024 -0.07131,0 -0.114722,0.04961 -0.114722,0.133325 0,0.05581 0.0062,0.108521 0.0217,0.176734 0.108521,0.499194 0.58291,0.843359 1.168923,0.843359 z"
       id="text1-7-9"
       style="font-weight:200;font-size:6.35px;font-family:'SF Pro Rounded';-inkscape-font-specification:'SF Pro Rounded, Ultra-Light';letter-spacing:-7.14375px;word-spacing:0px;stroke:#000000;stroke-width:0.529167;stroke-linecap:round;stroke-linejoin:round"
       inkscape:label="top"
       aria-label="J" /><path
       d="m 137.90877,126.38299 c -0.76894,0 -1.23403,0.48989 -1.23403,1.26814 v 3.1874 c 0,0.0806 0.0496,0.13023 0.12402,0.13023 0.0744,0 0.12403,-0.0496 0.12403,-0.13023 v -3.1781 c 0,-0.66352 0.36897,-1.048 0.98908,-1.048 0.50541,0 0.88057,0.30386 0.94878,0.79996 0.0186,0.0837 0.0558,0.12402 0.12404,0.12402 0.0713,0 0.11471,-0.0496 0.11471,-0.13333 0,-0.0558 -0.006,-0.10852 -0.0217,-0.17673 -0.10852,-0.49919 -0.58291,-0.84336 -1.16892,-0.84336 z"
       id="text1-7-9-1"
       style="font-weight:200;font-size:6.35px;font-family:'SF Pro Rounded';-inkscape-font-specification:'SF Pro Rounded, Ultra-Light';letter-spacing:-7.14375px;word-spacing:0px;stroke:#000000;stroke-width:0.529167;stroke-linecap:round;stroke-linejoin:round"
       inkscape:label="bottom"
       aria-label="J" /><path
       d="m 97.577542,78.316665 c 0,0.680098 0.523711,1.196535 1.203809,1.196535 0.38551,0 0.771019,-0.134565 0.938316,-0.461884 h 0.02909 c -0.01455,0.381873 -0.414605,0.698282 -0.603723,0.891037 -0.196391,0.203665 -0.07637,0.490979 0.181845,0.490979 h 1.822071 c 0.26186,0 0.38188,-0.287314 0.18185,-0.490979 -0.18912,-0.192755 -0.58918,-0.509164 -0.60008,-0.891037 h 0.0291 c 0.16728,0.327319 0.54917,0.461884 0.93468,0.461884 0.68372,0 1.2038,-0.516437 1.2038,-1.196535 0,-0.67646 -0.51643,-1.243814 -1.18927,-1.243814 -0.25458,0 -0.52007,0.08365 -0.731,0.250945 0.36005,-0.294588 0.47642,-0.65464 0.47642,-0.967412 0,-0.672823 -0.54553,-1.214719 -1.21472,-1.214719 -0.66918,0 -1.214713,0.541896 -1.214713,1.214719 0,0.312772 0.11638,0.672824 0.472795,0.967412 -0.207302,-0.167297 -0.476432,-0.250945 -0.731014,-0.250945 -0.672823,0 -1.189261,0.567354 -1.189261,1.243814 z"
       id="text3-9-5-5"
       style="font-weight:300;font-size:7.44834px;line-height:0;font-family:'SF Pro Rounded';-inkscape-font-specification:'SF Pro Rounded Light';letter-spacing:0px;word-spacing:0px;text-orientation:upright;stroke-width:0.529167;stroke-linecap:round"
       inkscape:label="club-top"
       aria-label="♣" /><path
       d="m 140.54746,121.70833 c 0,-0.6801 -0.52371,-1.19654 -1.20381,-1.19654 -0.38551,0 -0.77102,0.13457 -0.93831,0.46189 h -0.0291 c 0.0146,-0.38187 0.41461,-0.69828 0.60373,-0.89104 0.19639,-0.20366 0.0764,-0.49098 -0.18185,-0.49098 h -1.82208 c -0.26185,0 -0.38187,0.28732 -0.18184,0.49098 0.18912,0.19276 0.58917,0.50917 0.60008,0.89104 h -0.0291 c -0.1673,-0.32732 -0.54917,-0.46189 -0.93468,-0.46189 -0.68374,0 -1.20381,0.51644 -1.20381,1.19654 0,0.67646 0.51644,1.24381 1.18926,1.24381 0.25458,0 0.52008,-0.0836 0.73102,-0.25094 -0.36006,0.29459 -0.47644,0.65464 -0.47644,0.96741 0,0.67282 0.54554,1.21472 1.21472,1.21472 0.66919,0 1.21472,-0.5419 1.21472,-1.21472 0,-0.31277 -0.11638,-0.67282 -0.47279,-0.96741 0.2073,0.1673 0.47643,0.25094 0.73101,0.25094 0.67283,0 1.18926,-0.56735 1.18926,-1.24381 z"
       id="text3-6-64-5-9"
       style="font-weight:300;font-size:7.44834px;line-height:0;font-family:'SF Pro Rounded';-inkscape-font-specification:'SF Pro Rounded Light';letter-spacing:0px;word-spacing:0px;text-orientation:upright;stroke-width:0.529167;stroke-linecap:round"
       inkscape:label="club-bottom"
       aria-label="♣" /></g></svg>
