<?xml version="1.0" encoding="UTF-8" standalone="no"?>
<!-- Created with Inkscape (http://www.inkscape.org/) -->

<svg
   width="179.99977"
   height="251.99976"
   viewBox="0 0 47.624938 66.674935"
   version="1.1"
   id="svg1"
   inkscape:version="1.4 (e7c3feb1, 2024-10-09)"
   sodipodi:docname="All Cards - Spades.svg"
   xml:space="preserve"
   inkscape:export-filename="All Cards - Spades.png"
   inkscape:export-xdpi="96"
   inkscape:export-ydpi="96"
   inkscape:export-batch-path="Spades"
   inkscape:export-batch-name=""
   xmlns:inkscape="http://www.inkscape.org/namespaces/inkscape"
   xmlns:sodipodi="http://sodipodi.sourceforge.net/DTD/sodipodi-0.dtd"
   xmlns="http://www.w3.org/2000/svg"
   xmlns:svg="http://www.w3.org/2000/svg"><sodipodi:namedview
     id="namedview1"
     pagecolor="#ffffff"
     bordercolor="#999999"
     borderopacity="1"
     inkscape:showpageshadow="2"
     inkscape:pageopacity="0"
     inkscape:pagecheckerboard="0"
     inkscape:deskcolor="#d1d1d1"
     inkscape:document-units="px"
     showgrid="true"
     inkscape:zoom="0.69476599"
     inkscape:cx="619.6331"
     inkscape:cy="265.55704"
     inkscape:window-width="1512"
     inkscape:window-height="836"
     inkscape:window-x="0"
     inkscape:window-y="38"
     inkscape:window-maximized="0"
     inkscape:current-layer="layer1"><inkscape:grid
       id="grid2"
       units="px"
       originx="-95.249997"
       originy="-66.675"
       spacingx="0.26458333"
       spacingy="0.26458333"
       empcolor="#0099e5"
       empopacity="0.30196078"
       color="#0099e5"
       opacity="0.14901961"
       empspacing="5"
       enabled="true"
       visible="true" /></sodipodi:namedview><defs
     id="defs1"><inkscape:path-effect
       effect="fillet_chamfer"
       id="path-effect3-21"
       is_visible="true"
       lpeversion="1"
       nodesatellites_param="F,0,0,1,0,3,0,1 @ F,0,0,1,0,3,0,1 @ F,0,0,1,0,3,0,1 @ F,0,0,1,0,3,0,1"
       radius="0"
       unit="px"
       method="auto"
       mode="F"
       chamfer_steps="1"
       flexible="false"
       use_knot_distance="true"
       apply_no_radius="true"
       apply_with_radius="true"
       only_selected="false"
       hide_knots="false" /></defs><g
     inkscape:groupmode="layer"
     id="layer10"
     inkscape:label="10"
     inkscape:export-filename="Spades/10.svg"
     inkscape:export-xdpi="96"
     inkscape:export-ydpi="96"
     transform="translate(-47.624999,-66.675)"><path
       style="fill:#ffffff;fill-opacity:1;stroke:#000000;stroke-width:0.526494;stroke-linecap:round;stroke-linejoin:round;stroke-dasharray:none"
       id="rect1-24"
       width="47.098965"
       height="65.475883"
       x="0.26119247"
       y="0.26535115"
       inkscape:path-effect="#path-effect3-21"
       sodipodi:type="rect"
       d="M 3.2611925,0.26535115 H 44.360157 a 3,3 45 0 1 3,2.99999995 V 62.741235 a 3,3 135 0 1 -3,3 H 3.2611925 a 3,3 45 0 1 -3.00000003,-3 V 3.2653511 A 3,3 135 0 1 3.2611925,0.26535115 Z"
       transform="matrix(0.99998907,0,0,1.0101899,47.627054,66.672874)"
       inkscape:label="card" /><path
       style="font-weight:300;font-size:18.3445px;font-family:'SF Pro Rounded';-inkscape-font-specification:'SF Pro Rounded Light';word-spacing:0px;stroke:#000000;stroke-width:0.529167;stroke-linecap:round;stroke-linejoin:round"
       d="m 67.106628,106.62742 c 0.349333,0 0.59118,-0.25976 0.59118,-0.63597 V 94.069317 c 0,-0.420992 -0.250804,-0.671795 -0.653881,-0.671795 -0.277676,0 -0.438907,0.0627 -0.797198,0.322462 l -3.063388,2.087045 c -0.259761,0.188102 -0.340376,0.331419 -0.340376,0.555351 0,0.304547 0.19706,0.510564 0.49265,0.510564 0.152273,0 0.277675,-0.04479 0.412034,-0.143316 l 2.740927,-1.836241 h 0.02687 v 11.098063 c 0,0.37621 0.241847,0.63597 0.591182,0.63597 z m 8.24965,0.0537 c 2.937986,0 4.675698,-2.59761 4.675698,-6.682127 0,-4.057645 -1.746669,-6.655255 -4.675698,-6.655255 -2.920072,0 -4.684655,2.606567 -4.684655,6.664212 0,4.08452 1.746669,6.67317 4.684655,6.67317 z m 0,-1.07487 c -2.185575,0 -3.448551,-2.17662 -3.448551,-5.607257 0,-3.367935 1.289848,-5.571425 3.448551,-5.571425 2.167661,0 3.448551,2.185575 3.448551,5.580382 0,3.42168 -1.262976,5.5983 -3.448551,5.5983 z"
       id="text3-8-1-1-3-3-3-1-3-9"
       inkscape:label="center"
       aria-label="10" /><path
       d="m 51.175845,73.645121 c 0.07131,0 0.120923,-0.05271 0.120923,-0.130225 v -4.319118 c 0,-0.07751 -0.04651,-0.124023 -0.120923,-0.124023 -0.05581,0 -0.08372,0.0124 -0.142627,0.05581 l -1.196827,0.775146 c -0.05581,0.03411 -0.07131,0.06511 -0.07131,0.111621 0,0.06511 0.04341,0.108521 0.102319,0.108521 0.03411,0 0.05891,-0.0093 0.08682,-0.02791 l 1.091406,-0.703834 h 0.0093 v 4.123781 c 0,0.07752 0.04961,0.130225 0.120923,0.130225 z m 2.703712,0.0155 c 0.979785,0 1.581299,-0.889869 1.581299,-2.303736 0,-1.410768 -0.601514,-2.300636 -1.581299,-2.300636 -0.982886,0 -1.587501,0.892969 -1.587501,2.300636 0,1.413867 0.604615,2.303736 1.587501,2.303736 z m 0,-0.220142 c -0.830958,0 -1.339454,-0.806153 -1.339454,-2.083594 0,-1.268141 0.511597,-2.080494 1.339454,-2.080494 0.824756,0 1.336353,0.809253 1.336353,2.080494 0,1.277441 -0.508497,2.083594 -1.336353,2.083594 z"
       id="text1-7-4"
       style="font-weight:200;font-size:6.35px;font-family:'SF Pro Rounded';-inkscape-font-specification:'SF Pro Rounded, Ultra-Light';word-spacing:0px;stroke:#000000;stroke-width:0.529167;stroke-linecap:round;stroke-linejoin:round"
       inkscape:label="top"
       aria-label="10" /><path
       d="m 91.699242,126.37997 c -0.07131,0 -0.120923,0.0527 -0.120923,0.13022 v 4.31912 c 0,0.0775 0.04651,0.12402 0.120923,0.12402 0.05581,0 0.08371,-0.0124 0.142628,-0.0558 l 1.196826,-0.77514 c 0.05581,-0.0341 0.07131,-0.0651 0.07131,-0.11162 0,-0.0651 -0.04341,-0.10853 -0.10232,-0.10853 -0.03411,0 -0.05891,0.009 -0.08682,0.0279 l -1.091407,0.70383 h -0.0093 v -4.12378 c 0,-0.0775 -0.04961,-0.13022 -0.120922,-0.13022 z m -2.703712,-0.0155 c -0.979786,0 -1.581299,0.88986 -1.581299,2.30373 0,1.41077 0.601513,2.30064 1.581299,2.30064 0.982886,0 1.587501,-0.89297 1.587501,-2.30064 0,-1.41387 -0.604614,-2.30373 -1.587501,-2.30373 z m 0,0.22014 c 0.830957,0 1.339454,0.80615 1.339454,2.08359 0,1.26814 -0.511597,2.0805 -1.339454,2.0805 -0.824755,0 -1.336353,-0.80926 -1.336353,-2.0805 0,-1.27744 0.508496,-2.08359 1.336353,-2.08359 z"
       id="text1-7-4-3"
       style="font-weight:200;font-size:6.35px;font-family:'SF Pro Rounded';-inkscape-font-specification:'SF Pro Rounded, Ultra-Light';word-spacing:0px;stroke:#000000;stroke-width:0.529167;stroke-linecap:round;stroke-linejoin:round"
       inkscape:label="bottom"
       aria-label="10" /><path
       d="m 50.048054,78.389146 c 0,0.654422 0.496094,1.154035 1.157553,1.154035 0.37295,0 0.742382,-0.130181 0.904228,-0.446837 h 0.02815 c -0.01056,0.369432 -0.39758,0.675533 -0.580536,0.862008 -0.193512,0.19703 -0.0774,0.474984 0.17592,0.474984 h 1.762717 c 0.249807,0 0.365914,-0.277954 0.17592,-0.474984 -0.186475,-0.186475 -0.573499,-0.492576 -0.584054,-0.862008 h 0.02815 c 0.161847,0.316656 0.534797,0.446837 0.907747,0.446837 0.657941,0 1.154035,-0.499613 1.154035,-1.154035 0,-1.227921 -1.653648,-1.73457 -2.304551,-3.061006 -0.05278,-0.105552 -0.126663,-0.186476 -0.260362,-0.186476 -0.13018,0 -0.207585,0.08092 -0.256843,0.186476 -0.654422,1.326436 -2.308069,1.833085 -2.308069,3.061006 z"
       id="text1-1-1"
       style="font-weight:300;font-size:7.20568px;line-height:0;font-family:'SF Pro Rounded';-inkscape-font-specification:'SF Pro Rounded Light';letter-spacing:0px;word-spacing:0px;text-orientation:upright;stroke-width:0.529167;stroke-linecap:round"
       inkscape:label="spade-top"
       aria-label="♠" /><path
       d="m 92.827033,121.63585 c 0,-0.65442 -0.496094,-1.15404 -1.157553,-1.15404 -0.37295,0 -0.742382,0.13018 -0.904228,0.44684 h -0.02815 c 0.01056,-0.36943 0.397579,-0.67553 0.580536,-0.86201 0.193512,-0.19703 0.07741,-0.47498 -0.17592,-0.47498 h -1.762717 c -0.249807,0 -0.365914,0.27795 -0.17592,0.47498 0.186475,0.18648 0.573499,0.49258 0.584054,0.86201 h -0.02815 c -0.161847,-0.31666 -0.534797,-0.44684 -0.907747,-0.44684 -0.657941,0 -1.154035,0.49962 -1.154035,1.15404 0,1.22792 1.653647,1.73457 2.304551,3.061 0.05278,0.10556 0.126662,0.18648 0.260362,0.18648 0.13018,0 0.207585,-0.0809 0.256843,-0.18648 0.654422,-1.32643 2.308069,-1.83308 2.308069,-3.061 z"
       id="text1-6-6-9"
       style="font-weight:300;font-size:7.20568px;line-height:0;font-family:'SF Pro Rounded';-inkscape-font-specification:'SF Pro Rounded Light';letter-spacing:0px;word-spacing:0px;text-orientation:upright;stroke-width:0.529167;stroke-linecap:round"
       inkscape:label="spade-bottom"
       aria-label="♠" /></g></svg>
