<?xml version="1.0" encoding="UTF-8" standalone="no"?>
<!-- Created with Inkscape (http://www.inkscape.org/) -->

<svg
   width="179.99976"
   height="251.99976"
   viewBox="0 0 47.624934 66.674935"
   version="1.1"
   id="svg1"
   inkscape:version="1.4 (e7c3feb1, 2024-10-09)"
   sodipodi:docname="All Cards - Clubs.svg"
   xml:space="preserve"
   inkscape:export-filename="All Cards - Clubs.png"
   inkscape:export-xdpi="96"
   inkscape:export-ydpi="96"
   xmlns:inkscape="http://www.inkscape.org/namespaces/inkscape"
   xmlns:sodipodi="http://sodipodi.sourceforge.net/DTD/sodipodi-0.dtd"
   xmlns="http://www.w3.org/2000/svg"
   xmlns:svg="http://www.w3.org/2000/svg"><sodipodi:namedview
     id="namedview1"
     pagecolor="#ffffff"
     bordercolor="#999999"
     borderopacity="1"
     inkscape:showpageshadow="2"
     inkscape:pageopacity="0"
     inkscape:pagecheckerboard="0"
     inkscape:deskcolor="#d1d1d1"
     inkscape:document-units="px"
     showgrid="true"
     inkscape:zoom="0.6064148"
     inkscape:cx="370.20864"
     inkscape:cy="230.04056"
     inkscape:window-width="1512"
     inkscape:window-height="836"
     inkscape:window-x="0"
     inkscape:window-y="38"
     inkscape:window-maximized="0"
     inkscape:current-layer="layer14"><inkscape:grid
       id="grid2"
       units="px"
       originx="-190.49999"
       originy="-3.4711749e-13"
       spacingx="0.26458333"
       spacingy="0.26458333"
       empcolor="#0099e5"
       empopacity="0.30196078"
       color="#0099e5"
       opacity="0.14901961"
       empspacing="5"
       enabled="true"
       visible="true" /><inkscape:page
       x="0"
       y="0"
       width="47.624935"
       height="66.674934"
       id="page2"
       margin="0"
       bleed="0" /></sodipodi:namedview><defs
     id="defs1"><inkscape:path-effect
       effect="fillet_chamfer"
       id="path-effect3-0"
       is_visible="true"
       lpeversion="1"
       nodesatellites_param="F,0,0,1,0,3,0,1 @ F,0,0,1,0,3,0,1 @ F,0,0,1,0,3,0,1 @ F,0,0,1,0,3,0,1"
       radius="0"
       unit="px"
       method="auto"
       mode="F"
       chamfer_steps="1"
       flexible="false"
       use_knot_distance="true"
       apply_no_radius="true"
       apply_with_radius="true"
       only_selected="false"
       hide_knots="false" /></defs><g
     inkscape:groupmode="layer"
     id="layer5"
     inkscape:label="5"
     transform="matrix(0.99998908,0,0,1.0101899,-190.4979,-0.00209528)"
     inkscape:export-filename="Clubs/5.svg"
     inkscape:export-xdpi="96"
     inkscape:export-ydpi="96"><path
       style="fill:#ffffff;fill-opacity:1;stroke:#000000;stroke-width:0.526494;stroke-linecap:round;stroke-linejoin:round;stroke-dasharray:none"
       id="rect1-48"
       width="47.098965"
       height="65.475883"
       x="0.26119247"
       y="0.26535115"
       inkscape:path-effect="#path-effect3-0"
       sodipodi:type="rect"
       d="M 3.2611925,0.26535115 H 44.360157 a 3,3 45 0 1 3,2.99999995 V 62.741235 a 3,3 135 0 1 -3,3 H 3.2611925 a 3,3 45 0 1 -3.00000003,-3 V 3.2653511 A 3,3 135 0 1 3.2611925,0.26535115 Z"
       transform="translate(190.50205,-2.9988694e-5)"
       inkscape:label="card" /><path
       style="font-weight:300;font-size:18.2518px;font-family:'SF Pro Rounded';-inkscape-font-specification:'SF Pro Rounded Light';letter-spacing:-7.10767px;word-spacing:0px;stroke:#000000;stroke-width:0.526494;stroke-linecap:round;stroke-linejoin:round"
       d="m 213.07197,39.703672 c 2.62905,0 4.51839,-1.818051 4.51839,-4.375798 0,-2.459716 -1.79131,-4.233206 -4.25103,-4.233206 -1.31897,0 -2.47754,0.525809 -3.11029,1.408098 h -0.0267 l 0.49016,-4.776838 h 5.61456 c 0.34757,0 0.57037,-0.213889 0.57037,-0.543633 0,-0.329745 -0.2228,-0.543633 -0.57037,-0.543633 h -5.63239 c -0.70405,0 -1.01597,0.26736 -1.07835,0.935761 l -0.54363,5.525448 c 0,0.06238 0,0.09803 0,0.142592 -0.009,0.365392 0.20497,0.641665 0.5971,0.641665 0.32083,0 0.42778,-0.0713 0.87338,-0.552545 0.60601,-0.739697 1.5596,-1.185298 2.61122,-1.185298 1.86261,0 3.23506,1.354626 3.23506,3.208325 0,1.916082 -1.37245,3.270708 -3.27071,3.270708 -1.53287,0 -2.70925,-0.846641 -3.08356,-2.183443 -0.11585,-0.383216 -0.26736,-0.53472 -0.57928,-0.53472 -0.34757,0 -0.57037,0.2228 -0.57037,0.570368 0,0.249537 0.0535,0.445601 0.13368,0.659489 0.53472,1.532866 2.11215,2.56666 4.07279,2.56666 z"
       id="text3-8-1-1-3"
       inkscape:label="center"
       transform="scale(1.0050875,0.99493825)"
       aria-label="5" /><path
       d="m 193.33019,6.8876404 c 0.88229,0 1.53012,-0.6200702 1.53012,-1.4931043 0,-0.8421849 -0.62624,-1.4653399 -1.46842,-1.4653399 -0.48433,0 -0.93165,0.2190297 -1.17227,0.5707113 h -0.009 l 0.21286,-1.9064844 h 2.04222 c 0.071,0 0.11723,-0.043189 0.11723,-0.1110573 0,-0.067868 -0.0463,-0.1110574 -0.11723,-0.1110574 h -2.0669 c -0.12956,0 -0.18818,0.052444 -0.20052,0.1758408 L 191.97,4.6603237 c -0.003,0.00617 -0.003,0.01234 -0.003,0.018509 -0.003,0.080208 0.0432,0.1388217 0.12649,0.1388217 0.074,0 0.1018,-0.024679 0.19435,-0.1357368 0.24987,-0.333172 0.63858,-0.5367771 1.07663,-0.5367771 0.71262,0 1.25248,0.5398621 1.25248,1.2555649 0,0.7342125 -0.54603,1.2679047 -1.28024,1.2679047 -0.59231,0 -1.07972,-0.3609364 -1.20004,-0.8668643 -0.0247,-0.098718 -0.0524,-0.1357367 -0.12648,-0.1357367 -0.0679,0 -0.11414,0.046274 -0.11414,0.1172272 0,0.046274 0.009,0.089463 0.0247,0.1357367 0.14808,0.5645415 0.69411,0.9686669 1.40981,0.9686669 z"
       id="text1-4-8-9-6"
       style="font-weight:200;font-size:6.31793px;font-family:'SF Pro Rounded';-inkscape-font-specification:'SF Pro Rounded, Ultra-Light';letter-spacing:-7.10767px;word-spacing:0px;stroke:#000000;stroke-width:0.526494;stroke-linecap:round;stroke-linejoin:round"
       inkscape:label="top"
       transform="scale(1.0050875,0.99493825)"
       aria-label="5" /><path
       d="m -233.12564,-59.454679 c 0.88229,0 1.53013,-0.62007 1.53013,-1.493104 0,-0.842185 -0.62624,-1.46534 -1.46843,-1.46534 -0.48433,0 -0.93164,0.219029 -1.17227,0.570711 h -0.009 l 0.21286,-1.906484 h 2.04222 c 0.0709,0 0.11722,-0.04319 0.11722,-0.111058 0,-0.06787 -0.0463,-0.111057 -0.11722,-0.111057 h -2.0669 c -0.12957,0 -0.18818,0.05244 -0.20052,0.175841 l -0.22829,2.113174 c -0.003,0.0062 -0.003,0.01234 -0.003,0.01851 -0.003,0.08021 0.0432,0.138821 0.12648,0.138821 0.074,0 0.1018,-0.02468 0.19435,-0.135736 0.24988,-0.333172 0.63858,-0.536777 1.07664,-0.536777 0.71262,0 1.25248,0.539862 1.25248,1.255564 0,0.734213 -0.54603,1.267905 -1.28025,1.267905 -0.5923,0 -1.07972,-0.360936 -1.20003,-0.866864 -0.0247,-0.09872 -0.0524,-0.135737 -0.12648,-0.135737 -0.0679,0 -0.11415,0.04627 -0.11415,0.117227 0,0.04627 0.009,0.08946 0.0247,0.135737 0.14808,0.564542 0.69411,0.968667 1.40981,0.968667 z"
       id="text1-4-8-9-6-6"
       style="font-weight:200;font-size:6.31793px;font-family:'SF Pro Rounded';-inkscape-font-specification:'SF Pro Rounded, Ultra-Light';letter-spacing:-7.10767px;word-spacing:0px;stroke:#000000;stroke-width:0.526494;stroke-linecap:round;stroke-linejoin:round"
       inkscape:label="bottom"
       transform="scale(-1.0050875,-0.99493825)"
       aria-label="5" /><path
       d="m 191.64171,11.584951 c 0,0.676662 0.52106,1.190491 1.19773,1.190491 0.38356,0 0.76712,-0.133885 0.93357,-0.459551 h 0.029 c -0.0145,0.379944 -0.41251,0.694755 -0.60067,0.886536 -0.1954,0.202637 -0.076,0.4885 0.18092,0.4885 h 1.81288 c 0.26053,0 0.37995,-0.285863 0.18093,-0.4885 -0.18817,-0.191781 -0.5862,-0.506592 -0.59706,-0.886536 h 0.0289 c 0.16645,0.325666 0.5464,0.459551 0.92996,0.459551 0.68028,0 1.19773,-0.513829 1.19773,-1.190491 0,-0.673044 -0.51383,-1.237533 -1.18326,-1.237533 -0.25329,0 -0.51745,0.08323 -0.72732,0.249678 0.35823,-0.2931 0.47403,-0.6513328 0.47403,-0.9625251 0,-0.6694254 -0.54278,-1.2085842 -1.20859,-1.2085842 -0.6658,0 -1.20858,0.5391588 -1.20858,1.2085842 0,0.3111923 0.11579,0.6694251 0.4704,0.9625251 -0.20625,-0.166452 -0.47402,-0.249678 -0.72732,-0.249678 -0.66942,0 -1.18325,0.564489 -1.18325,1.237533 z"
       id="text3-7-0-5-9"
       style="font-weight:300;font-size:7.41072px;line-height:0;font-family:'SF Pro Rounded';-inkscape-font-specification:'SF Pro Rounded Light';letter-spacing:0px;word-spacing:0px;text-orientation:upright;stroke-width:0.526494;stroke-linecap:round"
       inkscape:label="club-top"
       transform="scale(1.0050875,0.99493825)"
       aria-label="♣" /><path
       d="m -234.81419,-54.757448 c 0,0.676663 0.52106,1.190492 1.19773,1.190492 0.38356,0 0.76712,-0.133885 0.93357,-0.459552 h 0.0289 c -0.0145,0.379944 -0.41251,0.694755 -0.60067,0.886537 -0.1954,0.202636 -0.076,0.488499 0.18092,0.488499 h 1.81288 c 0.26053,0 0.37994,-0.285863 0.18092,-0.488499 -0.18816,-0.191782 -0.58619,-0.506593 -0.59705,-0.886537 h 0.029 c 0.16645,0.325667 0.54639,0.459552 0.92996,0.459552 0.68028,0 1.19772,-0.513829 1.19772,-1.190492 0,-0.673044 -0.51382,-1.237532 -1.18325,-1.237532 -0.2533,0 -0.51745,0.08323 -0.72732,0.249677 0.35823,-0.293099 0.47402,-0.651332 0.47402,-0.962525 0,-0.669425 -0.54277,-1.208584 -1.20858,-1.208584 -0.66581,0 -1.20858,0.539159 -1.20858,1.208584 0,0.311193 0.11579,0.669426 0.4704,0.962525 -0.20625,-0.166451 -0.47402,-0.249677 -0.72732,-0.249677 -0.66942,0 -1.18325,0.564488 -1.18325,1.237532 z"
       id="text3-6-6-0-9-0"
       style="font-weight:300;font-size:7.41072px;line-height:0;font-family:'SF Pro Rounded';-inkscape-font-specification:'SF Pro Rounded Light';letter-spacing:0px;word-spacing:0px;text-orientation:upright;stroke-width:0.526494;stroke-linecap:round"
       inkscape:label="club-bottom"
       transform="scale(-1.0050875,-0.99493825)"
       aria-label="♣" /></g></svg>
