<?xml version="1.0" encoding="UTF-8" standalone="no"?>
<!DOCTYPE svg PUBLIC "-//W3C//DTD SVG 1.1//EN" "http://www.w3.org/Graphics/SVG/1.1/DTD/svg11.dtd">
<!-- Created with Vectornator (http://vectornator.io/) -->
<svg height="100%" stroke-miterlimit="10" style="fill-rule:nonzero;clip-rule:evenodd;stroke-linecap:round;stroke-linejoin:round;" version="1.1" viewBox="0 0 180 252" width="100%" xml:space="preserve" xmlns="http://www.w3.org/2000/svg" xmlns:vectornator="http://vectornator.io" xmlns:xlink="http://www.w3.org/1999/xlink">
<defs>
<clipPath id="TextBounds">
<rect height="39" width="21.3594" x="8.20312" y="3"/>
</clipPath>
<clipPath id="TextBounds_2">
<rect height="39" width="21.3594" x="150.438" y="210"/>
</clipPath>
<clipPath id="TextBounds_3">
<rect height="77" width="39.7188" x="70.1406" y="87.5"/>
</clipPath>
</defs>
<g id="Layer-1" vectornator:layerName="Layer 1">
<path d="M16 0L164 0C172.837 0 180 7.16344 180 16L180 236C180 244.837 172.837 252 164 252L16 252C7.16344 252 0 244.837 0 236L0 16C0 7.16344 7.16344 0 16 0Z" fill="#ffffff" fill-rule="nonzero" opacity="1" stroke="none"/>
<path clip-path="url(#TextBounds)" d="M18.8281 33.4531C23.25 33.4531 26.4062 30.8438 26.4062 27.1719C26.4062 24.625 24.6562 22.4375 22.1094 21.8281L22.1094 21.6719C24.1719 20.9844 25.5938 19.0625 25.5938 16.9219C25.5938 13.6406 22.7656 11.2188 18.8906 11.2188C15.0156 11.2188 12.2031 13.6406 12.2031 16.9219C12.2031 19.0938 13.5781 20.9844 15.6719 21.6719L15.6719 21.8281C13.0938 22.4531 11.3594 24.625 11.3594 27.2031C11.3594 30.8906 14.4219 33.4531 18.8281 33.4531ZM18.8906 20.75C16.5312 20.75 14.8438 19.2188 14.8438 17.1094C14.8438 15.0156 16.5156 13.5312 18.8906 13.5312C21.2812 13.5312 22.9375 15 22.9375 17.1094C22.9375 19.2344 21.2656 20.75 18.8906 20.75ZM18.8906 31.1719C16.0625 31.1719 14.0312 29.4688 14.0312 27.0938C14.0312 24.7031 16.0625 22.9844 18.8906 22.9844C21.7188 22.9844 23.75 24.7188 23.75 27.0938C23.75 29.4688 21.7188 31.1719 18.8906 31.1719Z" fill="#000000" opacity="1" stroke="none"/>
<path clip-path="url(#TextBounds_2)" d="M161.172 218.547C156.75 218.547 153.594 221.156 153.594 224.828C153.594 227.375 155.344 229.562 157.891 230.172L157.891 230.328C155.828 231.016 154.406 232.938 154.406 235.078C154.406 238.359 157.234 240.781 161.109 240.781C164.984 240.781 167.797 238.359 167.797 235.078C167.797 232.906 166.422 231.016 164.328 230.328L164.328 230.172C166.906 229.547 168.641 227.375 168.641 224.797C168.641 221.109 165.578 218.547 161.172 218.547ZM161.109 231.25C163.469 231.25 165.156 232.781 165.156 234.891C165.156 236.984 163.484 238.469 161.109 238.469C158.719 238.469 157.062 237 157.062 234.891C157.062 232.766 158.734 231.25 161.109 231.25ZM161.109 220.828C163.938 220.828 165.969 222.531 165.969 224.906C165.969 227.297 163.938 229.016 161.109 229.016C158.281 229.016 156.25 227.281 156.25 224.906C156.25 222.531 158.281 220.828 161.109 220.828Z" fill="#000000" opacity="1" stroke="none"/>
<path clip-path="url(#TextBounds_3)" d="M89.8906 149.406C98.7344 149.406 105.047 144.188 105.047 136.844C105.047 131.75 101.547 127.375 96.4531 126.156L96.4531 125.844C100.578 124.469 103.422 120.625 103.422 116.344C103.422 109.781 97.7656 104.938 90.0156 104.938C82.2656 104.938 76.6406 109.781 76.6406 116.344C76.6406 120.688 79.3906 124.469 83.5781 125.844L83.5781 126.156C78.4219 127.406 74.9531 131.75 74.9531 136.906C74.9531 144.281 81.0781 149.406 89.8906 149.406ZM90.0156 124C85.2969 124 81.9219 120.938 81.9219 116.719C81.9219 112.531 85.2656 109.562 90.0156 109.562C94.7969 109.562 98.1094 112.5 98.1094 116.719C98.1094 120.969 94.7656 124 90.0156 124ZM90.0156 144.844C84.3594 144.844 80.2969 141.438 80.2969 136.688C80.2969 131.906 84.3594 128.469 90.0156 128.469C95.6719 128.469 99.7344 131.938 99.7344 136.688C99.7344 141.438 95.6719 144.844 90.0156 144.844Z" fill="#000000" opacity="1" stroke="none"/>
<path d="M15 1L165 1C172.732 1 179 7.28814 179 15.0449L179 236.955C179 244.712 172.732 251 165 251L15 251C7.26801 251 1 244.712 1 236.955L1 15.0449C1 7.28814 7.26801 1 15 1Z" fill="none" opacity="1" stroke="#000000" stroke-linecap="round" stroke-linejoin="round" stroke-width="2"/>
</g>
</svg>
