<?xml version="1.0" encoding="UTF-8" standalone="no"?>
<!-- Created with Inkscape (http://www.inkscape.org/) -->

<svg
   width="179.99977"
   height="251.99976"
   viewBox="0 0 47.624938 66.674935"
   version="1.1"
   id="svg1"
   inkscape:version="1.4 (e7c3feb1, 2024-10-09)"
   sodipodi:docname="All Cards - Hearts.svg"
   xml:space="preserve"
   inkscape:export-filename="All Cards - Hearts.png"
   inkscape:export-xdpi="96"
   inkscape:export-ydpi="96"
   inkscape:export-batch-path="Hearts"
   inkscape:export-batch-name=""
   xmlns:inkscape="http://www.inkscape.org/namespaces/inkscape"
   xmlns:sodipodi="http://sodipodi.sourceforge.net/DTD/sodipodi-0.dtd"
   xmlns="http://www.w3.org/2000/svg"
   xmlns:svg="http://www.w3.org/2000/svg"><sodipodi:namedview
     id="namedview1"
     pagecolor="#ffffff"
     bordercolor="#999999"
     borderopacity="1"
     inkscape:showpageshadow="2"
     inkscape:pageopacity="0"
     inkscape:pagecheckerboard="0"
     inkscape:deskcolor="#d1d1d1"
     inkscape:document-units="px"
     showgrid="true"
     inkscape:zoom="0.64076144"
     inkscape:cx="641.42437"
     inkscape:cy="267.65031"
     inkscape:window-width="1512"
     inkscape:window-height="836"
     inkscape:window-x="0"
     inkscape:window-y="38"
     inkscape:window-maximized="0"
     inkscape:current-layer="layer14"><inkscape:grid
       id="grid2"
       units="px"
       originx="7.8904386e-10"
       originy="-66.675"
       spacingx="0.26458333"
       spacingy="0.26458333"
       empcolor="#0099e5"
       empopacity="0.30196078"
       color="#0099e5"
       opacity="0.14901961"
       empspacing="5"
       enabled="true"
       visible="true" /></sodipodi:namedview><defs
     id="defs1"><inkscape:path-effect
       effect="fillet_chamfer"
       id="path-effect3-3"
       is_visible="true"
       lpeversion="1"
       nodesatellites_param="F,0,0,1,0,3,0,1 @ F,0,0,1,0,3,0,1 @ F,0,0,1,0,3,0,1 @ F,0,0,1,0,3,0,1"
       radius="0"
       unit="px"
       method="auto"
       mode="F"
       chamfer_steps="1"
       flexible="false"
       use_knot_distance="true"
       apply_no_radius="true"
       apply_with_radius="true"
       only_selected="false"
       hide_knots="false" /></defs><g
     inkscape:groupmode="layer"
     id="layer9"
     inkscape:label="9"
     transform="matrix(0.99998908,0,0,1.0101899,0.0020845,-66.677095)"
     inkscape:export-filename="Hearts/9.svg"
     inkscape:export-xdpi="96"
     inkscape:export-ydpi="96"><path
       style="fill:#ffffff;fill-opacity:1;stroke:#000000;stroke-width:0.526494;stroke-linecap:round;stroke-linejoin:round;stroke-dasharray:none;stroke-opacity:1"
       id="rect1-5"
       width="47.098965"
       height="65.475883"
       x="0.26119247"
       y="0.26535115"
       inkscape:path-effect="#path-effect3-3"
       sodipodi:type="rect"
       d="M 3.2611925,0.26535115 H 44.360157 a 3,3 45 0 1 3,2.99999995 V 62.741235 a 3,3 135 0 1 -3,3 H 3.2611925 a 3,3 45 0 1 -3.00000003,-3 V 3.2653511 A 3,3 135 0 1 3.2611925,0.26535115 Z"
       transform="translate(-2.998046e-5,66.002411)"
       inkscape:label="card" /><path
       style="font-weight:300;font-size:18.2518px;font-family:'SF Pro Rounded';-inkscape-font-specification:'SF Pro Rounded Light';letter-spacing:-7.10767px;word-spacing:0px;fill:#ff0000;stroke:#ff0000;stroke-width:0.526494;stroke-linecap:round;stroke-linejoin:round"
       d="m 23.445041,106.14438 c 3.065732,0 4.874871,-2.6023 4.874871,-6.906806 0,-1.621986 -0.285185,-2.92314 -0.864465,-3.930197 -0.784257,-1.55069 -2.192355,-2.432979 -3.930198,-2.432979 -2.584483,0 -4.464918,1.86261 -4.464918,4.402534 0,2.415155 1.818051,4.224298 4.268854,4.224298 1.764579,0 3.297445,-1.01597 3.787605,-2.45972 h 0.02674 c 0,0.13368 0,0.276272 0,0.401041 -0.08021,3.529159 -1.37245,5.632389 -3.689573,5.632389 -1.434834,0 -2.299299,-0.65949 -2.851844,-1.79131 -0.213888,-0.41887 -0.383216,-0.55255 -0.659488,-0.55255 -0.329745,0 -0.543633,0.20498 -0.543633,0.52581 0,0.19607 0.05347,0.39213 0.17824,0.64167 0.490161,1.13182 1.835875,2.24582 3.867813,2.24582 z m 0.08021,-5.72151 c -1.880434,0 -3.23506,-1.38136 -3.23506,-3.181586 0,-1.835875 1.41701,-3.270709 3.243972,-3.270709 1.853699,0 3.270709,1.470482 3.270709,3.333093 0,1.72893 -1.434834,3.119202 -3.279621,3.119202 z"
       id="text3-8-1-1-3-3-3-1-3"
       inkscape:label="center"
       transform="scale(1.0050875,0.99493825)"
       aria-label="9" /><path
       d="m 3.8509982,73.296824 c 1.0241956,0 1.6411809,-0.931648 1.6411809,-2.406243 0,-0.663259 -0.1388217,-1.178442 -0.4072103,-1.539378 -0.2714735,-0.404125 -0.6971934,-0.635495 -1.215461,-0.635495 -0.8668643,0 -1.4992742,0.654005 -1.4992742,1.527039 0,0.823675 0.6231551,1.449915 1.4776797,1.449915 0.6663441,0 1.2493952,-0.438059 1.3974717,-1.008771 h 0.00617 c 0.00308,0.08021 0.00617,0.175841 0.00308,0.252964 -0.030849,1.320349 -0.5275225,2.140939 -1.4036416,2.140939 -0.583051,0 -0.9594121,-0.314662 -1.1167433,-0.780486 -0.049359,-0.123397 -0.080208,-0.157332 -0.1449915,-0.157332 -0.067868,0 -0.1110574,0.04319 -0.1110574,0.111058 0,0.04936 0.01851,0.114142 0.046274,0.18818 0.166586,0.471994 0.6324099,0.85761 1.3265183,0.85761 z m 0.021595,-1.823192 c -0.7342124,0 -1.2586499,-0.552201 -1.2586499,-1.23397 0,-0.734213 0.5398621,-1.301839 1.2586499,-1.301839 0.7280427,0 1.2802445,0.589221 1.2802445,1.329603 0,0.64475 -0.5768812,1.206206 -1.2802445,1.206206 z"
       id="text1-7"
       style="font-weight:200;font-size:6.31793px;font-family:'SF Pro Rounded';-inkscape-font-specification:'SF Pro Rounded, Ultra-Light';letter-spacing:-7.10767px;word-spacing:0px;fill:#ff0000;stroke:#ff0000;stroke-width:0.526494;stroke-linecap:round;stroke-linejoin:round"
       inkscape:label="top"
       transform="scale(1.0050875,0.99493825)"
       aria-label="9" /><path
       d="m -43.529251,-125.7221 c 1.024196,0 1.641181,-0.93164 1.641181,-2.40624 0,-0.66326 -0.138822,-1.17844 -0.40721,-1.53938 -0.271474,-0.40412 -0.697194,-0.63549 -1.215461,-0.63549 -0.866865,0 -1.499274,0.654 -1.499274,1.52704 0,0.82367 0.623155,1.44991 1.477679,1.44991 0.666344,0 1.249395,-0.43806 1.397472,-1.00877 h 0.0062 c 0.0031,0.0802 0.0062,0.17584 0.0031,0.25296 -0.03085,1.32035 -0.527523,2.14094 -1.403642,2.14094 -0.583051,0 -0.959412,-0.31466 -1.116743,-0.78048 -0.04936,-0.1234 -0.08021,-0.15733 -0.144992,-0.15733 -0.06787,0 -0.111057,0.0432 -0.111057,0.11105 0,0.0494 0.01851,0.11415 0.04627,0.18818 0.166586,0.472 0.63241,0.85761 1.326518,0.85761 z m 0.0216,-1.82319 c -0.734213,0 -1.25865,-0.5522 -1.25865,-1.23397 0,-0.73421 0.539862,-1.30184 1.25865,-1.30184 0.728042,0 1.280244,0.58922 1.280244,1.32961 0,0.64474 -0.576881,1.2062 -1.280244,1.2062 z"
       id="text1-7-3"
       style="font-weight:200;font-size:6.31793px;font-family:'SF Pro Rounded';-inkscape-font-specification:'SF Pro Rounded, Ultra-Light';letter-spacing:-7.10767px;word-spacing:0px;fill:#ff0000;stroke:#ff0000;stroke-width:0.526494;stroke-linecap:round;stroke-linejoin:round"
       inkscape:label="bottom"
       transform="scale(-1.0050875,-0.99493825)"
       aria-label="9" /><path
       d="m 4.9625422,80.029158 c 0.055616,0 0.1334774,-0.03337 0.1928007,-0.07045 1.6165594,-1.038157 2.6621322,-2.243161 2.6621322,-3.466704 0,-1.008496 -0.6933408,-1.72779 -1.5980209,-1.72779 -0.5561557,0 -1.0010803,0.311447 -1.256912,0.789741 -0.2558316,-0.474587 -0.7044639,-0.789741 -1.2606197,-0.789741 -0.90468,0 -1.5980209,0.719294 -1.5980209,1.72779 0,1.223543 1.0455728,2.428547 2.6621322,3.466704 0.059323,0.03708 0.1371851,0.07045 0.1965084,0.07045 z"
       id="text5-4"
       style="font-weight:300;font-size:7.59338px;line-height:0;font-family:'SF Pro Rounded';-inkscape-font-specification:'SF Pro Rounded Light';letter-spacing:0px;word-spacing:0px;text-orientation:upright;fill:#ff0000;stroke-width:0.526494;stroke-linecap:round"
       inkscape:label="heart-top"
       transform="scale(1.0050875,0.99493825)"
       aria-label="♥" /><path
       d="m -42.417824,-118.9897 c 0.05562,0 0.133478,-0.0334 0.192801,-0.0704 1.616559,-1.03816 2.662132,-2.24316 2.662132,-3.4667 0,-1.0085 -0.693341,-1.72779 -1.598021,-1.72779 -0.556155,0 -1.00108,0.31144 -1.256912,0.78974 -0.255831,-0.47459 -0.704464,-0.78974 -1.260619,-0.78974 -0.904681,0 -1.598021,0.71929 -1.598021,1.72779 0,1.22354 1.045572,2.42854 2.662132,3.4667 0.05932,0.0371 0.137185,0.0704 0.196508,0.0704 z"
       id="text5-7-5"
       style="font-weight:300;font-size:7.59338px;line-height:0;font-family:'SF Pro Rounded';-inkscape-font-specification:'SF Pro Rounded Light';letter-spacing:0px;word-spacing:0px;text-orientation:upright;fill:#ff0000;stroke-width:0.526494;stroke-linecap:round"
       inkscape:label="heart-bottom"
       transform="scale(-1.0050875,-0.99493825)"
       aria-label="♥" /></g></svg>
