<?xml version="1.0" encoding="UTF-8" standalone="no"?>
<!-- Created with Inkscape (http://www.inkscape.org/) -->

<svg
   width="179.99977"
   height="251.99976"
   viewBox="0 0 47.624938 66.674935"
   version="1.1"
   id="svg1"
   inkscape:version="1.4 (e7c3feb1, 2024-10-09)"
   sodipodi:docname="All Cards - Hearts.svg"
   xml:space="preserve"
   inkscape:export-filename="All Cards - Hearts.png"
   inkscape:export-xdpi="96"
   inkscape:export-ydpi="96"
   inkscape:export-batch-path="Hearts"
   inkscape:export-batch-name=""
   xmlns:inkscape="http://www.inkscape.org/namespaces/inkscape"
   xmlns:sodipodi="http://sodipodi.sourceforge.net/DTD/sodipodi-0.dtd"
   xmlns="http://www.w3.org/2000/svg"
   xmlns:svg="http://www.w3.org/2000/svg"><sodipodi:namedview
     id="namedview1"
     pagecolor="#ffffff"
     bordercolor="#999999"
     borderopacity="1"
     inkscape:showpageshadow="2"
     inkscape:pageopacity="0"
     inkscape:pagecheckerboard="0"
     inkscape:deskcolor="#d1d1d1"
     inkscape:document-units="px"
     showgrid="true"
     inkscape:zoom="0.7246543"
     inkscape:cx="555.43726"
     inkscape:cy="257.3641"
     inkscape:window-width="1512"
     inkscape:window-height="836"
     inkscape:window-x="0"
     inkscape:window-y="38"
     inkscape:window-maximized="0"
     inkscape:current-layer="layer11"><inkscape:grid
       id="grid2"
       units="px"
       originx="-47.624999"
       originy="-66.675"
       spacingx="0.26458333"
       spacingy="0.26458333"
       empcolor="#0099e5"
       empopacity="0.30196078"
       color="#0099e5"
       opacity="0.14901961"
       empspacing="5"
       enabled="true"
       visible="true" /></sodipodi:namedview><defs
     id="defs1"><inkscape:path-effect
       effect="fillet_chamfer"
       id="path-effect3-3"
       is_visible="true"
       lpeversion="1"
       nodesatellites_param="F,0,0,1,0,3,0,1 @ F,0,0,1,0,3,0,1 @ F,0,0,1,0,3,0,1 @ F,0,0,1,0,3,0,1"
       radius="0"
       unit="px"
       method="auto"
       mode="F"
       chamfer_steps="1"
       flexible="false"
       use_knot_distance="true"
       apply_no_radius="true"
       apply_with_radius="true"
       only_selected="false"
       hide_knots="false" /></defs><g
     inkscape:groupmode="layer"
     id="layer9"
     inkscape:label="9"
     transform="matrix(0.99998908,0,0,1.0101899,0.0020845,-66.677095)"
     inkscape:export-filename="Hearts/9.svg"
     inkscape:export-xdpi="96"
     inkscape:export-ydpi="96"><path
       style="fill:#ffffff;fill-opacity:1;stroke:#000000;stroke-width:0.526494;stroke-linecap:round;stroke-linejoin:round;stroke-dasharray:none;stroke-opacity:1"
       id="rect1-5"
       width="47.098965"
       height="65.475883"
       x="0.26119247"
       y="0.26535115"
       inkscape:path-effect="#path-effect3-3"
       sodipodi:type="rect"
       d="M 3.2611925,0.26535115 H 44.360157 a 3,3 45 0 1 3,2.99999995 V 62.741235 a 3,3 135 0 1 -3,3 H 3.2611925 a 3,3 45 0 1 -3.00000003,-3 V 3.2653511 A 3,3 135 0 1 3.2611925,0.26535115 Z"
       transform="translate(-2.998046e-5,66.002411)"
       inkscape:label="card" /><path
       style="font-weight:300;font-size:18.2518px;font-family:'SF Pro Rounded';-inkscape-font-specification:'SF Pro Rounded Light';letter-spacing:-7.10767px;word-spacing:0px;fill:#ff0000;stroke:#ff0000;stroke-width:0.526494;stroke-linecap:round;stroke-linejoin:round"
       d="m 23.564318,105.60711 c 3.081329,0 4.899672,-2.58913 4.899672,-6.871845 0,-1.613776 -0.286636,-2.908344 -0.868863,-3.910303 -0.788247,-1.542841 -2.203509,-2.420664 -3.950193,-2.420664 -2.597632,0 -4.487634,1.853182 -4.487634,4.380249 0,2.40293 1.827301,4.202913 4.290572,4.202913 1.773557,0 3.314221,-1.010825 3.806875,-2.447267 h 0.02688 c 0,0.133004 0,0.274874 0,0.399011 -0.08062,3.511296 -1.379433,5.603876 -3.708344,5.603876 -1.442134,0 -2.310997,-0.65615 -2.866353,-1.78224 -0.214976,-0.41675 -0.385165,-0.54975 -0.662843,-0.54975 -0.331422,0 -0.546399,0.20394 -0.546399,0.52315 0,0.19507 0.05374,0.39014 0.179147,0.63842 0.492655,1.12609 1.845215,2.23445 3.887491,2.23445 z m 0.08062,-5.692549 c -1.890001,0 -3.251519,-1.374368 -3.251519,-3.165481 0,-1.826583 1.424219,-3.254154 3.260476,-3.254154 1.86313,0 3.287349,1.463039 3.287349,3.316222 0,1.720178 -1.442134,3.103413 -3.296306,3.103413 z"
       id="text3-8-1-1-3-3-3-1-3"
       inkscape:label="center"
       aria-label="9" /><path
       d="m 4.9053096,72.921005 c 1.0294062,0 1.6495305,-0.926932 1.6495305,-2.394063 0,-0.659902 -0.139528,-1.172477 -0.409282,-1.531586 -0.2728547,-0.40208 -0.7007404,-0.632279 -1.2216447,-0.632279 -0.8712745,0 -1.5069017,0.650695 -1.5069017,1.51931 0,0.819506 0.6263254,1.442576 1.4851973,1.442576 0.6697342,0 1.2557515,-0.435842 1.4045814,-1.003665 h 0.0062 c 0.0031,0.0798 0.0062,0.174951 0.0031,0.251683 -0.031006,1.313666 -0.5302062,2.130102 -1.4107826,2.130102 -0.5860173,0 -0.9642931,-0.313069 -1.1224247,-0.776535 -0.04961,-0.122772 -0.080616,-0.156536 -0.1457292,-0.156536 -0.068213,0 -0.1116224,0.04297 -0.1116224,0.110496 0,0.04911 0.018604,0.113565 0.046509,0.187228 0.1674335,0.469605 0.6356272,0.853269 1.3332669,0.853269 z m 0.021705,-1.813964 c -0.7379477,0 -1.2650533,-0.549406 -1.2650533,-1.227724 0,-0.730496 0.5426087,-1.295249 1.2650533,-1.295249 0.7317466,0 1.2867578,0.586238 1.2867578,1.322873 0,0.641486 -0.5798161,1.2001 -1.2867578,1.2001 z"
       id="text1-7"
       style="font-weight:200;font-size:6.31793px;font-family:'SF Pro Rounded';-inkscape-font-specification:'SF Pro Rounded, Ultra-Light';letter-spacing:-7.10767px;word-spacing:0px;fill:#ff0000;stroke:#ff0000;stroke-width:0.526494;stroke-linecap:round;stroke-linejoin:round"
       inkscape:label="top"
       aria-label="9" /><path
       d="m 42.716104,125.0906 c -1.029406,0 -1.64953,0.92692 -1.64953,2.39406 0,0.6599 0.139528,1.17247 0.409281,1.53158 0.272855,0.40208 0.700741,0.63228 1.221645,0.63228 0.871275,0 1.506902,-0.65069 1.506902,-1.51931 0,-0.8195 -0.626326,-1.44257 -1.485197,-1.44257 -0.669734,0 -1.255751,0.43584 -1.404582,1.00366 h -0.0062 c -0.0031,-0.0798 -0.0062,-0.17495 -0.0031,-0.25168 0.03101,-1.31367 0.530207,-2.1301 1.410783,-2.1301 0.586017,0 0.964293,0.31306 1.122424,0.77653 0.04961,0.12277 0.08062,0.15653 0.14573,0.15653 0.06822,0 0.111622,-0.043 0.111622,-0.11049 0,-0.0491 -0.0186,-0.11357 -0.04651,-0.18722 -0.167434,-0.46962 -0.635628,-0.85327 -1.333267,-0.85327 z m -0.02171,1.81396 c 0.737949,0 1.265054,0.5494 1.265054,1.22772 0,0.7305 -0.542609,1.29525 -1.265054,1.29525 -0.731746,0 -1.286757,-0.58624 -1.286757,-1.32288 0,-0.64147 0.579816,-1.20009 1.286757,-1.20009 z"
       id="text1-7-3"
       style="font-weight:200;font-size:6.31793px;font-family:'SF Pro Rounded';-inkscape-font-specification:'SF Pro Rounded, Ultra-Light';letter-spacing:-7.10767px;word-spacing:0px;fill:#ff0000;stroke:#ff0000;stroke-width:0.526494;stroke-linecap:round;stroke-linejoin:round"
       inkscape:label="bottom"
       aria-label="9" /><path
       d="m 4.9625422,80.029158 c 0.055616,0 0.1334774,-0.03337 0.1928007,-0.07045 1.6165594,-1.038157 2.6621322,-2.243161 2.6621322,-3.466704 0,-1.008496 -0.6933408,-1.72779 -1.5980209,-1.72779 -0.5561557,0 -1.0010803,0.311447 -1.256912,0.789741 -0.2558316,-0.474587 -0.7044639,-0.789741 -1.2606197,-0.789741 -0.90468,0 -1.5980209,0.719294 -1.5980209,1.72779 0,1.223543 1.0455728,2.428547 2.6621322,3.466704 0.059323,0.03708 0.1371851,0.07045 0.1965084,0.07045 z"
       id="text5-4"
       style="font-weight:300;font-size:7.59338px;line-height:0;font-family:'SF Pro Rounded';-inkscape-font-specification:'SF Pro Rounded Light';letter-spacing:0px;word-spacing:0px;text-orientation:upright;fill:#ff0000;stroke-width:0.526494;stroke-linecap:round"
       inkscape:label="heart-top"
       transform="scale(1.0050875,0.99493825)"
       aria-label="♥" /><path
       d="m -42.417824,-118.9897 c 0.05562,0 0.133478,-0.0334 0.192801,-0.0704 1.616559,-1.03816 2.662132,-2.24316 2.662132,-3.4667 0,-1.0085 -0.693341,-1.72779 -1.598021,-1.72779 -0.556155,0 -1.00108,0.31144 -1.256912,0.78974 -0.255831,-0.47459 -0.704464,-0.78974 -1.260619,-0.78974 -0.904681,0 -1.598021,0.71929 -1.598021,1.72779 0,1.22354 1.045572,2.42854 2.662132,3.4667 0.05932,0.0371 0.137185,0.0704 0.196508,0.0704 z"
       id="text5-7-5"
       style="font-weight:300;font-size:7.59338px;line-height:0;font-family:'SF Pro Rounded';-inkscape-font-specification:'SF Pro Rounded Light';letter-spacing:0px;word-spacing:0px;text-orientation:upright;fill:#ff0000;stroke-width:0.526494;stroke-linecap:round"
       inkscape:label="heart-bottom"
       transform="scale(-1.0050875,-0.99493825)"
       aria-label="♥" /></g></svg>
