<?xml version="1.0" encoding="UTF-8" standalone="no"?>
<!-- Created with Inkscape (http://www.inkscape.org/) -->

<svg
   width="179.99977"
   height="251.99976"
   viewBox="0 0 47.624938 66.674935"
   version="1.1"
   id="svg1"
   inkscape:version="1.4 (e7c3feb1, 2024-10-09)"
   sodipodi:docname="All Cards - Hearts.svg"
   xml:space="preserve"
   inkscape:export-filename="All Cards - Hearts.png"
   inkscape:export-xdpi="96"
   inkscape:export-ydpi="96"
   inkscape:export-batch-path="Hearts"
   inkscape:export-batch-name=""
   xmlns:inkscape="http://www.inkscape.org/namespaces/inkscape"
   xmlns:sodipodi="http://sodipodi.sourceforge.net/DTD/sodipodi-0.dtd"
   xmlns="http://www.w3.org/2000/svg"
   xmlns:svg="http://www.w3.org/2000/svg"><sodipodi:namedview
     id="namedview1"
     pagecolor="#ffffff"
     bordercolor="#999999"
     borderopacity="1"
     inkscape:showpageshadow="2"
     inkscape:pageopacity="0"
     inkscape:pagecheckerboard="0"
     inkscape:deskcolor="#d1d1d1"
     inkscape:document-units="px"
     showgrid="true"
     inkscape:zoom="0.7246543"
     inkscape:cx="555.43726"
     inkscape:cy="257.3641"
     inkscape:window-width="1512"
     inkscape:window-height="836"
     inkscape:window-x="0"
     inkscape:window-y="38"
     inkscape:window-maximized="0"
     inkscape:current-layer="layer11"><inkscape:grid
       id="grid2"
       units="px"
       originx="-190.5"
       originy="-3.5768442e-09"
       spacingx="0.26458333"
       spacingy="0.26458333"
       empcolor="#0099e5"
       empopacity="0.30196078"
       color="#0099e5"
       opacity="0.14901961"
       empspacing="5"
       enabled="true"
       visible="true" /></sodipodi:namedview><defs
     id="defs1"><inkscape:path-effect
       effect="fillet_chamfer"
       id="path-effect3-0"
       is_visible="true"
       lpeversion="1"
       nodesatellites_param="F,0,0,1,0,3,0,1 @ F,0,0,1,0,3,0,1 @ F,0,0,1,0,3,0,1 @ F,0,0,1,0,3,0,1"
       radius="0"
       unit="px"
       method="auto"
       mode="F"
       chamfer_steps="1"
       flexible="false"
       use_knot_distance="true"
       apply_no_radius="true"
       apply_with_radius="true"
       only_selected="false"
       hide_knots="false" /></defs><g
     inkscape:groupmode="layer"
     id="layer5"
     inkscape:label="5"
     transform="matrix(0.99998908,0,0,1.0101899,-190.49792,-0.00209528)"
     inkscape:export-filename="Hearts/5.svg"
     inkscape:export-xdpi="96"
     inkscape:export-ydpi="96"><path
       style="fill:#ffffff;fill-opacity:1;stroke:#000000;stroke-width:0.526494;stroke-linecap:round;stroke-linejoin:round;stroke-dasharray:none;stroke-opacity:1"
       id="rect1-48"
       width="47.098965"
       height="65.475883"
       x="0.26119247"
       y="0.26535115"
       inkscape:path-effect="#path-effect3-0"
       sodipodi:type="rect"
       d="M 3.2611925,0.26535115 H 44.360157 a 3,3 45 0 1 3,2.99999995 V 62.741235 a 3,3 135 0 1 -3,3 H 3.2611925 a 3,3 45 0 1 -3.00000003,-3 V 3.2653511 A 3,3 135 0 1 3.2611925,0.26535115 Z"
       transform="translate(190.50205,-2.9988694e-5)"
       inkscape:label="card" /><path
       style="font-weight:300;font-size:18.2518px;font-family:'SF Pro Rounded';-inkscape-font-specification:'SF Pro Rounded Light';letter-spacing:-7.10767px;word-spacing:0px;fill:#ff0000;stroke:#ff0000;stroke-width:0.526494;stroke-linecap:round;stroke-linejoin:round"
       d="m 214.15596,39.502702 c 2.64242,0 4.54137,-1.808849 4.54137,-4.353649 0,-2.447265 -1.80042,-4.211778 -4.27265,-4.211778 -1.32568,0 -2.49015,0.523147 -3.12612,1.40097 h -0.0268 l 0.49265,-4.752659 h 5.64312 c 0.34934,0 0.57328,-0.212806 0.57328,-0.540881 0,-0.328076 -0.22394,-0.540881 -0.57328,-0.540881 h -5.66104 c -0.70763,0 -1.02114,0.266006 -1.08384,0.931024 l -0.54639,5.49748 c 0,0.06206 0,0.09753 0,0.14187 -0.009,0.363542 0.20601,0.638417 0.60014,0.638417 0.32246,0 0.42995,-0.07094 0.87782,-0.549748 0.60909,-0.735953 1.56753,-1.179298 2.6245,-1.179298 1.87209,0 3.25152,1.347769 3.25152,3.192085 0,1.906383 -1.37943,3.254152 -3.28735,3.254152 -1.54067,0 -2.72303,-0.842355 -3.09925,-2.172391 -0.11643,-0.381276 -0.26872,-0.532013 -0.58222,-0.532013 -0.34934,0 -0.57327,0.221672 -0.57327,0.567481 0,0.248274 0.0538,0.443345 0.13436,0.656151 0.53744,1.525107 2.12289,2.553668 4.09351,2.553668 z"
       id="text3-8-1-1-3"
       inkscape:label="center"
       aria-label="5" /><path
       d="m 195.43977,6.8541085 c 0.88678,0 1.5379,-0.6169316 1.5379,-1.4855467 0,-0.837922 -0.62942,-1.4579229 -1.47589,-1.4579229 -0.48679,0 -0.93639,0.2179211 -1.17823,0.5678226 h -0.009 l 0.21394,-1.8968344 h 2.05261 c 0.0714,0 0.11783,-0.04297 0.11783,-0.1104951 0,-0.067525 -0.0465,-0.1104953 -0.11783,-0.1104953 h -2.07741 c -0.13022,0 -0.18914,0.052179 -0.20154,0.1749508 l -0.22944,2.1024782 c -0.003,0.00614 -0.003,0.012277 -0.003,0.018416 -0.003,0.079802 0.0434,0.1381189 0.12714,0.1381189 0.0744,0 0.10231,-0.024554 0.19533,-0.1350496 0.25115,-0.3314857 0.64183,-0.5340602 1.08211,-0.5340602 0.71625,0 1.25885,0.5371295 1.25885,1.2492097 0,0.7304961 -0.5488,1.261487 -1.28675,1.261487 -0.59532,0 -1.08521,-0.3591095 -1.20615,-0.8624765 -0.0248,-0.098218 -0.0527,-0.1350497 -0.12712,-0.1350497 -0.0682,0 -0.11472,0.04604 -0.11472,0.1166338 0,0.04604 0.009,0.08901 0.0248,0.1350497 0.14883,0.561684 0.69764,0.9637638 1.41698,0.9637638 z"
       id="text1-4-8-9-6"
       style="font-weight:200;font-size:6.31793px;font-family:'SF Pro Rounded';-inkscape-font-specification:'SF Pro Rounded, Ultra-Light';letter-spacing:-7.10767px;word-spacing:0px;fill:#ff0000;stroke:#ff0000;stroke-width:0.526494;stroke-linecap:round;stroke-linejoin:round"
       inkscape:label="top"
       aria-label="5" /><path
       d="m 233.18582,59.152598 c -0.88678,0 -1.53792,0.616932 -1.53792,1.485548 0,0.837921 0.62943,1.457922 1.4759,1.457922 0.4868,0 0.93638,-0.217921 1.17824,-0.567823 h 0.009 l -0.21394,1.896835 h -2.05261 c -0.0713,0 -0.11782,0.04297 -0.11782,0.110495 0,0.06753 0.0465,0.110495 0.11782,0.110495 h 2.07742 c 0.13023,0 0.18913,-0.05217 0.20154,-0.17495 l 0.22945,-2.102479 c 0.003,-0.0062 0.003,-0.01228 0.003,-0.01842 0.003,-0.0798 -0.0434,-0.138118 -0.12712,-0.138118 -0.0744,0 -0.10232,0.02455 -0.19534,0.135049 -0.25115,0.331486 -0.64183,0.53406 -1.08212,0.53406 -0.71624,0 -1.25885,-0.537129 -1.25885,-1.249209 0,-0.730497 0.54881,-1.261487 1.28676,-1.261487 0.59532,0 1.08522,0.359109 1.20614,0.862476 0.0248,0.09822 0.0527,0.13505 0.12712,0.13505 0.0683,0 0.11473,-0.04604 0.11473,-0.116634 0,-0.04604 -0.009,-0.08901 -0.0248,-0.13505 -0.14883,-0.561684 -0.69764,-0.963764 -1.41698,-0.963764 z"
       id="text1-4-8-9-6-6"
       style="font-weight:200;font-size:6.31793px;font-family:'SF Pro Rounded';-inkscape-font-specification:'SF Pro Rounded, Ultra-Light';letter-spacing:-7.10767px;word-spacing:0px;fill:#ff0000;stroke:#ff0000;stroke-width:0.526494;stroke-linecap:round;stroke-linejoin:round"
       inkscape:label="bottom"
       aria-label="5" /><path
       d="m 194.50034,13.690928 c 0.0556,0 0.13348,-0.03337 0.1928,-0.07045 1.61656,-1.038157 2.66214,-2.243161 2.66214,-3.466704 0,-1.0084958 -0.69334,-1.7277906 -1.59802,-1.7277906 -0.55616,0 -1.00108,0.3114472 -1.25692,0.7897412 -0.25583,-0.4745863 -0.70446,-0.7897412 -1.26062,-0.7897412 -0.90468,0 -1.59802,0.7192948 -1.59802,1.7277906 0,1.223543 1.04558,2.428547 2.66213,3.466704 0.0593,0.03708 0.13719,0.07045 0.19651,0.07045 z"
       id="text5-74-6-9-0"
       style="font-weight:300;font-size:7.59338px;line-height:0;font-family:'SF Pro Rounded';-inkscape-font-specification:'SF Pro Rounded Light';letter-spacing:0px;word-spacing:0px;text-orientation:upright;fill:#ff0000;stroke-width:0.526494;stroke-linecap:round"
       inkscape:label="heart-top"
       transform="scale(1.0050875,0.99493825)"
       aria-label="♥" /><path
       d="m -231.95562,-52.651472 c 0.0556,0 0.13348,-0.03337 0.1928,-0.07045 1.61656,-1.038158 2.66213,-2.243162 2.66213,-3.466705 0,-1.008495 -0.69334,-1.72779 -1.59802,-1.72779 -0.55615,0 -1.00108,0.311447 -1.25691,0.789741 -0.25583,-0.474586 -0.70446,-0.789741 -1.26062,-0.789741 -0.90468,0 -1.59802,0.719295 -1.59802,1.72779 0,1.223543 1.04557,2.428547 2.66213,3.466705 0.0593,0.03708 0.13719,0.07045 0.19651,0.07045 z"
       id="text5-7-4-3-4-7"
       style="font-weight:300;font-size:7.59338px;line-height:0;font-family:'SF Pro Rounded';-inkscape-font-specification:'SF Pro Rounded Light';letter-spacing:0px;word-spacing:0px;text-orientation:upright;fill:#ff0000;stroke-width:0.526494;stroke-linecap:round"
       inkscape:label="heart-bottom"
       transform="scale(-1.0050875,-0.99493825)"
       aria-label="♥" /></g></svg>
